<?xml version="1.0" encoding="UTF-8" standalone="no"?>
<!-- Created with Inkscape (http://www.inkscape.org/) -->

<svg
   version="1.1"
   id="svg2"
   width="32.914288"
   height="29.074286"
   viewBox="0 0 32.914288 29.074286"
   xmlns="http://www.w3.org/2000/svg"
   xmlns:svg="http://www.w3.org/2000/svg">
  <defs
     id="defs6" />
  <g
     id="g8">
    <path
       style="fill:#000000;stroke-width:0.274286"
       d="m 2.3302314,27.152349 c -0.093893,-0.151923 0.053108,-0.357565 0.3266697,-0.456982 0.5352612,-0.194523 2.724591,-1.653333 3.3247436,-2.215367 0.2013608,-0.188571 0.4687211,-0.342857 0.5941339,-0.342857 0.1254127,0 0.676667,-0.675911 1.2250097,-1.502024 C 8.7239049,21.244385 8.7852939,21.025916 8.6293251,19.686548 8.5366781,18.890947 8.1606479,17.543253 7.7937029,16.691673 7.1531012,15.205009 7.1439118,14.574675 7.7513809,13.788621 7.9422374,13.541656 8.1570687,13.529225 8.5548798,13.742131 10.587158,14.829773 10.20568,21.002001 7.898965,24.354697 6.862748,25.860787 4.830415,27.206796 3.9327661,26.9815 3.5494331,26.88529 3.291429,26.94284 3.291429,27.124555 c 0,0.379787 -0.7305977,0.400915 -0.9611974,0.0278 z m 8.2447006,-3.101657 c -1.1985557,-0.399519 -0.7858237,-0.86943 1.073415,-1.222124 2.011178,-0.381517 4.652375,-1.626951 5.724997,-2.699574 0.736491,-0.73649 1.384762,-2.454487 1.100025,-2.9152 -0.08976,-0.145236 -0.849483,-0.174517 -1.766504,-0.06808 -1.535052,0.178161 -1.623482,0.154985 -1.923829,-0.504206 -0.787064,-1.727418 0.904722,-4.254535 2.335567,-3.488769 0.339398,0.18164 0.830107,0.690868 1.090464,1.131617 0.260357,0.44075 0.642725,0.801363 0.849707,0.801363 0.206981,0 0.547558,0.171229 0.756837,0.380508 0.282748,0.282748 0.798687,0.3356 2.008163,0.205715 1.416206,-0.152086 1.63905,-0.255025 1.715362,-0.792378 0.05035,-0.354538 -0.275011,-1.155029 -0.763889,-1.879408 -0.942908,-1.397125 -0.913302,-2.007182 0.130604,-2.691175 0.644151,-0.4220634 0.682007,-0.4088316 1.090538,0.381181 0.232772,0.450132 0.4867,1.504457 0.564284,2.342945 0.1706,1.843765 -0.331505,3.079534 -1.664283,4.096093 -1.121901,0.855716 -2.153674,0.899511 -2.703344,0.114748 -0.627115,-0.895332 -1.164595,-0.460499 -1.348326,1.090825 -0.304439,2.570508 -1.556388,4.54545 -3.347576,5.280781 -1.122359,0.460759 -4.064954,0.720895 -4.922212,0.435143 z m 7.133596,-8.718358 c 0.268602,-0.434607 -0.842345,-1.454163 -1.365685,-1.253339 -0.668499,0.256527 -0.538743,1.222729 0.182872,1.361718 0.339429,0.06538 0.70243,0.135676 0.80667,0.15622 0.10424,0.02054 0.273504,-0.09853 0.376143,-0.264599 z m 12.605693,2.231092 c -0.09317,-0.150752 -0.08722,-0.712136 0.01322,-1.247519 0.204491,-1.090044 -0.274928,-4.831454 -0.860566,-6.7159069 -0.488948,-1.5733196 -0.633502,-7.2745153 -0.19555,-7.7124659 0.508707,-0.5087083 1.159757,-0.058975 1.728478,1.1939995 0.644215,1.4193073 0.698136,2.4041806 0.131627,2.4041806 -0.48242,0 -0.492055,0.1562324 -0.143803,2.3314286 0.382952,2.3919381 0.526824,7.7598841 0.236188,8.8124711 -0.271941,0.984894 -0.642751,1.365574 -0.909594,0.933812 z M 21.277614,6.6054762 C 20.713797,5.9824647 20.796492,4.972822 21.444606,4.5666427 c 0.36487,-0.2286671 0.618247,-0.1328821 1.207668,0.4565387 0.65105,0.6510503 0.706447,0.8325542 0.435561,1.4270839 -0.370652,0.8134933 -1.153721,0.8806349 -1.810221,0.1552109 z M 24.118531,6.4259013 23.492949,5.7600001 24.137145,5.0742858 c 0.354307,-0.3771429 0.741765,-0.6857143 0.861018,-0.6857143 0.400462,0 0.832883,1.1420969 0.673243,1.7781504 -0.230393,0.9179613 -0.838614,1.0194753 -1.552875,0.2591794 z M 22.648165,3.9575509 C 22.107678,3.4170641 22.104717,2.9330263 22.635616,1.906379 c 0.569411,-1.10111909 1.0505,-1.01642388 1.638955,0.2885365 0.477294,1.058448 0.477263,1.1174011 -8.5e-4,1.6457143 -0.597326,0.6600376 -1.049885,0.6925887 -1.625553,0.1169211 z"
       id="path328" />
  </g>
</svg>
