<?xml version="1.0" encoding="UTF-8" standalone="no"?>
<!-- Created with Inkscape (http://www.inkscape.org/) -->

<svg
   version="1.1"
   id="svg22"
   width="202.42287"
   height="33.188572"
   viewBox="0 0 202.42287 33.188572"
   xmlns="http://www.w3.org/2000/svg"
   xmlns:svg="http://www.w3.org/2000/svg">
  <defs
     id="defs26" />
  <g
     id="g28">
    <path
       style="fill:#000000;stroke-width:0.274286"
       d="M 9.5506764,30.584139 C 9.2805162,29.991201 9.3259785,29.824118 9.8907517,29.334293 10.24931,29.023316 10.944817,28.578051 11.436322,28.344818 c 0.491506,-0.233236 1.328547,-0.905445 1.860091,-1.493802 1.152614,-1.275806 1.252782,-2.371214 0.417735,-4.568244 -0.60632,-1.595245 -0.696671,-2.84185 -0.264497,-3.649375 0.337761,-0.631111 0.965692,-0.695002 1.186079,-0.120681 0.203917,0.531398 1.843435,1.528907 2.175558,1.323643 0.140668,-0.08694 0.365388,0.01203 0.499379,0.21993 0.171218,0.265659 0.304757,0.287678 0.449334,0.07409 0.113143,-0.167149 0.779762,-0.555937 1.481375,-0.863975 0.743887,-0.326598 1.351872,-0.800191 1.458483,-1.136094 0.232759,-0.733356 0.825466,-0.73377 1.597325,-0.0011 1.099384,1.043545 1.861793,1.178795 2.537442,0.450137 0.328898,-0.354701 0.739773,-0.909823 0.913055,-1.233604 0.173282,-0.323781 0.997678,-1.041789 1.831991,-1.595574 1.268703,-0.842118 1.677767,-0.980783 2.499793,-0.847386 1.692489,0.274653 2.095771,0.870131 1.937187,2.860405 -0.07527,0.944604 -0.02752,1.785031 0.106108,1.867616 0.39089,0.241582 0.279543,1.413437 -0.177749,1.87073 -0.293653,0.293653 -0.604278,0.351914 -1.028571,0.19292 -0.334327,-0.125281 -1.708649,-0.139039 -3.054054,-0.03057 -2.898205,0.233665 -4.251697,-0.04689 -5.399633,-1.119219 l -0.833111,-0.778242 -1.035208,1.08823 c -0.779477,0.8194 -1.248974,1.08823 -1.900535,1.08823 -0.47593,0 -0.865326,-0.138542 -0.865326,-0.307871 0,-0.21362 -0.104962,-0.221666 -0.342858,-0.02628 -0.188571,0.154874 -0.651428,0.324273 -1.028571,0.376442 -0.639592,0.08847 -0.697608,0.227994 -0.862545,2.074303 -0.198953,2.227084 -0.925121,3.966044 -2.239667,5.363349 -1.847218,1.96351 -3.244423,2.390038 -3.8042556,1.161339 z M 30.510313,19.296068 c 0.831566,-0.421518 1.278172,-1.60587 0.78974,-2.094302 -0.502993,-0.502992 -2.350398,-0.281127 -3.807555,0.45727 -1.452134,0.735852 -2.501802,1.940272 -1.908251,2.189586 0.581436,0.244225 4.142122,-0.155175 4.926066,-0.552554 z m 86.492147,9.895769 c -0.62238,-0.622379 -0.54082,-0.834205 0.4604,-1.19576 3.45962,-1.249305 6.46617,-3.373383 6.54335,-4.622764 0.0698,-1.129734 -0.12051,-2.202877 -0.63406,-3.575467 -0.56212,-1.50238 -0.52639,-2.775588 0.099,-3.52916 0.25738,-0.310121 0.47276,-0.204143 1.20109,0.591001 0.56806,0.62018 1.13739,0.968885 1.58189,0.968885 0.38194,0 0.73805,0.130836 0.79135,0.290748 0.0625,0.187596 0.38691,0.13954 0.91429,-0.135453 0.44955,-0.234411 0.95746,-0.426962 1.12868,-0.427891 0.17122,-9.33e-4 0.51442,-0.311668 0.76266,-0.690529 0.36583,-0.558328 0.59267,-0.654339 1.19726,-0.506746 0.41025,0.100152 1.04027,0.41013 1.40005,0.68884 0.96471,0.747345 1.47387,0.625819 2.18632,-0.521826 0.35119,-0.565715 1.2693,-1.491429 2.04024,-2.057143 2.91648,-2.140095 5.51064,-0.860612 4.66658,2.301635 -0.34748,1.30185 -0.002,1.745058 0.90048,1.15397 0.35018,-0.229447 0.76196,-0.339756 0.91507,-0.245132 0.1531,0.09462 0.55107,-0.141594 0.88438,-0.524929 0.72467,-0.833449 1.21043,-0.884213 1.59447,-0.16663 0.1561,0.291688 0.62225,0.569402 1.03588,0.617143 0.93055,0.107403 1.08679,0.747787 0.39183,1.60602 l -0.52508,0.648446 -0.873,-0.94669 c -0.85085,-0.922665 -0.88282,-0.932769 -1.25994,-0.398119 -0.21282,0.301714 -0.51945,0.702857 -0.6814,0.891429 -0.35287,0.410882 -1.54242,0.455234 -1.78269,0.06647 -0.10784,-0.174491 -0.3083,-0.138911 -0.54372,0.09651 -0.41798,0.417978 -4.08013,0.750661 -6.41576,0.582831 -1.56885,-0.112732 -3.2009,-0.976795 -3.48098,-1.842948 -0.2356,-0.728607 -0.78507,-0.574759 -1.12043,0.313715 -0.30645,0.811882 -1.12274,1.474244 -2.22067,1.801922 -0.50726,0.151391 -0.61714,0.07799 -0.61714,-0.412214 0,-0.458663 -0.11086,-0.551829 -0.48,-0.40341 -0.46739,0.187919 -1.09222,0.350812 -1.50858,0.393287 -0.11314,0.01154 -0.20571,0.522365 -0.20571,1.135162 0,1.602896 -0.7621,3.723437 -1.9855,5.524668 -0.8216,1.209647 -1.39749,1.722964 -2.53873,2.262857 -1.67819,0.793909 -3.18957,0.899605 -3.82189,0.267278 z m 23.37531,-11.463472 c 0.20877,-0.208775 0.39947,-0.796208 0.42377,-1.305406 0.0429,-0.898936 0.0109,-0.928239 -1.10329,-1.009267 -0.76554,-0.05567 -1.54156,0.114139 -2.33143,0.510177 -1.20916,0.606263 -2.69253,1.832617 -2.69253,2.226005 0,0.385619 5.28708,-0.0051 5.70348,-0.421509 z m 52.00337,10.680156 c -0.33806,-0.880984 0.0197,-1.643137 0.85316,-1.817423 1.71943,-0.35956 4.86714,-3.080099 5.23706,-4.52636 0.0793,-0.310109 -0.23909,-1.717556 -0.70757,-3.127662 -1.20096,-3.614787 -0.74362,-5.272914 0.91175,-3.305621 1.11527,1.325422 1.34407,5.409847 0.43037,7.682831 -0.72483,1.803162 -2.55642,4.220487 -3.67995,4.856808 -1.24645,0.705929 -2.81801,0.828474 -3.04482,0.237427 z M 72.558579,26.616767 c -0.33448,-0.369595 -0.430894,-0.758863 -0.308623,-1.246031 0.259131,-1.032464 0.913931,-1.154387 1.743651,-0.324667 0.624416,0.624417 0.672636,0.797209 0.393465,1.409924 -0.379935,0.833865 -1.157483,0.902232 -1.828493,0.160774 z m 24.885536,-0.100284 c -1.31898,-0.478939 -1.157376,-0.845267 0.476621,-1.080422 1.526916,-0.219744 4.248844,-1.298793 5.584584,-2.213888 0.81652,-0.559379 1.68348,-2.20658 1.40151,-2.662818 -0.0891,-0.144216 -0.74106,-0.263897 -1.44873,-0.265957 -2.70963,-0.0079 -3.32736,-0.757634 -2.23118,-2.70802 0.78356,-1.39416 1.90602,-1.918628 2.8219,-1.318525 1.16061,0.760465 1.68024,2.273891 1.61828,4.713248 -0.0485,1.909939 -0.15489,2.332856 -0.82785,3.291429 -0.4247,0.604944 -1.26041,1.362834 -1.85714,1.684199 -1.3294,0.715945 -4.286114,1.015328 -5.537995,0.560754 z m 6.510175,-8.521423 c 0,-0.359386 -0.55688,-0.71506 -1.11957,-0.71506 -0.13852,0 -0.25186,0.246857 -0.25186,0.548572 0,0.402286 0.18286,0.548571 0.68572,0.548571 0.40326,0 0.68571,-0.157385 0.68571,-0.382083 z m 84.96001,8.040113 c -1.03502,-0.60284 -0.28303,-2.407931 0.85292,-2.047392 0.75945,0.241037 0.945,0.940867 0.44983,1.696582 -0.47094,0.718753 -0.60777,0.755599 -1.30275,0.35081 z M 4.0338432,21.938454 C 3.1097762,21.211583 3.0650824,20.170677 3.8963237,18.735678 4.2290161,18.161341 4.5869653,17.629715 4.6917663,17.554286 5.1926505,17.193784 4.9906204,16.491386 4.1494831,15.668931 3.3305973,14.868233 3.2596445,14.68793 3.5299671,14.094637 4.0275494,13.002563 4.6511345,12.965089 5.5518244,13.973136 l 0.8032581,0.899002 0.7884546,-0.921783 C 7.5771872,13.443374 7.9370081,12.936 7.943139,12.822857 c 0.00613,-0.113142 0.1830846,-0.205714 0.3932303,-0.205714 0.4757039,0 0.8584216,0.912213 0.4410824,1.051326 -0.8824617,0.294154 -1.8740493,2.240103 -1.1414782,2.240103 0.3914395,0 0.8675532,1.345676 0.8537097,2.412906 -0.035983,2.77407 -2.7385181,4.967822 -4.45584,3.616976 z m 2.93801,-1.807799 c 0.7043191,-0.270273 0.54938,-1.82365 -0.2575058,-2.58168 -0.612714,-0.575615 -0.7378955,-0.602977 -1.100354,-0.240519 -0.5030397,0.50304 -0.9551485,1.995197 -0.7157401,2.362255 0.3383054,0.518686 1.3409599,0.741084 2.0735999,0.459944 z M 45.662332,21.011822 C 45.38431,20.58751 45.053297,20.401808 44.727053,20.487123 44.416745,20.56827 43.866495,20.299622 43.299618,19.790207 l -0.922472,-0.828965 -0.822858,0.791423 c -0.514741,0.495079 -1.255831,0.860458 -1.979163,0.975788 -1.057498,0.16861 -1.183634,0.124396 -1.476058,-0.51741 -0.449299,-0.986103 -0.147283,-1.559614 0.821308,-1.559614 0.766839,0 1.673913,-0.590463 1.673913,-1.089642 0,-0.125181 -0.432,-0.482487 -0.96,-0.794015 -0.683865,-0.403491 -0.96,-0.760677 -0.96,-1.241787 0,-1.116993 0.677801,-1.537413 2.478619,-1.537413 1.41707,0 1.736234,0.105059 2.586122,0.851271 0.53325,0.468199 0.969545,0.956918 0.969545,1.086042 0,0.129125 -0.339428,0.561654 -0.754285,0.961176 -0.414858,0.399522 -0.630858,0.775292 -0.480001,0.835045 0.932081,0.369188 2.057143,1.260364 2.057143,1.629489 0,0.473533 0.600352,0.375571 1.971498,-0.3217 1.164919,-0.592397 1.262743,-2.155234 0.352166,-5.626109 -0.979024,-3.7317751 -1.237053,-7.8683565 -0.534621,-8.570788 0.464859,-0.4648589 0.506937,-0.4642173 0.976701,0.014894 0.270004,0.2753741 0.739752,1.1384188 1.043882,1.9178768 0.485947,1.2454358 0.503564,1.4581951 0.145364,1.7554744 -0.305346,0.2534154 -0.368641,0.6891926 -0.252302,1.7370888 0.08541,0.769346 0.226091,2.710213 0.312614,4.313037 0.156807,2.904725 0.07113,3.382194 -0.978149,5.451489 -0.223162,0.440098 -1.87039,1.645714 -2.248534,1.645714 -0.125072,0 -0.421045,-0.295537 -0.657718,-0.656749 z m 8.740811,0.233282 c -0.08937,-0.232907 -0.04238,-1.030958 0.104426,-1.773446 0.283145,-1.432027 -0.208803,-5.564685 -0.80705,-6.779674 -0.427386,-0.867983 -0.444529,-7.0826762 -0.02071,-7.5085026 0.462051,-0.4642426 0.929717,-0.024935 1.83882,1.7273223 l 0.737055,1.4206404 -0.58383,0.7896705 c -0.552769,0.7476612 -0.565649,0.8944884 -0.242082,2.7599924 0.341409,1.968397 0.400262,7.607675 0.09427,9.033179 -0.175093,0.81569 -0.857544,1.017107 -1.120899,0.330818 z m -21.4365,-0.473449 c -0.350186,-0.421946 -0.170943,-1.286801 0.339067,-1.636026 0.161861,-0.110833 1.061379,-0.203404 1.998929,-0.205714 1.457631,-0.0036 1.749657,0.07992 2.015347,0.576371 0.493668,0.922426 -0.251504,1.430567 -2.288048,1.560244 -1.293413,0.08236 -1.813892,0.008 -2.065295,-0.294875 z m 37.415501,0.11913 c -0.07791,-0.126069 -0.04782,-0.580109 0.06688,-1.00898 0.150185,-0.561564 0.473121,-0.86843 1.154046,-1.096621 0.52003,-0.174272 1.085497,-0.594621 1.256596,-0.934111 0.612692,-1.215673 0.868499,-1.25296 1.370719,-0.199793 0.369131,0.774077 0.639053,1.000149 1.194136,1.000149 0.394461,0 0.865313,0.148114 1.046342,0.329143 0.255999,0.256 0.329143,0.247555 0.329143,-0.038 0,-0.297036 0.746364,-0.336354 3.908572,-0.205898 2.149714,0.08869 4.155428,0.0606 4.457143,-0.06242 0.493341,-0.201144 0.451921,-0.265483 -0.411429,-0.639061 -0.528,-0.22847 -1.693311,-0.86214 -2.589578,-1.408155 -2.04723,-1.247193 -3.409361,-1.335772 -4.243039,-0.275924 -0.343625,0.436848 -0.726363,0.654475 -0.979907,0.55718 -1.44646,-0.555059 0.776204,-2.500514 3.522964,-3.083584 2.163352,-0.459227 9.342981,-1.032412 10.20906,-0.81504 0.549192,0.137838 0.663358,0.337823 0.663358,1.162006 v 0.995515 l -2.262858,-0.173878 c -1.244571,-0.09563 -3.188571,-0.247978 -4.32,-0.338545 l -2.057143,-0.164666 1.234286,0.748253 c 0.678857,0.41154 1.542857,1.032648 1.92,1.380242 0.377143,0.347593 1.302857,0.902991 2.057143,1.234216 2.363114,1.037701 2.281237,1.621469 -0.227416,1.621469 -0.936985,0 -2.626842,0.258546 -3.75524,0.574547 -1.281993,0.359015 -2.971798,0.590526 -4.504532,0.617143 -2.397476,0.04163 -2.457287,0.0271 -2.646945,-0.643119 l -0.194043,-0.685714 -0.02735,0.754286 c -0.02337,0.644926 -0.143802,0.754286 -0.830605,0.754286 -0.866965,0 -1.526617,-0.502361 -1.802965,-1.373053 -0.237935,-0.749663 -0.639706,-0.686566 -0.845344,0.132759 -0.239857,0.955672 -2.290595,1.934849 -2.692002,1.285364 z m 86.766526,-0.04507 c -0.019,-0.07543 -0.0695,-1.68 -0.11219,-3.565715 -0.0505,-2.229782 -0.2549,-4.099893 -0.5845,-5.348571 -0.3383,-1.281601 -0.5091,-2.8959917 -0.51368,-4.8553144 -0.009,-3.9075517 0.31176,-4.2256592 1.62735,-1.6132331 1.03024,2.0457712 1.04821,2.4914044 0.10047,2.4914044 -0.45924,0 -0.52865,0.1149608 -0.3726,0.6171428 0.64696,2.0819153 1.10222,7.8493643 0.79964,10.1302913 -0.14399,1.085494 -0.82301,2.626855 -0.94449,2.143995 z M 64.310514,19.901159 c -0.625863,-0.625861 -0.704808,-0.877997 -0.546361,-1.744935 0.101864,-0.557352 0.422161,-1.260224 0.711774,-1.561938 1.594464,-1.661097 1.872217,-2.203881 1.644478,-3.213649 -0.121822,-0.540137 -0.117403,-1.148888 0.0098,-1.352781 0.468776,-0.751295 1.19387,0.200279 1.791292,2.350798 0.370716,1.334453 0.912334,2.519278 1.467357,3.209927 0.657861,0.818619 0.837348,1.263654 0.711643,1.764501 -0.189905,0.756637 -0.746198,0.87117 -1.254795,0.258347 -0.456321,-0.549834 -0.810648,-0.518521 -1.504078,0.132923 -0.31869,0.299393 -0.966465,0.621757 -1.439498,0.716363 -0.698669,0.139734 -0.997339,0.03473 -1.591628,-0.559556 z m 2.455628,-1.690504 c 0.528041,-0.202628 0.571768,-1.297604 0.0685,-1.715279 -0.690059,-0.572698 -1.843258,0.934865 -1.204065,1.574058 0.351938,0.351936 0.529048,0.373962 1.135562,0.141221 z m 47.336718,1.812202 c -0.88828,-0.888288 -0.65635,-2.529689 0.62436,-4.418494 0.57625,-0.849873 0.41685,-1.428249 -0.51,-1.850552 -0.91432,-0.416592 -1.10563,-1.044521 -0.51654,-1.695455 0.64145,-0.708798 0.90957,-0.680449 1.82075,0.192518 l 0.76287,0.730874 0.57607,-0.732354 c 1.20257,-1.528825 1.38543,-1.641147 1.87493,-1.151656 0.40351,0.403514 0.36635,0.49724 -0.45062,1.136614 -1.04299,0.816264 -1.07028,1.01109 -0.34182,2.439934 0.30172,0.591795 0.54858,1.484346 0.54858,1.983446 0,1.247424 -1.19306,3.044305 -2.3393,3.523231 -1.21783,0.508844 -1.39608,0.495092 -2.04928,-0.158106 z m 3.2362,-2.483192 c 0.0774,-0.921147 -0.72678,-2.45395 -1.28748,-2.45395 -0.24196,0 -1.40014,2.244318 -1.40014,2.713167 0,0.421224 1.05311,0.84502 1.92,0.772649 0.57428,-0.04794 0.69902,-0.215627 0.76762,-1.031866 z m 51.07238,2.557554 c -1.04518,-0.397864 -1.10212,-2.044401 -0.13714,-3.965635 0.86033,-1.712881 0.85632,-1.972973 -0.0404,-2.626198 -0.59016,-0.429901 -0.69134,-0.667492 -0.5404,-1.268908 0.26664,-1.06237 0.89829,-1.183405 1.7779,-0.340678 0.93253,0.893414 1.08135,0.89643 1.41129,0.0286 0.3085,-0.811406 1.00103,-1.156129 1.44024,-0.716914 0.22901,0.229007 0.10209,0.524764 -0.49073,1.14354 -0.66863,0.697888 -0.7454,0.911655 -0.46858,1.304666 0.1821,0.258512 0.52652,0.902023 0.7654,1.430023 0.40042,0.885047 0.39647,1.086049 -0.0506,2.574454 -0.63681,2.119974 -2.04367,3.054972 -3.66694,2.43705 z m 2.3467,-2.000167 c 0.64716,-0.24605 0.7156,-0.385537 0.56317,-1.147716 -0.16826,-0.841302 -0.86775,-1.863621 -1.27512,-1.863621 -0.39588,0 -1.19095,1.522573 -1.1378,2.17892 0.0844,1.042634 0.63965,1.292494 1.84975,0.832417 z M 148.02287,19.84 c -0.10057,-0.100571 -0.18286,-0.517597 -0.18286,-0.926723 0,-0.562291 0.19424,-0.824325 0.79576,-1.073483 0.43767,-0.181289 1.07315,-0.62488 1.41218,-0.985757 0.57657,-0.613733 0.60567,-0.82061 0.45025,-3.200803 -0.0914,-1.399564 -0.4164,-3.9918909 -0.72225,-5.7607261 -0.60581,-3.5035551 -0.48189,-4.6010793 0.51952,-4.6010793 1.21377,0 1.43069,0.9747969 1.47774,6.6408778 0.0364,4.3837466 -0.0387,5.5473166 -0.43851,6.7885956 -0.69373,2.154062 -2.53899,3.891939 -3.31183,3.119098 z m 28.30048,-0.16 c -0.5905,-0.480314 -1.11382,-1.930094 -1.00726,-2.790472 0.10688,-0.862978 0.60088,-0.967634 0.72779,-0.154186 0.0499,0.320088 0.41411,0.69913 0.82286,0.856468 1.05102,0.404565 4.56229,0.03321 5.29486,-0.559992 0.52434,-0.424579 0.55414,-0.577575 0.27605,-1.416756 -0.17147,-0.517427 -0.81144,-1.675882 -1.42216,-2.574344 -0.80993,-1.191542 -1.08827,-1.858904 -1.02865,-2.466325 0.10062,-1.0250904 0.8229,-1.2362562 1.50474,-0.439927 0.6014,0.702388 1.43728,3.154911 1.45379,4.265534 0.007,0.452572 0.29111,1.316572 0.63195,1.92 0.57192,1.012522 0.72086,1.10364 1.93111,1.181381 l 1.3114,0.08424 -0.0842,0.991703 c -0.0463,0.545436 -0.21608,1.034917 -0.37726,1.087735 -0.16119,0.05282 -0.8276,-0.307926 -1.48093,-0.801655 -0.65332,-0.493728 -1.35009,-1.017653 -1.54838,-1.164277 -0.2561,-0.189369 -0.58191,-0.05847 -1.1248,0.451915 -1.76368,1.658087 -4.76338,2.437969 -5.88092,1.52896 z m 11.28809,-0.90946 c 0,-1.200865 0.47442,-1.764825 1.48464,-1.764825 1.67277,0 1.82387,-1.067167 0.42853,-3.026737 -0.71415,-1.00293 -0.68371,-1.407123 0.16608,-2.205452 0.67667,-0.635695 0.72398,-0.642851 1.07514,-0.162615 0.52527,0.718332 1.05351,3.120411 0.81009,3.683706 -0.11332,0.262246 -0.17892,0.754018 -0.14578,1.092825 0.0827,0.845092 -0.87297,2.105212 -2.00332,2.6416 -1.35186,0.6415 -1.81538,0.575497 -1.81538,-0.258502 z M 91.520007,16.548572 c -0.306739,-0.30674 -0.203871,-1.37901 0.159999,-1.667794 0.188571,-0.149659 0.784271,-0.351485 1.323777,-0.448503 0.539503,-0.09702 1.18803,-0.329111 1.441166,-0.515764 0.423187,-0.312041 0.392642,-0.482041 -0.379338,-2.111183 -0.722556,-1.524849 -0.792721,-1.8593751 -0.503388,-2.3999999 0.494329,-0.9236594 1.241733,-0.7823773 1.771941,0.3349495 0.614243,1.2944234 0.434414,3.9647014 -0.337147,5.0062654 -1.032351,1.393619 -2.91151,2.367529 -3.47701,1.802029 z M 143.88059,13.01713 c -0.399,-0.608954 -0.42206,-0.852058 -0.14443,-1.522333 0.40078,-0.967567 0.54309,-0.982554 1.33416,-0.140506 0.79209,0.843143 0.71164,2.183814 -0.13832,2.305185 -0.37796,0.05397 -0.74015,-0.167308 -1.05141,-0.642346 z m 52.95821,-1.670285 c -0.82823,-0.828235 -0.90256,-1.257616 -0.30372,-1.7546047 0.65497,-0.5435788 1.7735,0.1613234 1.7735,1.1176667 0,1.217128 -0.62063,1.486083 -1.46978,0.636938 z M 82.274756,10.469134 C 81.647341,9.9610844 81.642245,9.2005886 82.25989,8.2502596 c 0.216683,-0.3333984 0.350521,-0.326039 0.925813,0.050907 0.786276,0.5151878 1.027902,1.2138065 0.713637,2.0633484 -0.273164,0.738433 -0.79996,0.772357 -1.624581,0.104619 z M 7.4172312,9.8958047 c -0.55728,-1.0412873 -0.2078101,-2.764376 0.5606598,-2.764376 0.3183571,0 1.1263406,1.9353455 0.9738674,2.332684 C 8.872763,9.6699715 8.5594837,9.971473 8.255582,10.134116 7.8054305,10.37503 7.6500693,10.330867 7.4172312,9.8958047 Z M 4.0969881,9.7163003 C 3.7990667,9.357327 3.8129527,9.1608879 4.1788797,8.5578082 4.7602659,7.5996339 5.1054471,7.5180352 5.4953632,8.2465998 5.7299647,8.6849572 5.73655,9.0218684 5.519813,9.4975525 5.1772027,10.2495 4.6116634,10.336447 4.0969873,9.7163003 Z M 64.227337,9.6444753 C 63.476995,8.894133 63.468915,7.9146834 64.207561,7.2462236 c 0.566082,-0.5122969 0.5803,-0.5091393 1.134725,0.2519635 l 0.561463,0.7707615 0.588285,-1.0487599 c 0.323551,-0.576818 0.720642,-1.04876 0.882419,-1.04876 0.161779,0 0.634362,0.4043303 1.050188,0.8985117 0.684943,0.8140093 0.724624,0.9743759 0.421922,1.7051649 -0.441067,1.0648271 -1.246025,1.3005467 -2.146189,0.6284786 -0.70754,-0.5282557 -0.708365,-0.5281583 -1.29399,0.1526729 l -0.586,0.6812652 z M 117.28673,7.9132799 c -0.54367,-0.7761916 -0.558,-1.3398641 -0.0517,-2.0322841 0.3814,-0.521587 0.40373,-0.5188894 1.09714,0.1325304 0.87585,0.8228097 0.88417,1.1308886 0.0517,1.912972 l -0.65613,0.6164075 z m -2.99169,-0.2379481 c -0.2232,-0.3186654 -0.34442,-0.8142205 -0.26936,-1.1012333 0.13432,-0.513625 0.84048,-1.2691785 0.98969,-1.0588987 1.00826,1.4210132 1.02431,1.6928643 0.14078,2.3835904 -0.38587,0.3016649 -0.51716,0.2675948 -0.86111,-0.2234584 z m 57.03803,0.050674 c -0.57529,-0.6356898 -0.58059,-1.518709 -0.012,-1.9906385 0.37479,-0.3110435 0.49851,-0.2875902 0.82286,0.1559819 0.84485,1.1553979 0.0998,2.8410002 -0.8109,1.8346566 z m -3.01306,0.045423 c -0.34099,-0.3409936 -0.18508,-1.66813 0.23715,-2.0185435 0.34727,-0.2882175 0.48824,-0.2584141 0.81413,0.1721294 0.48832,0.6451318 0.49394,0.9377911 0.0298,1.5492713 -0.38025,0.5009163 -0.77011,0.6080753 -1.08104,0.2971428 z M 93.436803,3.6126882 C 92.620216,2.7103698 92.997803,1.92 94.245463,1.92 c 0.618687,0 1.090555,1.2609365 0.664142,1.7747345 -0.46077,0.555193 -0.919222,0.5296537 -1.472802,-0.082046 z"
       id="path50" />
  </g>
</svg>
