<?xml version="1.0" encoding="UTF-8" standalone="no"?>
<!-- Created with Inkscape (http://www.inkscape.org/) -->

<svg
   version="1.1"
   id="svg12"
   width="29.348572"
   height="21.942858"
   viewBox="0 0 29.348572 21.942858"
   xmlns="http://www.w3.org/2000/svg"
   xmlns:svg="http://www.w3.org/2000/svg">
  <defs
     id="defs16" />
  <g
     id="g18">
    <path
       style="fill:#000000;stroke-width:0.274286"
       d="m 2.4685715,19.777437 c -0.4247663,-0.118154 -0.6857143,-0.38962 -0.6857143,-0.713354 0,-0.505307 0.7796309,-0.837595 3.4904937,-1.487691 C 6.5413546,17.27231 9.0104677,15.087773 9.3247501,13.991935 9.5580679,13.178403 9.2899923,11.237591 8.6145338,8.8501158 8.5191886,8.5131078 8.5191222,7.9268221 8.6143865,7.5472586 8.8363391,6.6629285 9.9874562,6.5946942 10.489104,7.4361315 c 0.18985,0.3184435 0.856589,0.8021286 1.481642,1.0748555 1.355734,0.5915422 2.98311,0.3509824 3.711996,-0.5487097 l 0.459885,-0.5676532 0.745881,0.6912596 c 0.410235,0.3801926 0.951125,0.6912595 1.201977,0.6912595 0.250853,0 0.672111,0.1579546 0.936131,0.35101 0.392003,0.2866399 0.428012,0.487841 0.196356,1.0971428 -0.378722,0.996113 -1.217101,0.96373 -1.986342,-0.07672 -0.726293,-0.9823636 -1.104439,-1.0356408 -1.468732,-0.2069307 -0.148915,0.3387597 -0.619137,0.7817867 -1.044939,0.9845037 -0.678438,0.322994 -0.839565,0.309407 -1.302857,-0.109866 -0.29077,-0.263144 -0.528673,-0.361876 -0.528673,-0.219406 0,0.142471 -0.325583,0.254173 -0.723517,0.248226 -0.671274,-0.01003 -0.756673,0.127826 -1.182692,1.909187 -0.541668,2.264939 -0.840378,2.864482 -2.2799642,4.576125 -2.0743289,2.466342 -3.7722493,3.132538 -6.2366843,2.447026 z M 20.064356,10.610004 c -0.196842,-0.237181 -0.317563,-0.7157458 -0.268268,-1.0634778 0.07218,-0.5091503 0.28463,-0.6485009 1.091246,-0.7157621 l 1.001618,-0.083522 -0.658761,-0.7108158 c -1.212152,-1.3079332 -0.766779,-3.1787486 1.02648,-4.3117944 1.202213,-0.7596014 3.800472,0.1536636 3.800472,1.3358324 0,0.6251567 -0.08018,0.6554375 -1.615422,0.6100992 -1.249416,-0.036898 -1.746575,0.070679 -2.194285,0.4748048 -0.729364,0.658359 -0.727472,0.9973953 0.01,1.7889595 0.50263,0.5395104 0.766347,0.6077239 1.80115,0.465888 0.666768,-0.09139 1.478393,-0.3525402 1.803613,-0.5803329 0.325218,-0.2277926 0.818151,-0.4141684 1.095405,-0.4141684 0.414791,0 0.489018,0.1822253 0.41897,1.0285714 -0.07632,0.9221772 -0.219103,1.0950367 -1.380334,1.6711271 -1.702099,0.844416 -5.389516,1.158084 -5.931868,0.504591 z M 17.711021,4.7804082 c -0.537391,-0.537391 -0.544812,-2.0012248 -0.0137,-2.7032422 0.478108,-0.6319621 0.472652,-0.6370048 1.087961,1.0055123 0.394407,1.05284 0.42157,1.3785746 0.142955,1.7142858 -0.435613,0.5248811 -0.679088,0.5215697 -1.217214,-0.016556 z M 14.410002,4.3996239 c -0.585579,-0.6470584 -0.408655,-1.6449811 0.377751,-2.1306657 0.647971,-0.400187 1.286555,0.083045 1.562464,1.1823552 0.331067,1.319076 -1.01103,1.9750473 -1.940215,0.9483105 z"
       id="path189" />
  </g>
</svg>
