<?xml version="1.0" encoding="UTF-8" standalone="no"?>
<!-- Created with Inkscape (http://www.inkscape.org/) -->

<svg
   version="1.1"
   id="svg2"
   width="125.33333"
   height="88"
   viewBox="0 0 125.33333 88"
   xmlns="http://www.w3.org/2000/svg"
   xmlns:svg="http://www.w3.org/2000/svg">
  <defs
     id="defs6" />
  <g
     id="g8">
    <path
       style="fill:#000000;stroke-width:1.33333"
       d="M 10.902234,75.232373 C 11.139339,74.076845 14.333333,71.929881 18,70.461344 39.213891,61.96496 42.643598,57.138273 35.224816,46.220556 c -3.752574,-5.522409 -3.487888,-8.887223 0.699096,-8.887223 3.166727,0 6.742754,6.156982 6.742754,11.609256 0,11.611115 -6.618052,21.648246 -16.857576,25.566688 -9.010129,3.44798 -15.530882,3.764287 -14.906856,0.723096 z m 35.771433,0.798159 c -3.332192,-0.815553 -5.575101,-5.363865 -2.645083,-5.363865 0.856597,0 5.625259,-1.235559 10.597027,-2.745687 7.655998,-2.325439 9.413385,-3.439807 11.481841,-7.280697 2.952642,-5.482724 2.322261,-6.407455 -2.998759,-4.398995 -2.226835,0.840537 -5.037269,1.148933 -6.245409,0.685327 -2.825421,-1.084216 -2.841616,-5.766483 -0.0254,-7.342518 1.48446,-0.830746 1.695328,-1.509196 0.666666,-2.144942 -2.380594,-1.47129 -1.750351,-7.213784 0.950347,-8.659155 1.866903,-0.999136 3.583143,-0.547165 7.165316,1.886985 2.590728,1.760444 5.07712,4.15643 5.525316,5.324411 0.663038,1.727849 1.345674,1.839541 3.663016,0.599337 1.772238,-0.948473 5.474085,-1.19617 9.799717,-0.655718 5.355864,0.66917 7.334249,0.407484 8.618546,-1.139999 1.372521,-1.653788 1.03216,-2.840788 -1.927046,-6.720508 -2.98282,-3.910679 -3.246584,-4.845276 -1.551066,-5.495907 2.904718,-1.114645 7.499695,1.691064 8.92982,5.45258 1.910784,5.025751 -0.740247,10.471114 -6.739228,13.84273 -6.770778,3.805392 -12.197715,3.314621 -13.349683,-1.207244 l -0.849183,-3.333334 -0.536879,3.333334 c -0.384816,2.389221 -1.383506,3.34405 -3.526029,3.37117 -3.368539,0.04264 -3.550937,0.336616 -2.273811,3.664756 1.091063,2.843263 -4.689535,11.752622 -9.796453,15.098803 -4.435945,2.906543 -10.709257,4.263041 -14.933583,3.229136 z M 63.333332,49.333333 C 62.880106,48.6 61.944697,48 61.254642,48 c -0.690054,0 -1.254644,0.6 -1.254644,1.333333 0,0.733334 0.935411,1.333334 2.07869,1.333334 1.143278,0 1.707869,-0.6 1.254644,-1.333334 z m 45.333328,-3.66549 c 0,-6.417314 -0.51326,-17.212396 -1.14059,-23.989072 -0.99639,-10.763516 -0.86957,-12.4252307 1.00313,-13.1438522 1.34055,-0.514416 3.12503,0.3552619 4.7629,2.3212302 3.20348,3.845203 3.29075,4.956494 0.6209,7.906646 -1.74994,1.933664 -1.84104,3.219494 -0.56409,7.961724 2.34488,8.708216 2.10648,21.261354 -0.499,26.275481 -1.23845,2.383333 -2.68632,4.333863 -3.21749,4.334509 -0.53116,6.46e-4 -0.96576,-5.249354 -0.96576,-11.666666 z M 79.544641,26.402715 c -1.071627,-4.097906 1.35091,-6.730831 4.595363,-4.994452 3.068023,1.641956 3.323819,6.000536 0.417611,7.115752 -3.411522,1.309124 -4.203542,0.973972 -5.012974,-2.1213 z m 16.436674,0.908108 c -1.464527,-1.764647 -1.389483,-2.474087 0.457029,-4.320598 2.596317,-2.596317 5.427276,-0.729228 4.686696,3.090994 -0.62345,3.215973 -3.019771,3.788812 -5.143725,1.229604 z M 89.370186,19.37774 c -1.35533,-1.633072 -1.362744,-2.446807 -0.03686,-4.044407 2.756981,-3.321958 5.564802,-2.459045 5.088562,1.563842 -0.501678,4.237785 -2.698209,5.316358 -5.051707,2.480565 z"
       id="path775" />
  </g>
</svg>
