<?xml version="1.0" encoding="UTF-8" standalone="no"?>
<!-- Created with Inkscape (http://www.inkscape.org/) -->

<svg
   version="1.1"
   id="svg12"
   width="120"
   height="72"
   viewBox="0 0 120 72"
   xmlns="http://www.w3.org/2000/svg"
   xmlns:svg="http://www.w3.org/2000/svg">
  <defs
     id="defs16" />
  <g
     id="g18">
    <path
       style="fill:#000000;stroke-width:1.33333"
       d="M 8.0111456,64.113856 C 5.2535749,62.261272 7.1559688,60.945049 16.666667,58.125301 33.378117,53.170661 37.988672,46.296116 31.978708,35.294356 26.624409,25.492848 30.964331,22.232393 39.855,29.377131 c 3.176264,2.552514 5.847692,3.730773 7.243911,3.194994 1.362046,-0.522666 2.514262,-0.06097 2.99876,1.201606 1.31621,3.429989 8.91454,-1.669476 10.740925,-7.208556 1.795081,-5.444144 5.17856,-6.667878 6.281852,-2.272014 1.413155,5.630455 5.806952,9.036884 11.374853,8.818711 2.79345,-0.109453 5.653428,0.156003 6.35551,0.589913 C 86.763752,34.884047 90.359921,32.245335 88.532939,31 85.847617,29.169592 84.297583,24.713009 85.364844,21.891251 86.722635,18.301356 94.224323,11.99364 97.1023,12.021934 100.6314,12.056629 110,17.882533 110,20.04242 c 0,2.124149 -3.31589,2.396725 -11.736341,0.96476 -3.842011,-0.653364 -5.254739,-0.379871 -5.833902,1.1294 -1.171474,3.052815 3.329283,5.491715 11.930153,6.464793 8.37797,0.947859 10.90607,3.37074 7.29011,6.986702 -2.16668,2.16668 -20.515272,7.050594 -26.554781,7.068188 -1.964287,0.0057 -4.381356,-0.799524 -5.371268,-1.789435 -1.510896,-1.510896 -2.069752,-1.510896 -3.48114,0 -2.834086,3.033899 -6.872606,2.082636 -9.304844,-2.191731 -2.437683,-4.283932 -4.27132,-5.187017 -4.27132,-2.103669 0,1.04762 -0.944654,2.849415 -2.099228,4.003991 -1.994159,1.994158 -4.177975,2.055444 -15.749584,0.441986 -1.801739,-0.25122 -2.950088,0.912906 -4.047199,4.102796 -0.842445,2.449444 -2.493512,4.991782 -3.669036,5.649638 -1.175524,0.657856 -2.483549,2.5756 -2.906721,4.261652 -1.29395,5.155506 -8.556728,9.452801 -16.840582,9.964358 -4.044874,0.249786 -8.2493015,-0.147112 -9.3431714,-0.881993 z M 69.473589,15.502331 c -1.789404,-2.1561 -0.593056,-6.1689977 1.839136,-6.1689977 0.93175,0 2.441023,0.8999997 3.353942,1.9999997 1.324248,1.595621 1.324248,2.404379 0,4 -2.057215,2.478792 -3.244064,2.517415 -5.193078,0.168998 z M 56,14 c -1.324248,-1.595621 -1.324248,-2.404379 0,-4 2.135015,-2.5725348 5.200551,-2.5641271 6.191013,0.01698 C 62.957177,12.013568 60.608936,16 58.666667,16 58.112919,16 56.912919,15.1 56,14 Z"
       id="path636" />
  </g>
</svg>
