<?xml version="1.0" encoding="UTF-8" standalone="no"?>
<!-- Created with Inkscape (http://www.inkscape.org/) -->

<svg
   version="1.1"
   id="svg22"
   width="645.33331"
   height="94.666664"
   viewBox="0 0 645.33331 94.666664"
   xmlns="http://www.w3.org/2000/svg"
   xmlns:svg="http://www.w3.org/2000/svg">
  <defs
     id="defs26" />
  <g
     id="g28">
    <path
       style="fill:#000000;stroke-width:1.33333"
       d="m 619.05356,85.751783 c -0.5618,-1.464041 0.0341,-2.742971 1.70851,-3.666667 1.41419,-0.780149 5.12124,-3.978988 8.23791,-7.10853 7.39741,-7.427977 7.67632,-12.293658 1.03012,-17.970701 -3.77794,-3.227028 -4.39144,-4.418406 -3.31299,-6.433509 1.80479,-3.372277 4.3856,-2.059436 8.66564,4.408157 3.07057,4.639951 3.49287,6.39122 2.85001,11.819125 -0.9457,7.98502 -6.17009,16.040725 -12.29812,18.962976 -5.77425,2.753549 -5.8203,2.753477 -6.88108,-0.0108 z M 373.33332,85.395887 c 0,-0.698927 2.04901,-2.243095 4.55335,-3.431483 4.47392,-2.123009 9.69006,-8.434465 12.8858,-15.591587 1.87016,-4.188389 0.21586,-7.14292 -5.13952,-9.179033 -2.40551,-0.914571 -3.04428,-2.031428 -2.72147,-4.758273 0.54163,-4.574998 2.48024,-5.15484 6.06587,-1.814315 1.57118,1.463779 5.21309,3.190862 8.09312,3.837964 4.91644,1.104649 5.37716,0.938302 7.53945,-2.722169 2.18065,-3.691562 2.45589,-3.787151 5.17988,-1.799015 5.35737,3.910137 6.51293,3.939912 9.21008,0.237316 2.85009,-3.912552 10.1257,-7.508627 15.19152,-7.508627 4.22474,0 7.07452,5.66672 4.73428,9.414034 -2.3812,3.812926 -2.14072,3.978387 4.9745,3.422618 8.11844,-0.634131 14.05312,-4.63515 16.1072,-10.859088 1.93814,-5.872581 3.44598,-5.866854 5.90667,0.02244 1.07243,2.566667 2.43048,4.68575 3.01789,4.709071 2.09488,0.08317 5.3621,3.349785 6.2972,6.296046 1.36452,4.299208 -3.17066,3.993866 -8.60568,-0.579397 -3.81053,-3.206353 -4.37628,-3.344682 -5.49601,-1.343829 -0.68652,1.226746 -4.42895,3.735173 -8.31651,5.57428 -9.35066,4.423574 -27.59121,4.746257 -36.62322,0.64788 -7.25808,-3.293432 -8.20029,-3.283007 -14.81335,0.163905 -3.49748,1.822985 -5.37438,3.714392 -5.37438,5.415897 0,5.026367 -6.75003,17.090769 -10.7072,19.137101 -4.27827,2.212376 -11.95947,2.667273 -11.95947,0.708264 z M 433.8642,52.962043 c 2.96862,-4.791623 -4.97424,-5.752804 -10.19755,-1.234023 -3.72423,3.221902 -2.7418,4.455585 3.19755,4.015309 3.53142,-0.261781 6.06196,-1.267228 7,-2.781286 z M 30.888888,84.106579 c 0.244444,-0.674715 3.402653,-3.224715 7.018243,-5.666667 7.484766,-5.055178 12.153546,-12.693759 10.874169,-17.791204 -0.457659,-1.823458 -1.627683,-3.315376 -2.600054,-3.315376 -2.779609,0 -6.339266,-4.703444 -5.404075,-7.140509 1.071445,-2.792143 4.333267,-2.807839 7.396565,-0.0356 1.311042,1.186477 4.354663,2.560333 6.763603,3.053013 4.928494,1.007985 6.676351,4.940972 2.827868,6.3632 -3.082485,1.139148 -4.385596,3.043336 -4.411458,6.446301 -0.02862,3.766226 -4.897104,12.740246 -8.850256,16.313594 -2.28468,2.065176 -4.992228,3 -8.688957,3 -2.953551,0 -5.170093,-0.552039 -4.925648,-1.226752 z M 302.66666,83.544111 c 0,-1.1675 2.49512,-3.202408 5.66666,-4.621481 6.40696,-2.86672 8.81824,-5.286497 12.87728,-12.922632 l 2.83497,-5.333333 -3.02278,-0.373273 c -7.93153,-0.979434 -9.0228,-1.62715 -9.0228,-5.355455 0,-5.049094 3.59661,-9.85512 6.99497,-9.347136 4.91945,0.735355 7.80901,6.441328 8.01709,15.831187 0.30606,13.812139 -5.39666,20.653315 -19.40741,23.281747 -3.98565,0.747713 -4.93798,0.524071 -4.93798,-1.159624 z m 16.80556,-31.183002 c -1.35536,-1.355353 -2.47367,0.68519 -1.36163,2.484509 0.84004,1.359223 1.15411,1.360275 1.60573,0.0053 0.3088,-0.92638 0.19895,-2.046828 -0.2441,-2.489884 z m -85.70836,20.170989 c -0.45051,-1.174011 -0.001,-2.639689 0.99712,-3.257063 2.10565,-1.301358 5.23901,0.824763 5.23901,3.55489 0,2.559273 -5.23572,2.309225 -6.23613,-0.297827 z m 372.52918,-2.249183 c -1.0572,-2.755009 1.0072,-5.279871 3.86671,-4.729181 3.54247,0.682217 3.28165,5.669053 -0.3234,6.183427 -1.55667,0.222106 -3.15116,-0.432304 -3.54331,-1.454246 z m -41.10785,-6.559691 c -2.96125,-5.533144 -0.4142,-18.389892 3.64322,-18.389892 2.28629,0 2.37249,3.180708 0.18129,6.689367 -2.57659,4.12577 0.17891,7.310633 6.32504,7.310633 3.98235,0 5.63573,-0.792598 7.85468,-3.765348 l 2.81056,-3.765347 -3.58577,-6.423784 c -3.09068,-5.536857 -3.34071,-6.758905 -1.81095,-8.850989 2.37971,-3.254437 5.02751,-1.039966 7.41832,6.204239 1.65985,5.02942 7.87811,11.934562 10.74737,11.934562 0.67707,0 1.23103,1.2 1.23103,2.666667 0,1.908556 -0.88889,2.666666 -3.12668,2.666666 -1.71968,0 -4.21267,-1.2 -5.53999,-2.666666 -3.036,-3.354738 -4.66666,-3.396154 -4.66666,-0.11852 0,1.401478 -1.84604,4.101478 -4.10231,6 -5.51257,4.638525 -15.01993,4.916657 -17.37915,0.508417 z M 88.925562,60.36064 C 86.103992,60.065668 83.519068,58.964817 83.103185,57.881042 82.54898,56.436808 81.90233,56.30782 80.606733,57.38307 c -1.285085,1.066526 -2.900568,0.855383 -6.095237,-0.796645 -3.404085,-1.760321 -4.877167,-1.916515 -6.792705,-0.720241 -4.2036,2.625192 -4.683347,-2.17436 -0.623181,-6.234524 3.281122,-3.281124 3.605251,-3.347347 5.958781,-1.217432 3.244142,2.935909 6.367631,2.856995 8.536667,-0.215677 2.653996,-3.759671 10.079253,-7.069888 14.827176,-6.610031 4.174056,0.404275 4.244416,0.525113 4.019046,6.902399 l -0.22938,6.490921 4.89605,-0.80958 c 2.69282,-0.44527 6.99605,-0.825371 9.56271,-0.844671 2.56667,-0.01931 5.56667,-0.617638 6.66667,-1.32964 1.67067,-1.081382 1.34134,-1.832262 -2,-4.560061 l -4,-3.265513 2.74637,-2.795524 c 4.42807,-4.507317 11.18156,-4.772924 15.80263,-0.621501 3.83525,3.445465 3.85456,3.534801 1.59129,7.366206 l -2.29105,3.878443 h 3.99669 c 2.19817,0 4.36615,0.5978 4.81771,1.328443 1.09333,1.769042 8.07621,-1.858665 9.19632,-4.777618 0.46737,-1.217957 0.44633,-12.057289 -0.0468,-24.087405 -0.79612,-19.4235846 -0.66552,-21.7842977 1.16621,-21.0813922 1.13451,0.435349 3.25231,3.9024901 4.70621,7.7047582 2.13574,5.585349 2.29175,6.996018 0.81226,7.344313 -2.10614,0.495816 -2.27331,2.069019 -1.8755,17.649286 0.38546,15.09634 -1.81568,20.730636 -8.59569,22.002574 -2.66332,0.499642 -7.05887,0.450807 -9.76788,-0.10852 -6.57427,-1.357388 -11.02132,-1.250237 -22.92544,0.552383 -13.3457,2.020917 -19.653141,2.470264 -25.741098,1.833819 z m 6.241668,-7.67232 c 2.831044,-2.143788 2.063669,-6.021655 -1.1916,-6.021655 -2.719537,0 -9.975633,3.742636 -9.975633,5.145351 0,3.322064 7.192112,3.886436 11.167233,0.876304 z m 34.1661,-7.354988 c 0,-0.733333 -0.9,-1.333333 -2,-1.333333 -1.1,0 -2,0.6 -2,1.333333 0,0.733333 0.9,1.333333 2,1.333333 1.1,0 2,-0.6 2,-1.333333 z m 95.50846,13.975581 c -0.41696,-1.086569 -2.14344,-1.975581 -3.83661,-1.975581 -1.69317,0 -4.49167,-0.989823 -6.21888,-2.199606 -2.98488,-2.090689 -3.25268,-2.050723 -5.40836,0.807119 -3.61271,4.789484 -7.29665,3.147572 -7.78055,-3.467752 -0.34166,-4.670718 0.154,-5.941732 3.27431,-8.396162 3.07956,-2.422383 3.42848,-3.29006 2.14775,-5.340848 -1.81635,-2.908436 -0.64898,-4.641747 1.77264,-2.631991 1.18141,0.980487 2.49442,0.991328 4.28069,0.03535 3.66023,-1.958891 4.36411,-0.535979 1.87783,3.796097 -1.94307,3.38562 -1.94923,4.025792 -0.0663,6.898211 1.14155,1.74144 4.28864,3.965601 6.99353,4.94258 6.03063,2.178199 8.09136,0.860964 10.32707,-6.601162 0.85276,-2.846342 2.00198,-5.175166 2.55382,-5.175166 0.55184,0 2.29699,2.672298 3.8781,5.938442 1.58112,3.266143 4.03464,6.306576 5.45228,6.756516 1.61722,0.513291 2.57752,2.026477 2.57752,4.061559 0,4.52255 -3.33052,4.14105 -7.9439,-0.909947 l -3.79357,-4.153428 -2.32009,3.540905 c -3.12285,4.766083 -6.7682,6.678498 -7.76731,4.074867 z m 313.338,-0.739021 c -4.01448,-3.157788 -4.31262,-5.156294 -1.56261,-10.474227 1.78629,-3.454316 1.73016,-3.971336 -0.66667,-6.140437 -3.14062,-2.842221 -3.31917,-5.04612 -0.59218,-7.309318 1.65086,-1.3701 2.47089,-1.277091 4.43832,0.503406 3.00404,2.718627 5.02253,2.780339 6.01884,0.184016 1.02558,-2.672642 4.7241,-2.549188 5.7763,0.192811 0.51283,1.336397 -0.1084,2.887375 -1.59065,3.971217 -2.33497,1.707372 -2.33837,1.986289 -0.0853,6.982747 2.62434,5.819784 1.71369,9.093662 -3.5562,12.784845 -3.75916,2.633018 -3.97188,2.614942 -8.17987,-0.69506 z m 9.82019,-6.037793 c 0,-1.66516 -2.86443,-5.865434 -4,-5.865434 -0.68173,0 -1.90225,1.238354 -2.71228,2.751896 -2.05044,3.831276 0.59157,7.096647 4.18563,5.173175 1.38965,-0.743726 2.52665,-1.670561 2.52665,-2.059637 z m 55.4524,7.809194 c -0.43215,-0.432157 -0.78574,-2.197171 -0.78574,-3.922253 0,-2.654959 0.497,-3.011775 3.23711,-2.324052 1.7804,0.446853 4.4804,0.417852 6,-0.06445 2.85461,-0.906015 3.78063,-5.244163 1.42956,-6.697202 -2.09193,-1.292883 -1.55916,-7.330368 0.72417,-8.206564 2.97031,-1.139817 3.43026,-0.21826 4.20967,8.43456 0.58329,6.475692 0.28581,8.1311 -1.78356,9.924956 -2.58191,2.238164 -11.65929,4.226926 -13.03121,2.855009 z M 170.03333,34.633332 c -1.04271,-27.1688834 -0.23382,-31.963521 3.91686,-23.216633 1.80567,3.805178 2.00186,5.542502 0.87451,7.744484 -0.88479,1.728208 -1.3304,9.724324 -1.13904,20.438812 0.20733,11.609232 -0.19385,18.10819 -1.17865,19.092993 -1.10178,1.101772 -1.74998,-5.202826 -2.47368,-24.059656 z m 186.26334,23.291061 c -3.5723,-2.502125 -3.72136,-4.896406 -0.63062,-10.128621 2.27059,-3.843805 2.25534,-4.009123 -0.57284,-6.205723 -2.60214,-2.021055 -2.734,-2.667109 -1.26269,-6.186685 l 1.64287,-3.929969 2.92996,2.929969 c 3.53749,3.537483 4.14504,3.594479 6.35989,0.596635 1.29615,-1.754364 2.1078,-1.955151 3.27112,-0.809203 1.17259,1.155087 1.02563,2.32019 -0.60695,4.81181 -1.92506,2.938015 -1.93826,3.466865 -0.12413,4.972462 2.92871,2.430609 2.56027,10.161364 -0.63663,13.358264 -3.20348,3.203484 -6.38161,3.384629 -10.36998,0.591061 z m 9.90688,-5.307388 c 0.43258,-1.127313 -0.30472,-3.255474 -1.63847,-4.729246 -2.41557,-2.669172 -2.43227,-2.665718 -4.29467,0.888801 -1.56441,2.985797 -1.57585,3.754583 -0.07,4.70883 2.75271,1.74443 5.13264,1.400162 6.00318,-0.868385 z m 111.12977,5.251273 c 0,-1.172446 1.82577,-3.837249 4.05728,-5.921785 l 4.05728,-3.790066 -0.91664,-20.547102 c -0.87778,-19.676018 -0.35968,-23.4970556 2.87285,-21.1880145 2.339,1.6707751 4.90932,10.9255575 3.5114,12.6432745 -0.71708,0.881145 -1.51708,8.502081 -1.77775,16.935414 -0.41597,13.457672 -0.85185,15.863412 -3.5633,19.666666 -3.24135,4.546507 -8.24112,5.882195 -8.24112,2.201613 z m -228.8605,-1.225949 c -1.28834,-3.357347 0.37422,-3.937714 13.29874,-4.64233 l 12.22843,-0.666667 -5.05771,-2.989081 c -2.78173,-1.643994 -6.53173,-3.359039 -8.33333,-3.811211 -3.98664,-1.000581 -4.33611,-3.199708 -0.50848,-3.199708 1.52193,0 9.04607,-2.454933 16.72029,-5.455408 14.02336,-5.48286 18.42543,-5.871877 17.59403,-1.55481 -0.34832,1.808685 -1.53752,2.237393 -5.3058,1.912737 -2.88259,-0.248349 -7.60265,0.762761 -11.61168,2.487397 l -6.75481,2.90584 7.57449,5.140809 c 4.16596,2.827447 9.28229,5.515911 11.36963,5.974366 2.58552,0.567875 3.65985,1.538295 3.37064,3.044645 -0.3711,1.932842 -3.15262,2.257212 -22.10334,2.577592 -18.68012,0.315805 -21.78981,0.07731 -22.4811,-1.724171 z m 256.84302,1.691003 c -0.009,-0.183334 -0.21091,-11.283333 -0.44732,-24.666666 -0.34251,-19.389206 -0.075,-24.3333329 1.31657,-24.3333329 0.96052,0 2.73562,1.9129259 3.94466,4.2509469 1.7913,3.463992 1.89455,4.737242 0.55775,6.877801 -0.98363,1.575042 -1.8228,9.0823 -2.09579,18.749053 -0.25041,8.867209 -0.48598,16.872198 -0.5235,17.788864 -0.0541,1.323123 -2.68607,2.598099 -2.75237,1.333334 z M 13.484188,54.281874 c -1.455983,-2.720529 -1.46356,-4.149595 -0.04283,-8.078555 1.511379,-4.17964 1.442165,-5.087053 -0.55646,-7.295511 -2.321177,-2.56487 -1.806,-6.907809 0.819432,-6.907809 0.780465,0 2.46636,0.947823 3.746432,2.106272 1.798999,1.628072 2.938117,1.779429 5.017332,0.666667 4.644918,-2.485886 6.039494,-1.746212 3.632828,1.926825 -1.99534,3.045275 -2.00997,3.645973 -0.153346,6.296674 4.251116,6.069319 1.32093,12.640811 -6.179153,13.857907 -3.828902,0.621345 -4.784254,0.230269 -6.284235,-2.57247 z m 10.249144,-1.215209 c 2.483903,-2.483902 1.895355,-6.041914 -1.378762,-8.335196 -2.735347,-1.915912 -3.054559,-1.89485 -3.906287,0.257728 -1.891968,4.781583 -1.241854,9.677468 1.28505,9.677468 1.32,0 3.12,-0.72 3.999999,-1.6 z M 625.50156,38.981047 c -0.86653,-1.61912 -0.67997,-3.144028 0.59855,-4.892507 1.80205,-2.464457 1.93795,-2.467378 4.55612,-0.09796 2.52651,2.286455 2.5572,2.598572 0.48123,4.892507 -2.77238,3.063438 -4.03706,3.085421 -5.6359,0.09796 z M 457.33332,30.666666 c 0,-2.008199 0.6962,-2.728121 2.33333,-2.412839 1.28333,0.247147 2.33333,1.332925 2.33333,2.412839 0,1.079913 -1.05,2.165692 -2.33333,2.412838 -1.63713,0.315283 -2.33333,-0.40464 -2.33333,-2.412838 z m -191.33333,0 c -1.20843,-1.955281 0.4628,-4 3.26937,-4 2.02628,0 4.06396,2.394559 4.06396,4.775716 0,1.181137 -6.55229,0.488038 -7.33333,-0.775716 z m -50.41666,-3.527777 c -1.83179,-1.831791 -0.88166,-4.661011 1.41666,-4.218395 1.28334,0.247147 2.33334,1.291141 2.33334,2.319988 0,2.105137 -2.35239,3.296016 -3.75,1.898407 z m -11.29307,-2.011552 c 0.32856,-0.986702 1.66676,-2.001307 2.97377,-2.254675 1.52003,-0.29466 2.16114,0.185831 1.77903,1.333333 -0.32856,0.986702 -1.66676,2.001307 -2.97377,2.254675 -1.52003,0.29466 -2.16114,-0.185831 -1.77903,-1.333333 z m 149.83873,-1.855474 c -2.7007,-2.700702 -1.6187,-4.605197 2.61636,-4.605197 3.60024,0 4.34185,2.771176 1.3959,5.216097 -1.43552,1.191368 -2.34909,1.052268 -4.01226,-0.6109 z m 12.9682,-0.07309 c -1.31459,-3.425755 5.01413,-6.254688 6.95762,-3.110053 0.48339,0.782125 -0.23121,2.263044 -1.58797,3.290928 -3.23059,2.447486 -4.37587,2.408908 -5.36965,-0.180875 z m 167.0235,-0.03165 c -1.13094,-2.947183 2.29328,-6.471864 5.20276,-5.355395 1.35346,0.519375 2.03302,1.997081 1.77005,3.848992 -0.53167,3.744115 -5.68675,4.857816 -6.97281,1.506403 z m 13.02962,0.170117 c -1.23049,-3.206601 1.67107,-5.646502 4.55303,-3.828608 3.23844,2.042755 2.85281,5.079073 -0.70932,5.584899 -1.84567,0.262086 -3.32933,-0.415835 -3.84371,-1.756291 z M 291.26152,22.550499 c -1.26004,-2.038784 1.47454,-4.398322 3.98218,-3.436046 1.14929,0.441024 2.08962,1.720694 2.08962,2.843709 0,2.330245 -4.71352,2.790075 -6.0718,0.592337 z M 12.901186,19.463687 C 12.064419,17.283108 13.047719,16 15.555555,16 c 0.977778,0 1.777778,1.2 1.777778,2.666666 0,3.031787 -3.343842,3.6331 -4.432147,0.797021 z M 25.58716,18.999999 c 0.247147,-1.283333 1.332926,-2.333333 2.412839,-2.333333 1.079913,0 2.165692,1.05 2.412839,2.333333 0.315282,1.637132 -0.40464,2.333334 -2.412839,2.333334 -2.008199,0 -2.728121,-0.696202 -2.412839,-2.333334 z"
       id="path497" />
  </g>
</svg>
