<?xml version="1.0" encoding="UTF-8" standalone="no"?>
<!-- Created with Inkscape (http://www.inkscape.org/) -->

<svg
   version="1.1"
   id="svg32"
   width="206.66667"
   height="89.333336"
   viewBox="0 0 206.66667 89.333336"
   xmlns="http://www.w3.org/2000/svg"
   xmlns:svg="http://www.w3.org/2000/svg">
  <defs
     id="defs36" />
  <g
     id="g38">
    <path
       style="fill:#000000;stroke-width:1.33333"
       d="m 115.23581,83.842199 c -0.52914,-0.856155 1.72799,-3.755923 5.30044,-6.809555 C 126.17541,72.212435 132,63.585349 132,60.053119 c 0,-0.762548 -1.68,-1.386451 -3.73333,-1.386451 -6.89723,0 -9.08462,-5.79247 -4.45867,-11.807119 6.95284,-9.040075 16.71224,8.110663 12.27168,21.565704 -2.31245,7.006803 -6.42184,11.530417 -13.05912,14.375487 -6.95495,2.981241 -6.61408,2.935639 -7.78475,1.041459 z m 15.07054,-31.427921 c 0.26017,-0.780482 -0.45233,-1.774151 -1.58333,-2.208154 -1.44119,-0.553036 -2.05635,0.02936 -2.05635,1.946835 0,2.743145 2.74667,2.940348 3.63968,0.261319 z M 136,84.214023 c 0,-0.615623 1.36626,-1.741823 3.03614,-2.502667 5.95344,-2.712572 11.4743,-8.546456 13.76557,-14.546061 l 2.32664,-6.092205 -4.97859,-4.697007 c -2.99538,-2.825972 -4.68072,-5.473219 -4.23084,-6.645594 0.41127,-1.071724 0.74775,-2.199516 0.74775,-2.506204 0,-1.407041 3.64632,-0.253501 6.66667,2.10905 3.48634,2.727065 11.27496,3.585163 12.63068,1.391565 0.43342,-0.701305 1.60085,-0.963203 2.59426,-0.581992 1.0228,0.392484 3.06775,-1.078551 4.71476,-3.391565 3.4033,-4.77948 6.36488,-5.284918 6.96756,-1.189112 0.6612,4.493554 3.30072,4.338548 4.91374,-0.28856 1.61646,-4.63697 4.60024,-4.732754 5.27173,-0.169232 0.53524,3.637509 4.2406,3.837514 4.2406,0.228896 0,-1.777778 0.88889,-2.666667 2.66667,-2.666667 2.22222,0 2.66666,0.888889 2.66666,5.333333 0,7.868163 -6.1749,13.291755 -10.36382,9.102835 -1.19623,-1.196221 -2.3999,-1.182902 -5.12043,0.05665 -3.06487,1.396448 -3.94549,1.257174 -6.36951,-1.007366 -2.50812,-2.343125 -3.09769,-2.41831 -5.44132,-0.693904 -1.44561,1.063674 -3.41833,1.630828 -4.3838,1.260343 -0.96546,-0.370484 -2.09688,0.216276 -2.51424,1.303913 -0.41737,1.08764 -1.57354,1.977526 -2.56929,1.977526 -2.26763,0 -3.95531,3.201681 -5.13743,9.74622 -0.54697,3.028207 -2.83434,7.201259 -5.66398,10.333334 -4.15159,4.595305 -5.47903,5.25378 -10.59132,5.25378 -3.21467,0 -5.84486,-0.503691 -5.84486,-1.119313 z M 52.000001,82.875345 c 0,-0.618563 2.934967,-3.127467 6.522148,-5.575344 11.48318,-7.83607 13.871428,-16.015677 6.804927,-23.306457 -3.50614,-3.617418 -3.784739,-4.43636 -2.23174,-6.560212 4.545021,-6.215687 12.723401,6.160072 11.037611,16.702429 -0.980223,6.129981 -5.967669,14.663363 -10.374047,17.749711 -3.156831,2.211131 -11.758899,2.935259 -11.758899,0.989873 z M 45.024419,60.579976 c -0.45533,-0.45533 -0.888668,-11.656204 -0.96297,-24.89083 -0.0743,-13.234624 -0.456554,-24.583084 -0.849448,-25.2188 -1.265678,-2.0479101 3.596957,-2.8994836 5.528293,-0.9681476 1.026767,1.0267676 2.257397,3.8195906 2.734735,6.2062726 0.711324,3.556623 0.499332,4.197998 -1.175166,3.555434 -1.776769,-0.681811 -2.045841,1.738496 -2.064472,18.569937 -0.01959,17.696005 -1.039086,24.918019 -3.210972,22.746134 z M 86.269801,60.436547 C 85.885985,59.815519 85.409461,52.11324 85.210859,43.320371 84.484945,11.181445 84.597264,7.5902089 86.346772,7.0011635 c 1.865353,-0.6280488 6.935902,9.3926085 6.914876,13.6655035 -0.01267,2.565462 -0.08371,2.573511 -1.873028,0.212092 -1.615037,-2.131412 -1.836511,0.193375 -1.682212,17.657951 0.114933,13.009262 -0.337317,20.627536 -1.280533,21.570752 -0.802024,0.802024 -1.772258,0.950113 -2.156074,0.329085 z M 8.0000001,55.713762 c 0,-4.374126 2.3963949,-6.380427 7.6209989,-6.380427 5.967376,0 15.045668,-2.946832 15.045668,-4.883855 0,-0.862352 -3.046816,-4.901615 -6.770703,-8.976139 -7.169217,-7.844267 -8.059065,-11.82812 -2.808953,-12.575692 4.174867,-0.594466 6.459481,1.613336 11.021791,10.65122 4.382011,8.680715 4.726905,11.634148 1.979115,16.94779 -2.92075,5.648104 -4.597238,6.441632 -15.754583,7.457077 C 8.0696361,58.88785 8.0000001,58.872755 8.0000001,55.713762 Z M 61.815502,35.333334 c -2.082864,-5.427858 3.608638,-7.940953 6.708255,-2.962044 1.142337,1.834934 1.023871,2.659668 -0.523756,3.64625 -2.918653,1.860584 -5.309469,1.596082 -6.184499,-0.684206 z"
       id="path358" />
  </g>
</svg>
