<?xml version="1.0" encoding="UTF-8" standalone="no"?>
<!-- Created with Inkscape (http://www.inkscape.org/) -->

<svg
   version="1.1"
   id="svg2"
   width="220"
   height="92"
   viewBox="0 0 220 92"
   xmlns="http://www.w3.org/2000/svg"
   xmlns:svg="http://www.w3.org/2000/svg">
  <defs
     id="defs6" />
  <g
     id="g8">
    <path
       style="fill:#000000;stroke-width:1.33333"
       d="m 128,84.685237 c 0,-1.156245 1.05,-2.489262 2.33333,-2.962261 4.45726,-1.642815 11.3388,-7.645992 14.49375,-12.643749 C 149.07635,62.347943 148.93143,60 144.26667,60 c -6.70604,0 -9.06848,-5.691635 -4.85774,-11.703325 2.90459,-4.146876 6.21178,-3.693275 9.98855,1.369992 2.59513,3.47913 3.22492,5.910324 3.19485,12.333333 -0.0456,9.745033 -2.83677,15.502967 -9.62952,19.864883 C 136.44503,86.050237 128,87.642049 128,84.685237 Z m 17.94305,-29.92644 c 0.98607,-1.595469 -1.52216,-3.176302 -3.29813,-2.078689 C 141.15377,53.601687 142.13269,56 144,56 c 0.64677,0 1.52115,-0.558541 1.94305,-1.241203 z m 3.39028,30.541535 c 0,-0.751484 1.50867,-1.939928 3.35259,-2.640987 5.87731,-2.234545 11.50099,-7.170258 14.21989,-12.480313 3.16127,-6.173996 2.40506,-10.487056 -2.20717,-12.588528 -2.51732,-1.146967 -3.36531,-2.548451 -3.36531,-5.561919 0,-4.763421 2.17143,-5.184061 7.0305,-1.361918 2.31949,1.82451 5.40904,2.666666 9.783,2.666666 5.33109,0 7.09508,-0.680589 10.62064,-4.097693 l 4.22773,-4.097692 0.86113,3.431025 c 1.09983,4.382027 4.50592,4.441488 5.59615,0.09769 1.03972,-4.142588 4.21379,-4.372584 4.78812,-0.346955 0.56752,3.977837 5.04451,4.819375 6.00941,1.129587 0.79363,-3.034868 2.99032,-3.792212 3.23686,-1.115966 0.37737,4.096326 -0.54768,7.188728 -2.86143,9.565639 -1.98168,2.035785 -3.1194,2.28812 -5.50901,1.221847 -2.0361,-0.908531 -4.19456,-0.897259 -6.66386,0.0348 -2.91517,1.100352 -4.15385,0.9247 -6.1373,-0.870307 -1.64702,-1.49052 -2.93203,-1.801876 -3.81062,-0.923297 -0.72908,0.72908 -3.99088,2.09288 -7.24845,3.030665 -5.59451,1.610537 -6.0532,2.113997 -8.27371,9.081411 -1.29296,4.056992 -4.37388,9.585 -6.84649,12.284464 -3.93577,4.296864 -5.262,4.908112 -10.64916,4.908112 -3.38443,0 -6.15351,-0.614851 -6.15351,-1.366335 z M 95.148835,71.333333 c -0.931978,-2.428694 0.28668,-6 2.047414,-6 0.703968,0 2.24351,0.963568 3.421201,2.141262 1.65324,1.653233 1.78968,2.564897 0.59865,4 -2.026285,2.441521 -5.103652,2.369872 -6.067265,-0.141262 z M 9.1785656,65.178565 C 6.8572415,62.857241 6.4672873,61.210713 6.9785913,55.889471 7.6455089,48.948727 10.243732,44.377065 12.333679,46.467012 c 0.773373,0.773373 0.65054,2.360625 -0.323533,4.180696 -5.0047743,9.351507 8.226617,15.001896 14.108527,6.024967 1.877062,-2.864759 1.80584,-3.687131 -0.854996,-9.872412 -5.312313,-12.348804 0.294715,-15.268192 6.301662,-3.281059 5.715486,11.405511 12.885665,13.373011 19.405013,5.324743 1.267027,-1.564171 2.317027,-3.937942 2.333333,-5.275046 0.04051,-3.321038 4.516059,-2.354102 5.151987,1.113078 C 59.080279,48.087429 62.546865,52 64.939529,52 c 4.008688,0 9.503488,-4.106761 10.915915,-8.158452 0.812839,-2.331712 1.477889,-11.576476 1.477889,-20.54392 0,-12.013137 0.470954,-16.6952985 1.789346,-17.7894671 0.98414,-0.8167638 2.18414,-1.0902306 2.666666,-0.6077041 0.482527,0.4825265 0.903452,7.5273212 0.93539,15.6550992 0.07684,19.555999 1.334916,25.633385 6.126309,29.594448 4.932969,4.078105 8.876436,5.113124 12.365916,3.245609 2.56071,-1.370448 2.6416,-1.805232 0.95137,-5.113376 -1.94301,-3.802906 -0.84178,-9.61557 1.82171,-9.61557 1.99613,0 4.00996,5.95336 4.00996,11.854381 0,6.337403 -3.98165,10.217133 -11.443837,11.150893 -4.354662,0.544908 -5.757448,0.179031 -7.011299,-1.828704 -0.862104,-1.380448 -2.448545,-2.509904 -3.525425,-2.509904 -1.07688,0 -2.940802,-1.5 -4.142048,-3.333333 -1.201247,-1.833333 -2.61877,-3.333333 -3.150051,-3.333333 -0.531281,0 -1.649412,1.5 -2.484735,3.333333 -0.844094,1.852585 -2.643821,3.333333 -4.05139,3.333333 -1.392943,0 -3.419462,1.335651 -4.503375,2.968112 -1.739487,2.619806 -2.380117,2.781592 -5.45918,1.378678 -1.918635,-0.874188 -3.870024,-3.109839 -4.33642,-4.968111 -1.016041,-4.048228 -2.653072,-4.378595 -3.607707,-0.728065 -1.30385,4.985929 -13.943516,7.238782 -19.029693,3.39179 -3.637365,-2.751164 -5.921507,-2.502804 -5.921507,0.64386 0,3.474996 -7.325088,7.968892 -13,7.975419 -2.639969,0.0031 -5.435883,-1.097567 -7.1547674,-2.816451 z M 49.928199,33.217157 C 48.668161,31.178373 51.402728,28.818835 53.910377,29.781111 55.059669,30.222135 56,31.501805 56,32.62482 c 0,2.330245 -4.713524,2.790075 -6.071801,0.592337 z"
       id="path30" />
  </g>
</svg>
