<?xml version="1.0" encoding="UTF-8" standalone="no"?>
<!-- Created with Inkscape (http://www.inkscape.org/) -->

<svg
   version="1.1"
   id="svg52"
   width="164"
   height="68"
   viewBox="0 0 164 68"
   xmlns="http://www.w3.org/2000/svg"
   xmlns:svg="http://www.w3.org/2000/svg">
  <defs
     id="defs56" />
  <g
     id="g58">
    <path
       style="fill:#000000;stroke-width:1.33333"
       d="m 102.84356,60.854964 c -1.9147,-2.038108 -3.975139,-2.976064 -5.602667,-2.550456 -1.427461,0.373289 -2.574226,-0.0014 -2.574226,-0.841069 0,-0.955807 -1.249112,-1.200738 -3.38706,-0.664147 -2.219791,0.557132 -4.195654,0.118333 -5.733355,-1.273271 -2.156345,-1.951464 -2.528743,-1.910286 -4.599891,0.508639 -2.88536,3.369856 -4.315298,3.317092 -6.81481,-0.251461 l -2.01966,-2.883468 -2.529687,3.124029 -2.529685,3.124031 -2.459571,-2.87257 c -2.292769,-2.677758 -2.6235,-2.724213 -4.8768,-0.685005 -3.364245,3.0446 -13.556537,2.904188 -17.024792,-0.234539 -3.854661,-3.488421 -5.278076,-9.90267 -6.232363,-28.084537 -0.87423,-16.656537 0.160814,-21.9378067 4.299456,-21.9378067 1.671688,0 1.956547,2.4495398 1.744364,14.9999997 -0.422481,24.989487 -0.356021,25.451283 4.036243,28.045856 6.365251,3.760047 11.452625,2.990948 15.737435,-2.37915 4.484945,-5.620924 5.952557,-5.890686 5.440641,-1.000039 -0.310909,2.970307 0.210649,3.75082 2.746253,4.109777 2.857687,0.404552 3.051506,0.08549 2.227392,-3.666666 -0.789109,-3.592791 -0.543337,-4.109778 1.95376,-4.109778 1.921928,0 2.778768,0.76336 2.619068,2.333334 -0.43826,4.308429 0.05783,5.666666 2.069728,5.666666 1.244444,0 2,-1.259258 2,-3.333333 0,-2.074075 0.755556,-3.333333 2,-3.333333 1.1,0 2,0.828786 2,1.841748 0,1.012961 2.137451,3.472061 4.749891,5.464666 4.642845,3.541271 4.811227,3.567411 7.471524,1.159875 1.496897,-1.354673 4.216462,-5.013773 6.043472,-8.131333 1.82701,-3.117559 3.71483,-5.666668 4.19514,-5.664687 0.48032,0.002 2.07331,2.213693 3.53997,4.914915 2.31531,4.264197 6.00623,7.417822 12.34363,10.546734 1.87975,0.928074 8.32304,-2.81055 8.32304,-4.829322 0,-2.364972 2.47068,-1.353919 3.33333,1.36407 1.21734,3.835487 5.27607,3.282132 7.33478,-1 l 1.76281,-3.666666 1.37527,3.666666 c 1.53529,4.09334 5.38501,4.875126 7.28532,1.47947 1.31241,-2.345158 4.24182,-1.413008 4.24182,1.349765 0,0.91952 -1.67593,3.277501 -3.72429,5.239956 -3.48203,3.335989 -3.91645,3.433508 -6.67821,1.499096 -2.67107,-1.870888 -3.15344,-1.869481 -5.03762,0.01469 -2.74076,2.740768 -4.11937,2.628652 -6.84686,-0.55683 -2.0997,-2.452266 -2.48906,-2.491023 -5.46118,-0.543615 -2.06209,1.351135 -5.28858,1.930821 -9.07197,1.629915 -4.68759,-0.372819 -6.02171,0.0057 -6.61563,1.876948 -0.40916,1.289162 -1.55443,2.343936 -2.54504,2.343936 -0.9906,0 -2.62897,0.317684 -3.64081,0.705964 -1.01184,0.38828 -3.20251,-0.74467 -4.86816,-2.517667 z m 8.42334,-4.747471 c 0.82907,-1.341457 -2.70872,-5.440826 -4.69547,-5.440826 -1.43211,0 -1.57891,1.560413 -0.42878,4.557617 0.88531,2.307077 3.92089,2.830287 5.12425,0.883209 z M 5.3333333,57.485255 c 0,-2.876866 7.1960237,-6.818588 12.4480387,-6.818588 C 22.704169,50.666667 28,48.352437 28,46.201219 28,45.175588 24.647823,40.579581 20.550717,35.987871 13.227064,27.780101 13.144241,27.5965 15.639681,25.10106 c 3.694144,-3.694144 5.972806,-2.078159 10.760782,7.631351 4.783465,9.700362 5.314468,15.081573 2.035888,20.631768 -1.8585,3.146189 -3.599379,4.014036 -10.442551,5.205722 C 6.7329913,60.530887 5.3333333,60.410975 5.3333333,57.485255 Z M 135.17872,42.077884 c -1.04253,-2.716797 -0.13093,-6.428488 1.73101,-7.048416 1.99346,-0.6637 4.8696,4.551763 3.90146,7.07472 -0.94551,2.463932 -4.68358,2.446475 -5.63247,-0.02631 z m 13.73795,1.061005 c -1.52876,-1.528756 -1.02871,-5.386049 0.90642,-6.99207 2.61016,-2.166236 5.91166,1.861846 4.00434,4.885585 -1.58934,2.519605 -3.6246,3.392643 -4.91076,2.106485 z m -7.27775,-7.36664 c -2.36048,-2.360476 -2.01901,-4.808338 0.88773,-6.363986 1.86368,-0.99741 2.94216,-0.851595 4.11011,0.555702 3.48745,4.20213 -1.17985,9.626278 -4.99784,5.808284 z M 81.781111,33.910377 c -1.11128,-2.895949 1.709913,-5.619353 3.729266,-3.6 C 87.217088,32.017088 86.159779,36 84,36 83.220636,36 82.222135,35.059669 81.781111,33.910377 Z M 69.472377,33.447483 C 67.492899,32.194085 68.344061,28 70.577908,28 c 1.7071,0 4.260523,4.717124 3.152959,5.824689 -1.117135,1.117134 -2.025575,1.036667 -4.25849,-0.377206 z m 6.083179,-5.003039 c -0.488889,-0.488888 -0.888889,-1.988888 -0.888889,-3.333333 0,-1.718519 0.989898,-2.444444 3.333333,-2.444444 3.551001,0 4.379177,2.420822 1.733333,5.066666 -1.812601,1.812602 -2.892478,1.996411 -4.177777,0.711111 z"
       id="path80" />
  </g>
</svg>
