<?xml version="1.0" encoding="UTF-8" standalone="no"?>
<!-- Created with Inkscape (http://www.inkscape.org/) -->

<svg
   version="1.1"
   id="svg2"
   width="554.66669"
   height="81.333336"
   viewBox="0 0 554.66669 81.333336"
   xmlns="http://www.w3.org/2000/svg"
   xmlns:svg="http://www.w3.org/2000/svg">
  <defs
     id="defs6" />
  <g
     id="g8">
    <path
       style="fill:#000000;stroke-width:1.33333"
       d="m 56.422237,69.758661 c -1.168795,-0.435792 -1.427432,-7.392994 -0.997795,-26.840137 0.503462,-22.788699 0.880551,-26.474218 2.858459,-27.937429 1.966422,-1.454712 2.924856,-0.950128 6.997795,3.6841 9.020086,10.263141 16.422533,13.822431 23.276925,11.192154 2.32622,-0.892655 2.885104,-6.553675 0.775716,-7.857348 -2.701305,-1.669499 -1.281771,-5.958184 2.644098,-7.98833 3.712984,-1.920058 4.15623,-1.87801 6.666666,0.632427 5.928309,5.928309 1.911279,16.705736 -7.767283,20.839103 -4.784112,2.043123 -15.169037,1.931156 -22.543482,-0.243057 -2.691717,-0.793602 -3.000437,-0.423215 -3.00426,3.604349 -0.0069,7.330821 -4.037344,28.367895 -5.746715,29.995645 -0.870297,0.828742 -2.292353,1.242078 -3.160124,0.918523 z M 498.44774,65.749722 c -2.68709,-0.310048 -5.20061,-1.384592 -5.58561,-2.387877 -0.98771,-2.573928 5.35657,-4.519844 20.80456,-6.381159 7.15,-0.861499 13,-2.066614 13,-2.678032 0,-0.61142 -3.30513,-5.254047 -7.34475,-10.31695 -12.91949,-16.192214 -15.23165,-22.65237 -8.10749,-22.65237 4.48684,0 12.54652,9.579044 29.58728,35.164896 3.17436,4.766152 3.27281,5.332304 1.27531,7.333333 -1.77148,1.774603 -5.4864,2.196903 -20.45416,2.325161 -10.05925,0.0862 -20.48806,-0.09696 -23.17514,-0.407002 z m -352.1144,-2.051581 c -12,-2.50096 -6.25068,-5.800447 14,-8.034481 7.15,-0.78878 13,-2.047172 13,-2.796426 0,-0.749255 -2.28704,-4.100895 -5.08232,-7.44809 -2.79528,-3.347195 -7.38353,-9.580883 -10.19613,-13.852639 l -5.11382,-7.766828 2.82987,-2.829866 2.82987,-2.829865 3.51273,3.263361 c 1.932,1.794848 5.45004,6.27373 7.81788,9.953071 2.36783,3.679342 5.2606,7.645161 6.42837,8.812931 3.29682,3.296818 12.97355,18.704616 12.97355,20.657164 0,0.960504 -1.16056,2.367482 -2.57901,3.126617 -3.20199,1.713649 -31.8421,1.533005 -40.42099,-0.254949 z M 10.401621,56.617415 c -1.2719322,-2.791587 -1.1460878,-3.777708 0.72027,-5.644065 4.131359,-4.131359 9.930346,2.545648 6.158284,7.090704 -2.41713,2.912464 -5.154744,2.336713 -6.878554,-1.446639 z M 233.56685,53.093886 c 1.22843,-0.968303 3.96627,-2.718279 6.08411,-3.888836 5.63398,-3.113983 8.39188,-9.805126 7.0461,-17.095078 -1.21229,-6.56685 -4.82257,-10.128207 -11.54597,-11.389526 -2.31905,-0.435056 -4.95021,-1.675135 -5.84703,-2.755728 -2.50454,-3.017784 13.8523,-2.715063 20.02928,0.370688 16.94982,8.467382 8.00464,33.009116 -13.06812,35.853361 -4.26496,0.575652 -4.62985,0.427595 -2.69837,-1.094881 z m 39.76649,0.933214 c 0,-0.351762 2.25,-1.787917 5.00001,-3.191453 6.69306,-3.415985 9.62777,-6.896144 10.53626,-12.494555 1.46991,-9.05797 -6.32686,-18.341091 -15.40444,-18.341091 -1.59867,0 -2.79849,-0.857484 -2.79849,-2 0,-3.178702 15.45919,-2.726276 20.93527,0.612688 13.1587,8.023329 10.11312,26.250327 -5.60194,33.526162 -4.88305,2.26078 -12.66667,3.421101 -12.66667,1.888249 z m 146.66668,-6.586076 c 0,-2.320107 4.56401,-17.782258 5.64008,-19.10769 0.74421,-0.916666 2.47964,-1.666666 3.8565,-1.666666 1.37688,0 2.50342,-0.6 2.50342,-1.333334 0,-1.745187 -5.41808,-1.685076 -18.23686,0.202324 -5.7364,0.844611 -11.32981,1.52312 -12.42981,1.507798 -14.12267,-0.196724 -44.49671,-2.115653 -48.63915,-3.072857 -2.94847,-0.681308 -7.61085,-1.25341 -10.36085,-1.271337 -4.86448,-0.03171 -6.94272,-2.674551 -3.68598,-4.687332 3.67559,-2.271635 19.73943,-3.158438 60.81343,-3.357196 55.51458,-0.26864 55.20589,-0.275768 55.20589,1.274867 0,1.613713 -20.26851,22.033035 -27.53221,27.737067 -5.17102,4.060702 -7.13446,5.09942 -7.13446,3.774356 z m 10,-11.441023 c 0.45322,-0.733333 0.41364,-1.997391 -0.088,-2.809017 -0.89616,-1.450004 -3.17655,0.771988 -3.22495,3.142351 -0.0299,1.461516 2.35173,1.22189 3.31292,-0.333334 z M 12.915905,37.608739 c -2.825689,-3.122351 -2.78829,-4.163681 0.29352,-8.172803 l 2.483462,-3.230732 2.27712,4.403464 c 2.176653,4.20918 2.16501,4.515576 -0.263872,6.944457 -2.47822,2.47822 -2.596558,2.479595 -4.79023,0.05561 z"
       id="path791" />
  </g>
</svg>
