<?xml version="1.0" encoding="UTF-8" standalone="no"?>
<!-- Created with Inkscape (http://www.inkscape.org/) -->

<svg
   version="1.1"
   id="svg2"
   width="152"
   height="78.666664"
   viewBox="0 0 152 78.666664"
   xmlns="http://www.w3.org/2000/svg"
   xmlns:svg="http://www.w3.org/2000/svg">
  <defs
     id="defs6" />
  <g
     id="g8">
    <path
       style="fill:#000000;stroke-width:1.33333"
       d="m 61.519187,72.890604 c -2.08386,-2.510898 1.580094,-7.601096 3.856834,-5.358157 1.615614,1.591627 0.603611,7.134217 -1.302612,7.134217 -0.594122,0 -1.743522,-0.799227 -2.554222,-1.77606 z m 12.600802,0.636875 c -1.323958,-2.142211 0.736931,-5.686373 3.04778,-5.241344 2.840871,0.547101 2.805219,5.554156 -0.04345,6.10276 -1.21496,0.23398 -2.566907,-0.153658 -3.004327,-0.861416 z M 7.6951888,59.445925 C 6.9132153,55.355294 9.6826555,48.662902 12.62458,47.53398 c 1.772595,-0.680208 2.052203,-1.785946 1.308195,-5.173389 -0.840542,-3.826962 -0.710595,-4.112694 1.163168,-2.55761 1.188498,0.986367 3.301561,1.372296 4.840073,0.883992 3.26378,-1.035884 3.502145,0.250559 0.633717,3.420136 -1.894892,2.093832 -1.898796,2.700241 -0.04052,6.293764 1.951694,3.774145 10.137454,8.259818 10.137454,5.555169 0,-0.681215 1.65,-1.632959 3.666666,-2.114985 5.540859,-1.324387 5.808832,-1.717909 3.534004,-5.189735 -5.772232,-8.809541 4.968671,-19.26986 12.279656,-11.958877 3.315974,3.315975 4.481082,11.683313 1.853007,13.307553 -0.733333,0.453226 -1.333333,1.671732 -1.333333,2.707795 0,1.401449 1.444982,1.76124 5.643758,1.405258 4.548924,-0.385667 6.472844,-1.437601 9.91761,-5.422606 l 4.27385,-4.944116 4.793502,4.793501 c 5.428149,5.428148 6.005606,5.568199 11.418177,2.76925 5.171607,-2.674342 5.747517,-5.675366 5.009788,-26.105636 -0.472631,-13.088751 -0.2074,-17.5817696 1.102035,-18.6685029 2.677994,-2.2225387 4.837997,-0.031485 3.849933,3.9052769 -0.480747,1.915449 -0.449341,10.599057 0.06979,19.296908 0.820885,13.753621 1.342709,16.28826 4.00468,19.45184 2.9459,3.500999 3.58998,3.647439 17.15551,3.90054 7.75208,0.144636 14.06242,-0.191334 14.02297,-0.7466 -0.14799,-2.083101 -15.63053,-8.573557 -19.39018,-8.128585 -5.65594,0.669405 -5.96734,-3.455217 -0.4072,-5.39349 6.78208,-2.36425 9.61403,-1.810654 17.99573,3.517858 4.33035,2.752947 9.49155,5.837303 11.46932,6.854127 4.89438,2.516322 5.49955,4.886176 1.85719,7.272743 -3.50083,2.293832 -36.31655,4.040139 -37.5776,1.999712 -0.40881,-0.661464 -1.44804,-1.069118 -2.30941,-0.905901 -3.43323,0.650551 -7.348565,-1.844385 -8.196545,-5.223006 l -0.895531,-3.568076 -4.237021,4.820448 c -2.330363,2.651246 -5.942309,5.203689 -8.026547,5.672093 -3.157368,0.709577 -4.510532,0.08716 -8.111672,-3.731166 l -4.322146,-4.58281 -3.611838,4.526572 c -2.872086,3.599474 -4.569545,4.526573 -8.287873,4.526573 -2.57182,0 -6.49196,-0.939051 -8.71142,-2.086777 -3.661591,-1.893483 -4.330392,-1.893483 -7.220209,0 -1.751655,1.147726 -4.970526,2.086777 -7.153048,2.086777 -2.182522,0 -4.339042,0.6 -4.792267,1.333333 -1.413389,2.286912 -4.649887,1.471326 -8.183405,-2.062193 L 18.42107,55.87561 15.274202,59.271138 c -3.955983,4.268576 -6.7839653,4.333795 -7.5790102,0.174787 z m 8.0988152,-6.709972 c 0.29466,-1.520021 -0.185831,-2.161125 -1.333333,-1.779024 -0.986702,0.328559 -2.001306,1.66676 -2.254676,2.973781 -0.294659,1.520021 0.185832,2.161125 1.333334,1.779024 0.986702,-0.328559 2.001307,-1.66676 2.254675,-2.973781 z m 33.539329,-8.158047 c 0,-4.696307 -3.811442,-5.768395 -6.908804,-1.943318 -2.323461,2.869354 -2.343312,3.24518 -0.291166,5.512774 2.91343,3.219304 7.19997,1.094211 7.19997,-3.569456 z M 115.17334,30.063848 c -1.01744,-2.651393 0.48981,-4.730516 3.42936,-4.730516 2.55888,0 4.61148,3.368754 3.32294,5.453656 -1.1861,1.919139 -5.93347,1.410718 -6.7523,-0.72314 z M 12.666667,29.333332 c -1.087341,-1.759353 0.506944,-4.256092 2.09213,-3.276393 1.619488,1.000899 1.608966,4.609727 -0.01344,4.609727 -0.690055,0 -1.625464,-0.6 -2.078689,-1.333334 z m 9.426702,0.151076 c -0.40187,-0.650241 0.109307,-1.879377 1.135942,-2.73141 2.078305,-1.724842 4.206501,0.257141 2.770689,2.580334 -1.020269,1.65083 -2.933992,1.724836 -3.906631,0.151076 z m 19.980995,-5.364086 c -1.161191,-1.878847 0.658971,-5.453656 2.776801,-5.453656 2.674822,0 3.915055,4.030012 1.676458,5.447483 -2.389124,1.512783 -3.521154,1.514353 -4.453259,0.0061 z"
       id="path30" />
  </g>
</svg>
