<?xml version="1.0" encoding="UTF-8" standalone="no"?>
<!-- Created with Inkscape (http://www.inkscape.org/) -->

<svg
   version="1.1"
   id="svg12"
   width="196"
   height="68"
   viewBox="0 0 196 68"
   xmlns="http://www.w3.org/2000/svg"
   xmlns:svg="http://www.w3.org/2000/svg">
  <defs
     id="defs16" />
  <g
     id="g18">
    <path
       style="fill:#000000;stroke-width:1.33333"
       d="m 149.94357,59.638204 c -10.77385,-1.199372 -15.19614,-4.054377 -9.58473,-6.187837 1.91805,-0.729239 9.88567,-2.217596 17.70581,-3.307462 7.82016,-1.089865 14.43818,-2.201288 14.70672,-2.469828 0.26854,-0.268538 -1.27345,-2.625501 -3.42664,-5.237693 -6.22213,-7.548528 -16.0114,-22.613583 -16.0114,-24.640525 0,-1.018616 1.50594,-2.538179 3.34652,-3.376807 4.07898,-1.858504 6.95803,0.465227 14.81244,11.955356 2.84591,4.163247 8.32438,11.779447 12.17438,16.924888 7.43254,9.933429 8.42934,13.177583 4.66666,15.187797 -3.17824,1.697976 -27.05065,2.414408 -38.38976,1.152111 z M 90.666667,39.412023 c 0,-1.056722 0.6,-2.292131 1.333333,-2.745356 0.733333,-0.453226 1.333333,-2.535299 1.333333,-4.626831 0,-2.609552 1.287216,-4.885907 4.1023,-7.254644 2.256266,-1.898523 4.656267,-3.451859 5.333337,-3.451859 0.67706,0 1.23103,-0.9 1.23103,-2 0,-2.368869 -2.48495,-2.488865 -12.151347,-0.58678 -8.602842,1.692807 -37.416366,1.6672 -53.181986,-0.04726 C 32.433333,18.021437 23.319024,17.092857 18.412644,16.635783 11.794857,16.019273 9.6665831,15.349665 10.168405,14.041939 11.728645,9.9760188 21.993447,9.0860309 75,8.4208521 c 50.85885,-0.6382274 52.99588,-0.5658986 52.89797,1.7903589 -0.11916,2.867747 -32.033625,31.122122 -35.153698,31.122122 -1.142683,0 -2.077605,-0.864589 -2.077605,-1.92131 z"
       id="path652" />
  </g>
</svg>
