<?xml version="1.0" encoding="UTF-8" standalone="no"?>
<!-- Created with Inkscape (http://www.inkscape.org/) -->

<svg
   version="1.1"
   id="svg22"
   width="82.666664"
   height="58.666668"
   viewBox="0 0 82.666664 58.666668"
   xmlns="http://www.w3.org/2000/svg"
   xmlns:svg="http://www.w3.org/2000/svg">
  <defs
     id="defs26" />
  <g
     id="g28">
    <path
       style="fill:#000000;stroke-width:1.33333"
       d="m 9.333333,49.351228 c 0,-0.723492 1.95,-2.152959 4.333333,-3.176592 6.477395,-2.78202 9.975649,-6.778219 10.942312,-12.499851 1.602098,-9.482738 -4.081091,-16.919233 -14.162134,-18.531257 -7.5513304,-1.207506 -4.2541893,-4.476861 4.51491,-4.476861 23.153254,0 29.063405,23.491487 8.973265,35.666667 -6.872585,4.164978 -14.601686,5.762437 -14.601686,3.017894 z m 42.077196,0.107013 c -0.50456,-0.816395 0.168592,-1.825133 1.50496,-2.255227 C 62.951021,43.973201 67.075954,38.366092 66.274195,29.044239 65.580458,20.978316 63.91083,19.102848 55.1589,16.558594 c -10.595004,-3.080052 -9.651375,-5.891927 1.977254,-5.891927 7.302257,0 10.041664,0.610222 13.647241,3.04002 8.604012,5.798243 10.328321,15.322035 4.423008,24.429381 -4.972975,7.669466 -21.263058,15.420356 -23.795874,11.322173 z"
       id="path513" />
  </g>
</svg>
