<?xml version="1.0" encoding="UTF-8" standalone="no"?>
<!-- Created with Inkscape (http://www.inkscape.org/) -->

<svg
   version="1.1"
   id="svg32"
   width="68"
   height="61.333332"
   viewBox="0 0 68 61.333332"
   xmlns="http://www.w3.org/2000/svg"
   xmlns:svg="http://www.w3.org/2000/svg">
  <defs
     id="defs36" />
  <g
     id="g38">
    <path
       style="fill:#000000;stroke-width:1.33333"
       d="m 12.242754,51.818154 c -2.469538,-0.711556 -4.1912857,-1.983758 -3.8973385,-2.87975 0.734042,-2.23746 11.7218215,-4.922385 23.9879175,-5.86158 5.683334,-0.435164 10.333334,-1.219189 10.333334,-1.74228 0,-0.523089 -2.2378,-3.88183 -4.972888,-7.463866 C 28.982604,22.461998 24,14.472474 24,11.912926 24,10.545753 25.324056,8.7185433 26.942347,7.8524605 29.573385,6.4443713 30.384537,6.8414639 34.609013,11.605607 41.449821,19.320316 60,46.120414 60,48.288863 60,52.693428 56.971629,53.33436 36.733333,53.213082 25.696667,53.146943 14.675905,52.519226 12.242754,51.818154 Z"
       id="path374" />
  </g>
</svg>
