<?xml version="1.0" encoding="UTF-8" standalone="no"?>
<!-- Created with Inkscape (http://www.inkscape.org/) -->

<svg
   version="1.1"
   id="svg42"
   width="65.333336"
   height="73.333336"
   viewBox="0 0 65.333336 73.333336"
   xmlns="http://www.w3.org/2000/svg"
   xmlns:svg="http://www.w3.org/2000/svg">
  <defs
     id="defs46" />
  <g
     id="g48">
    <path
       style="fill:#000000;stroke-width:1.33333"
       d="M 10.239392,65.794949 C 9.3521657,64.907724 10.416115,14.044494 11.385585,11 c 0.971346,-3.0503849 5.246384,-1.6189249 7.947749,2.661236 4.194326,6.645671 12.916611,12.080254 19.612044,12.21965 5.314218,0.11064 5.751862,-0.147506 6.150968,-3.628181 0.236321,-2.061012 -0.280804,-4.603372 -1.149168,-5.649687 -2.290431,-2.7598 -0.617106,-5.782342 4.365711,-7.8858178 5.945165,-2.5097269 9.020447,0.1697416 9.020447,7.8594418 0,10.396916 -7.165443,15.759042 -21.333335,15.964403 -4.766666,0.06909 -10.246856,-0.371901 -12.178199,-0.979985 L 20.31027,30.455453 19.75395,44.227727 c -0.38752,9.593435 -1.254112,15.087112 -2.856043,18.105609 -2.173188,4.09491 -4.707622,5.412506 -6.658515,3.461613 z"
       id="path235" />
  </g>
</svg>
