<?xml version="1.0" encoding="UTF-8" standalone="no"?>
<!-- Created with Inkscape (http://www.inkscape.org/) -->

<svg
   version="1.1"
   id="svg52"
   width="314.66666"
   height="60"
   viewBox="0 0 314.66666 60"
   xmlns="http://www.w3.org/2000/svg"
   xmlns:svg="http://www.w3.org/2000/svg">
  <defs
     id="defs56" />
  <g
     id="g58">
    <path
       style="fill:#000000;stroke-width:1.33333"
       d="M 7.4287698,50.821087 C 6.6323472,49.532448 8.7789146,25.367855 10.166641,20 11.394631,15.25002 17.014776,9.6452721 22.29834,7.9015391 c 5.213403,-1.7205786 11.57073,0.1706316 13.066881,3.8872039 1.074513,2.669182 0.904777,32.622884 -0.201191,35.504993 -0.430468,1.121779 -1.918475,2.039597 -3.306683,2.039597 -2.236081,0 -2.524014,-1.064722 -2.524014,-9.333333 0,-5.133333 -0.24661,-9.333333 -0.548022,-9.333333 -0.301412,0 -3.901412,1.283269 -7.999999,2.85171 l -7.451979,2.85171 v 7.005638 c 0,5.158238 -0.55616,7.219056 -2.10905,7.814956 -2.7336156,1.048987 -2.9306386,1.029802 -3.7955132,-0.369594 z M 25.256063,27.208681 c 6.008782,-2.404237 7.286132,-4.962636 5.972856,-11.962997 -0.879738,-4.689409 -1.085534,-4.843013 -5.523658,-4.122805 -2.535431,0.411444 -5.446065,1.442057 -6.468077,2.29025 -2.80718,2.329754 -4.712082,10.497666 -3.13534,13.443835 1.614921,3.017508 2.414932,3.048245 9.154219,0.351717 z m 63.632824,23.90243 c -0.488889,-0.488888 -0.888889,-3.439264 -0.888889,-6.55639 0,-5.49561 -0.183489,-5.737576 -6.049949,-7.977997 C 71.786474,32.69522 66.897061,23.900252 70.166385,15.380529 71.121453,12.891664 82.695182,6.6666667 86.367501,6.6666667 c 6.094744,0 6.731121,2.1523306 7.194596,24.3333333 0.385633,18.455603 0.182958,21 -1.672762,21 -1.161357,0 -2.51156,-0.4 -3.000448,-0.888889 z m -3.32721,-21.317762 c 2.651349,-2.399437 3.447338,-14.134666 1.199616,-17.685891 -1.747176,-2.760402 -9.157199,-0.310916 -12.465947,4.120793 -3.479838,4.660866 -2.263749,9.34304 3.36245,12.946069 5.252686,3.363831 4.901318,3.336312 7.903881,0.619029 z m 39.613763,15.971083 c -0.0868,-3.537104 -0.0658,-6.944255 0.0468,-7.571445 0.11258,-0.627191 -0.46073,-1.942118 -1.27401,-2.922059 -1.19205,-1.436327 -2.99159,-0.606841 -9.28313,4.278979 C 107.69613,44.96178 104,46.054023 104,42.701536 c 0,-0.627597 3,-3.343288 6.66666,-6.034869 3.66667,-2.691582 6.66667,-5.334683 6.66667,-5.87356 0,-0.538878 -2.15879,-3.501844 -4.79732,-6.58437 -2.99546,-3.499521 -4.49292,-6.397862 -3.98687,-7.716613 0.6594,-1.718364 1.81936,-1.200545 6.22331,2.778156 2.97706,2.689599 6.12115,4.656455 6.98686,4.370791 0.92202,-0.304243 1.73845,-3.927455 1.97098,-8.746896 0.29283,-6.0694557 0.8982,-8.2275083 2.30793,-8.2275083 2.72204,0 3.22881,3.5441433 3.61722,25.2972783 0.31197,17.472287 0.12389,19.341459 -1.98878,19.764432 -1.94817,0.390043 -2.35939,-0.594409 -2.49122,-5.963945 z m 93.90909,5.332588 c -2.06259,-0.777276 -1.01193,-16.737069 1.84435,-28.0162 2.51484,-9.930845 7.13006,-14.9865503 14.58901,-15.9813615 4.02004,-0.5361596 5.99101,-0.02284 8.99068,2.3415416 l 3.84192,3.0282419 -0.94554,17.393693 c -0.52004,9.566532 -1.2343,17.860952 -1.58726,18.432045 -0.35296,0.571095 -1.88967,1.038353 -3.41491,1.038353 -2.574,0 -2.72224,-0.561537 -2.06415,-7.819098 0.78974,-8.709362 -0.47518,-12.577692 -3.21645,-9.836423 -0.91053,0.910537 -2.90201,1.655521 -4.4255,1.655521 -5.16804,0 -8.69668,3.714242 -8.69668,9.154099 0,5.407917 -2.3746,9.567105 -4.91547,8.609588 z m 20.51244,-26.480484 c 5.15594,-3.378309 3.64701,-13.949869 -1.99115,-13.949869 -1.02347,0 -3.58093,1.224811 -5.68325,2.721802 -3.89345,2.772382 -6.45515,10.259102 -4.55969,13.32601 1.17218,1.89664 7.89778,0.743312 12.23409,-2.097943 z m 43.8822,24.085593 c -1.18022,-1.801236 -2.14584,-3.569438 -2.14584,-3.92934 0,-1.333878 -6.35791,-9.970438 -6.9235,-9.404852 -0.69049,0.690492 -11.028,-18.616202 -12.38728,-23.134909 -0.83577,-2.7784043 -0.55013,-3.0552811 2.75096,-2.6666667 3.9584,0.4659947 6.26408,3.7157987 10.32335,14.5505417 1.26044,3.364296 3.70701,7.347492 5.43683,8.851545 1.72981,1.504055 3.43037,3.551448 3.77904,4.549764 1.0842,3.104447 6.04068,-4.204216 7.81124,-11.518212 0.88762,-3.666667 2.71958,-9.258824 4.07105,-12.427015 1.99293,-4.6720219 3.02536,-5.6794147 5.46441,-5.3319794 4.32086,0.6154893 3.65435,4.8209944 -3.0258,19.0923274 -3.08934,6.6 -6.79764,14.546675 -8.24068,17.659276 -3.34665,7.218716 -4.28469,7.722011 -6.91378,3.70952 z m -141.14584,1.212579 c -2.81604,-2.888753 -0.65392,-4.466401 6.64428,-4.848169 l 7.64428,-0.399872 0.37127,-4.905216 c 0.4412,-5.829164 -1.02771,-6.534963 -15.99316,-7.68463 -0.55,-0.04225 -1,-0.936389 -1,-1.98697 0,-2.453954 4.57102,-3.9036 8.89044,-2.819498 4.49892,1.12916 7.10956,-1.303285 7.10956,-6.624294 0,-4.937572 -1.63148,-5.979392 -9.3637,-5.979392 -5.48918,0 -8.17088,-2.17852 -5.14046,-4.175944 1.70265,-1.1222589 19.28122,-0.8444222 20.41282,0.322633 0.27731,0.285987 0.81846,8.113883 1.20258,17.395323 0.49113,11.86761 0.23204,17.492077 -0.8731,18.953646 -1.71078,2.262535 -18.16442,4.5377 -19.90481,2.752383 z M 51.48788,47 C 50.434872,43.448469 50.014687,9.5408669 51.011334,8.5442203 51.491846,8.0637092 52.747082,8.0013791 53.800748,8.4057089 56.486907,9.4364848 58.458369,44.371177 55.997699,47.336104 53.811734,49.970032 52.335864,49.86004 51.48788,47 Z m 127.62776,0.666667 c -0.57296,-0.916667 -1.27931,-9.665735 -1.56966,-19.442375 -0.55345,-18.6358612 0.42994,-22.819804 4.4246,-18.8251377 1.4861,1.4860967 2.01018,6.1134507 2.1974,19.4020257 0.13523,9.597771 -0.18265,18.143865 -0.70641,18.991323 -1.24277,2.01085 -3.04299,1.958725 -4.34593,-0.12584 z m 19.73105,-4.116412 c -1.21243,-1.460892 -0.98537,-2.568458 1.03416,-5.044406 2.28109,-2.796621 2.69179,-2.90528 3.46619,-0.917066 2.00777,5.154796 -1.41115,9.683732 -4.50035,5.961472 z"
       id="path80" />
  </g>
</svg>
