<?xml version="1.0" encoding="UTF-8" standalone="no"?>
<!-- Created with Inkscape (http://www.inkscape.org/) -->

<svg
   version="1.1"
   id="svg2"
   width="145.33333"
   height="128"
   viewBox="0 0 145.33333 128"
   xmlns="http://www.w3.org/2000/svg"
   xmlns:svg="http://www.w3.org/2000/svg">
  <defs
     id="defs6" />
  <g
     id="g8">
    <path
       style="fill:#000000;stroke-width:1.33333"
       d="M 47.657938,117.44353 C 34.974983,114.84404 23.469686,108.80454 14.876542,100.23552 10.225308,95.597341 6.8040877,91.418135 7.2738301,90.948392 8.819669,89.402553 122.90005,90.78982 125.45518,92.385528 c 3.08499,1.926604 7.25264,9.526682 9.1667,16.716242 1.88498,7.08036 0.33678,9.5649 -5.96019,9.5649 -4.02877,0 -4.45372,-0.43128 -5.83674,-5.92376 -0.82039,-3.25807 -1.49162,-7.42266 -1.49162,-9.25465 0,-5.283804 -2.37142,-5.398625 -7.92246,-0.38359 -5.47172,4.94336 -13.513723,8.96803 -24.349876,12.18602 -7.680047,2.28073 -34.081237,3.65351 -41.403056,2.15284 z m 80.320402,-15.47857 c -1.57437,-2.547393 -3.19025,-4.631627 -3.59083,-4.631627 -1.46275,0 1.14475,11.427707 3.34654,14.666667 l 2.26595,3.33333 0.42042,-4.36837 c 0.26468,-2.75015 -0.63996,-6.08411 -2.44208,-9 z M 41.999999,85.770544 C 35.388185,84.315651 32.35493,82.182715 29.000793,76.629709 25.726878,71.20952 22.666666,68.887947 22.666666,71.824441 c 0,1.427727 -9.732311,2.836912 -13.2462794,1.91799 -5.6092884,-1.466863 -4.6003512,-8.106438 1.4146444,-9.309438 5.409077,-1.081814 4.910145,-4.758121 -1.0301999,-7.590874 -3.698341,-1.763616 -4.4903634,-2.68992 -3.3095843,-3.870699 1.180779,-1.180779 2.6092975,-0.982993 5.9692792,0.826476 4.305904,2.318883 4.53901,2.306755 9.265702,-0.482061 2.66677,-1.573434 5.468421,-2.477764 6.225889,-2.009623 C 30.277402,52.740845 29.48463,56 26.814378,56 c -1.385425,0 -3.935425,1.221608 -5.666666,2.714684 -3.104826,2.677697 -3.11138,2.736736 -0.481046,4.333333 1.466667,0.890258 6.068996,5.06865 10.227399,9.285316 8.770029,8.892907 10.613038,9.242934 22.734106,4.317703 15.367371,-6.244323 27.451954,-5.881129 53.038489,1.594031 6.23334,1.82108 15.39844,3.710928 20.36689,4.199661 4.96846,0.488733 9.01543,1.488605 8.99329,2.221939 -0.0506,1.674378 -19.49582,1.72439 -40.026842,0.102946 -17.081716,-1.349034 -25.86488,-1.210205 -38.666666,0.611176 -9.10946,1.296054 -10.99663,1.344023 -15.333333,0.389755 z M 8.3220842,40.57958 C 5.5882933,38.580583 7.1125361,34.666667 10.62482,34.666667 c 3.240445,0 3.216424,0.20793 0.677897,-5.867618 -2.3341799,-5.58648 -1.3863046,-8.392177 4.213253,-12.471172 4.057744,-2.95586 3.295696,-5.66121 -1.59466,-5.66121 -2.004128,0 -3.254644,-0.7684506 -3.254644,-2.0000003 0,-2.1780348 8.187439,-2.711094 17.640191,-1.148499 4.936485,0.8160295 5.759569,3.1484993 1.111046,3.1484993 -1.333594,0 -3.163398,0.890056 -4.066232,1.977902 -1.359464,1.638055 -1.054842,2.200954 1.77288,3.276052 1.877915,0.713983 4.358538,3.123927 5.512494,5.355431 1.219524,2.358299 3.157589,4.057281 4.628227,4.057281 1.39157,0 4.354256,1.534904 6.58375,3.410899 l 4.053622,3.410899 37.273091,-0.410899 c 20.500195,-0.225995 37.604235,-0.743027 38.008965,-1.148961 0.40473,-0.405935 1.07598,-4.871254 1.49167,-9.922932 C 125.47135,11.011381 126.87027,8 130.56326,8 c 4.53615,0 5.43722,2.872504 5.41632,17.266667 -0.0107,7.736666 -0.5197,14.853974 -1.12993,15.81624 -1.16004,1.829264 0.10307,1.848324 -62.847221,-0.948339 C 51.933148,39.242961 46.817502,39.379995 44.543283,40.87012 41.047984,43.160327 11.527635,42.923536 8.3220842,40.57958 Z M 40.666666,34.610216 c 0,-2.324756 -8.009159,-4.067724 -9.918417,-2.158465 -2.362112,2.362112 -1.62076,3.354284 2.918417,3.905792 5.825705,0.707821 7,0.414696 7,-1.747327 z"
       id="path1371" />
  </g>
</svg>
