<?xml version="1.0" encoding="UTF-8" standalone="no"?>
<!-- Created with Inkscape (http://www.inkscape.org/) -->

<svg
   version="1.1"
   id="svg12"
   width="41.333332"
   height="126.66667"
   viewBox="0 0 41.333332 126.66667"
   xmlns="http://www.w3.org/2000/svg"
   xmlns:svg="http://www.w3.org/2000/svg">
  <defs
     id="defs16" />
  <g
     id="g18">
    <path
       style="fill:#000000;stroke-width:1.33333"
       d="M 16.517489,118.68082 C 9.9809779,116.06862 6.1330838,106.41654 8.8282414,99.393072 9.9112706,96.570744 16.268738,93.333336 20.728063,93.333336 c 8.802988,0 15.822932,10.116164 12.107016,17.446944 -2.993104,5.90482 -11.276166,9.91525 -16.31759,7.90054 z m 9.714355,-7.2087 c 3.256911,-2.80147 3.550996,-3.65771 2.390083,-6.95875 -0.728091,-2.07032 -2.918704,-4.659405 -4.86803,-5.753533 -3.03563,-1.703854 -4.034439,-1.726973 -6.960303,-0.161097 -5.995807,3.20886 -6.281576,11.63613 -0.489243,14.42767 4.498716,2.1681 5.845012,1.95732 9.927493,-1.55429 z m -7.426134,-3.35797 c -2.511775,-1.59044 -0.852748,-5.44748 2.343124,-5.44748 3.083431,0 4.564169,3.087 2.480305,5.17086 -1.7862,1.7862 -2.385122,1.82055 -4.823429,0.27662 z M 13.333333,73.019689 C 8.672758,70.570875 5.5073325,61.32426 7.8384704,56.968488 11.850365,49.472193 23.914058,46.821571 28.934296,52.333335 c 5.101996,5.601527 5.971162,8.51432 3.969524,13.302884 -1.003242,2.40008 -2.793488,5.16772 -3.978324,6.150311 -3.121478,2.588657 -11.718371,3.268572 -15.592163,1.233159 z m 10.744978,-3.686354 c 0.656451,0 2.110969,-1.400164 3.232264,-3.111476 1.609441,-2.456317 1.738628,-3.972315 0.613536,-7.199757 -1.359663,-3.900331 -4.272494,-5.628718 -9.556538,-5.670561 -3.083301,-0.02441 -6.802718,7.399859 -5.769518,11.516454 0.843753,3.361777 5.406562,6.068388 8.510994,5.048634 0.976645,-0.320811 2.312813,-0.583294 2.969262,-0.583294 z m -8.078312,-5.733333 c 0,-2.447335 2.782292,-4.933334 5.521311,-4.933334 3.166516,0 4.385192,2.369472 2.430216,4.725074 -1.999429,2.409164 -7.951527,2.565057 -7.951527,0.20826 z M 15.333333,30.739525 C 10.555911,28.784165 7.6666094,24.321665 7.5184022,18.669436 7.2482607,8.3669593 19.820023,1.4666975 27.510612,7.6963146 c 8.195312,6.6384594 7.784546,17.8417194 -0.817258,22.2898864 -4.279849,2.213195 -7.303336,2.413693 -11.360021,0.753324 z m 11.539373,-6.977091 c 1.579001,-1.820604 2.049352,-3.373708 1.260586,-4.162473 -0.692032,-0.692033 -0.929872,-2.113954 -0.528533,-3.159826 1.110155,-2.893016 -3.682137,-5.910901 -8.127806,-5.118383 -7.20949,1.285218 -9.6064245,7.923798 -4.558872,12.626309 3.796277,3.536769 8.793506,3.459174 11.954625,-0.185627 z m -7.872707,-1.984656 c -2.267521,-0.907008 -2.104781,-5.087655 0.274927,-7.062638 2.69834,-2.239423 4.612237,-0.659053 4.289343,3.541859 -0.279272,3.633382 -1.646376,4.687936 -4.56427,3.520779 z"
       id="path1232" />
  </g>
</svg>
