<?xml version="1.0" encoding="UTF-8" standalone="no"?>
<!-- Created with Inkscape (http://www.inkscape.org/) -->

<svg
   version="1.1"
   id="svg22"
   width="141.33333"
   height="80"
   viewBox="0 0 141.33333 80"
   xmlns="http://www.w3.org/2000/svg"
   xmlns:svg="http://www.w3.org/2000/svg">
  <defs
     id="defs26" />
  <g
     id="g28">
    <path
       style="fill:#000000;stroke-width:1.33333"
       d="m 49.973567,74.623897 c -1.723357,-2.788449 5.669664,-11.727716 10.998832,-13.299232 9.667871,-2.850952 11.965099,-2.799716 19.19944,0.428218 8.150091,3.636536 12.275483,7.602898 11.594882,11.147912 -0.423764,2.207232 -2.339528,2.46658 -20.683717,2.800062 -13.454481,0.244592 -20.515308,-0.11564 -21.109437,-1.07696 z M 60.666665,34.738896 C 49.368122,33.286855 42.539708,31.201671 29.782582,25.307861 17.582685,19.671492 6.6658138,11.578613 6.6681688,8.1727172 6.6695362,6.1950149 12.382356,6 70.316317,6 129.08212,6 133.99636,6.17329 134.3984,8.2597183 c 0.45206,2.3459697 -6.38895,7.9457617 -19.06507,15.6059497 -7.4879,4.524944 -27.875805,10.406571 -39.193965,11.306913 -4.109985,0.326943 -11.0727,0.131786 -15.4727,-0.433685 z"
       id="path1093" />
  </g>
</svg>
