<?xml version="1.0" encoding="UTF-8" standalone="no"?>
<!-- Created with Inkscape (http://www.inkscape.org/) -->

<svg
   version="1.1"
   id="svg32"
   width="141.33333"
   height="84"
   viewBox="0 0 141.33333 84"
   xmlns="http://www.w3.org/2000/svg"
   xmlns:svg="http://www.w3.org/2000/svg">
  <defs
     id="defs36" />
  <g
     id="g38">
    <path
       style="fill:#000000;stroke-width:1.33333"
       d="M 21.349858,77.616525 C 13.658946,77.405613 6.803124,76.669791 6.1146964,75.981363 c -2.027133,-2.027132 2.9490023,-6.36855 8.3373806,-7.273927 2.684691,-0.451092 9.213448,0.0932 14.508349,1.209537 10.354441,2.183054 14.824164,1.703278 12.313626,-1.321734 -0.80337,-0.968003 -4.868685,-2.173143 -9.03403,-2.678088 -4.165345,-0.504947 -8.623356,-1.463984 -9.906689,-2.131196 -2.622356,-1.363376 -3.123703,-4.63361 -0.827692,-5.398947 2.891316,-0.963772 21.631662,2.958947 23.887019,5.000016 1.860379,1.68362 5.882984,2.018652 22.107428,1.841265 10.908283,-0.119264 27.607947,-0.894418 37.110362,-1.722565 19.40953,-1.691567 18.9611,-1.371836 19.25664,-13.730008 C 124.05693,41.837427 125.08048,40 129.31272,40 c 6.28225,0 7.13665,2.486473 6.37514,18.552759 -0.37785,7.97197 -1.10622,15.172804 -1.61861,16.001852 -0.67171,1.086848 -8.9945,1.281189 -29.83376,0.696634 C 53.391767,73.825047 50.038729,73.802076 47.839383,74.864872 43.200546,77.106511 34.752474,77.984071 21.349858,77.616525 Z M 5.8749889,35.797728 C 5.3515389,34.950768 6.0636704,33.440412 7.4629662,32.429795 8.8583347,31.422015 14.41659,26.563037 19.814646,21.632067 34.796207,7.9468384 32.192253,8.6517035 67.333332,8.7692212 134.3099,8.9932023 138.86038,9.3621711 132.68643,14.06828 c -2.19052,1.669725 -7.82296,2.002288 -32.66667,1.928772 -16.510867,-0.04885 -37.004247,-0.06819 -45.54084,-0.04295 L 38.957842,16 32.478921,20.668423 c -3.563407,2.567632 -7.926626,5.289928 -9.69604,6.049546 -8.12344,3.487434 0.450484,4.060316 54.995716,3.674643 46.183723,-0.326551 55.645103,-0.08375 56.230383,1.443052 2.05088,5.350001 0.31142,5.497669 -64.760219,5.497669 -45.66,0 -62.6795934,-0.4124 -63.3737721,-1.535605 z"
       id="path954" />
  </g>
</svg>
