<?xml version="1.0" encoding="UTF-8" standalone="no"?>
<!-- Created with Inkscape (http://www.inkscape.org/) -->

<svg
   version="1.1"
   id="svg42"
   width="145.33333"
   height="92"
   viewBox="0 0 145.33333 92"
   xmlns="http://www.w3.org/2000/svg"
   xmlns:svg="http://www.w3.org/2000/svg">
  <defs
     id="defs46" />
  <g
     id="g48">
    <path
       style="fill:#000000;stroke-width:1.33333"
       d="m 124.67428,84.865412 c -1.12963,-1.724024 -2.49346,-6.612585 -3.03074,-10.863471 l -0.97688,-7.728882 -4,3.31803 c -6.00052,4.977484 -15.26492,9.971943 -21.999996,11.86025 -3.299999,0.925218 -6.686169,2.197658 -7.524821,2.827644 -0.838652,0.629985 -9.538651,1.137906 -19.333333,1.128716 C 49.43989,85.390459 42.1436,84.110045 30.642947,78.885565 23.632914,75.701069 7.9999998,62.040004 7.9999998,59.098673 c 0,-1.77014 6.9680542,-1.94412 58.1957052,-1.453037 l 58.195705,0.55788 4.37353,4.772343 c 6.95959,7.594233 9.59919,20.998404 4.65604,23.643896 -4.01885,2.150825 -6.51613,1.64994 -8.7467,-1.754343 z m 6.07421,-9.866281 c -0.98263,-2.749523 -2.66547,-6.199131 -3.73965,-7.665798 -1.77189,-2.419296 -1.8704,-1.98949 -1.0619,4.633336 0.98729,8.087394 2.95859,11.661131 5.19742,9.422303 0.96539,-0.965393 0.84432,-2.919584 -0.39587,-6.389841 z M 36.333332,37.429787 c -2.383333,-1.498159 -4.333333,-3.24513 -4.333333,-3.882159 0,-0.637028 -1.412718,-2.682583 -3.139373,-4.545675 -2.943724,-3.17633 -3.524421,-3.299328 -9.317822,-1.973609 -4.499858,1.029713 -7.088281,0.999283 -9.527294,-0.112005 C 5.5688769,24.890317 5.7900373,22.212673 10.72287,18.352151 15.363561,14.720264 14.996981,11.135021 9.8529316,9.8439469 7.8982685,9.3533577 6.6666665,8.0693573 6.6666665,6.5221227 c 0,-3.495735 4.1701245,-3.22541 8.1221255,0.5265102 L 18,10.097266 22.275711,6.9343313 c 4.274887,-3.1623244 7.057622,-3.0254049 7.057622,0.3472579 0,0.9849824 -1.8,2.4183604 -4,3.1852848 -5.043,1.757999 -5.099008,4.567039 -0.154235,7.735525 2.115171,1.355346 5.914927,5.164268 8.443901,8.464268 4.298787,5.609385 4.981553,5.986212 10.487568,5.788216 3.239188,-0.116482 7.689432,-0.971694 9.889432,-1.90047 12.691059,-5.357802 29.711658,-6.363109 42.666665,-2.520069 16.531426,4.903965 31.809646,8.116393 36.632626,7.702444 3.46883,-0.297724 4.70071,0.120669 4.70071,1.596545 0,2.123804 -3.62088,2.214914 -51.333335,1.291662 C 76.033332,38.419236 61.333332,38.679021 53.999999,39.2023 41.919062,40.064345 40.259638,39.897853 36.333332,37.429787 Z"
       id="path815" />
  </g>
</svg>
