<?xml version="1.0" encoding="UTF-8" standalone="no"?>
<!-- Created with Inkscape (http://www.inkscape.org/) -->

<svg
   version="1.1"
   id="svg52"
   width="52"
   height="49.333332"
   viewBox="0 0 52 49.333332"
   xmlns="http://www.w3.org/2000/svg"
   xmlns:svg="http://www.w3.org/2000/svg">
  <defs
     id="defs56" />
  <g
     id="g58">
    <path
       style="fill:#000000;stroke-width:1.33333"
       d="M 16,42.458604 C 8.4336216,38.179644 6.0439771,33.864224 6.0205003,24.436787 5.9956275,14.44882 8.7255779,9.984084 17.402631,5.821722 26.278939,1.5637776 33.348777,2.7781247 40.678637,9.8197136 48.353503,17.19274 49.830571,25.045923 45.140385,33.54167 38.938104,44.776411 26.713268,48.5172 16,42.458604 Z m 13.809031,-3.923908 c 1.509481,-2.155086 1.644718,-3.703745 0.588112,-6.734729 -1.777642,-5.099344 -0.945548,-5.745285 4.748589,-3.686258 3.805876,1.376222 5.068193,1.368601 6.766489,-0.04085 2.660487,-2.208009 2.655383,-4.608594 -0.01451,-6.82441 -1.616448,-1.341534 -3.31831,-1.420179 -7.364066,-0.340304 -5.476174,1.461674 -8.133504,0.15838 -5.350806,-2.624317 C 29.998947,17.46772 30.666667,14.82 30.666667,12.4 c 0,-3.993751 -0.366972,-4.4000002 -3.974598,-4.4000002 -3.086569,0 -4.154554,0.7170066 -4.780041,3.2091452 -0.442995,1.76503 -0.12668,4.477431 0.702923,6.027556 2.291612,4.281916 0.49252,5.726394 -4.145187,3.328142 -3.723675,-1.925586 -4.2481,-1.908754 -6.590999,0.211539 -5.7757878,5.227016 -0.695007,11.548029 6.335039,7.88144 3.698195,-1.928829 7.119529,-2.595469 7.119529,-1.387227 0,0.332162 -0.676149,2.087916 -1.502554,3.901677 -1.810732,3.974126 -0.520491,10.16106 2.119018,10.16106 1.044446,0 2.7811,-1.259386 3.859234,-2.798636 z"
       id="path676" />
  </g>
</svg>
