<?xml version="1.0" encoding="UTF-8" standalone="no"?>
<!-- Created with Inkscape (http://www.inkscape.org/) -->

<svg
   version="1.1"
   id="svg62"
   width="54.666668"
   height="141.33333"
   viewBox="0 0 54.666668 141.33333"
   xmlns="http://www.w3.org/2000/svg"
   xmlns:svg="http://www.w3.org/2000/svg">
  <defs
     id="defs66" />
  <g
     id="g68">
    <path
       style="fill:#000000;stroke-width:1.33333"
       d="m 32.851547,134.46929 c -1.13486,-1.73202 -2.943238,-6.74616 -4.01862,-11.14254 -1.075381,-4.39638 -2.974216,-11.59342 -4.219632,-15.99342 -1.245414,-4.4 -4.037181,-14.599999 -6.203924,-22.666665 C 14.398114,69.732973 13.936139,68.05278 9.9774637,53.999999 6.4164951,41.359024 5.8719604,42.145386 19.097607,40.829616 L 30.861882,39.659234 30.649689,25.496283 c -0.116706,-7.789622 -0.160628,-14.91295 -0.09761,-15.8296166 0.07493,-1.0898709 2.365268,-1.6666666 6.617992,-1.6666666 3.647846,0 7.051711,0.7318117 7.752142,1.6666666 1.207404,1.6115026 0.11436,20.2969106 -5.596203,95.6666636 -1.250161,16.5 -2.754085,30.51415 -3.342052,31.14253 -0.587968,0.6284 -1.997554,-0.27456 -3.132414,-2.00657 z M 31.402025,49.698208 c -0.420415,-1.095582 -3.300708,-1.698209 -8.116695,-1.698209 -6.471922,0 -7.377287,0.310415 -6.805476,2.333333 1.990584,7.042176 6.664881,25.728261 7.58784,30.333333 0.587907,2.933333 1.638628,6.833333 2.334939,8.666666 0.69631,1.833334 1.709172,6.633333 2.250802,10.666667 0.54163,4.033332 1.366183,7.933332 1.83234,8.666662 0.986564,1.55201 1.887598,-56.43716 0.91625,-58.968452 z"
       id="path537" />
  </g>
</svg>
