<?xml version="1.0" encoding="UTF-8" standalone="no"?>
<!-- Created with Inkscape (http://www.inkscape.org/) -->

<svg
   version="1.1"
   id="svg72"
   width="144"
   height="144"
   viewBox="0 0 144 144"
   xmlns="http://www.w3.org/2000/svg"
   xmlns:svg="http://www.w3.org/2000/svg">
  <defs
     id="defs76" />
  <g
     id="g78">
    <path
       style="fill:#000000;stroke-width:1.33333"
       d="M 27.333333,137.33333 7.3333333,136.66667 v -14 -14 l 63.9583617,-0.27339 c 41.063725,-0.17552 64.250345,0.19905 64.774025,1.0464 1.06688,1.72625 0.53025,24.51732 -0.62113,26.38032 -0.59176,0.95747 -12.09471,1.49227 -34.49951,1.60396 -18.486459,0.0922 -38.111747,0.25948 -43.611747,0.3718 -5.5,0.11233 -19,-0.0958 -30,-0.46243 z m 104.062327,-8.44028 c 0.42888,-1.70882 0.59031,-5.75882 0.35873,-9 L 131.33333,114 H 72.175517 13.0177 l -1.175517,3.0868 c -1.380653,3.62547 -1.567015,12.74392 -0.286627,14.02431 C 12.044444,131.6 39.033013,132 71.530153,132 H 130.61586 Z M 38.666667,42.709205 c -13.472179,-0.682466 -14.301612,-0.904394 -22,-5.886436 -4.4,-2.847476 -8.3944882,-5.793065 -8.8766401,-6.545754 -1.4796796,-2.309932 0.3253495,-4.923098 4.0237081,-5.825178 1.93578,-0.472164 4.922404,-1.944873 6.636942,-3.272688 2.757408,-2.135458 5.143631,-2.338416 20.666667,-1.757777 C 48.769472,19.782411 59.516667,20.332029 63,20.642749 69.30636,21.205288 71.441936,19.800993 67,18.01246 65.716667,17.495729 60.012837,17.15498 54.324824,17.255239 44.962616,17.420259 43.669308,17.123852 40.671592,14.126137 34.970952,8.4254969 37.042081,7.3447888 54.35246,6.9875096 67.629655,6.7134739 71.281531,7.1127869 78.459871,9.6235217 83.1128,11.250956 88.535489,14.235119 90.510292,16.254993 c 3.575359,3.656964 3.677777,3.674066 24.206798,4.042088 l 20.61624,0.369586 v 8 8 L 118.95194,36.19148 c -16.36235,-0.474635 -18.62536,-0.09893 -29.618607,4.917207 -5.063978,2.310658 -24.517398,2.925176 -50.666666,1.600518 z"
       id="path398" />
  </g>
</svg>
