<?xml version="1.0" encoding="UTF-8" standalone="no"?>
<!-- Created with Inkscape (http://www.inkscape.org/) -->

<svg
   version="1.1"
   id="svg82"
   width="97.333336"
   height="140"
   viewBox="0 0 97.333336 140"
   xmlns="http://www.w3.org/2000/svg"
   xmlns:svg="http://www.w3.org/2000/svg">
  <defs
     id="defs86" />
  <g
     id="g88">
    <path
       style="fill:#000000;stroke-width:1.33333"
       d="m 84.361449,134.89005 c -2.177477,-1.34576 -5.809888,-11.37244 -7.084898,-19.55672 -0.770196,-4.94388 -0.340908,-9.7267 1.661219,-18.50809 4.536647,-19.897887 0.861554,-29.82186 -8.2973,-22.405469 -3.983051,3.225277 -5.106166,11.459288 -3.456667,25.342214 1.626055,13.685605 -0.145273,21.648565 -6.213016,27.930445 -11.565611,11.97377 -33.183576,6.20597 -38.087533,-10.16198 -0.898617,-2.99931 -1.54992,-14.17233 -1.54992,-26.588663 0,-11.778523 -0.649348,-26.084134 -1.442996,-31.790247 -1.990491,-14.311107 -0.790685,-20.813947 5.028745,-27.255361 2.598503,-2.876232 5.554734,-5.229512 6.569401,-5.229512 2.477784,0 2.331674,-1.93612 -0.311662,-4.129894 -1.480648,-1.228829 -5.177467,-1.66367 -11.79564,-1.38747 -9.9512555,0.4153 -14.0478485,-1.30851 -14.0478485,-5.911208 0,-4.660939 8.7053445,-9.9047617 16.4430335,-9.9047617 5.144782,0 13.819407,7.1610167 27.04681,22.3274937 l 8.838219,10.13386 -0.677914,8.102657 C 56.440188,52.390973 54.547,57.574441 47.449853,72 c -6.122027,12.443544 -9.509041,21.231363 -10.972149,28.46792 -2.532715,12.52685 -1.608788,15.55396 5.919574,19.39465 5.036962,2.56966 5.274379,2.57473 9.186018,0.19592 4.944347,-3.00684 6.104264,-9.32513 4.879507,-26.579605 -1.135503,-15.997052 -0.07662,-20.531736 6.278235,-26.886588 4.376487,-4.376486 6.157205,-5.258964 10.611877,-5.258964 4.23271,0 6.391993,0.952244 10.318165,4.550312 4.817568,4.414971 4.979558,4.86538 5.4463,15.14323 0.353372,7.781385 -0.07483,11.667865 -1.613312,14.642965 -4.90119,9.47786 -5.12584,22.50828 -0.587398,34.07101 1.579742,4.02475 0.182204,6.84103 -2.555221,5.1492 z"
       id="path259" />
  </g>
</svg>
