<?xml version="1.0" encoding="UTF-8" standalone="no"?>
<!-- Created with Inkscape (http://www.inkscape.org/) -->

<svg
   version="1.1"
   id="svg92"
   width="144"
   height="141.33333"
   viewBox="0 0 144 141.33333"
   xmlns="http://www.w3.org/2000/svg"
   xmlns:svg="http://www.w3.org/2000/svg">
  <defs
     id="defs96" />
  <g
     id="g98">
    <path
       style="fill:#000000;stroke-width:1.33333"
       d="M 6.4080808,134.33333 C 6.1089416,133.41666 6.1947483,128.2194 6.5987624,122.78387 l 0.7345709,-9.8828 63.1053337,0.20254 c 34.707933,0.1114 63.554923,0.4804 64.104423,0.82001 0.5495,0.33961 0.9521,5.28728 0.89467,10.99482 -0.12587,12.511 -1.87975,13.68677 -9.77549,6.55344 l -5.18913,-4.68806 -49.937303,-0.17919 -49.937301,-0.17919 -5.226491,4.78728 c -5.4752609,5.01514 -8.0528817,5.91249 -8.9639642,3.12061 z M 56.333333,77.645169 c -7.217317,-0.592455 -7.55948,-3.707013 -1.036445,-9.434312 7.092389,-6.227201 19.778489,-8.808876 26.457433,-5.3842 5.262976,2.698628 11.579012,9.632319 11.579012,12.71134 0,2.972458 -0.220481,3.011773 -15.666666,2.793613 C 69.05,78.209903 59.45,77.90101 56.333333,77.645169 Z m -3,-42.601644 C 46.202376,33.774235 33.822673,29.115975 25.440507,24.547954 16.508861,19.680484 6.31998,11.04006 7.0234024,8.9297927 7.5091253,7.4726237 132.7311,6.9533201 134.18024,8.4024651 c 1.73917,1.7391759 -1.19054,5.0436069 -9.85449,11.1149029 -9.32988,6.537947 -21.16338,11.683821 -33.408487,14.527895 -7.820816,1.81648 -29.71939,2.398125 -37.58393,0.998262 z"
       id="path120" />
  </g>
</svg>
