<?xml version="1.0" encoding="UTF-8" standalone="no"?>
<!-- Created with Inkscape (http://www.inkscape.org/) -->

<svg
   version="1.1"
   id="svg2"
   width="34.666668"
   height="138.66667"
   viewBox="0 0 34.666668 138.66667"
   xmlns="http://www.w3.org/2000/svg"
   xmlns:svg="http://www.w3.org/2000/svg">
  <defs
     id="defs6" />
  <g
     id="g8">
    <path
       style="fill:#000000;stroke-width:1.33333"
       d="m 8.3333337,133.72223 c -2.6852439,-0.98459 -1.8547836,-8.25011 2.3157143,-20.25967 l 3.890793,-11.20412 -3.409814,-5.818404 C 6.7818599,89.020449 6.188518,76.211642 9.9979949,72.002218 12.356223,69.396404 12.321183,69.105582 8.7768403,61.867091 5.3948615,54.960191 5.2406955,53.944116 6.6704395,47.984276 7.5188964,44.44751 9.3651438,40.511197 10.773211,39.236913 14.097691,36.2283 14.006118,35.184509 10,30.423509 7.3732096,27.301745 6.6666669,24.982231 6.6666669,19.480488 c 0,-5.908788 0.574631,-7.532109 3.7396251,-10.5643662 2.29563,-2.1993527 5.227817,-3.5827883 7.593709,-3.5827883 2.365892,0 5.298079,1.3834356 7.593708,3.5827883 5.105242,4.8911302 5.227308,13.6088652 0.292245,20.8714632 l -3.44738,5.073276 3.313992,4.902903 c 1.822695,2.696597 3.731004,6.305068 4.240688,8.018822 1.414838,4.757243 -0.384748,11.685791 -4.218645,16.24212 l -3.452617,4.103202 2.99343,3.18636 c 1.830866,1.948867 3.257068,5.525354 3.67226,9.208922 0.563296,4.997555 -0.06117,7.444427 -3.669142,14.376918 -3.915962,7.524282 -4.187319,8.755712 -2.731088,12.393792 2.579562,6.44449 6.745882,21.14025 6.745882,23.7946 0,1.7553 -0.82992,2.31197 -2.988061,2.00424 -2.429845,-0.34647 -3.149105,-1.54696 -3.850108,-6.42607 -0.474124,-3.3 -1.58038,-8.65308 -2.458344,-11.89573 -1.975151,-7.29498 -3.09762,-5.87236 -6.229882,7.89573 -2.487404,10.93357 -2.997332,11.96352 -5.4736053,11.05556 z M 22.136046,89.880057 C 24.775,83.56415 24.451377,79.914011 20.853818,75.417844 l -3.132937,-3.915492 -2.374539,3.624004 c -1.834972,2.800523 -2.192452,5.161439 -1.573207,10.389994 1.323971,11.178867 4.765119,12.974434 8.362911,4.363707 z M 24.334161,54.327705 C 25.132228,48.890129 24.250348,45.18304 21.236339,41.30572 l -2.569672,-3.305719 -2.637665,3.333333 c -4.3552,5.503858 -4.809931,11.486342 -1.405684,18.493309 l 2.985447,6.144948 3.074044,-3.855219 c 1.690724,-2.120371 3.333832,-5.625271 3.651352,-7.788667 z M 22.068037,24.709493 c 2.525028,-6.043245 2.442391,-9.935502 -0.274687,-12.937838 -2.923957,-3.230938 -5.195189,-3.0764312 -7.717744,0.52502 -2.624254,3.746648 -2.63794,8.081651 -0.04137,13.102872 2.70224,5.225555 5.668553,4.970766 8.033796,-0.690054 z"
       id="path1371" />
  </g>
</svg>
