<?xml version="1.0" encoding="UTF-8" standalone="no"?>
<!-- Created with Inkscape (http://www.inkscape.org/) -->

<svg
   version="1.1"
   id="svg12"
   width="54.666668"
   height="140"
   viewBox="0 0 54.666668 140"
   xmlns="http://www.w3.org/2000/svg"
   xmlns:svg="http://www.w3.org/2000/svg">
  <defs
     id="defs16" />
  <g
     id="g18">
    <path
       style="fill:#000000;stroke-width:1.33333"
       d="m 7.0169394,132.32304 c -0.8224399,-2.14336 2.8092671,-7.71407 6.6682966,-10.22856 4.768651,-3.1072 14.682369,-5.23909 19.852471,-4.26918 8.631982,1.61937 18.205929,10.9644 14.761644,14.40868 -2.058253,2.05826 -40.4949836,2.14117 -41.2824116,0.0891 z M 24.000001,48.361895 c -1.1,-0.382023 -3.650001,-2.231986 -5.666667,-4.11103 -3.028894,-2.822192 -3.666667,-4.544157 -3.666667,-9.899866 0,-3.565884 0.823989,-8.10363 1.831087,-10.083879 3.887854,-7.644663 3.931917,-9.503095 0.258434,-10.899751 C 12.678918,11.817194 12.38071,9.9369852 15.912346,8.0469117 19.049047,6.3681999 38.60077,6.2436439 41.19429,7.8858507 c 2.341211,1.4824449 1.014014,5.1973003 -2.31492,6.4795163 -2.45333,0.944956 -2.450226,1.142297 0.13056,8.3013 3.075364,8.530954 3.341282,12.990352 1.097626,18.407017 -2.167664,5.233192 -10.79051,9.134785 -16.107555,7.288211 z"
       id="path1232" />
  </g>
</svg>
