<?xml version="1.0" encoding="UTF-8" standalone="no"?>
<!-- Created with Inkscape (http://www.inkscape.org/) -->

<svg
   version="1.1"
   id="svg32"
   width="142.66667"
   height="141.33333"
   viewBox="0 0 142.66667 141.33333"
   xmlns="http://www.w3.org/2000/svg"
   xmlns:svg="http://www.w3.org/2000/svg">
  <defs
     id="defs36" />
  <g
     id="g38">
    <path
       style="fill:#000000;stroke-width:1.33333"
       d="M 7.6476242,133.74308 C 7.1515974,132.85939 7.3249372,103.0424 7.845726,99.666664 c 0.084851,-0.55 1.9716893,-1 4.192974,-1 h 4.0387 L 15.705367,116.33333 15.333334,134 l -3.540752,0.40974 c -1.9474134,0.22536 -3.8126445,-0.0747 -4.1449578,-0.66666 z M 67.066656,133 c -0.692925,-0.91667 -1.198001,-8.86667 -1.122392,-17.66667 l 0.137472,-15.999999 5.144103,-0.424848 c 5.134065,-0.424019 5.14244,-0.416539 4.292465,3.833337 -0.4684,2.342 -0.851636,10.48318 -0.851636,18.09151 0,13.67669 -0.0359,13.83333 -3.170073,13.83333 -1.743541,0 -3.737013,-0.75 -4.429939,-1.66666 z m 59.890474,0.54106 c -1.27518,-0.80915 -1.61395,-5.29265 -1.33333,-17.64625 0.36969,-16.274788 0.4308,-16.569203 3.52998,-17.007699 5.29978,-0.749852 6.00413,1.405819 5.67458,17.367419 -0.35369,17.13089 -2.09382,20.95252 -7.87123,17.28653 z M 62.000001,36.444239 c -8.360861,-1.023247 -20.363011,-4.798448 -30,-9.436312 C 20.305252,21.379753 5.9277625,10.872237 7.6140687,9.1859313 8.9291001,7.8708999 132.42147,7.2790592 134.52275,8.5777177 137.55356,10.450868 132.23836,15.720068 119.33334,23.635661 103.1309,33.57379 80.272377,38.68051 62.000001,36.444239 Z"
       id="path954" />
  </g>
</svg>
