<?xml version="1.0" encoding="UTF-8" standalone="no"?>
<!-- Created with Inkscape (http://www.inkscape.org/) -->

<svg
   version="1.1"
   id="svg42"
   width="44"
   height="140"
   viewBox="0 0 44 140"
   xmlns="http://www.w3.org/2000/svg"
   xmlns:svg="http://www.w3.org/2000/svg">
  <defs
     id="defs46" />
  <g
     id="g48">
    <path
       style="fill:#000000;stroke-width:1.33333"
       d="M 7.18414,132.75867 C 6.781448,131.70927 6.6725087,105.43348 6.9420525,74.368013 7.4081261,20.6521 7.5636761,17.659569 10.117578,13.27601 13.903581,6.7776533 21.371932,4.3444908 28.150175,7.4010529 c 2.681196,1.2090508 5.620425,3.5912991 6.531622,5.2938851 1.193907,2.230835 1.702556,13.461019 1.820795,40.200337 C 36.662619,89.084705 36.601316,90 34.017448,90 31.449516,90 31.358043,88.922633 31.036236,54.887403 30.667161,15.852968 30.135989,12.943328 23.255928,12.268635 c -2.815035,-0.276056 -4.855171,0.481562 -6.657393,2.472269 -2.478622,2.737847 -2.614068,5.494241 -2.93515,59.731365 C 13.478247,105.74585 13.047078,132.08333 12.705231,133 c -0.847797,2.27339 -4.619367,2.10852 -5.521091,-0.24133 z"
       id="path815" />
  </g>
</svg>
