<?xml version="1.0" encoding="UTF-8" standalone="no"?>
<!-- Created with Inkscape (http://www.inkscape.org/) -->

<svg
   version="1.1"
   id="svg52"
   width="140"
   height="138.66667"
   viewBox="0 0 140 138.66667"
   xmlns="http://www.w3.org/2000/svg"
   xmlns:svg="http://www.w3.org/2000/svg">
  <defs
     id="defs56" />
  <g
     id="g58">
    <path
       style="fill:#000000;stroke-width:1.33333"
       d="M 59.515524,133.09194 C 59.256288,132.12471 57.448951,126.23334 55.499221,120 c -1.949729,-6.23333 -3.53467,-11.72464 -3.522092,-12.2029 0.01253,-0.47826 1.850044,-1.50652 4.083255,-2.28502 3.053467,-1.06445 4.174327,-1.01413 4.519855,0.2029 0.252709,0.89009 2.082197,6.93169 4.06553,13.42577 1.983335,6.49408 3.0994,12.27665 2.480147,12.85015 -2.361621,2.18712 -7.134237,2.8776 -7.610392,1.10104 z M 77.6,127.73334 c -0.88,-0.88 -1.6,-2.64424 -1.6,-3.92054 0,-1.2763 -1.556632,-6.63589 -3.459183,-11.9102 -3.76365,-10.43372 -3.220208,-12.278454 3.411759,-11.58133 2.426176,0.25503 3.533775,1.39197 4.233249,4.3454 0.521036,2.2 2.329514,7.80777 4.018838,12.46172 3.014961,8.30596 3.024384,8.49617 0.511912,10.33333 -3.134291,2.29185 -5.02421,2.36398 -7.116575,0.27162 z M 19.941748,39.891156 c -0.752897,-1.406802 -1.893948,-2.557822 -2.535669,-2.557822 -0.64172,0 -3.64618,-1.62332 -6.676578,-3.607379 -6.9000455,-4.51759 -7.0812298,-8.832518 -0.397939,-9.476966 2.735575,-0.263784 4.879821,-1.44211 5.819553,-3.198015 1.452712,-2.714419 2.108686,-2.762367 27.668437,-2.022423 22.746133,0.658489 25.743185,0.515757 22.847115,-1.088072 -2.001311,-1.108316 -7.432894,-1.864864 -13.592315,-1.893232 -8.797004,-0.04051 -10.77642,-0.492328 -13.889945,-3.17047 -5.289219,-4.5495939 -3.624162,-8.1764272 3.163008,-6.8896777 2.742256,0.5198921 10.985918,1.0797775 18.319252,1.2441899 14.253541,0.3195627 21.36621,2.6851244 28.701698,9.5457338 3.19866,2.991587 4.407843,3.168932 24.000005,3.519976 L 134,20.666667 l 0.4102,7.20714 c 0.22948,4.03203 -0.20375,7.586575 -0.98337,8.068414 -0.76647,0.473701 -6.35106,0.352679 -12.4102,-0.268939 -13.73804,-1.409405 -21.074815,-0.546386 -31.553933,3.71166 -7.969436,3.238272 -9.122748,3.334971 -38.18484,3.20158 C 23.177255,42.457549 21.225385,42.289656 19.941748,39.891156 Z"
       id="path676" />
  </g>
</svg>
