<?xml version="1.0" encoding="UTF-8" standalone="no"?>
<!-- Created with Inkscape (http://www.inkscape.org/) -->

<svg
   version="1.1"
   id="svg62"
   width="58.666668"
   height="136"
   viewBox="0 0 58.666668 136"
   xmlns="http://www.w3.org/2000/svg"
   xmlns:svg="http://www.w3.org/2000/svg">
  <defs
     id="defs66" />
  <g
     id="g68">
    <path
       style="fill:#000000;stroke-width:1.33333"
       d="m 19.900688,128.40546 c -0.773444,-2.03431 -2.183188,-5.50776 -3.132765,-7.71877 -4.662827,-10.857 -4.899112,-11.7555 -3.467825,-13.18679 0.785269,-0.78527 3.478044,-1.25112 5.983941,-1.03522 l 4.556179,0.39253 0.597216,-15.761937 c 0.328469,-8.669066 1.266399,-22.36194 2.084288,-30.428606 2.371688,-23.391426 3.814693,-45.187148 3.116347,-47.070496 -0.354279,-0.95544 -1.877384,-1.55544 -3.38468,-1.333334 -3.683044,0.542712 -4.662983,4.846128 -5.53377,24.301646 -0.846229,18.906841 -2.606892,28.628782 -6.326416,34.932908 -3.376682,5.723048 -7.4209079,8.18383 -8.5621525,5.209794 C 5.3932219,75.566223 5.6381853,73.890348 6.3754137,72.98302 12.995979,64.834905 15.56047,53.970288 15.891712,32.666667 16.211174,12.120762 19.205943,5.3333333 27.951811,5.3333333 c 9.924485,0 11.662483,4.5419446 11.989858,31.3333337 0.107533,8.8 0.41672,17.8 0.687087,20 0.270366,2.2 0.645666,14.35 0.833997,27 l 0.342423,23.000003 h 5.541857 c 3.048021,0 5.930454,0.38859 6.405406,0.86354 0.47495,0.47496 -0.263126,3.02496 -1.640171,5.66667 -1.377046,2.64172 -3.721136,7.80312 -5.209091,11.46979 l -2.705371,6.66666 -11.445428,0.38544 c -11.424883,0.38474 -11.447952,0.3788 -12.85169,-3.31331 z"
       id="path537" />
  </g>
</svg>
