<?xml version="1.0" encoding="UTF-8" standalone="no"?>
<!-- Created with Inkscape (http://www.inkscape.org/) -->

<svg
   version="1.1"
   id="svg72"
   width="50.666668"
   height="133.33333"
   viewBox="0 0 50.666668 133.33333"
   xmlns="http://www.w3.org/2000/svg"
   xmlns:svg="http://www.w3.org/2000/svg">
  <defs
     id="defs76" />
  <g
     id="g78">
    <path
       style="fill:#000000;stroke-width:1.33333"
       d="M 20.654494,114.25863 C 19.571395,96.924167 20.220379,93.324262 24.423185,93.353748 29.811962,93.391555 30.209929,94.702275 30.084626,112 l -0.120732,16.66666 -4.179104,0.40766 -4.179105,0.40765 z M 18.017031,56.027555 C 17.573172,55.309376 17.837762,53.548821 18.605008,52.115209 21.035126,47.574493 20.120791,43.478702 15.571366,38.525911 13.142624,35.88183 10.338465,33.446154 9.3399014,33.113299 7.0587539,32.352917 5.1241388,15.390489 6.8121804,10.950603 7.6525762,8.7401951 8.8938862,7.9168271 11.003122,8.1707279 c 1.648283,0.1984132 4.41082,-0.4141624 6.13897,-1.3612789 4.818137,-2.640589 23.543485,0.1555154 25.497912,3.807396 1.794624,3.353285 -0.384507,21.742433 -2.666643,22.503145 -2.849549,0.94985 -9.32286,8.557716 -10.191415,11.97763 -0.432687,1.703692 -0.110627,3.773692 0.715676,4.6 0.826308,0.826308 1.502379,2.882379 1.502379,4.569045 0,2.786227 -0.602455,3.066667 -6.587978,3.066667 -3.623388,0 -6.951135,-0.5876 -7.394992,-1.305777 z"
       id="path398" />
  </g>
</svg>
