<?xml version="1.0" encoding="UTF-8" standalone="no"?>
<!-- Created with Inkscape (http://www.inkscape.org/) -->

<svg
   version="1.1"
   id="svg82"
   width="144"
   height="144"
   viewBox="0 0 144 144"
   xmlns="http://www.w3.org/2000/svg"
   xmlns:svg="http://www.w3.org/2000/svg">
  <defs
     id="defs86" />
  <g
     id="g88">
    <path
       style="fill:#000000;stroke-width:1.33333"
       d="m 37.911559,137.44444 c -1.942682,-1.86651 0.11108,-4.10441 4.421774,-4.81822 9.485492,-1.5707 12.346714,-3.40794 15.741986,-10.10819 1.791908,-3.53616 3.285872,-7.49933 3.319921,-8.80704 0.03405,-1.30771 1.998117,-5.97766 4.364597,-10.37766 3.95343,-7.350613 4.779142,-8.100557 10.172255,-9.238837 5.749368,-1.21347 5.960832,-1.133257 10.32654,3.917123 2.451339,2.835784 6.071203,8.493254 8.044145,12.572174 1.972943,4.07892 6.211903,11.20328 9.419903,15.83192 3.20801,4.62863 5.5016,9.27864 5.09688,10.33333 -0.56839,1.4812 -3.61029,1.91763 -13.365691,1.91763 -12.382637,0 -16.093409,-1.22712 -13.016177,-4.30436 0.772936,-0.77294 4.440657,-1.697 8.150491,-2.05346 3.709832,-0.35647 6.74515,-1.21124 6.74515,-1.89948 0,-2.18392 -2.921721,-6.82532 -9.219021,-14.64519 -3.362872,-4.17596 -7.057372,-8.93274 -8.21,-10.57064 -2.205231,-3.13366 -5.237645,-2.55902 -5.237645,0.99253 0,1.11577 -2.039898,5.13036 -4.533107,8.92131 -4.282279,6.51123 -8.800227,17.51544 -8.800227,21.43439 0,1.36091 -2.698534,1.74367 -11.421774,1.62007 -6.281976,-0.0891 -11.681976,-0.41184 -12,-0.7174 z M 11.946755,90.613421 C 10.450804,89.117471 8.6109984,86.273715 7.8582983,84.293963 6.5000117,80.721399 7.3005968,72.557788 9.2600719,70 9.8218652,69.266667 10.600101,67.466667 10.989486,66 11.37887,64.533333 12.111402,62.331075 12.617335,61.106093 13.3017,59.449087 12.743034,58.766348 10.435273,58.439427 8.4061657,58.15198 7.1859741,56.962424 6.9072653,55 6.4874329,52.043904 6.6971995,52 21.240599,52 35.063795,52 36,52.167539 36,54.641264 c 0,1.705363 -1.181128,2.937708 -3.333333,3.477877 -4.185084,1.05039 -4.172472,2.702343 0.08935,11.703447 3.033328,6.406484 3.257051,7.843931 1.966664,12.63606 -0.904962,3.360777 -2.909014,6.441867 -5.295177,8.140964 -5.142647,3.661888 -13.825809,3.668748 -17.480747,0.01381 z m 88.386575,1.831044 c -3.116663,-0.328786 -5.666663,-0.920718 -5.666663,-1.315406 0,-0.394687 0.956958,-2.337616 2.126576,-4.317619 3.528987,-5.974103 10.217317,-9.641261 19.043907,-10.441629 6.92514,-0.62795 8.76323,-0.271355 13.79198,2.675689 6.19036,3.627792 10.37788,9.484349 8.27726,11.57636 -1.40351,1.397756 -28.93887,2.733451 -37.57306,1.822605 z M 45.656243,42.965216 c -18.58934,-0.336372 -20.485504,-0.595088 -21.987396,-3 -0.904002,-1.447536 -2.357706,-2.631883 -3.230455,-2.631883 -0.872749,0 -3.703027,-1.35 -6.289503,-3 -5.3881777,-3.437297 -6.7163585,-9 -2.148889,-9 1.466667,0 3.985695,-1.319028 5.59784,-2.931173 2.83478,-2.83478 3.766536,-2.922413 28.333333,-2.664807 23.208926,0.243368 25.171919,0.08727 22.735494,-1.80805 -2.093563,-1.628596 -4.672532,-1.901103 -12,-1.267978 -8.010855,0.692172 -9.960222,0.41401 -13.757562,-1.963121 -2.774849,-1.737051 -4.259266,-3.62614 -3.981742,-5.0672157 0.393236,-2.0419254 2.443857,-2.2926274 18.424228,-2.2524836 20.39864,0.051243 25.858525,1.3769034 33.27792,8.0798803 l 4.947622,4.46988 20.544767,0.369202 20.54477,0.3692 0.39986,7.666666 c 0.28912,5.543082 -0.0801,7.713879 -1.33333,7.837115 -0.95325,0.09375 -9.05333,0.03604 -18.00016,-0.128227 -15.07939,-0.27687 -16.80139,-0.04585 -23.587473,3.164483 -8.245755,3.900867 -14.373438,4.375837 -48.489324,3.758515 z"
       id="path259" />
  </g>
</svg>
