<?xml version="1.0" encoding="UTF-8" standalone="no"?>
<!-- Created with Inkscape (http://www.inkscape.org/) -->

<svg
   version="1.1"
   id="svg92"
   width="140"
   height="50.666668"
   viewBox="0 0 140 50.666668"
   xmlns="http://www.w3.org/2000/svg"
   xmlns:svg="http://www.w3.org/2000/svg">
  <defs
     id="defs96" />
  <g
     id="g98">
    <path
       style="fill:#000000;stroke-width:1.33333"
       d="m 30.935237,42.940281 c -7.014598,-0.28332 -9.939296,-0.934743 -10.475985,-2.333333 -0.409505,-1.067154 -1.487369,-1.94028 -2.395253,-1.94028 -0.907884,0 -2.736684,-1.2 -4.063999,-2.666667 -1.327315,-1.466667 -3.190494,-2.666667 -4.1403965,-2.666667 -2.3501691,0 -4.321384,-3.828813 -3.5297455,-6.856044 0.4400297,-1.682676 1.8659335,-2.477289 4.445405,-2.477289 2.506018,0 4.312682,-0.962476 5.312133,-2.829968 C 17.544601,18.447219 18.21532,18.37253 33.800975,19.19749 42.710439,19.669074 54.5,20.397647 60,20.816542 69.792861,21.56239 69.933459,21.529555 66.787627,19.231393 64.29226,17.408423 61.291881,16.940802 53.345172,17.13633 44.053496,17.364951 42.779481,17.07701 39.456444,13.997322 33.160884,8.162793 35.077581,7.3314519 54.777752,7.3519166 c 16.902903,0.017559 18.314103,0.2262332 25.602981,3.7859184 4.242736,2.072035 8.694498,5.263664 9.892804,7.092511 l 2.178738,3.325175 20.107195,-0.444427 20.1072,-0.444427 v 8 8.000001 L 115.92658,36.216957 C 100.29516,35.79703 98.617372,36.00219 90.593245,39.314721 c -7.917246,3.268408 -10.219014,3.566005 -29.259912,3.783044 -11.366666,0.129563 -25.04581,0.0587 -30.398096,-0.157484 z"
       id="path120" />
  </g>
</svg>
