<?xml version="1.0" encoding="UTF-8" standalone="no"?>
<!-- Created with Inkscape (http://www.inkscape.org/) -->

<svg
   version="1.1"
   id="svg2"
   width="149.33333"
   height="142.66667"
   viewBox="0 0 149.33333 142.66667"
   xmlns="http://www.w3.org/2000/svg"
   xmlns:svg="http://www.w3.org/2000/svg">
  <defs
     id="defs6" />
  <g
     id="g8">
    <path
       style="fill:#000000;stroke-width:1.33333"
       d="m 103,135.11696 c -1.22435,-0.49404 -1.66667,-5.73561 -1.66667,-19.75019 V 96.28909 L 98.057596,95.466933 C 96.255942,95.014746 86.505942,90.672365 76.39093,85.817194 41.31919,68.982884 33.574526,65.608547 27.80173,64.646962 18.22493,63.051733 12.06446,59.992228 9.8650066,55.738953 8.281563,52.676911 8.1816505,51.387695 9.412823,49.904221 11.706758,47.1402 14.249677,47.546237 19.44035,51.505359 l 4.59576,3.505356 55.648611,0.161429 c 30.606739,0.08879 56.398609,0.646787 57.315279,1.24 0.91666,0.593213 1.66666,2.925919 1.66666,5.183789 v 4.105219 L 128.33333,64.838142 118,63.975131 l 7.75893,4.257076 c 8.54667,4.689279 11.5744,9.010613 11.5744,16.51958 0,4.591932 -0.21943,4.846547 -3.66667,4.254787 -2.01666,-0.346185 -4.82083,-1.118451 -6.23147,-1.716144 -2.16405,-0.916915 -2.40146,-0.685956 -1.51937,1.478093 0.57499,1.410647 1.34046,4.966347 1.70103,7.901555 0.51982,4.231622 0.0854,5.852702 -2.09764,7.828372 -1.51428,1.3704 -3.6442,2.14974 -4.73317,1.73186 -2.97528,-1.14172 -6.16523,-8.223276 -7.04307,-15.635327 -1.63359,-13.793064 -3.07631,-5.681637 -3.07631,17.295967 0,13.14002 -0.36419,24.84003 -0.80931,26 -0.79359,2.06804 -3.54948,2.56076 -6.85735,1.22601 z m 18.31291,-46.116958 c -0.0273,-2.230616 -2.32528,-5.765407 -3.18753,-4.903159 -1.03308,1.033079 0.67782,6.569826 2.03013,6.569826 0.6478,0 1.16863,-0.75 1.1574,-1.666667 z M 101.33333,75.53346 V 64.400252 L 76.999998,63.647244 C 63.616665,63.233091 52.429347,63.130352 52.13929,63.418939 51.610574,63.944976 64.326909,70.091551 87.999998,80.752591 94.966665,83.88999 100.81666,86.504138 101,86.56181 c 0.18333,0.05767 0.33333,-4.905085 0.33333,-11.02835 z m 28,3.163946 c 0,-1.507392 -6.45686,-6.018324 -7.34428,-5.130906 -0.32691,0.326914 0.32584,1.908188 1.45055,3.513944 2.07173,2.957802 5.89373,4.006379 5.89373,1.616962 z M 55.999999,26.659473 C 54.166665,26.076294 49.736278,25.539339 46.154692,25.466241 42.573106,25.393147 37.473106,24.75319 34.821359,24.044123 32.169611,23.335058 25.349999,22.383866 19.666666,21.930363 13.983333,21.476862 9.3333331,20.653315 9.3333331,20.10026 9.3333331,18.222995 16.101936,16 21.817858,16 c 7.061944,0 20.591726,-2.306682 24.251161,-4.134563 1.504627,-0.751558 5.664657,-1.178737 9.24451,-0.949286 l 6.508826,0.417183 0.08883,7.88872 c 0.09373,8.325297 -0.554794,9.141272 -5.911182,7.437419 z m 12.701298,-1.836962 c -2.69805,-2.69805 -3.243885,-4.223807 -2.549914,-7.127704 1.277238,-5.344556 3.018663,-7.02814 7.269603,-7.02814 4.364304,0 7.922855,4.191965 7.891928,9.296675 -0.02772,4.575364 -1.353804,6.328137 -5.592508,7.391984 -2.804529,0.703892 -4.334477,0.151817 -7.019109,-2.532815 z m 17.533328,-4.939996 c -0.451642,-3.813409 -0.458072,-7.520974 -0.01429,-8.23903 0.484332,-0.783665 3.533048,-0.924097 7.626604,-0.351302 3.750847,0.524841 9.207191,1.208562 12.125211,1.519379 2.91801,0.310818 7.41801,1.152022 10,1.869345 2.58198,0.717321 6.90545,1.307568 9.60771,1.311657 5.58074,0.0084 11.75347,2.014179 11.75347,3.819106 0,0.666053 -4.05,1.628659 -9,2.139124 -4.95,0.510464 -11.4,1.418929 -14.33333,2.018811 -2.93334,0.599881 -10.19578,1.485724 -16.138774,1.968537 l -10.805437,0.877845 z"
       id="path328" />
  </g>
</svg>
