<?xml version="1.0" encoding="UTF-8" standalone="no"?>
<!-- Created with Inkscape (http://www.inkscape.org/) -->

<svg
   version="1.1"
   id="svg12"
   width="74.666664"
   height="141.33333"
   viewBox="0 0 74.666664 141.33333"
   xmlns="http://www.w3.org/2000/svg"
   xmlns:svg="http://www.w3.org/2000/svg">
  <defs
     id="defs16" />
  <g
     id="g18">
    <path
       style="fill:#000000;stroke-width:1.33333"
       d="m 7.4005159,134.95606 c -1.3884525,-1.38845 -0.7293176,-3.04389 1.5994838,-4.01716 1.2833333,-0.53634 5.4539013,-2.6122 9.2679273,-4.61302 l 6.934596,-3.63785 -4.012837,-4.34402 C 14.581411,111.19036 6.6666664,98.256424 6.6666664,94.61112 c 0,-11.437923 15.3223306,-7.872799 28.4061226,6.60939 2.706148,2.99539 5.191007,5.44615 5.521908,5.44615 0.330903,0 0.782464,-14.089302 1.003471,-31.309564 0.394525,-30.740354 0.456372,-31.347737 3.40183,-33.408938 3.360846,-2.351886 4.017928,-5.948159 1.0868,-5.948159 -5.568038,0 -8.420794,2.646509 -11.378799,10.556143 -1.740575,4.654254 -3.833981,8.110523 -4.912413,8.110523 -3.076531,0 -3.498944,-3.529094 -0.897616,-7.499221 3.559398,-5.43233 5.557815,-12.024993 4.263802,-14.066046 -1.856688,-2.928565 -1.313505,-7.416809 1.504893,-12.434732 1.466667,-2.611277 2.666667,-5.57619 2.666667,-6.588697 0,-2.960131 7.875141,-8.7446358 11.905122,-8.7446358 2.035287,0 5.660243,1.35 8.055456,2.9999999 5.979328,4.1190019 8.054278,10.5207079 11.344361,34.9999989 1.953506,14.534727 1.405233,16.666667 -4.286183,16.666667 h -3.32139 l 0.48465,33.963052 0.48465,33.963049 -3.351951,3.3586 c -3.283737,3.29024 -3.83184,3.36924 -26.932816,3.88191 -12.969477,0.28781 -23.9110979,0.19308 -24.3147151,-0.21055 z"
       id="path189" />
  </g>
</svg>
