<?xml version="1.0" encoding="UTF-8" standalone="no"?>
<!-- Created with Inkscape (http://www.inkscape.org/) -->

<svg
   version="1.1"
   id="svg22"
   width="44"
   height="140"
   viewBox="0 0 44 140"
   xmlns="http://www.w3.org/2000/svg"
   xmlns:svg="http://www.w3.org/2000/svg">
  <defs
     id="defs26" />
  <g
     id="g28">
    <path
       style="fill:#000000;stroke-width:1.33333"
       d="m 28.205876,132.91473 c -0.882253,-1.06305 -1.203652,-3.59252 -0.746745,-5.87705 1.096085,-5.48042 -1.68681,-22.46152 -4.346188,-26.52025 -2.240683,-3.41971 -9.546363,-7.184097 -13.9424417,-7.184097 -3.2916705,0 -3.2627293,-4.622432 0.2128758,-34 1.4749079,-12.466666 3.3045649,-28.966666 4.0659039,-36.666666 0.761339,-7.7 1.635928,-14.7709826 1.943532,-15.7132942 0.787168,-2.4114076 7.273451,1.0766237 11.630004,6.2540932 C 33.359641,20.738353 34,27.111416 34,82.646723 c 0,45.868527 -0.225231,51.356947 -2.122615,51.723847 -1.167437,0.22576 -2.819617,-0.42937 -3.671509,-1.45584 z"
       id="path50" />
  </g>
</svg>
