<?xml version="1.0" encoding="UTF-8" standalone="no"?>
<!-- Created with Inkscape (http://www.inkscape.org/) -->

<svg
   version="1.1"
   id="svg2"
   width="142.66667"
   height="136"
   viewBox="0 0 142.66667 136"
   xmlns="http://www.w3.org/2000/svg"
   xmlns:svg="http://www.w3.org/2000/svg">
  <defs
     id="defs6" />
  <g
     id="g8">
    <path
       style="fill:#000000;stroke-width:1.33333"
       d="m 10.666667,129.19979 c 0,-3.1162 7.309956,-17.19979 8.927389,-17.19979 0.938204,0 3.220879,2.4 5.072611,5.33333 1.851732,2.93334 3.643851,5.33334 3.982486,5.33334 0.338636,0 1.614828,-1.95 2.835984,-4.33334 2.128096,-4.15341 4.163381,-6.26917 6.072785,-6.31291 0.49019,-0.0112 2.253604,2.18391 3.9187,4.87809 2.743278,4.43872 3.160232,4.66872 4.44208,2.45033 4.581071,-7.92806 8.685198,-8.60495 11.466167,-1.89109 2.352884,5.68036 3.357188,5.76462 6.439634,0.54027 3.414531,-5.7872 7.036503,-6.00925 10.842165,-0.66469 1.566539,2.2 3.257395,3.98702 3.757459,3.97115 0.500064,-0.0159 1.809208,-1.96587 2.909208,-4.33334 2.845635,-6.12448 5.59369,-5.99611 10.075148,0.47063 3.375991,4.87156 4.016259,5.26952 5.219758,3.24434 C 99.32829,116.14261 102.88119,112 104.07786,112 c 0.6697,0 2.85415,2.47293 4.85432,5.49539 l 3.63668,5.49539 2.0489,-3.13311 c 1.1269,-1.72322 3.19307,-4.29031 4.5915,-5.70465 2.50802,-2.53657 2.62113,-2.48259 8.32103,3.97106 6.20802,7.02897 7.42679,11.20925 3.26808,11.20925 -1.48376,0 -3.67676,-1.93519 -5.28837,-4.66666 -1.51437,-2.56667 -3.22363,-4.65924 -3.79836,-4.65016 -0.57474,0.009 -2.42547,2.14719 -4.11276,4.75137 -3.80954,5.87971 -6.49651,5.52617 -10.04841,-1.32211 l -2.70784,-5.22091 -2.08798,3.19196 c -2.787834,4.26185 -6.471453,7.91651 -7.979236,7.91651 -0.673522,0 -2.522459,-2.1 -4.108745,-4.66666 C 89.080382,122.1 87.367889,120 86.861127,120 c -0.50676,0 -2.052306,2.1 -3.434548,4.66667 -1.408376,2.61519 -3.545329,4.66666 -4.861125,4.66666 -1.291379,0 -3.645832,-2.1 -5.232119,-4.66666 C 71.747048,122.1 69.992595,120 69.43455,120 c -0.558044,0 -2.137518,2.08508 -3.509939,4.63351 -1.372423,2.54844 -3.245347,4.92133 -4.162056,5.27311 -1.694398,0.6502 -7.095887,-5.77885 -7.095887,-8.44578 0,-3.21715 -3.639277,-1.18156 -5.731479,3.20583 -1.223959,2.56666 -2.855321,4.66666 -3.625251,4.66666 -0.769929,0 -2.638901,-2.1 -4.153272,-4.66666 C 39.642296,122.1 37.957013,120 37.411594,120 c -0.54542,0 -2.122596,2.1 -3.504837,4.66667 -3.191648,5.92653 -6.24909,5.91822 -9.923408,-0.0269 l -2.900811,-4.69361 -3.882966,5.36028 c -3.78151,5.22022 -6.532905,6.85996 -6.532905,3.8934 z M 58.666668,45.333333 6.0000001,44.666667 V 32 19.333333 l 4.3333339,-0.41781 c 3.933173,-0.37923 4.333333,-0.825876 4.333333,-4.836742 0,-5.7327061 2.5348,-7.9031801 7.171151,-6.1404426 3.071251,1.1676872 3.495516,2.0719926 3.495516,7.4505566 0,5.89146 0.137827,6.105706 3.666667,5.699668 3.318573,-0.381844 3.666666,-0.928215 3.666666,-5.75523 C 32.666667,10.296296 32.88889,10 36.666668,10 c 3.75268,0 4.02535,0.35037 4.409997,5.666667 0.362347,5.008077 0.788492,5.666666 3.666667,5.666666 3.353064,0 3.62613,-0.525126 3.813344,-7.333333 0.10068,-3.661589 0.504805,-4 4.776659,-4 4.555556,0 4.666666,0.126984 4.666666,5.333333 0,4.593263 0.43763,5.395252 3.15378,5.779554 4.286794,0.606526 5.973583,-1.449846 6.085385,-7.418718 0.09105,-4.8607614 0.266134,-5.0415929 5.279214,-5.4523545 l 5.185046,-0.424852 -0.809444,5.0915185 c -0.950508,5.978838 0.436521,8.875039 3.932456,8.211207 1.906864,-0.362088 2.605881,-1.846989 2.920443,-6.203817 0.468562,-6.4897862 2.639058,-8.0793275 7.813124,-5.7218651 2.962007,1.3495801 3.282745,2.1160151 2.540729,6.0713051 -0.942138,5.022026 0.47958,6.698314 4.577867,5.397569 2.048849,-0.65028 2.654739,-2.021329 2.654739,-6.007375 0,-5.8601993 1.39941,-7.2626523 6.07578,-6.0889599 2.77207,0.6957461 3.25755,1.6086449 3.25755,6.1255239 0,5.041679 0.2064,5.307931 4.11465,5.307931 4.02215,0 4.10458,-0.127387 3.66667,-5.666667 L 118,8.6666667 h 4.66667 c 4.526,0 4.6789,0.1683508 5.07268,5.5851173 0.36003,4.952624 0.81302,5.6321 4,6 3.58675,0.414048 3.59427,0.438453 3.73088,12.124268 0.0839,7.175713 -0.42729,12.058067 -1.32025,12.609945 -1.83198,1.13223 -10.37222,1.171527 -75.483312,0.347336 z"
       id="path1101" />
  </g>
</svg>
