<?xml version="1.0" encoding="UTF-8" standalone="no"?>
<!-- Created with Inkscape (http://www.inkscape.org/) -->

<svg
   version="1.1"
   id="svg12"
   width="70.666664"
   height="138.66667"
   viewBox="0 0 70.666664 138.66667"
   xmlns="http://www.w3.org/2000/svg"
   xmlns:svg="http://www.w3.org/2000/svg">
  <defs
     id="defs16" />
  <g
     id="g18">
    <path
       style="fill:#000000;stroke-width:1.33333"
       d="m 31.555555,131.11111 c -0.48889,-0.48888 -0.888889,-8.52469 -0.888889,-17.85734 0,-18.127628 0.66391,-19.825636 6.969233,-17.824404 2.410158,0.764955 2.566953,1.96924 2.217285,17.030234 -0.206952,8.91389 -0.932048,16.95707 -1.611324,17.87374 -1.323031,1.78539 -5.224815,2.23927 -6.686305,0.77777 z M 27.194048,54.248349 C 14.182245,51.224448 6.6081124,42.17478 6.7307085,29.798495 6.8196535,20.819354 10.17036,14.793654 18.008054,9.5180214 24.492999,5.1529393 24.947063,5.0530535 35.417491,5.6882613 47.549014,6.4242427 52.449666,8.4562707 58.378606,15.20896 c 6.428841,7.322047 7.251314,19.833418 1.907776,29.020861 -2.522535,4.337134 -14.250921,10.496634 -21.20007,11.133827 -2.797472,0.256511 -8.148991,-0.245373 -11.892264,-1.115299 z m 16.686885,-5.757868 c 5.70599,-1.141199 11.162213,-6.639063 13.374433,-13.476505 1.63829,-5.063565 1.573664,-6.218706 -0.620089,-11.083582 -1.346944,-2.986988 -4.18694,-6.893278 -6.311102,-8.68064 C 46.854316,12.330059 45.237753,12 34.407503,12 H 22.35294 l -5.17647,5.176471 C 12.42224,21.930702 12,22.949243 12,29.663326 c 0,5.483807 0.723397,8.230035 2.895201,10.991038 5.530872,7.031364 17.215352,10.190193 28.985732,7.836117 z M 32.509435,35.950556 c -3.146292,-1.18956 -4.730308,-6.554034 -2.900655,-9.823443 0.729026,-1.302695 2.963555,-2.127112 5.765403,-2.127112 3.766933,0 4.722647,0.588234 5.410875,3.330352 1.551004,6.179696 -2.78491,10.696149 -8.275623,8.620203 z"
       id="path962" />
  </g>
</svg>
