<?xml version="1.0" encoding="UTF-8" standalone="no"?>
<!-- Created with Inkscape (http://www.inkscape.org/) -->

<svg
   version="1.1"
   id="svg22"
   width="141.33333"
   height="141.33333"
   viewBox="0 0 141.33333 141.33333"
   xmlns="http://www.w3.org/2000/svg"
   xmlns:svg="http://www.w3.org/2000/svg">
  <defs
     id="defs26" />
  <g
     id="g28">
    <path
       style="fill:#000000;stroke-width:1.33333"
       d="m 101.88302,134.77777 c -1.61065,-1.62784 -0.21967,-13.5279 2.11698,-18.11111 1.46666,-2.87678 2.66666,-5.9386 2.66666,-6.80404 0,-2.14738 -6.712133,-3.68382 -8.459522,-1.93643 -1.98497,1.98497 -6.20714,1.75138 -6.20714,-0.3434 0,-0.9628 -1.8,-3.47506 -4,-5.58279 -2.2,-2.107736 -4,-4.577073 -4,-5.487417 0,-0.910344 3.653837,-4.433939 8.11964,-7.830208 6.757808,-5.139356 8.766622,-6.032936 11.977142,-5.327786 3.15176,0.692242 4.45676,0.157952 7.13291,-2.920336 2.69014,-3.094392 3.70675,-3.5065 5.68952,-2.306394 1.32777,0.803656 3.04064,3.341939 3.80638,5.640626 0.76575,2.298688 2.96034,5.84115 4.87686,7.87214 5.07417,5.377213 6.61198,12.475775 6.14366,28.359375 l -0.41278,14 -14.45031,0.66666 c -7.94768,0.36667 -14.69768,0.41667 -15,0.11107 z m -74.834611,-7.42458 c 0.42014,-4.07077 2.006124,-9.41137 3.524408,-11.86801 3.686866,-5.96547 3.50191,-7.00357 -1.423318,-7.98862 -3.10243,-0.62048 -4.665449,-0.23277 -6.04716,1.5 -1.764449,2.21277 -1.949265,2.19742 -3.482833,-0.28936 -0.890728,-1.44437 -3.269506,-4.2351 -5.286173,-6.20161 -5.5274905,-5.390034 -4.75709,-8.187832 3.956783,-14.369521 6.512879,-4.620288 8.318533,-5.296987 12.394809,-4.645164 4.196024,0.670972 4.961469,0.345728 6.347965,-2.697302 2.715996,-5.960962 6.486412,-4.015701 11.383498,5.873062 1.271057,2.566666 3.797348,6.705395 5.613979,9.197177 3.4741,4.765248 3.557856,5.333578 3.753421,25.469488 L 57.906815,134 l -15.811148,0.3773 -15.811146,0.3773 0.763892,-7.40141 z m 2.902338,-99.9079 C 27.281509,23.371515 25.224471,22.535169 15.333333,21.502165 9.4824436,20.891114 7.3333332,20.129389 7.3333332,18.666666 c 0,-1.426322 1.7210338,-2.106797 5.9999998,-2.372326 6.676023,-0.414276 14.141108,-3.631729 17.416436,-7.5064855 2.164589,-2.5607362 5.25023,-1.9978423 5.25023,0.9577662 0,0.8735333 3.581215,2.7325193 7.958256,4.1310803 7.75036,2.476412 8.602961,2.482131 32.637541,0.218928 24.788784,-2.334221 44.682094,-2.539456 52.007644,-0.536549 10.71346,2.929213 8.96272,8.899358 -3.60757,12.301975 -7.97501,2.158736 -9.80946,2.163656 -31.068988,0.08332 -12.426453,-1.215984 -24.39355,-2.448616 -26.59355,-2.739184 -16.538227,-2.184311 -29.744098,0.06349 -31.796578,5.412162 -1.132809,2.952053 -3.162876,2.526102 -5.586007,-1.172063 z"
       id="path805" />
  </g>
</svg>
