<?xml version="1.0" encoding="UTF-8" standalone="no"?>
<!-- Created with Inkscape (http://www.inkscape.org/) -->

<svg
   version="1.1"
   id="svg52"
   width="88"
   height="136"
   viewBox="0 0 88 136"
   xmlns="http://www.w3.org/2000/svg"
   xmlns:svg="http://www.w3.org/2000/svg">
  <defs
     id="defs56" />
  <g
     id="g58">
    <path
       style="fill:#000000;stroke-width:1.33333"
       d="M 6.6666667,112.13582 V 93.504903 L 21,93.085784 c 7.883333,-0.230515 24.36216,-0.218884 36.619615,0.02584 l 22.286282,0.444961 -0.471781,14.221705 c -0.25948,7.82194 -0.538307,16.17171 -0.619616,18.55504 l -0.147833,4.33334 H 66.046912 c -11.469452,0 -12.756825,-0.25612 -14.123521,-2.80982 -2.289754,-4.27844 0.166297,-5.64089 10.375217,-5.75546 L 71.333333,122 l 0.419856,-6.6631 c 0.230922,-3.66471 0.07219,-8.51632 -0.352733,-10.78136 l -0.772588,-4.11825 -27.247332,0.11469 c -17.878191,0.0752 -27.751232,0.61861 -28.712773,1.58019 -0.867508,0.86755 -1.302706,5.21978 -1.066602,10.66667 L 14,122 l 9.082503,0.39613 c 9.001432,0.3926 9.078792,0.42831 8.666666,4 C 31.334404,129.99072 31.301573,130.00099 19,130.38337 L 6.6666667,130.76674 Z M 21.933116,19.891779 C 20.532712,17.625877 28.438673,8.8352963 33.459877,7.0752563 41.91238,4.1124727 50.234576,4.9079385 56.599339,9.2870105 62.208657,13.146323 64,15.604448 64,19.442383 c 0,1.550736 -3.704129,1.89095 -20.587977,1.89095 -13.317464,0 -20.902604,-0.509076 -21.478907,-1.441554 z"
       id="path527" />
  </g>
</svg>
