<?xml version="1.0" encoding="UTF-8" standalone="no"?>
<!-- Created with Inkscape (http://www.inkscape.org/) -->

<svg
   version="1.1"
   id="svg62"
   width="141.33333"
   height="48"
   viewBox="0 0 141.33333 48"
   xmlns="http://www.w3.org/2000/svg"
   xmlns:svg="http://www.w3.org/2000/svg">
  <defs
     id="defs66" />
  <g
     id="g68">
    <path
       style="fill:#000000;stroke-width:1.33333"
       d="m 38.822675,42.339388 c -2.887593,-0.956113 -6.123636,-3.738675 -8.99328,-7.733011 L 25.346773,28.366895 20.035925,29.78444 C 9.619397,32.564771 2.0892668,25.727369 9.9183075,20.597584 14.229504,17.77278 14.255772,15.514997 9.9999998,13.575939 8.0446581,12.685025 6.6666665,10.94296 6.6666665,9.3619184 c 0,-3.3983167 2.6895299,-3.443188 6.9200595,-0.115452 3.239728,2.5483696 3.3272,2.5484766 7.179812,0.00879 2.145071,-1.414059 4.950128,-2.5749687 6.233461,-2.5798008 3.901222,-0.014689 2.613343,3.5626024 -2.333333,6.4812124 -4.501805,2.65613 -6.182686,5.510002 -3.245297,5.510002 0.781753,0 5.324976,3.961684 10.09605,8.803741 9.522433,9.664108 8.856429,9.51918 21.815913,4.747336 16.955722,-6.243308 37.415162,-5.788831 53.999998,1.199533 5.62528,2.370326 13.60697,3.901474 20.37518,3.90862 5.22195,0.0055 7.25354,0.559095 7.86095,2.142003 0.45051,1.174011 -0.0183,2.671024 -1.04184,3.326696 -1.90968,1.22334 -23.52105,0.673552 -44.124547,-1.122517 -6.37831,-0.556018 -16.278309,-0.540315 -22,0.03489 -19.952941,2.005891 -25.099973,2.115932 -29.580398,0.632416 z"
       id="path388" />
  </g>
</svg>
