<?xml version="1.0" encoding="UTF-8" standalone="no"?>
<!-- Created with Inkscape (http://www.inkscape.org/) -->

<svg
   version="1.1"
   id="svg72"
   width="144"
   height="134.66667"
   viewBox="0 0 144 134.66667"
   xmlns="http://www.w3.org/2000/svg"
   xmlns:svg="http://www.w3.org/2000/svg">
  <defs
     id="defs76" />
  <g
     id="g78">
    <path
       style="fill:#000000;stroke-width:1.33333"
       d="m 49.333333,126.10257 c 0,-1.04359 1.824799,-3.72224 4.055108,-5.95255 7.151932,-7.15193 20.506299,-8.91991 29.441931,-3.8978 5.562931,3.12654 9.788289,8.33474 8.479685,10.45211 C 90.847669,127.45249 81.809428,128 69.921311,128 c -16.91693,0 -20.587978,-0.33833 -20.587978,-1.89743 z m -18,-22.15644 c -8.8,-1.36321 -16.935322,-2.50876 -18.078494,-2.54568 C 9.8181537,101.28948 6.4524465,98.109684 7.3356117,95.808193 8.2479845,93.430588 21.602533,90.23823 40,87.999888 c 13.470284,-1.638874 61.07193,-1.651455 68.66667,-0.01815 21.64731,4.655416 26.0674,5.826237 27.21486,7.208848 2.35687,2.839853 -0.67184,4.929634 -10.00549,6.903704 -23.57731,4.98661 -68.612229,5.86872 -94.542707,1.85184 z m 70.545337,-3.91651 c 5.79994,-0.749624 13.11453,-1.362951 16.25465,-1.362951 3.14011,0 6.08012,-0.6 6.53335,-1.333333 0.45322,-0.733334 0.55272,-1.333334 0.2211,-1.333334 -0.33162,0 -9.21703,-0.934674 -19.74536,-2.077054 -22.986667,-2.494176 -41.42767,-2.68399 -63.809077,-0.656787 -20.288305,1.83762 -24.063645,2.541872 -21.314488,3.976003 1.793439,0.935568 27.442675,4.107906 37.168283,4.597036 2.179355,0.10961 4.272417,0.50924 4.651252,0.88807 0.839288,0.83929 25.561695,-0.82635 40.04029,-2.69765 z M 31.073765,76.471038 c -0.387989,-1.011081 0.02204,-2.714887 0.911184,-3.786235 1.417722,-1.708249 2.080658,-1.707943 5.388272,0.0025 5.596115,2.893865 11.196778,1.28372 14.065843,-4.043812 l 2.37516,-4.410404 -4.240445,-4.8296 c -2.332246,-2.656321 -4.240446,-5.335972 -4.240446,-5.95482 0,-0.618848 -1.90249,-1.913215 -4.227756,-2.876372 C 38.780312,49.609172 33.413073,45.43088 29.178381,41.287234 21.707289,33.976772 21.466897,33.519731 21.072804,25.876667 L 20.666667,18 l -5,-1.235153 c -2.75,-0.679335 -5,-1.938321 -5,-2.797747 0,-0.859426 2.25,-2.533164 5,-3.719417 2.75,-1.1862534 5.952054,-2.8624166 7.115678,-3.7248071 5.07183,-3.7588613 18.067534,2.9857845 20.496008,10.6372311 0.828222,2.609493 9.843023,8.173227 13.242908,8.173227 3.223962,0 24.041455,10.317714 29.992791,14.865239 13.602038,10.393571 16.469178,10.973154 32.554538,6.580795 8.2465,-2.251838 9.03132,-2.278536 8.6576,-0.29451 -0.27167,1.442246 -3.00667,2.798827 -8.06859,4.002089 C 115.44592,51.4881 112,52.744629 112,53.279232 c 0,0.534604 4.84353,1.656972 10.7634,2.494151 5.91987,0.837178 11.349,1.884066 12.06475,2.326418 2.7994,1.730123 -1.95748,4.566867 -7.65808,4.566867 -3.2102,0 -5.83674,0.354622 -5.83674,0.788048 0,0.433426 2.1,3.241426 4.66667,6.239998 8.38356,9.7943 4.83103,10.488296 -7.44156,1.453729 -16.77775,-12.35108 -19.618024,-13.546191 -32.525176,-13.68574 -6.388311,-0.06907 -12.159195,-0.461842 -12.824187,-0.87283 -2.376217,-1.468582 -3.936168,0.80587 -2.453194,3.57683 1.162769,2.172656 0.764822,3.543311 -2.131044,7.339988 -4.12888,5.41324 -3.796863,6.459711 1.420174,4.476196 4.704926,-1.788809 7.28832,-0.852357 7.28832,2.641935 0,2.502281 -0.888324,2.722323 -11.666666,2.889871 C 59.25,77.614439 49.00032,77.834047 42.889599,78.002709 34.46202,78.235319 31.608857,77.865467 31.073765,76.471038 Z M 63,68.737867 c 2.016667,-2.527464 3.666667,-5.115191 3.666667,-5.750505 0,-1.349548 -7.04286,-8.320694 -8.406292,-8.320694 -1.448226,0 -1.088903,3.777003 0.619584,6.512724 1.255601,2.010538 1.004712,3.237587 -1.333334,6.52107 -3.4873,4.89746 -3.558666,5.632885 -0.546625,5.632834 1.283333,-2.2e-5 3.983333,-2.067965 6,-4.595429 z"
       id="path249" />
  </g>
</svg>
