<?xml version="1.0" encoding="UTF-8" standalone="no"?>
<!-- Created with Inkscape (http://www.inkscape.org/) -->

<svg
   version="1.1"
   id="svg82"
   width="37.333332"
   height="138.66667"
   viewBox="0 0 37.333332 138.66667"
   xmlns="http://www.w3.org/2000/svg"
   xmlns:svg="http://www.w3.org/2000/svg">
  <defs
     id="defs86" />
  <g
     id="g88">
    <path
       style="fill:#000000;stroke-width:1.33333"
       d="M 14.356627,130.9571 C 8.9037069,124.64612 7.7614408,104.00833 11.462442,78.666669 15.064278,54.004012 15.34309,43.621038 12.522423,39.192826 11.1703,37.070106 9.2996137,34.85352 8.3653421,34.267081 5.7190154,32.60599 6.3575447,29.949383 9.8527232,28.078821 14.111521,25.799581 15.999999,21.25041 15.999999,13.270596 c 0,-4.9812703 0.491423,-6.6039292 2,-6.6039292 1.1,0 2.032758,0.45 2.072794,1.0000001 0.04004,0.55 0.222626,3.4000001 0.405756,6.3333331 0.391484,6.270744 3.529381,14.000001 5.683673,14.000001 0.831192,0 2.224877,0.859858 3.09708,1.910797 1.276278,1.537823 0.943426,2.331712 -1.705244,4.067187 -1.975052,1.294104 -4.17527,4.859689 -5.502271,8.91676 -2.299181,7.029346 -2.247013,8.315392 1.802633,44.43859 1.331882,11.880507 0.515719,34.869635 -1.410059,39.717625 -2.04334,5.14393 -5.553448,6.83922 -8.087734,3.90614 z"
       id="path110" />
  </g>
</svg>
