<?xml version="1.0" encoding="UTF-8" standalone="no"?>
<!-- Created with Inkscape (http://www.inkscape.org/) -->

<svg
   version="1.1"
   id="svg2"
   width="34.666668"
   height="140"
   viewBox="0 0 34.666668 140"
   xmlns="http://www.w3.org/2000/svg"
   xmlns:svg="http://www.w3.org/2000/svg">
  <defs
     id="defs6" />
  <g
     id="g8">
    <path
       style="fill:#000000;stroke-width:1.33333"
       d="m 21.000001,133.66911 c -2.631595,-0.59922 -3.151006,-7.47082 -2.418998,-32.00244 0.224292,-7.51667 -0.114677,-13.653329 -0.753266,-13.637022 -0.638588,0.01631 -2.66107,1.202964 -4.494403,2.637019 C 11.5,92.100721 9.2500004,93.287379 8.3333337,93.303685 6.5879,93.334735 5.9264585,86.70216 7.666667,86.618716 c 0.55,-0.02637 2.72966,-1.462429 4.843688,-3.191239 L 16.354043,80.284191 12.01377,74.8833 C 6.9523707,68.585065 7.2167952,64.500877 13.035074,59.108679 L 16.628965,55.777973 12.302463,52.22232 C 9.744004,50.1197 7.9808726,47.440704 7.9879804,45.666667 8.0028407,41.957721 9.8972922,41.846004 13.640501,45.333333 15.214782,46.8 16.989694,48 17.584749,48 18.701721,48 19.460417,29.61284 18.814706,18.191777 18.278551,8.70851 19.433857,5.3333333 23.216085,5.3333333 c 4.385984,0 4.980527,2.2748707 5.575517,21.3333337 0.663546,21.254372 0.329456,82.687743 -0.545381,100.286423 -0.259457,5.21937 -2.93374,7.69798 -7.24622,6.71602 z"
       id="path1536" />
  </g>
</svg>
