<?xml version="1.0" encoding="UTF-8" standalone="no"?>
<!-- Created with Inkscape (http://www.inkscape.org/) -->

<svg
   version="1.1"
   id="svg12"
   width="52"
   height="96"
   viewBox="0 0 52 96"
   xmlns="http://www.w3.org/2000/svg"
   xmlns:svg="http://www.w3.org/2000/svg">
  <defs
     id="defs16" />
  <g
     id="g18">
    <path
       style="fill:#000000;stroke-width:1.33333"
       d="M 21.955269,90.594292 C 21.477443,89.821152 21.20928,82.771152 21.359352,74.927625 21.811021,51.321048 22.496809,53.333333 14,53.333333 c -6.8459027,0 -7.3333333,-0.212077 -7.3333333,-3.190681 0,-3.718117 2.1747793,-4.809319 9.5850343,-4.809319 4.588984,0 5.22748,-0.338222 4.404859,-2.333333 C 13.262467,25.067043 12.794923,13.952559 19.202783,8.4407495 25.984812,2.6070937 36.01896,5.6322133 38.15816,14.155463 c 1.461099,5.821482 -0.433945,17.16182 -4.065389,24.328129 l -3.471027,6.849741 h 7.213143 c 5.431478,0 7.418729,0.535748 8.045465,2.168998 1.337465,3.485377 -1.636267,5.664093 -8.319916,6.09562 L 31.333333,54 31.319773,71.333333 c -0.0075,9.533334 -0.492869,18.083334 -1.078689,19 -1.295261,2.026775 -7.081841,2.20902 -8.285811,0.260959 z M 29.743203,31 c 3.850116,-10.741943 2.784358,-16.333333 -3.113248,-16.333333 -3.069112,0 -3.908371,0.714652 -4.61443,3.929314 -0.836841,3.810111 2.852674,18.737352 4.631246,18.737352 0.454544,0 1.847938,-2.85 3.096432,-6.333333 z"
       id="path1397" />
  </g>
</svg>
