<?xml version="1.0" encoding="UTF-8" standalone="no"?>
<!-- Created with Inkscape (http://www.inkscape.org/) -->

<svg
   version="1.1"
   id="svg22"
   width="144"
   height="138.66667"
   viewBox="0 0 144 138.66667"
   xmlns="http://www.w3.org/2000/svg"
   xmlns:svg="http://www.w3.org/2000/svg">
  <defs
     id="defs26" />
  <g
     id="g28">
    <path
       style="fill:#000000;stroke-width:1.33333"
       d="m 7.2031551,130.14156 c -2.7041307,-7.04685 -0.022115,-7.34154 72.5143819,-7.96764 53.748293,-0.46393 55.084293,-0.41271 56.463493,2.16434 3.17624,5.93484 1.75698,6.08826 -65.168557,7.0447 -57.130225,0.81645 -63.0639457,0.70101 -63.8093179,-1.2414 z M 54.558625,28.780847 C 54.220415,28.442638 50.056365,27.869758 45.305183,27.507782 40.553999,27.145805 33.066667,26.209322 28.666667,25.426709 6.5604627,21.494747 2.1089297,18.603624 11.73791,14.432042 16.4611,12.385805 22.701321,11.226272 46.666667,7.9417199 58.188291,6.3626326 86.36518,6.4305206 98,8.0653999 c 5.13333,0.7213159 11.83591,1.6358813 14.89461,2.0323671 10.2751,1.331917 22.39558,5.194419 22.7552,7.251531 0.65826,3.765349 -1.70045,5.093654 -11.65778,6.56508 -26.081854,3.854195 -67.539951,6.759923 -69.433405,4.866469 z M 90,21.997214 c 3.666667,-0.336301 11.46667,-0.961564 17.33333,-1.389475 5.86667,-0.427912 12.13538,-1.080932 13.93046,-1.451157 4.80399,-0.99079 1.19689,-2.681582 -6.32805,-2.96621 C 111.48999,16.060039 103.56983,15.36881 97.335371,14.654307 82.909144,13.000985 64.11826,13.015986 48.191727,14.693534 41.330511,15.416231 31.849011,16.114096 27.121728,16.244346 12.345721,16.651463 15.652029,18.84892 34.087661,20.874085 56.816151,23.370827 71.752368,23.670854 90,21.997214 Z"
       id="path1258" />
  </g>
</svg>
