<?xml version="1.0" encoding="UTF-8" standalone="no"?>
<!-- Created with Inkscape (http://www.inkscape.org/) -->

<svg
   version="1.1"
   id="svg32"
   width="153.33333"
   height="141.33333"
   viewBox="0 0 153.33333 141.33333"
   xmlns="http://www.w3.org/2000/svg"
   xmlns:svg="http://www.w3.org/2000/svg">
  <defs
     id="defs36" />
  <g
     id="g38">
    <path
       style="fill:#000000;stroke-width:1.33333"
       d="M 63.202573,135.58472 C 59.209488,133.34078 63.190529,132 73.846269,132 c 9.797444,0 11.344369,-0.34291 13.92131,-3.08594 1.594498,-1.69726 2.899086,-3.52093 2.899086,-4.0526 0,-0.53166 2.08485,-4.06249 4.633001,-7.84627 3.917243,-5.81678 4.363753,-7.19907 2.890201,-8.9474 C 95.331651,104.67659 91.888601,96.288352 89.766143,87.545242 87.262215,77.230721 83.313413,68.311429 79.342053,63.999998 72.263158,56.314932 69.333332,50.428955 69.333332,43.892626 c 0,-3.521054 0.6,-6.772735 1.333333,-7.22596 0.733333,-0.453226 1.333333,-3.695643 1.333333,-7.205372 0,-7.541745 -2.743722,-10.794628 -9.104987,-10.794628 -6.236983,0 -5.283975,-2.945182 2.523472,-7.798558 8.572187,-5.3287647 15.998962,-6.6599882 20.54343,-3.6823383 4.001684,2.6220034 8.029792,10.2430193 9.112554,17.2405753 0.634755,4.102229 3.127906,7.54053 12.815763,17.674201 18.28236,19.12369 37.4431,45.584731 37.4431,51.70905 0,2.106199 -1.75357,4.220307 -5.66667,6.831734 -4.89845,3.26901 -6.90487,3.7694 -14.80029,3.69108 l -9.13362,-0.0906 3.62283,3.78142 3.62283,3.78143 -5.04807,8.31002 -5.04807,8.31002 3.56809,2.8451 c 2.78654,2.22192 3.21561,3.19757 1.95886,4.45432 -2.12407,2.12408 -3.1298,2.0315 -5.68449,-0.52319 -1.53057,-1.53056 -2.60776,-1.73791 -3.81662,-0.73463 -2.02684,1.68212 -42.921674,2.68283 -45.705537,1.11843 z m 46.733557,-11.65616 c 2.60179,-4.43929 4.70593,-8.78929 4.67585,-9.66666 -0.068,-1.98515 -10.41604,-13.56895 -11.31674,-12.66825 -0.36138,0.36137 0.21835,3.13818 1.28827,6.17067 1.50536,4.26663 1.57964,5.74607 0.32844,6.54132 -2.60953,1.65861 -12.911952,14.59471 -12.911952,16.21273 0,0.88715 2.649247,1.48163 6.602795,1.48163 h 6.602797 z M 18.666666,42.744778 5.9999999,41.999999 5.6251209,24.771031 C 5.3446952,11.883011 5.6806369,7.2689573 6.9584542,6.4581161 9.3764639,4.9237642 34.344083,5.0660285 35.304262,6.6196293 c 0.437236,0.7074629 0.991988,8.6574627 1.232781,17.6666657 0.42393,15.861165 -0.367734,20.024225 -3.700304,19.458483 -0.826873,-0.140371 -7.203406,-0.590371 -14.170073,-1 z m 14,-18.744779 c 0.524677,-0.848945 -3.293257,-1.333333 -10.509288,-1.333333 -6.233333,0 -11.704153,0.6 -12.1573782,1.333333 -0.5246767,0.848946 3.2932582,1.333334 10.5092882,1.333334 6.233333,0 11.704153,-0.6 12.157378,-1.333334 z"
       id="path1119" />
  </g>
</svg>
