<?xml version="1.0" encoding="UTF-8" standalone="no"?>
<!-- Created with Inkscape (http://www.inkscape.org/) -->

<svg
   version="1.1"
   id="svg52"
   width="138.66667"
   height="140"
   viewBox="0 0 138.66667 140"
   xmlns="http://www.w3.org/2000/svg"
   xmlns:svg="http://www.w3.org/2000/svg">
  <defs
     id="defs56" />
  <g
     id="g58">
    <path
       style="fill:#000000;stroke-width:1.33333"
       d="m 8.4631123,133.95033 c -0.4325906,-1.1273 0.1264888,-3.0773 1.2423989,-4.33332 1.1159098,-1.25602 2.9580628,-4.53368 4.0936728,-7.28368 1.13561,-2.75 2.986848,-5 4.113863,-5 1.127015,0 3.67085,2.45061 5.652967,5.44579 l 3.603849,5.44578 2.563054,-5.44578 c 3.242522,-6.88947 7.793324,-7.51724 10.480809,-1.44579 2.001139,4.52089 5.119608,5.35178 5.119608,1.36407 0,-1.44976 1.563824,-3.66058 3.475165,-4.91294 3.369813,-2.20799 3.550806,-2.1786 5.970352,0.96926 1.372353,1.78545 2.508529,3.99628 2.524836,4.91295 0.04149,2.33226 4.029648,2.09813 4.029648,-0.23656 0,-1.04678 1.640595,-3.19372 3.645767,-4.77099 l 3.645766,-2.86776 2.687567,3.24572 c 1.478161,1.78514 3.320324,4.33035 4.093695,5.65601 1.263001,2.16497 1.699503,1.91307 4.288365,-2.47473 3.694646,-6.26195 7.193986,-6.3316 10.972174,-0.21836 1.586287,2.56667 3.075957,4.66667 3.310379,4.66667 0.23442,0 1.689556,-2.1412 3.233634,-4.75822 3.641858,-6.17249 7.650768,-5.81408 11.478888,1.02623 l 2.76166,4.93468 3.23809,-5.23935 c 1.78095,-2.88164 4.00052,-5.53191 4.93237,-5.8895 2.20358,-0.84559 12.82756,13.49894 11.86176,16.01577 -1.29504,3.3748 -4.62798,2.0446 -6.90615,-2.75628 -2.7772,-5.85253 -4.45659,-5.84917 -8.25622,0.0165 -1.65674,2.55758 -3.84582,4.65016 -4.86461,4.65016 -1.0188,0 -3.33804,-2.51571 -5.15387,-5.59047 l -3.30152,-5.59046 -2.07929,4.02091 c -4.232717,8.18518 -7.961218,8.73663 -12.067727,1.78487 -1.285986,-2.177 -2.793108,-3.95819 -3.34916,-3.95819 -0.55605,0 -2.012422,2.1 -3.23638,4.66667 -2.986748,6.26328 -6.337679,6.04227 -10.108313,-0.66667 C 70.511584,126.4 68.909612,124 68.600274,124 c -0.30934,0 -2.150682,2.4 -4.09187,5.33333 -1.941188,2.93334 -4.199701,5.32924 -5.018917,5.32423 -0.819218,-0.005 -2.916827,-2.10501 -4.661355,-4.66667 -1.744528,-2.56166 -3.544528,-4.64393 -4,-4.62728 -0.455472,0.0167 -1.763256,1.92836 -2.906187,4.24824 -2.895729,5.87764 -4.780572,6.0118 -7.991993,0.56886 -3.18516,-5.39845 -5.107216,-5.18906 -7.929951,0.8639 -2.811139,6.0281 -5.969391,6.16114 -8.718763,0.36726 -2.191311,-4.61784 -5.947904,-6.51046 -5.947904,-2.99662 0,2.09654 -4.891761,7.58475 -6.760454,7.58475 -0.7277815,0 -1.677177,-0.92235 -2.1097677,-2.04967 z M 38.666668,25.356725 C 21.265885,23.004233 6.6594075,19.300584 5.0674535,16.837236 c -1.488605,-2.303428 2.9945784,-6.170569 7.1535505,-6.170569 2.094236,0 9.651245,-1.0222138 16.79335,-2.2715859 9.817535,-1.7173863 20.304755,-2.2457844 42.985648,-2.1658303 25.978503,0.091579 32.142708,0.5320079 45.984428,3.2855604 12.28543,2.4439568 16.08405,3.6970558 16.41489,5.4149888 0.73847,3.834525 -5.74227,6.567211 -20.68543,8.722271 -15.638602,2.255357 -63.014125,3.331464 -75.047222,1.704654 z M 97.333336,19.027288 C 103.56667,18.504499 111.81679,18.059489 115.66694,18.03838 125.38883,17.985073 124.90341,15.090927 115,14.062055 110.78334,13.623983 103.13334,12.684247 98.000002,11.973754 87.792525,10.560959 63.589526,10.142085 52.000001,11.177645 c -15.227317,1.360608 -36.66437,3.708946 -37.009677,4.054252 -0.681992,0.681994 21.719272,3.387743 35.009677,4.228664 7.333334,0.464002 13.515929,1.007788 13.739099,1.208415 0.530412,0.476832 19.230669,-0.437015 33.594236,-1.641688 z"
       id="path841" />
  </g>
</svg>
