<?xml version="1.0" encoding="UTF-8" standalone="no"?>
<!-- Created with Inkscape (http://www.inkscape.org/) -->

<svg
   version="1.1"
   id="svg62"
   width="68"
   height="60"
   viewBox="0 0 68 60"
   xmlns="http://www.w3.org/2000/svg"
   xmlns:svg="http://www.w3.org/2000/svg">
  <defs
     id="defs66" />
  <g
     id="g68">
    <path
       style="fill:#000000;stroke-width:1.33333"
       d="M 23.119664,54.086807 C 15.068015,51.568681 9.9418791,47.432353 6.7811033,40.903061 3.2357339,33.579305 3.2658731,28.199392 6.8955301,20.477629 16.012191,1.0827696 49.43698,0.8625618 59.401444,20.131712 c 2.46074,4.758545 2.492909,16.255785 0.05857,20.934501 -6.150959,11.821963 -22.007273,17.503212 -36.34035,13.020594 z M 46.292779,46.581553 C 54.118621,42.309208 56,39.345115 56,31.287921 56,25.599528 55.315241,23.390811 52.522852,20.072244 48.042255,14.747359 45.459269,13.431033 36.690556,12.003888 27.43186,10.496997 20.727307,12.33936 15.141159,17.925508 c -8.044921,8.04492 -7.6422895,17.669879 1.093822,26.147987 5.312302,5.155413 5.61444,5.259838 15.218574,5.259838 7.382586,0 11.04153,-0.678513 14.839224,-2.75178 z M 28.761905,35.238095 c -2.699432,-2.699431 -2.670376,-6.472482 0.07096,-9.213812 3.061723,-3.061724 7.391696,-2.004627 9.789248,2.389897 1.934939,3.546591 1.875795,3.886149 -1.103154,6.333333 -3.814471,3.133558 -5.992082,3.255551 -8.75705,0.490582 z"
       id="path702" />
  </g>
</svg>
