<?xml version="1.0" encoding="UTF-8" standalone="no"?>
<!-- Created with Inkscape (http://www.inkscape.org/) -->

<svg
   version="1.1"
   id="svg72"
   width="49.333332"
   height="142.66667"
   viewBox="0 0 49.333332 142.66667"
   xmlns="http://www.w3.org/2000/svg"
   xmlns:svg="http://www.w3.org/2000/svg">
  <defs
     id="defs76" />
  <g
     id="g78">
    <path
       style="fill:#000000;stroke-width:1.33333"
       d="m 21.163899,135 c -0.77281,-10.64268 0.535459,-94.054972 1.533458,-97.769744 0.884044,-3.290609 2.835256,-5.773351 6.292033,-8.006055 2.9633,-1.91397 5.190585,-4.504547 5.451086,-6.340208 0.972642,-6.853897 -8.81963,-11.024966 -13.567159,-5.779005 -2.571863,2.841875 -2.828208,5.740122 -0.696274,7.872057 1.883078,1.883077 0.556527,5.689622 -1.982787,5.689622 -1.039191,0 -3.565002,0.869294 -5.612913,1.931763 -4.271015,2.215829 -5.9146765,1.664193 -5.9146765,-1.985049 0,-1.567651 1.1997573,-2.863695 3.0901528,-3.338154 2.5653287,-0.643857 2.9898227,-1.459169 2.4994137,-4.800542 -0.758086,-5.165169 1.797853,-9.878598 7.150842,-13.186927 5.341431,-3.3011857 9.523223,-3.3086724 14.503023,-0.025965 4.91332,3.238882 7.315341,7.502993 7.375988,13.093974 0.03783,3.486739 -1.21633,5.566155 -6.286087,10.42251 l -6.333333,6.066743 -0.33812,46.244158 c -0.185965,25.434292 -0.647396,47.594162 -1.025403,49.244162 -0.83183,3.63094 -5.884156,4.17958 -6.139244,0.66666 z"
       id="path563" />
  </g>
</svg>
