<?xml version="1.0" encoding="UTF-8" standalone="no"?>
<!-- Created with Inkscape (http://www.inkscape.org/) -->

<svg
   version="1.1"
   id="svg82"
   width="141.33333"
   height="140"
   viewBox="0 0 141.33333 140"
   xmlns="http://www.w3.org/2000/svg"
   xmlns:svg="http://www.w3.org/2000/svg">
  <defs
     id="defs86" />
  <g
     id="g88">
    <path
       style="fill:#000000;stroke-width:1.33333"
       d="M 7.2864982,131.92422 C 6.807514,131.14921 6.783535,129.04921 7.2332116,127.25755 L 8.0508053,124 H 30.692069 c 12.452694,0 22.627922,-0.45 22.611615,-1 -0.01631,-0.55 -1.202964,-2.5 -2.637019,-4.33333 -6.110839,-7.81226 0.164826,-9.42945 6.467667,-1.66667 l 4.059652,5 2.243931,-3.14084 c 1.234161,-1.72747 4.279217,-3.99125 6.766789,-5.03062 4.933673,-2.06142 7.405277,-1.34612 11.683529,3.38129 3.399336,3.75623 5.07051,3.52024 8.567604,-1.20983 3.352193,-4.53409 8.210827,-5.41967 8.210827,-1.49659 0,1.37687 -0.9,3.25034 -2,4.16326 -1.1,0.91292 -2,2.47034 -2,3.46095 0,1.41377 4.198508,1.88044 19.523406,2.17007 16.24985,0.30711 19.75069,0.72983 20.87886,2.52108 0.74551,1.18366 0.9788,3.13366 0.51844,4.33333 -0.75865,1.97703 -6.76258,2.18123 -64.133502,2.18123 -43.028751,0 -63.5753482,-0.4512 -64.1673698,-1.40911 z M 53.333987,41 c 3.6e-4,-0.916667 2.85036,-4.120787 6.333333,-7.120265 4.781773,-4.117984 6.738245,-6.970146 7.988696,-11.645984 1.329446,-4.971234 2.907062,-7.11022 8,-10.84668 C 82.173903,6.6051901 87.996326,5.3934771 90.329586,8.3333333 91.789597,10.172914 91.591758,38.757811 90.102337,41.167745 88.722042,43.401111 53.333107,43.239659 53.333987,41 Z"
       id="path408" />
  </g>
</svg>
