<?xml version="1.0" encoding="UTF-8" standalone="no"?>
<!-- Created with Inkscape (http://www.inkscape.org/) -->

<svg
   version="1.1"
   id="svg92"
   width="141.33333"
   height="138.66667"
   viewBox="0 0 141.33333 138.66667"
   xmlns="http://www.w3.org/2000/svg"
   xmlns:svg="http://www.w3.org/2000/svg">
  <defs
     id="defs96" />
  <g
     id="g98">
    <path
       style="fill:#000000;stroke-width:1.33333"
       d="M 124.87672,128.67004 C 117.55919,119.08657 115.42494,108.74392 116.4298,87.736094 117.69357,61.315719 114.44278,53.375577 99.333331,45.977409 94.784746,43.750248 90.17435,43.261582 67.999998,42.656328 34.370745,41.738409 33.612334,41.394756 33.051457,26.820365 l -0.384791,-9.998811 -8.784159,-0.19869 C 19.051221,16.513584 14.401221,15.993324 13.549174,15.466731 11.059033,13.927739 11.758888,9.6631469 15,6.6260762 17.499456,4.2839717 19.001089,3.9589448 23.999999,4.678036 35.29933,6.3034402 39.896632,10.978278 39.957595,20.904762 40.026462,32.118483 40.953,32.528301 63.946604,31.515338 98.716032,29.983602 113.06936,34.210559 121.96845,48.602381 L 126,55.122289 125.62157,74.561146 c -0.20814,10.691371 -0.50814,24.538856 -0.66667,30.772194 -0.33853,13.31085 0.51086,17.03487 5.14027,22.53661 3.1696,3.76686 3.41652,6.79672 0.55388,6.79672 -0.65646,0 -3.25401,-2.69848 -5.77233,-5.99663 z M 7.4788148,126.90206 c -0.3855179,-0.62378 0.1033173,-2.28192 1.0863002,-3.68477 1.696551,-2.42119 3.943365,-2.55062 44.277729,-2.55062 H 95.333331 V 124 v 3.33334 l -43.576787,0.35143 C 27.78931,127.87806 7.8643325,127.52584 7.4788148,126.90206 Z M 35.666666,88.252849 c -5.869172,-0.485758 -6.163687,-1.8088 -1.704152,-7.655551 3.093776,-4.056149 12.602917,-8.608802 17.94167,-8.58986 8.314527,0.0295 21.429148,8.269469 21.429148,13.46402 0,2.242243 -1.170022,2.558492 -10.333333,2.793032 -16.740487,0.428483 -22.042797,0.426224 -27.333333,-0.0116 z"
       id="path269" />
  </g>
</svg>
