<?xml version="1.0" encoding="UTF-8" standalone="no"?>
<!-- Created with Inkscape (http://www.inkscape.org/) -->

<svg
   version="1.1"
   id="svg102"
   width="132"
   height="97.333336"
   viewBox="0 0 132 97.333336"
   xmlns="http://www.w3.org/2000/svg"
   xmlns:svg="http://www.w3.org/2000/svg">
  <defs
     id="defs106" />
  <g
     id="g108">
    <path
       style="fill:#000000;stroke-width:1.33333"
       d="M 7.2538429,89.2455 C 4.2507793,85.927152 5.8252983,82.070822 11.654054,78.468453 c 5.364211,-3.315266 9.539255,-3.405256 19.584519,-0.422134 4.214584,1.251598 12.361428,1.946346 22.670095,1.933266 17.994019,-0.02283 23.483825,-1.538939 13.987065,-3.862778 C 57.410044,73.550981 45.819207,66.867306 40.405304,60.264882 33.230973,51.515561 22.665492,29.961178 22.671651,24.086886 22.681877,14.332732 32.624823,5.4390377 41.139708,7.5677097 48.851481,9.4956081 70.49696,19.861427 75.162119,23.860726 c 6.13595,5.260164 12.940432,17.663371 16.035956,29.230338 3.784593,14.141799 4.806345,16.220347 10.207505,20.765123 5.16564,4.346598 9.20109,4.407566 13.73306,0.20748 C 122.55407,67.191278 118.6254,52.40124 104.26819,33.140293 95.009731,20.719585 92.116631,18.666667 83.871049,18.666667 c -6.914528,0 -12.947204,-3.177743 -14.000622,-7.374899 -1.74244,-6.9424353 6.336121,-9.576785 15.03427,-4.9025472 6.041142,3.2464067 21.338593,17.0595612 25.219013,22.7720282 1.8078,2.661313 4.74723,6.844417 6.53208,9.295785 7.26691,9.980613 11.59189,29.20394 8.62215,38.323041 -2.20198,6.761558 -7.8783,11.105174 -16.71884,12.793529 -4.69715,0.897057 -26.364273,1.619094 -53.518413,1.783456 C 12.680724,91.613459 9.2600271,91.462313 7.2538429,89.2455 Z"
       id="path130" />
  </g>
</svg>
