<?xml version="1.0" encoding="UTF-8" standalone="no"?>
<!-- Created with Inkscape (http://www.inkscape.org/) -->

<svg
   version="1.1"
   id="svg2"
   width="54.666668"
   height="133.33333"
   viewBox="0 0 54.666668 133.33333"
   xmlns="http://www.w3.org/2000/svg"
   xmlns:svg="http://www.w3.org/2000/svg">
  <defs
     id="defs6" />
  <g
     id="g8">
    <path
       style="fill:#000000;stroke-width:1.33333"
       d="m 20.149639,126.33333 c -7.930367,-21.28592 -8.41653,-25.66667 -2.848415,-25.66667 2.513452,0 3.58653,0.95453 4.496815,4 0.657574,2.2 2.724774,7.83292 4.593778,12.5176 3.287294,8.23963 3.317154,8.57684 0.915013,10.33333 -3.584183,2.62082 -5.881155,2.24075 -7.157191,-1.18426 z m 17.388357,-6 c -0.672374,-1.28333 -1.638228,-4.43333 -2.146344,-7 -0.508116,-2.56667 -1.818525,-6.64042 -2.912018,-9.05278 -2.671299,-5.893164 -1.906965,-8.856295 2.413808,-9.357732 3.372144,-0.391347 3.731608,0.187178 7.698718,12.390352 2.288776,7.04047 3.806448,13.3752 3.372604,14.07718 -1.32681,2.14682 -7.129542,1.41895 -8.426768,-1.05702 z M 10.726001,21.347339 C 5.8034187,20.185275 6.0374317,17.962568 11.676004,12.323996 18.099164,5.9008359 27.089695,2.9569961 33.479814,5.1846036 41.88589,8.1149775 51.253,17.384894 48.456856,20.006245 c -1.357771,1.27289 -33.222097,2.405468 -37.730855,1.341094 z"
       id="path775" />
  </g>
</svg>
