<?xml version="1.0" encoding="UTF-8" standalone="no"?>
<!-- Created with Inkscape (http://www.inkscape.org/) -->

<svg
   version="1.1"
   id="svg12"
   width="138.66667"
   height="142.66667"
   viewBox="0 0 138.66667 142.66667"
   xmlns="http://www.w3.org/2000/svg"
   xmlns:svg="http://www.w3.org/2000/svg">
  <defs
     id="defs16" />
  <g
     id="g18">
    <path
       style="fill:#000000;stroke-width:1.33333"
       d="M 4.5734057,135.84911 C 3.5927081,134.2623 14.467007,123.58427 26.570731,114.24879 l 7.237398,-5.58212 h 49.207986 c 50.818645,0 52.767035,0.20574 50.787985,5.36308 -0.85166,2.21936 -3.38059,2.31805 -40.356347,1.57494 -21.696263,-0.43603 -43.705977,-0.30502 -48.910476,0.29114 -8.373444,0.95916 -10.318998,1.7566 -16.901278,6.92739 -4.091205,3.2139 -7.482979,6.34707 -7.537276,6.96261 -0.0543,0.61553 25.401278,0.89613 56.567946,0.62355 l 56.666671,-0.49561 v 3.70978 3.70979 H 69.412024 c -45.508471,0 -64.1855464,-0.42755 -64.8386183,-1.48423 z M 110.33334,62.990145 96.000002,62.576451 v -4.661735 c 0,-2.563953 1.534978,-8.308678 3.41106,-12.766054 1.876088,-4.457374 3.226088,-8.217806 2.999998,-8.356514 -4.442614,-2.725666 -7.582611,-3.055133 -9.686908,-1.016411 -2.149178,2.082204 -2.437223,2.014512 -4.509979,-1.05986 -1.217794,-1.80627 -3.564171,-4.46447 -5.214171,-5.907115 -4.310616,-3.7689 -3.712997,-6.831407 2,-10.249036 2.75,-1.645106 6.31645,-4.167111 7.925442,-5.604455 2.257021,-2.016241 3.992289,-2.413213 7.594656,-1.737405 3.78704,0.710453 4.92772,0.392901 6.03751,-1.6807599 0.75257,-1.4061896 2.28069,-2.9068193 3.39581,-3.3347324 2.37203,-0.9102321 7.37992,3.9416103 7.37992,7.1499563 0,1.200558 1.51877,3.609644 3.37504,5.353522 5.18408,4.87019 7.44918,14.792727 7.00669,30.693565 -0.21914,7.874624 -0.94965,13.778483 -1.71507,13.860884 -0.73333,0.07895 -7.78333,-0.04263 -15.66666,-0.270156 z M 23.142551,60.650292 c -1.248445,-3.253397 0.850808,-14.284872 3.627026,-19.059838 3.021213,-5.19635 3.276494,-7.482593 0.72623,-6.503965 -1.01064,0.387818 -2.496462,0.04619 -3.301828,-0.759176 -1.063513,-1.063514 -2.189216,-0.808264 -4.112813,0.932568 -2.764134,2.501507 -6.747832,2.016683 -6.747832,-0.821224 0,-0.904771 -1.855472,-3.559398 -4.1232696,-5.899171 -3.4166597,-3.525099 -3.8808211,-4.707153 -2.708514,-6.897629 2.3595101,-4.408785 13.8505156,-10.97519 19.2062406,-10.97519 3.359595,0 5.393431,-0.8362972 6.752435,-2.7765467 3.066446,-4.377965 7.533414,-2.8396335 10.832715,3.7305637 1.552371,3.091376 4.099037,6.991376 5.659259,8.666667 3.594317,3.859406 5.611983,15.647161 5.074232,29.645055 -0.487443,12.688335 -0.23446,12.508022 -17.734944,12.640549 -9.875406,0.07479 -12.531478,-0.313594 -13.148937,-1.922663 z"
       id="path636" />
  </g>
</svg>
