<?xml version="1.0" encoding="UTF-8" standalone="no"?>
<!-- Created with Inkscape (http://www.inkscape.org/) -->

<svg
   version="1.1"
   id="svg22"
   width="140"
   height="134.66667"
   viewBox="0 0 140 134.66667"
   xmlns="http://www.w3.org/2000/svg"
   xmlns:svg="http://www.w3.org/2000/svg">
  <defs
     id="defs26" />
  <g
     id="g28">
    <path
       style="fill:#000000;stroke-width:1.33333"
       d="m 5.7746717,128.56027 c -0.3667773,-0.95581 -0.4566569,-2.82288 -0.1997324,-4.14905 0.424368,-2.19046 2.3572916,-2.43151 21.1127647,-2.63292 56.428879,-0.60597 106.813976,-0.4983 107.993626,0.23077 1.82902,1.13039 1.649,4.06501 -0.348,5.67347 -1.04005,0.8377 -25.39484,1.58173 -64.779227,1.97898 -51.091979,0.51533 -63.2395769,0.30559 -63.7794313,-1.10125 z M 96.647597,99.969146 c -0.56254,-0.910206 1.385202,-4.92937 4.593573,-9.478834 9.08405,-12.881181 11.81069,-23.918438 6.98718,-28.28366 C 105.02219,59.305117 104,59.422729 104,62.693164 c 0,1.481239 -1.55051,5.149326 -3.44557,8.151302 -1.895066,3.001977 -4.510749,7.940053 -5.812629,10.973504 -1.30188,3.033451 -5.061217,8.365366 -8.354081,11.848699 C 81.372399,98.972092 79.610769,100 75.53368,100 68.3379,100 69.349685,97.380024 79.869011,88.773836 84.9303,84.633037 90.0303,79.224283 91.202344,76.754383 c 1.996793,-4.207928 3.013401,-15.421048 1.398109,-15.421048 -0.403084,0 -2.572025,0.951059 -4.819869,2.113464 -5.777569,2.987697 -8.099195,0.483487 -3.797173,-4.095806 3.661728,-3.89773 2.273676,-4.272589 -4.081444,-1.102238 -2.479254,1.236814 -7.821436,2.510212 -11.871518,2.829772 -4.05008,0.319559 -8.113782,1.181087 -9.030449,1.914505 -1.141917,0.91364 -1.666667,5.719967 -1.666667,15.265467 0,9.2655 -0.558245,14.554475 -1.666666,15.79047 -0.916667,1.022169 -2.440323,2.779312 -3.385903,3.904761 -2.250255,2.6783 -8.140348,2.63029 -9.178396,-0.07481 -0.50662,-1.320231 0.510196,-3.348896 2.693056,-5.372959 4.611347,-4.275882 5.414529,-8.04802 4.017797,-18.869543 -1.096414,-8.494732 -1.33395,-8.952707 -4.485472,-8.648064 -4.816132,0.465552 -13.902422,10.873124 -15.984216,18.308556 -0.946153,3.379332 -2.835512,6.741093 -4.198573,7.470582 -1.363061,0.729483 -2.478293,2.191395 -2.478293,3.248688 0,3.034628 -6.175,6.39631 -9.990287,5.438737 -4.4380115,-1.113869 -4.2162439,-3.459137 0.775905,-8.205457 2.265423,-2.153867 5.676699,-6.616122 7.580612,-9.916122 1.903914,-3.3 5.290552,-8.7 7.525864,-12 3.834628,-5.661077 4.045574,-6.640188 3.734407,-17.333334 C 31.983843,41.370138 31.658288,40.222766 27.0483,33.515157 24.345011,29.581826 19.853252,24.531407 17.066613,22.292003 14.279976,20.0526 12,17.657123 12,16.96872 12,14.529886 20.257497,5.3333664 22.445372,5.3355257 c 1.221712,0.00121 4.436628,2.3566696 7.144257,5.2343643 4.969219,5.281333 16.510394,14.29982 22.117252,17.282831 6.10013,3.245444 13.730078,3.537641 42.959786,1.645192 8.433333,-0.546008 17.129373,-0.506406 19.324533,0.08801 6.14351,1.663559 10.97739,1.28776 11.8243,-0.919252 1.26329,-3.292073 6.18532,-2.495565 6.17952,1 -0.007,4.317508 -4.62503,11.266418 -8.23636,12.393994 -1.70059,0.530982 -3.53281,1.634554 -4.07158,2.452381 -1.46616,2.225563 -1.22024,13.872738 0.31292,14.820286 2.04265,1.262426 1.59468,4.54966 -1.15299,8.46084 -1.36748,1.946537 -3.44784,7.37021 -4.62302,12.052604 -1.17518,4.682395 -3.05633,9.529639 -4.18034,10.771655 C 108.91964,91.860449 108,93.805933 108,94.94173 c 0,4.02956 -9.397145,8.19109 -11.352403,5.027416 z"
       id="path497" />
  </g>
</svg>
