<?xml version="1.0" encoding="UTF-8" standalone="no"?>
<!-- Created with Inkscape (http://www.inkscape.org/) -->

<svg
   version="1.1"
   id="svg32"
   width="234.66667"
   height="138.66667"
   viewBox="0 0 234.66667 138.66667"
   xmlns="http://www.w3.org/2000/svg"
   xmlns:svg="http://www.w3.org/2000/svg">
  <defs
     id="defs36" />
  <g
     id="g38">
    <path
       style="fill:#000000;stroke-width:1.33333"
       d="m 107.66051,132.01915 c -2.81611,-2.21515 -3.61438,-2.34796 -4.8881,-0.81323 -2.12448,2.55984 -47.296244,3.01454 -46.429972,0.46736 C 56.725298,130.54753 59.925462,130 66.12242,130 c 5.066004,0 10.492285,-0.46865 12.058405,-1.04144 1.56612,-0.5728 5.96673,-5.23619 9.779132,-10.3631 l 6.931642,-9.32164 -4.037708,-8.30358 C 88.633151,96.403277 85.851473,89.167453 84.672384,84.890631 81.829842,74.580099 76.910365,64.401959 71.997357,58.666668 64.022018,49.356511 62.249904,41.847569 65.942408,33.010163 c 1.452358,-3.475982 1.614793,-5.835356 0.643842,-9.351848 -1.60808,-5.823989 -3.344402,-7.318915 -9.155587,-7.882708 -6.669384,-0.647056 -6.47196,-3.272478 0.492244,-6.5460406 3.361101,-1.5799033 6.438851,-3.4028799 6.839449,-4.0510589 0.400596,-0.6481791 3.752221,-1.1785074 7.448054,-1.1785074 5.772016,0 7.255611,0.5736959 10.519675,4.0678881 3.99436,4.2759768 4.507818,5.4677278 5.897264,13.6877418 0.687579,4.067736 3.548032,7.947449 14.254171,19.333334 7.36668,7.834404 14.3608,15.744371 15.54249,17.577704 1.18168,1.833333 4.26969,5.804431 6.86225,8.82466 C 130.99953,74.147066 140,89.148645 140,92.015522 c 0,4.883363 -15.83101,10.774378 -24.66667,9.178928 -2.93333,-0.52967 -5.5501,-0.74834 -5.81504,-0.48592 -0.26494,0.26241 1.08506,1.92915 3,3.70385 3.93702,3.64871 4.40917,6.49138 1.48171,8.92096 -1.1,0.91291 -2,2.24376 -2,2.95743 0,0.71367 -1.24169,3.04137 -2.75931,5.17267 -3.02704,4.25109 -2.38116,5.73855 3.96696,9.13596 2.48886,1.332 2.76379,1.93348 1.30582,2.85683 -2.59214,1.64164 -3.06509,1.54245 -6.85296,-1.43708 z M 103.2768,123 c 7.90907,-10.80463 7.94159,-12.03585 0.51207,-19.39024 -6.547495,-6.481282 -7.656683,-6.119967 -4.960015,1.6157 1.330115,3.81556 1.137404,4.68552 -1.74235,7.86563 -4.976574,5.49563 -10.419837,13.23749 -10.419837,14.81995 0,0.79634 2.634916,1.4223 5.987045,1.4223 5.602878,0 6.284524,-0.40639 10.623087,-6.33334 z M 12.685803,84.561315 C 4.9958695,76.26374 7.221824,64.716703 17.526251,59.451709 22.11868,57.105231 21.087739,55.38012 14.666667,54.666668 9.8575276,54.132319 8.5875764,53.446344 8.2681799,51.210473 7.8840248,48.521272 8.3875452,48.425362 22.26818,48.543807 c 13.873778,0.118386 14.414014,0.232188 14.824555,3.122861 0.373575,2.630391 -0.160304,3 -4.333333,3 -5.851038,0 -5.976436,1.394087 -0.579127,6.438311 3.344259,3.125481 4.311222,5.269581 4.835032,10.720989 0.566812,5.898922 0.175306,7.442777 -2.914797,11.494109 -3.318291,4.350502 -4.085455,4.679925 -10.898696,4.679925 -6.16495,0 -7.83536,-0.546216 -10.516011,-3.438687 z M 33.551132,70.000002 C 32.836763,65.756015 27.896464,61.333335 23.870146,61.333335 19.89943,61.333335 12,68.092347 12,71.489822 c 0,1.586532 2.056571,1.878957 11,1.564102 10.158364,-0.357626 10.965656,-0.591289 10.551132,-3.053922 z M 155.97882,42.627069 c -1.69298,-3.163348 -1.34759,-31.986107 0.41094,-34.2937355 0.95938,-1.2589196 9.8524,-1.6666667 36.35032,-1.6666667 32.30584,0 35.12486,0.1845352 35.64459,2.3333334 0.48037,1.9860558 0.31561,28.2411398 -0.20948,33.3816168 -0.13253,1.297529 -3.33939,1.622064 -13.17519,1.333333 -12.87601,-0.377976 -13,-0.413408 -13,-3.714949 0,-3.233317 0.28004,-3.334839 9.33334,-3.383503 l 9.33333,-0.05017 0.39587,-9.820631 c 0.21772,-5.401348 -0.15131,-10.3678 -0.82007,-11.036563 -0.99059,-0.990593 -22.66159,-1.444889 -52.41247,-1.098743 l -4.83668,0.05628 0.17002,11 0.17,11.000001 9,0.394253 c 7.80669,0.341979 9,0.729315 9,2.921311 0,3.590189 -1.22643,4.020704 -13.25304,4.652214 -9.55562,0.50176 -10.87584,0.282763 -12.10148,-2.007377 z"
       id="path358" />
  </g>
</svg>
