<?xml version="1.0" encoding="UTF-8" standalone="no"?>
<!-- Created with Inkscape (http://www.inkscape.org/) -->

<svg
   version="1.1"
   id="svg42"
   width="57.333332"
   height="136"
   viewBox="0 0 57.333332 136"
   xmlns="http://www.w3.org/2000/svg"
   xmlns:svg="http://www.w3.org/2000/svg">
  <defs
     id="defs46" />
  <g
     id="g48">
    <path
       style="fill:#000000;stroke-width:1.33333"
       d="m 12,129.43563 c 0,-6.37322 12.671602,-14.76896 22.290635,-14.76896 3.4136,0 12.953651,4.39357 16.709364,7.69533 2.90782,2.55635 3.039716,7.7483 0.224284,8.82868 C 50.064304,131.63581 40.764304,132 30.557617,132 13.135662,132 12,131.84307 12,129.43563 Z M 12.96267,37.152691 C 1.8287613,28.847857 3.3701195,13.169286 15.979197,6.4688149 28.674155,-0.27729325 41.317216,8.2228693 41.328348,23.511517 c 0.0045,6.297224 -0.42202,7.230622 -5.33219,11.666667 C 31.270595,39.447445 29.857261,39.99516 23.662825,39.95776 18.715126,39.92789 15.582144,39.106569 12.96267,37.152691 Z M 33.063475,16 c 2.045971,0 1.975722,-1.398029 -0.21515,-4.281747 C 31.894883,10.463292 28.717354,9.0531393 25.787151,8.5845809 21.255052,7.8598691 19.87768,8.2509292 16.563088,11.203454 c -3.740909,3.332273 -3.792719,3.532425 -1.29813,5.01487 1.429062,0.84924 3.829062,2.840188 5.333334,4.424327 l 2.735041,2.880254 4.063476,-3.761453 C 29.631721,17.692653 32.181721,16 33.063475,16 Z"
       id="path219" />
  </g>
</svg>
