<?xml version="1.0" encoding="UTF-8" standalone="no"?>
<!-- Created with Inkscape (http://www.inkscape.org/) -->

<svg
   version="1.1"
   id="svg52"
   width="96"
   height="142.66667"
   viewBox="0 0 96 142.66667"
   xmlns="http://www.w3.org/2000/svg"
   xmlns:svg="http://www.w3.org/2000/svg">
  <defs
     id="defs56" />
  <g
     id="g58">
    <path
       style="fill:#000000;stroke-width:1.33333"
       d="M 82.374983,135.07626 C 82.076163,134.48431 81.672125,116.3 81.477124,94.666669 80.8935,29.920017 80.916863,30.126942 73.5755,24.680941 71.608975,23.222125 66.1,21.39156 61.333333,20.613022 L 52.666667,19.197495 52.269123,13.148631 C 52.020863,9.3712212 52.521553,6.5680552 53.602456,5.6838237 54.748781,4.746073 60.962,4.5603665 72,5.1339405 L 88.666667,6.0000001 V 70.666668 135.33334 l -2.874187,0.40958 c -1.580803,0.22527 -3.118677,-0.0747 -3.417497,-0.66666 z M 7.6167684,131.17233 C 6.0619939,129.61755 6.4885717,96.26745 8.0757807,95.286501 c 0.7750126,-0.478984 2.8923183,-0.49862 4.7051223,-0.04363 l 3.296009,0.827246 -0.371789,17.631613 -0.37179,17.63161 -3.383231,0.39455 c -1.860778,0.217 -3.8107776,-0.033 -4.3333336,-0.55556 z M 24,130.75004 c -1.670555,-0.97633 -1.890185,-3.98956 -1.333333,-18.29279 L 23.333333,95.333336 H 26.666667 30 L 30.672349,112 C 31.449517,131.26498 30.318637,134.44288 24,130.75004 Z M 37.62904,113.66667 38,95.333336 h 3.333333 c 3.29007,0 3.348202,0.194634 4.47888,14.996004 C 47.247696,129.12083 46.644256,132 41.270304,132 h -4.012223 z"
       id="path80" />
  </g>
</svg>
