<?xml version="1.0" encoding="UTF-8" standalone="no"?>
<!-- Created with Inkscape (http://www.inkscape.org/) -->

<svg
   version="1.1"
   id="svg2"
   width="140"
   height="142.66667"
   viewBox="0 0 140 142.66667"
   xmlns="http://www.w3.org/2000/svg"
   xmlns:svg="http://www.w3.org/2000/svg">
  <defs
     id="defs6" />
  <g
     id="g8">
    <path
       style="fill:#000000;stroke-width:1.33333"
       d="m 129.10892,137.99782 c -0.36787,-0.36788 -28.05301,-0.67955 -61.522524,-0.6926 -58.4991323,-0.0228 -60.9063491,-0.12219 -62.21525,-2.5679 -1.8455516,-3.44844 -0.3718215,-6.7088 3.1048391,-6.86889 1.5715419,-0.0724 12.0073479,-0.11583 23.1906819,-0.0966 C 42.85,127.79106 52,127.38398 52,126.86721 52,126.35044 50.265413,124.0285 48.145363,121.70734 43.97896,117.14572 44.109993,116 48.798096,116 c 1.904837,0 4.125469,1.60041 6.012661,4.33334 1.645788,2.38333 3.170787,4.56747 3.388888,4.85365 0.2181,0.28617 2.814132,-1.66383 5.768959,-4.33334 C 66.923431,118.18415 70.47086,116 71.85178,116 c 1.38092,0 4.627652,2.17945 7.21496,4.84321 l 4.704196,4.84321 5.267464,-5.53726 c 3.637819,-3.82414 5.956837,-5.27271 7.495712,-4.68219 2.074099,0.7959 2.069661,1.09758 -0.06413,4.36071 -1.260818,1.92811 -3.190627,4.40566 -4.288468,5.50566 -1.774104,1.77759 0.433712,2.04088 19.853746,2.36768 15.44127,0.25984 22.15105,0.84644 22.87685,2 2.29917,3.65424 -2.94631,11.15368 -5.80319,8.2968 z M 22.990072,23.764069 C 16.590661,20.67963 10.666667,14.372218 10.666667,10.643056 c 0,-4.1410634 2.493727,-4.3589575 6.952134,-0.607455 2.326983,1.958027 5.585667,4.075139 7.241518,4.704693 1.655852,0.629553 24.473521,1.240725 50.705932,1.358158 26.232409,0.117427 48.461449,0.507516 49.397849,0.866851 0.93641,0.359333 1.70257,2.671713 1.70257,5.138622 v 4.485286 L 77.666667,26.544665 C 31.035327,26.50227 28.39226,26.367857 22.990072,23.764069 Z"
       id="path1191" />
  </g>
</svg>
