<?xml version="1.0" encoding="UTF-8" standalone="no"?>
<!-- Created with Inkscape (http://www.inkscape.org/) -->

<svg
   version="1.1"
   id="svg12"
   width="137.33333"
   height="137.33333"
   viewBox="0 0 137.33333 137.33333"
   xmlns="http://www.w3.org/2000/svg"
   xmlns:svg="http://www.w3.org/2000/svg">
  <defs
     id="defs16" />
  <g
     id="g18">
    <path
       style="fill:#000000;stroke-width:1.33333"
       d="m 42.285398,130.98202 c -3.561692,-3.93562 -2.859434,-9.59615 1.785006,-14.388 l 4.070405,-4.19959 -3.212318,-7.26362 c -3.523097,-7.96635 -5.491807,-18.29514 -3.926037,-20.597873 1.587081,-2.334075 6.529482,-4.532939 10.188718,-4.532939 1.851565,0 8.613651,2.7 15.026856,6 6.413205,3.3 12.437731,6 13.387838,6 1.219881,0 1.727465,-2.319522 1.727465,-7.89406 0,-7.645699 -0.122948,-7.921063 -3.907869,-8.752372 -8.284733,-1.819632 -8.747224,-8.273509 -0.481769,-6.722901 l 4.638305,0.870152 -0.919348,-4.417076 c -1.110891,-5.337362 -7.464818,-18.417075 -8.946738,-18.417075 -0.877576,0 -10.776097,12.959777 -18.962224,24.826556 C 47.889826,78.543979 41.339831,75.087184 30.165107,59.571976 26.901502,55.040721 20.533724,47.733332 16.014488,43.333332 7.7536199,35.29042 3.9999999,29.89575 3.9999999,26.066213 c 0,-4.272398 4.175452,-1.877982 6.6037031,3.7869 2.408653,5.619159 4.872886,8.448074 6.201593,7.119369 0.345333,-0.345335 -0.09831,-2.221691 -0.985875,-4.169683 -1.144872,-2.51272 -1.199784,-3.95577 -0.188992,-4.966562 1.010792,-1.010792 2.917933,1.093832 6.563832,7.243502 6.324272,10.667384 22.537542,28.103058 25.187263,27.086265 2.28178,-0.875601 15.236668,-18.190544 15.26502,-20.402565 0.04541,-3.543365 6.968153,-7.096539 13.866599,-7.117191 3.751103,-0.0112 7.538516,-0.477065 8.416474,-1.03519 2.912472,-1.851488 -0.541159,-4.756872 -5.76787,-4.852249 -4.528671,-0.08264 -5.179139,-0.54223 -6.307346,-4.456462 -1.715512,-5.951842 0.90414,-14.3125132 5.409502,-17.2645401 2.273099,-1.4893914 6.233879,-2.2997842 11.377781,-2.3279435 7.431975,-0.040685 8.15639,0.2464101 12.457896,4.9372228 3.5221,3.8408618 4.56708,6.1373258 4.56708,10.0366588 0,6.312797 -2.92607,10.641265 -7.68122,11.362653 -2.00866,0.304727 -0.206028,0.643948 4.00585,0.753825 l 7.65796,0.199776 7.15774,11 c 17.49117,26.880361 17.06358,25.938949 13.4311,29.571427 -1.62028,1.620282 -5.06334,2.095239 -15.18879,2.095239 -12.91562,0 -13.10512,0.04611 -13.94508,3.39276 -0.58674,2.33776 0.25621,5.550974 2.71081,10.333333 2.40812,4.691789 3.55129,8.981282 3.52825,13.238952 -0.0204,3.77463 0.70536,6.91206 1.81131,7.82992 1.01498,0.84236 1.84541,3.31345 1.84541,5.49132 0,2.17787 1.2,5.48532 2.66666,7.34989 1.46667,1.86456 2.66667,4.18809 2.66667,5.16339 0,2.61715 -4.85208,4.75201 -9.72827,4.28032 -4.87161,-0.47125 -5.27232,-2.71373 -0.68375,-3.82648 2.85242,-0.69173 2.64829,-1.02023 -2.77743,-4.46966 l -5.856114,-3.72305 -8.810551,3.39893 c -16.233483,6.26255 -24.742571,8.57719 -34.858484,9.48217 -8.851595,0.79187 -10.320043,0.59823 -12.333333,-1.62644 z M 120.47537,64.057962 c 1.22334,-1.223344 -9.29092,-17.391296 -11.30982,-17.391296 -0.61311,0 -1.42132,1.35 -1.79603,2.999999 -2.03729,8.971116 -3.30802,15.133971 -3.33693,16.183575 -0.0402,1.46037 14.80867,-0.158174 16.44278,-1.792278 z"
       id="path1052" />
  </g>
</svg>
