<?xml version="1.0" encoding="UTF-8" standalone="no"?>
<!-- Created with Inkscape (http://www.inkscape.org/) -->

<svg
   version="1.1"
   id="svg22"
   width="50.666668"
   height="102.66667"
   viewBox="0 0 50.666668 102.66667"
   xmlns="http://www.w3.org/2000/svg"
   xmlns:svg="http://www.w3.org/2000/svg">
  <defs
     id="defs26" />
  <g
     id="g28">
    <path
       style="fill:#000000;stroke-width:1.33333"
       d="m 4.0000001,97.068159 c 0,-0.986648 1.7675733,-3.938279 3.9279406,-6.559179 4.9266813,-5.976919 15.8030133,-9.852449 22.3471773,-7.962904 8.772314,2.532895 17.456705,10.088336 15.989761,13.91113 -0.960627,2.503352 -42.2648789,3.100419 -42.2648789,0.610953 z M 14.047384,40.309356 c -0.392728,-1.023433 -0.71405,-3.673213 -0.71405,-5.888399 0,-2.215185 -1.8,-9.400251 -4.0000004,-15.966812 C 7.1333335,11.887584 5.3333335,6.2490806 5.3333335,5.9241381 c 0,-0.3249426 9.3000005,-0.5908046 20.6666675,-0.5908046 11.366667,0 20.666667,0.5078172 20.666667,1.1284827 0,0.6206655 -0.90414,2.9408733 -2.009199,5.1560178 -2.205596,4.421221 -7.324135,23.41081 -7.324135,27.172267 0,3.042758 -2.627598,3.724728 -13.619283,3.534764 -6.319045,-0.109213 -9.162665,-0.702105 -9.666667,-2.015509 z"
       id="path913" />
  </g>
</svg>
