<?xml version="1.0" encoding="UTF-8" standalone="no"?>
<!-- Created with Inkscape (http://www.inkscape.org/) -->

<svg
   version="1.1"
   id="svg32"
   width="141.33333"
   height="100"
   viewBox="0 0 141.33333 100"
   xmlns="http://www.w3.org/2000/svg"
   xmlns:svg="http://www.w3.org/2000/svg">
  <defs
     id="defs36" />
  <g
     id="g38">
    <path
       style="fill:#000000;stroke-width:1.33333"
       d="M 7.4781086,93.700331 C 5.9742851,92.196508 6.6514805,81.671259 8.3333331,80.408083 10.758382,78.586719 132.90951,79.042843 134.74678,80.880123 c 0.78334,0.783332 1.23576,4.05576 1.0054,7.272058 L 135.33333,94 71.811441,94.255887 C 36.874402,94.396624 7.9244018,94.146624 7.4781086,93.700331 Z M 6.689032,20.222223 C 4.6255811,19.545752 5.0479627,8.5633557 7.2063229,6.7720759 8.5889443,5.624602 25.432081,5.3200485 71.539654,5.6088163 L 134,6 l 0.40301,7 c 0.34052,5.914452 0.0304,7.048316 -2,7.311559 -3.79241,0.491697 -124.202645,0.40613 -125.713978,-0.08933 z"
       id="path656" />
  </g>
</svg>
