<?xml version="1.0" encoding="UTF-8" standalone="no"?>
<!-- Created with Inkscape (http://www.inkscape.org/) -->

<svg
   version="1.1"
   id="svg42"
   width="138.66667"
   height="136"
   viewBox="0 0 138.66667 136"
   xmlns="http://www.w3.org/2000/svg"
   xmlns:svg="http://www.w3.org/2000/svg">
  <defs
     id="defs46" />
  <g
     id="g48">
    <path
       style="fill:#000000;stroke-width:1.33333"
       d="m 108.51809,130.79363 c -6.47524,-3.94848 -10.255797,-10.27635 -10.919234,-18.27654 -0.829408,-10.00156 0.294441,-13.391711 4.719844,-14.237681 4.87689,-0.932276 10.8388,1.697419 17.50763,7.722311 9.18479,8.2979 9.94082,20.97032 1.51114,25.32948 -5.09225,2.63329 -7.806,2.51951 -12.81938,-0.53757 z M 3.2663711,129.22499 c -1.0508278,-1.70028 5.298933,-8.73544 10.0669629,-11.1536 4.830862,-2.45003 11.3821,-3.46164 16.19024,-2.50001 4.792487,0.9585 16.533336,11.51249 15.202544,13.66576 -1.214488,1.96508 -40.2448187,1.95364 -41.4597469,-0.0121 z M 34.666668,22.517616 C 6.8813015,18.049723 -0.72038096,14.266192 10.945995,10.7113 37.050497,2.7569264 94.871729,2.0634887 122.16473,9.3774769 c 11.85526,3.1769781 12.50194,3.4819561 12.50194,5.8960261 0,1.194262 -3.85136,2.467677 -11.66667,3.857474 -6.41666,1.141076 -13.76666,2.486286 -16.33333,2.989355 -7.201978,1.411593 -63.751622,1.723627 -72.000002,0.397284 z M 107,17.114673 c 10.08334,-0.888676 18.33334,-2.103026 18.33334,-2.698557 0,-0.595531 -0.54278,-1.082783 -1.20617,-1.082783 -0.66339,0 -9.51339,-0.945778 -19.66666,-2.10173 C 94.307229,10.075651 78.200002,9.1548437 68.666668,9.1853636 52.484031,9.2371705 19.171323,11.530765 14.666667,12.903287 c -1.777778,0.54167 -1.777778,0.729988 0,1.694854 2.174431,1.180147 21.024918,3.9323 30.666667,4.477304 C 56.912444,19.72996 88.846885,18.714563 107,17.114673 Z"
       id="path517" />
  </g>
</svg>
