<?xml version="1.0" encoding="UTF-8" standalone="no"?>
<!-- Created with Inkscape (http://www.inkscape.org/) -->

<svg
   version="1.1"
   id="svg52"
   width="140"
   height="132"
   viewBox="0 0 140 132"
   xmlns="http://www.w3.org/2000/svg"
   xmlns:svg="http://www.w3.org/2000/svg">
  <defs
     id="defs56" />
  <g
     id="g58">
    <path
       style="fill:#000000;stroke-width:1.33333"
       d="m 51.178299,126.41582 c -0.563535,-0.91182 0.0372,-2.18509 1.415422,-3 8.443063,-4.9922 10.883868,-7.3367 12.715186,-12.21348 4.17457,-11.11685 11.362172,-17.853659 19.059382,-17.864023 l 3.701623,-0.005 L 87.915031,110.66667 87.760148,128 H 69.958763 c -12.308531,0 -18.103492,-0.48882 -18.780464,-1.58418 z M 9.3333333,69.594375 c 0,-1.323095 1.8218677,-5.278414 4.0485947,-8.789598 3.307144,-5.214824 4.396513,-6.095222 5.948365,-4.8073 1.044874,0.867168 2.263642,2.723123 2.708372,4.124344 0.44473,1.401222 1.967679,3.167996 3.384331,3.926166 2.208567,1.181989 2.896119,0.706629 4.823317,-3.33475 2.771516,-5.811929 6.134859,-6.069896 9.299115,-0.713237 1.299572,2.2 2.784559,4 3.299969,4 0.515411,0 2.216195,-2.0696 3.779519,-4.599112 3.358636,-5.434387 5.454096,-5.080369 9.387315,1.585939 l 2.80179,4.748681 3.307724,-4.867755 C 65.038264,56.575711 70.574777,54.083661 70.714617,57 c 0.02637,0.55 1.438106,2.699155 3.137184,4.775899 l 3.089234,3.775897 2.817849,-4.775897 C 81.522851,57.786196 83.590889,56 85.288367,56 c 1.491398,0 2.714613,0.45 2.718256,1 0.0036,0.55 1.380481,2.716869 3.059642,4.815265 l 3.05302,3.815266 3.273691,-4.806155 c 3.992194,-5.861 6.621444,-6.083804 9.728264,-0.824376 3.02612,5.122813 5.19535,5.046133 9.42984,-0.333333 l 3.41102,-4.333334 4.35228,4.775886 c 2.39376,2.626737 5.40229,5.157906 6.68562,5.624821 2.89796,1.054361 2.97104,2.743525 0.21756,5.028709 -1.82087,1.511191 -2.74438,1.022882 -6.62579,-3.503408 L 120.08176,62 l -4.51393,5.263996 -4.51392,5.263996 -3.70414,-5.597329 c -2.03727,-3.078531 -4.0744,-5.593536 -4.52695,-5.588899 -0.45255,0.0047 -1.85089,1.815052 -3.107424,4.023147 -3.598688,6.323945 -6.211124,6.494608 -11.057235,0.722341 l -4.228182,-5.036244 -2.83669,4.807829 C 78.033589,71.892081 75.663064,71.926963 72,66 70.413713,63.433333 68.714777,61.349851 68.224588,61.370039 67.734397,61.390227 65.833333,63.473709 64,66 c -1.833333,2.526291 -4.049325,4.609773 -4.924427,4.629961 -0.875102,0.02019 -3.068572,-2.44092 -4.874378,-5.46913 l -3.283284,-5.505835 -3.475682,5.505835 c -1.911625,3.02821 -3.995362,5.505836 -4.630528,5.505836 -0.635166,0 -1.892192,-1.780107 -2.79339,-3.955792 -2.928563,-7.070179 -4.933643,-7.554038 -7.624243,-1.839859 -3.204181,6.8049 -6.075759,7.103696 -10.182856,1.059559 l -3.324625,-4.892626 -3.46002,5.481026 c -3.67267,5.817885 -6.0932337,7.039601 -6.0932337,3.0754 z M 75.513269,25.233012 C 74.543463,20.383981 70.772387,20.259617 68.683829,25.007789 67.715179,27.209939 66.242339,28 63.105725,28 59.447512,28 58.784029,27.480603 58.421896,24.333333 L 58,20.666667 H 32 6 v -4 -4 l 10,-0.01857 c 5.5,-0.01021 17.35,-0.160211 26.333333,-0.333333 L 58.666667,12 V 8 c 0,-3.6825397 0.37037,-4 4.666666,-4 C 67.392135,4 68,4.4239397 68,7.254644 68,13.224367 73.755308,13.145988 75.258752,7.155791 75.96146,4.355978 76.761025,3.9025787 80.379083,4.2522675 84.138517,4.6156205 84.718133,5.2004508 85.084477,9 l 0.417812,4.333333 h 24.426681 c 23.30128,0 24.45879,0.1228 25.12368,2.665339 0.91938,3.515684 -1.11829,4.659596 -8.38598,4.707748 -37.931437,0.251319 -42.839773,0.593599 -42.450426,2.960247 0.567981,3.452472 -1.305593,5.666666 -4.794933,5.666666 -2.38121,0 -3.275672,-0.938472 -3.908042,-4.100321 z"
       id="path378" />
  </g>
</svg>
