<?xml version="1.0" encoding="UTF-8" standalone="no"?>
<!-- Created with Inkscape (http://www.inkscape.org/) -->

<svg
   version="1.1"
   id="svg62"
   width="141.33333"
   height="137.33333"
   viewBox="0 0 141.33333 137.33333"
   xmlns="http://www.w3.org/2000/svg"
   xmlns:svg="http://www.w3.org/2000/svg">
  <defs
     id="defs66" />
  <g
     id="g68">
    <path
       style="fill:#000000;stroke-width:1.33333"
       d="m 120.29746,131.95245 c -9.47896,-0.99533 -13.62245,-2.75199 -13.63901,-5.78238 -0.005,-0.82687 -0.95334,-3.30341 -2.1085,-5.50341 -1.15516,-2.2 -2.97575,-6.4 -4.04574,-9.33333 -4.553922,-12.484259 -9.837545,-28.054235 -9.837545,-28.98962 0,-2.602977 2.856767,-0.368216 8.508947,6.656288 5.868708,7.293601 12.317408,15.058572 27.406058,33.000002 6.66931,7.93025 8.29754,11.50125 5.08499,11.15229 -0.91666,-0.0996 -6.0328,-0.6395 -11.3692,-1.19984 z M 8.6145597,129.01167 C 8.2275731,128.0032 8.0809845,120.01302 8.2888071,111.25571 8.649871,96.041067 8.7960039,95.314918 11.576452,94.919086 c 4.544936,-0.647032 5.580814,3.206366 5.325264,19.809614 L 16.666666,130 l -3.674247,0.42262 c -2.211313,0.25436 -3.9543969,-0.30742 -4.3778593,-1.41095 z M 98.817904,63.855169 c -3.365189,-3.612106 -3.479688,-4.983661 -0.742301,-8.891829 2.729567,-3.897004 10.536217,-4.136187 12.544147,-0.384329 3.09801,5.788686 1.20123,9.74451 -5.47597,11.420381 -2.65984,0.667576 -4.18926,0.14916 -6.325876,-2.144223 z M 62.06982,62.743817 c -3.205352,-3.541874 -1.190036,-9.60427 3.776156,-11.359284 4.68362,-1.655156 8.012788,0.36127 8.587297,5.201194 0.873097,7.355365 -7.503892,11.527845 -12.363453,6.15809 z M 25.599999,62.399998 c -2.062557,-2.062557 -2.062557,-8.070775 0,-10.133333 3.876699,-3.876698 11.733333,0.07728 11.733333,5.904988 0,3.611255 -2.535986,5.828345 -6.666666,5.828345 -1.906667,0 -4.186667,-0.72 -5.066667,-1.6 z M 38.666666,21.344947 4.6666666,20.666666 5.1358424,14 C 5.3938891,10.333333 5.8226649,7.1045574 6.0886775,6.8249425 6.3546901,6.5453277 16.643561,6.4326609 28.952834,6.5745718 111.25052,7.5233644 132.16439,7.9442206 133.34736,8.6753359 c 0.7352,0.4543784 1.18281,3.6383101 0.99468,7.0754021 L 134,21.999999 l -30.66667,0.0116 c -16.866665,0.0064 -45.966665,-0.293612 -64.666664,-0.666666 z"
       id="path239" />
  </g>
</svg>
