<?xml version="1.0" encoding="UTF-8" standalone="no"?>
<!-- Created with Inkscape (http://www.inkscape.org/) -->

<svg
   version="1.1"
   id="svg72"
   width="144"
   height="142.66667"
   viewBox="0 0 144 142.66667"
   xmlns="http://www.w3.org/2000/svg"
   xmlns:svg="http://www.w3.org/2000/svg">
  <defs
     id="defs76" />
  <g
     id="g78">
    <path
       style="fill:#000000;stroke-width:1.33333"
       d="m 39.333333,136.52612 c -24.63717,-3.51125 -31.6296939,-5.34382 -31.0835361,-8.14625 0.609541,-3.12765 14.6076191,-6.66057 36.4168701,-9.1911 23.711565,-2.75125 55.408843,-1.90826 74.731363,1.98748 16.43853,3.31429 17.9353,3.86979 17.9353,6.65641 0,1.77057 -3.27138,2.84728 -16.33333,5.37579 -13.71972,2.65585 -21.240521,3.21986 -47,3.52477 -16.866667,0.19964 -32.466667,0.1064 -34.666667,-0.2071 z m 65.234847,-5.30561 c 7.27917,-1.03794 15.22917,-1.88717 17.66667,-1.88717 5.00049,0 6.01745,-2.29249 1.43182,-3.22768 C 107.85235,122.8805 59.571188,122.42816 35,125.27495 c -8.983333,1.0408 -16.333333,2.37972 -16.333333,2.97537 0,0.59566 0.45,1.10265 1,1.12664 0.55,0.024 5.2,0.69485 10.333333,1.49078 11.772827,1.8254 39.761031,3.27116 52,2.6861 5.133333,-0.24538 15.289015,-1.29538 22.56818,-2.33333 z M 7.2701061,34.564363 C 6.5433293,33.388414 6.4860164,24.363893 7.1606752,17.333334 7.4773463,14.033334 7.7957416,10.369851 7.8682204,9.1922622 7.9862255,7.2749904 13.400556,6.9970007 59.666667,6.5327571 88.083333,6.2476185 116.73333,6.0111005 123.33333,6.0071617 l 12,-0.00716 L 136,12.666669 c 0.36667,3.666666 0.46099,9.819209 0.2096,13.672317 -0.38547,5.908475 -0.90752,7.101674 -3.33333,7.618768 C 128.40659,34.910528 7.8438988,35.492781 7.2701061,34.564365 Z M 131.55725,29.440847 c 0.12316,-0.05913 0.42316,-4.260826 0.66667,-9.337097 l 0.44275,-9.229585 -4,-0.437082 c -2.2,-0.240396 -15.4,-0.05897 -29.333337,0.403177 -13.933333,0.462142 -39.21914,0.912142 -56.190681,1 C 8.2428657,12.020927 10.666667,11.147753 10.666667,23.53973 v 7.321628 L 71,30.204859 c 33.18333,-0.361074 60.4341,-0.70488 60.55725,-0.764012 z"
       id="path100" />
  </g>
</svg>
