<?xml version="1.0" encoding="UTF-8" standalone="no"?>
<!-- Created with Inkscape (http://www.inkscape.org/) -->

<svg
   version="1.1"
   id="svg2"
   width="136"
   height="132"
   viewBox="0 0 136 132"
   xmlns="http://www.w3.org/2000/svg"
   xmlns:svg="http://www.w3.org/2000/svg">
  <defs
     id="defs6" />
  <g
     id="g8">
    <path
       style="fill:#000000;stroke-width:1.33333"
       d="M 27.180787,121.91674 C 27.631353,120.74258 28,119.50118 28,119.15807 c 0,-0.3431 3.45,-0.24245 7.666667,0.22367 7.516761,0.83091 7.757821,0.75265 12.328608,-4.00297 l 4.661941,-4.85046 -6.328608,-5.89442 C 42.847873,101.39196 40,98.188135 40,97.51428 40,96.840424 38.484739,95.908781 36.632752,95.443963 34.780765,94.979144 29.606041,90.939375 25.133364,86.466697 17.011045,78.344379 17.00214,78.326829 17.759143,71.935124 c 0.852776,-7.20036 -0.214635,-8.759556 -6.913966,-10.099421 -6.6800471,-1.336011 -6.2211013,-2.888995 1.917438,-6.488244 10.663692,-4.715991 16.328206,-4.456191 21.49541,0.985874 2.26296,2.383334 4.47952,5.533334 4.925691,7 0.571131,1.87744 5.448672,4.628283 16.480419,9.294646 8.618058,3.645389 21.347665,10.412888 28.288013,15.038886 12.093623,8.06085 12.870523,8.373914 18.666662,7.522019 3.32632,-0.488889 8.74786,-1.699895 12.04786,-2.691121 3.3,-0.991227 6.8,-1.808726 7.77777,-1.816664 2.3646,-0.0192 1.19276,3.28109 -1.22589,3.452526 -3.69176,0.261676 -14.55188,3.768943 -14.55188,4.699518 0,0.520702 5.4,1.711017 12,2.645147 13.52336,1.91403 15.98769,4.46593 5.30401,5.4925 -3.68279,0.35387 -7.09537,1.04278 -7.58351,1.53092 -0.48814,0.48814 1.68118,3.50485 4.82072,6.7038 6.98381,7.11599 5.18239,9.12495 -2.76116,3.07926 -3.17903,-2.4195 -9.63076,-6.77338 -14.33716,-9.67527 -8.367559,-5.15931 -8.899129,-5.29274 -23.999995,-6.02441 -8.4936,-0.41154 -15.68923,-0.56522 -15.99029,-0.34151 -0.30106,0.22371 0.531748,1.59916 1.850683,3.05657 2.502784,2.76554 2.226889,3.61304 -2.969968,9.12319 -3.011069,3.19259 -1.772467,4.43118 4,3.99997 4.778853,-0.35699 5.666667,-0.0365 5.666667,2.04556 0,2.28677 -1.7077,2.50995 -23.152547,3.02579 -20.821297,0.50084 -23.07006,0.34195 -22.333333,-1.57792 z m 30.84021,-5.39873 c 4.889574,-5.27594 5.356042,-8.25665 1.872438,-11.96478 -3.809496,-4.05502 -8.687432,-4.52818 -6.607014,-0.64088 C 55.317015,107.70654 54.932975,110.91707 52,114.66667 48.669288,118.92474 48.682123,120 52.06367,120 c 1.501682,0 4.182481,-1.5669 5.95733,-3.48199 z M 46.666667,17.586451 c 0,-3.978579 7.503189,-10.4781127 13.97839,-12.1085873 9.830746,-2.47541 20.62982,1.1235627 25.4513,8.4820713 1.173424,1.79087 1.746371,3.882514 1.273215,4.648097 C 86.834,19.474605 78.990037,20 66.587977,20 48.251961,20 46.666667,19.807935 46.666667,17.586451 Z"
       id="path1222" />
  </g>
</svg>
