<?xml version="1.0" encoding="UTF-8" standalone="no"?>
<!-- Created with Inkscape (http://www.inkscape.org/) -->

<svg
   version="1.1"
   id="svg12"
   width="138.66667"
   height="138.66667"
   viewBox="0 0 138.66667 138.66667"
   xmlns="http://www.w3.org/2000/svg"
   xmlns:svg="http://www.w3.org/2000/svg">
  <defs
     id="defs16" />
  <g
     id="g18">
    <path
       style="fill:#000000;stroke-width:1.33333"
       d="m 13.43686,130.78267 c -8.009022,-0.86702 -10.2198001,-3.3774 -4.7917702,-5.44113 4.6544802,-1.76963 13.1339212,-1.69826 22.5346522,0.18968 5.739884,1.15273 8.002975,1.15273 9.155708,0 2.663084,-2.66308 -1.057142,-4.66284 -10.490987,-5.63927 -8.291154,-0.85817 -11.974115,-2.85812 -10.287831,-5.58659 0.889203,-1.43876 17.488713,0.19465 21.110036,2.07725 1.466666,0.76247 3.266666,2.15909 4,3.10361 1.066213,1.37326 6.809283,1.47226 28.666667,0.49416 15.033334,-0.67273 32.229885,-1.61003 38.214565,-2.0829 l 10.88123,-0.85976 1.11877,-10.85219 1.11877,-10.852194 H 129.33334 134 l 0.37318,17.000004 c 0.34072,15.52199 0.16684,17.00791 -2.00001,17.09102 -5.4121,0.2076 -26.81402,-0.13968 -54.373168,-0.88228 -25.085562,-0.67595 -30.051185,-0.4828 -34.290509,1.33376 -5.04152,2.1603 -15.734914,2.48063 -30.272633,0.90683 z M 52.000001,23.841845 C 30.401733,22.680015 6.3263904,18.68549 4.6586832,15.987083 3.6273278,14.318315 6.8886012,12.447763 14.666667,10.246857 27.786781,6.534347 48.004044,4.6755066 72.666668,4.9141496 c 19.809441,0.1916821 26.992173,0.8315807 41.136642,3.6647998 17.79915,3.5652736 19.53003,4.1076216 19.53003,6.1194946 0,2.297507 -4.74685,3.72344 -20.00801,6.01033 -20.12559,3.015825 -42.374319,4.152499 -61.325329,3.133071 z M 99.06563,18.621754 c 3.51943,-0.708631 9.81943,-1.297608 14,-1.308838 7.46737,-0.02005 12.43849,-1.559276 9.96768,-3.086317 C 121.66017,13.377947 104.73972,11.278321 86.000002,9.6312062 71.967804,8.3978557 28.09057,10.385631 16.278803,12.789794 c -7.6117048,1.549284 1.284041,3.828874 27.054531,6.932893 11.385514,1.37137 46.941947,0.668989 55.732296,-1.100933 z"
       id="path1083" />
  </g>
</svg>
