<?xml version="1.0" encoding="UTF-8" standalone="no"?>
<!-- Created with Inkscape (http://www.inkscape.org/) -->

<svg
   version="1.1"
   id="svg22"
   width="136"
   height="140"
   viewBox="0 0 136 140"
   xmlns="http://www.w3.org/2000/svg"
   xmlns:svg="http://www.w3.org/2000/svg">
  <defs
     id="defs26" />
  <g
     id="g28">
    <path
       style="fill:#000000;stroke-width:1.33333"
       d="M 42,133.851 C 16.124307,130.05911 11.857257,129.28274 7.8054612,127.62943 3.9222072,126.0449 3.7706303,125.75318 5.7842777,123.73953 12.914814,116.609 73.000063,112.04167 100,116.57781 c 27.22531,4.57401 35.99308,7.90303 29.61702,11.24524 -2.31985,1.21603 -12.36767,2.9287 -31.61702,5.3892 -17.602704,2.25003 -43.025883,2.54 -56,0.63875 z m 61.78463,-4.54529 c 8.31487,-0.73598 16.41487,-2.06433 18,-2.95189 2.54246,-1.42361 1.5467,-1.81293 -8.4513,-3.3043 -25.696755,-3.83312 -77.038635,-3.57644 -97.844183,0.48915 -5.7835346,1.13016 -2.034551,2.69574 10.423121,4.35271 21.840148,2.90493 54.359437,3.49555 77.872362,1.41433 z M 92.845289,59.418821 c -1.551533,-2.36794 -3.850744,-3.503 -8.48668,-4.18965 -3.497234,-0.517992 -8.684045,-1.756462 -11.526245,-2.752155 -2.842199,-0.995692 -6.398707,-1.810349 -7.903349,-1.810349 -6.382528,0 -25.493831,-8.465956 -33.28635,-14.745242 -6.54001,-5.270001 -8.868649,-6.397913 -12.878726,-6.238001 -6.55713,0.26148 -13.4306057,-2.691257 -13.4306057,-5.769579 0,-3.4777 5.1396957,-6.679917 9.1186637,-5.68126 2.985482,0.749308 3.201312,0.526662 2.296903,-2.369449 -2.513079,-8.0474161 -2.424081,-10.241604 0.452437,-11.1545752 4.928908,-1.5643748 8.116555,0.3776961 8.285535,5.0479561 0.08444,2.3339161 0.05236,5.2602751 -0.07131,6.5030221 -0.240109,2.412893 0.830336,2.715724 17.91777,5.068949 11.306593,1.557107 26,1.727505 26,0.30152 0,-0.570161 -0.979758,-2.435459 -2.17724,-4.145104 C 65.363642,14.925827 65.296828,14.179939 66.77804,13.264499 68.793427,12.018923 72,14.0814 72,16.623276 c 0,0.896549 1.076856,2.604632 2.393015,3.795739 2.005246,1.814724 6.647293,2.226305 28.647325,2.539982 26.01709,0.370954 28.85329,0.89836 26.37707,4.904959 -0.78124,1.264076 -6.38639,1.302415 -25.39346,0.173685 -13.415003,-0.796646 -24.67711,-1.162258 -25.026898,-0.812472 -0.349787,0.349788 1.02316,3.51722 3.050995,7.038738 2.027834,3.521518 4.946593,8.931266 6.486129,12.021665 1.539536,3.090397 3.699157,6.012799 4.799157,6.494225 1.885308,0.825123 10.433227,2.104516 28.561947,4.274951 4.94269,0.591756 8.12715,1.648031 8.5153,2.824492 0.51635,1.565005 -1.36123,1.732987 -11.22861,1.004589 -6.51675,-0.481058 -14.09864,-1.255222 -16.84864,-1.720364 -4.079557,-0.690026 -4.999997,-0.44542 -4.999997,1.328746 0,3.154066 -2.037382,2.666793 -4.488044,-1.07339 z M 86.563135,50.333333 C 86.506192,49.416667 83.652423,43.866667 80.221424,38 L 73.983245,27.333333 60.658289,26.959985 C 53.329564,26.754644 44.033333,27.074028 40,27.669727 l -7.333333,1.083088 3.978284,3.73195 c 2.188056,2.052574 6.988056,5.131154 10.666666,6.84129 8.047666,3.74125 31.865726,11.515582 38.35505,12.519277 0.55,0.08507 0.95341,-0.595332 0.896468,-1.511999 z"
       id="path944" />
  </g>
</svg>
