<?xml version="1.0" encoding="UTF-8" standalone="no"?>
<!-- Created with Inkscape (http://www.inkscape.org/) -->

<svg
   version="1.1"
   id="svg32"
   width="128"
   height="132"
   viewBox="0 0 128 132"
   xmlns="http://www.w3.org/2000/svg"
   xmlns:svg="http://www.w3.org/2000/svg">
  <defs
     id="defs36" />
  <g
     id="g38">
    <path
       style="fill:#000000;stroke-width:1.33333"
       d="m 17.188492,123.38728 c -2.763324,-4.68349 -6.521825,-6.37046 -6.521825,-2.92726 0,2.25277 -5.0481997,6.93623 -6.2168037,5.76762 -0.8552464,-0.85525 2.8823667,-10.6538 5.2999203,-13.89431 1.9412354,-2.60204 3.1084164,-2.02552 6.0735484,3 3.02114,5.12046 6.222977,6.05506 7.454191,2.17585 0.434805,-1.36995 1.906316,-3.50057 3.270024,-4.73471 2.35251,-2.12899 2.684524,-1.99512 6.484177,2.61452 l 4.004708,4.8584 2.411227,-4.08188 c 3.607014,-6.10619 5.48531,-6.08007 9.406057,0.1308 l 3.504781,5.55193 2.41868,-3.25745 c 6.577103,-8.85797 6.577966,-8.85824 10.899438,-3.47141 4.602084,5.73663 5.954166,6.02534 7.625896,1.62836 0.68008,-1.78874 2.450901,-3.90219 3.93516,-4.69654 2.333649,-1.24893 3.108718,-0.81128 5.73049,3.23576 3.711231,5.72877 5.033694,5.83567 8.821011,0.71305 3.832968,-5.18437 6.012969,-5.04693 9.502408,0.59911 2.73531,4.42581 6.70842,5.30867 6.70842,1.49065 0,-0.89371 1.4514,-2.98845 3.22534,-4.65498 l 3.22534,-3.03005 4.7416,6.4643 c 2.60789,3.55536 4.75649,7.21429 4.77467,8.13096 0.052,2.62074 -3.69876,1.94549 -4.57781,-0.82415 -0.4348,-1.36996 -1.95266,-3.54252 -3.37301,-4.82792 -2.49245,-2.25564 -2.68173,-2.16882 -5.43099,2.49082 -1.5667,2.65536 -3.65874,4.82792 -4.64899,4.82792 -0.99024,0 -3.40219,-2.1 -5.35988,-4.66667 -1.957693,-2.56667 -3.938227,-4.65924 -4.401189,-4.65016 -0.462961,0.009 -2.197264,2.10908 -3.854005,4.66667 -1.656741,2.55758 -3.756741,4.64273 -4.666667,4.63365 -0.909925,-0.009 -3.087061,-2.22675 -4.83808,-4.92816 l -3.183672,-4.91165 -3.143038,3.92816 c -1.728672,2.16048 -3.14602,4.37816 -3.149663,4.92816 -0.01716,2.5909 -4.162184,0.50855 -7.962213,-4 -2.544486,-3.01892 -4.47993,-4.36615 -4.8848,-3.40025 -1.373931,3.2778 -6.077348,8.40025 -7.71309,8.40025 -0.931296,0 -2.826253,-2.10384 -4.211016,-4.67518 -2.954406,-5.486 -4.536301,-5.39277 -7.142793,0.42099 -2.490447,5.55491 -5.720021,5.39802 -8.490856,-0.41248 -2.731608,-5.72824 -4.638324,-5.91618 -6.478125,-0.63852 -0.772322,2.21548 -2.547022,4.63975 -3.94378,5.38728 -2.142988,1.14689 -2.974498,0.62197 -5.324791,-3.36148 z M 42.666667,16.261556 c 0,-3.011701 7.430842,-10.298742 12.420133,-12.1797775 7.779952,-2.9331564 17.604339,-0.5947698 24.65746,5.8689346 4.173419,3.8246519 4.584947,4.7127159 3.044175,6.5692319 -1.48661,1.791255 -4.955914,2.146722 -20.951695,2.146722 -17.586269,0 -19.170073,-0.198707 -19.170073,-2.405111 z"
       id="path805" />
  </g>
</svg>
