<?xml version="1.0" encoding="UTF-8" standalone="no"?>
<!-- Created with Inkscape (http://www.inkscape.org/) -->

<svg
   version="1.1"
   id="svg42"
   width="96"
   height="138.66667"
   viewBox="0 0 96 138.66667"
   xmlns="http://www.w3.org/2000/svg"
   xmlns:svg="http://www.w3.org/2000/svg">
  <defs
     id="defs46" />
  <g
     id="g48">
    <path
       style="fill:#000000;stroke-width:1.33333"
       d="m 10.666667,131.79634 c 0,-0.62132 2.55,-1.22712 5.666666,-1.34622 12.60461,-0.48167 15.823296,-0.92026 17.604908,-2.39886 3.374767,-2.80081 13.403695,-18.96763 12.9868,-20.93497 C 46.700481,106.05658 44.803,102.48725 42.708416,99.184432 40.613833,95.881616 37.894113,88.65767 36.664595,83.131219 34.154151,71.847254 31.134969,65.880844 23.84464,57.796831 16.651917,49.821052 15.059589,43.519414 18,34.666668 c 1.924621,-5.794491 2.058788,-7.879295 0.781441,-12.142699 -1.72599,-5.760843 -4.608917,-7.857302 -10.8048969,-7.857302 -5.0099688,0 -4.8205378,-2.737462 0.2838976,-4.102599 C 10.14145,10.061009 13.417597,8.3650918 15.540768,6.7953635 20.325227,3.2580599 27.67618,2.8527165 32.284335,5.872096 c 4.125508,2.7031367 7.744946,9.787691 8.72199,17.072101 0.579246,4.318597 2.318546,6.790074 9.954091,14.144384 17.336817,16.698256 41.726284,49.563686 40.721993,54.873929 -0.204134,1.079379 -3.849004,3.741146 -8.099706,5.915035 -7.138263,3.650645 -8.236511,3.848475 -14.379164,2.590165 -3.657838,-0.749298 -6.929034,-0.911868 -7.269324,-0.36126 -0.340292,0.5506 0.896566,2.8019 2.748576,5.00289 l 3.367288,4.00179 -4.358372,7.99988 -4.358374,7.99988 3,3.19716 c 1.65,1.75844 3,3.60849 3,4.11122 0,1.68619 -3.099345,0.9358 -5.643078,-1.36625 -2.141399,-1.93794 -2.696542,-1.99421 -3.697398,-0.37479 -0.936846,1.51585 -5.69177,1.94051 -23.251933,2.07665 -12.140841,0.0941 -22.074257,-0.33722 -22.074257,-0.95854 z m 43.627128,-5.62515 c 1.368037,-1.73917 3.917017,-5.8571 5.6644,-9.15095 l 3.177057,-5.98882 -6.567625,-7.61861 c -6.920686,-8.028166 -8.836354,-7.640469 -5.919402,1.19798 1.454607,4.4075 1.24738,4.93351 -5.23349,13.28432 -3.711438,4.78231 -6.748068,9.31231 -6.748068,10.06667 0,0.75436 2.956452,1.37156 6.569893,1.37156 5.324949,0 7.041225,-0.5992 9.057235,-3.16215 z"
       id="path666" />
  </g>
</svg>
