<?xml version="1.0" encoding="UTF-8" standalone="no"?>
<!-- Created with Inkscape (http://www.inkscape.org/) -->

<svg
   version="1.1"
   id="svg52"
   width="112"
   height="136"
   viewBox="0 0 112 136"
   xmlns="http://www.w3.org/2000/svg"
   xmlns:svg="http://www.w3.org/2000/svg">
  <defs
     id="defs56" />
  <g
     id="g58">
    <path
       style="fill:#000000;stroke-width:1.33333"
       d="M 7.003664,130.33333 C 6.2760935,129.41667 5.2562749,124.77031 4.7374005,120.00811 l -0.9434081,-8.65856 4.9688396,4.96884 c 5.570073,5.57007 10.571197,7.00778 20.918372,6.01355 5.869973,-0.56403 7.453093,-1.36042 10.925089,-5.49584 2.233206,-2.65992 4.740395,-4.83619 5.571532,-4.83616 2.714679,1.1e-4 4.115103,10.28347 2.315127,17.00006 -0.787704,2.93931 -1.202136,3 -20.485201,3 -14.150574,0 -20.0529697,-0.46835 -21.004087,-1.66667 z m 9.816595,-19.72729 c -1.879235,-2.23334 -4.070898,-6.48979 -4.870362,-9.45877 -1.615776,-6.000539 -1.878272,-33.780445 -0.342467,-36.243365 0.538649,-0.863814 1.382922,-4.570572 1.876161,-8.237238 1.470481,-10.931334 6.716541,-46.425492 7.35386,-49.7552583 0.384997,-2.0114739 1.36894,-2.9388043 2.821417,-2.6590827 1.765209,0.3399483 2.576681,3.1879259 3.891601,13.658143 0.913738,7.275748 2.578298,17.772336 3.699022,23.32575 4.912577,24.342798 6.018165,31.172356 6.846064,42.290226 1.051249,14.117246 -0.694778,21.944575 -6.101115,27.350915 -5.185331,5.18533 -10.665161,5.08735 -15.174181,-0.27132 z M 66.063263,18.769027 c -0.418431,-0.677035 0.459426,-3.299074 1.950793,-5.826753 2.131859,-3.613232 4.290783,-5.0925019 10.098163,-6.9191471 7.844277,-2.4673278 12.430096,-2.1393316 19.944561,1.4265155 4.51146,2.1408303 10.3402,9.4960066 9.10679,11.4916986 -0.92157,1.491143 -40.173943,1.326575 -41.100307,-0.172314 z"
       id="path527" />
  </g>
</svg>
