<?xml version="1.0" encoding="UTF-8" standalone="no"?>
<!-- Created with Inkscape (http://www.inkscape.org/) -->

<svg
   version="1.1"
   id="svg62"
   width="140"
   height="94.666664"
   viewBox="0 0 140 94.666664"
   xmlns="http://www.w3.org/2000/svg"
   xmlns:svg="http://www.w3.org/2000/svg">
  <defs
     id="defs66" />
  <g
     id="g68">
    <path
       style="fill:#000000;stroke-width:1.33333"
       d="M 27.836764,88.999997 C 27.746985,88.816664 27.524743,85.87521 27.342892,82.463431 26.759453,71.517239 25.295683,66.716573 21.076205,61.910854 L 16.950609,57.21206 20.475304,53.53307 C 25.205575,48.595733 25.146305,46.048267 20.333333,47.430939 18.316667,48.010287 14.566667,48.525332 12,48.575483 8.2032488,48.649668 7.3333333,48.173265 7.3333333,46.019819 c 0,-1.839396 1.8946231,-3.546354 6.2106377,-5.595461 3.41585,-1.621739 6.574624,-3.537559 7.019497,-4.257379 0.444872,-0.71982 -2.799915,-4.485337 -7.210637,-8.367816 -4.4107239,-3.88248 -8.0194977,-7.754365 -8.0194977,-8.60419 0,-1.606795 6.3975727,-6.911017 11.7615037,-9.7514547 5.949192,-3.150359 17.784444,-5.4433209 27.970216,-5.4189508 9.400995,0.022493 30.943531,2.9993139 33.603879,4.6434987 1.760889,1.0882898 23.847718,7.4776358 32.664398,9.4492608 4.4,0.983947 11.16883,1.810072 15.04185,1.835834 4.43539,0.02951 7.23205,0.663734 7.5557,1.713505 0.28261,0.916667 0.87179,12.516074 1.30925,25.776461 0.77527,23.499562 0.71902,24.222492 -2.22236,28.562462 C 128.00748,83.398192 122.26147,85.851635 110,85.83376 88.124456,85.801871 62.075335,74.884361 44.023527,58.182202 l -5.063735,-4.685144 -0.818604,8.251471 c -0.450232,4.538308 -1.137699,12.093573 -1.527704,16.789478 -0.390004,4.695905 -1.022996,9.045905 -1.406647,9.666667 -0.611909,0.990087 -6.940269,1.672998 -7.370073,0.795323 z m 6.082833,-20.700338 c 0.523892,-6.801853 1.451987,-14.108502 2.062432,-16.236999 0.843291,-2.940383 0.632279,-4.053273 -0.878448,-4.632995 -3.879632,-1.488753 -5.539506,-0.707644 -8.246741,3.880778 -2.464831,4.177575 -2.558039,5.081111 -0.928441,8.999999 0.9963,2.395923 2.219136,7.956223 2.717413,12.356223 0.498277,4.399999 1.241724,9.190145 1.652103,10.644769 0.744085,2.637469 0.748797,2.637469 1.707648,0 0.528826,-1.454624 1.390142,-8.209921 1.914034,-15.011775 z m 92.370713,9.568935 c 6.01426,-4.586784 8.25005,-12.37314 5.31823,-18.521242 -2.4154,-5.065142 -8.80249,-9.083621 -12.52408,-7.879604 -7.69952,2.490968 -9.5909,3.712349 -10.33406,6.67332 -2.09933,8.364394 8.08778,15.330834 11.49221,7.85893 1.80647,-3.964786 3.75739,-4.36118 3.75739,-0.76344 0,3.803645 -6.49951,8.427815 -10.45156,7.435913 -5.37427,-1.348856 -8.3714,-5.94686 -7.69391,-11.80353 1.13692,-9.828422 10.81239,-15.350521 19.25061,-10.986944 5.95671,3.080335 7.1199,2.696626 6.646,-2.192358 C 131.34117,43.460137 131.15825,43.34912 122,41.771576 108.67973,39.477107 104.37809,39.646535 100.27934,42.627085 94.444605,46.870021 82.070575,49.335217 66.719868,49.312915 46.012675,49.282831 46.151661,47.225557 66.926095,46.26036 85.335275,45.405055 97.847065,42.725689 99.137707,39.362332 99.697671,37.90309 97.599035,36.731214 90.799251,34.706151 79.422445,31.317991 76.40272,31.297328 75.354345,34.600464 74.277485,37.993347 67.07056,42.358279 62,42.688629 c -13.067099,0.851331 -16.848388,0.06632 -21.133333,-4.38733 -2.31,-2.400952 -4.841598,-5.513231 -5.625774,-6.916175 -1.331966,-2.382982 -1.823094,-2.18457 -7.464702,3.015683 -3.321412,3.061571 -8.229814,6.481901 -10.90756,7.600734 C 14.190884,43.120376 12,44.627733 12,45.351225 c 0,1.675244 -0.02975,1.678072 6.469881,-0.615129 4.633222,-1.634696 7.109866,-1.669919 16.160028,-0.229829 11.461671,1.823816 15.29002,3.493732 8.009524,3.493732 h -4.471676 l 3.743308,3.907172 c 9.026651,9.421794 41.239042,27.95092 49.001548,28.18654 1.698063,0.05155 4.287387,0.646319 5.754054,1.321725 1.466666,0.675406 7.766663,0.889871 14.000003,0.476588 9.2655,-0.614322 12.11612,-1.348421 15.62364,-4.02343 z m 4.10788,-41.535262 c 0.63727,-1.283333 1.10838,-4.433333 1.04691,-6.999999 L 131.33333,24.666666 122,23.652709 C 113.44798,22.723633 100.00091,19.615461 90,16.25619 87.8,15.517218 83,13.903646 79.333333,12.670474 69.084101,9.2234567 48.732388,6.9746762 35.882885,7.869379 25.478311,8.593843 23.727937,9.1345189 16.719427,13.788817 l -7.7130121,5.122149 6.8992461,6.580488 c 7.000886,6.67743 7.804662,6.828062 12.761006,2.391487 5.402928,-4.836326 23.025668,-6.629146 36.934372,-3.757455 3.886096,0.802351 13.965628,3.609216 22.398961,6.237477 26.23899,8.177423 40.31774,10.159945 42.39819,5.970369 z"
       id="path388" />
  </g>
</svg>
