<?xml version="1.0" encoding="UTF-8" standalone="no"?>
<!-- Created with Inkscape (http://www.inkscape.org/) -->

<svg
   version="1.1"
   id="svg72"
   width="141.33333"
   height="137.33333"
   viewBox="0 0 141.33333 137.33333"
   xmlns="http://www.w3.org/2000/svg"
   xmlns:svg="http://www.w3.org/2000/svg">
  <defs
     id="defs76" />
  <g
     id="g78">
    <path
       style="fill:#000000;stroke-width:1.33333"
       d="m 5.3333332,132.45118 c 0,-1.10411 7.3381758,-7.82054 18.8755688,-17.27629 11.560905,-9.47502 14.549809,-9.94516 61.286536,-9.64008 C 126.88236,105.80497 134,106.36238 134,109.33333 c 0,1.74022 -6.14815,2 -47.333335,2 -51.83898,0 -48.079122,-0.53432 -60.445662,8.59 -11.667698,8.6087 -12.586758,8.46365 50.112329,7.90865 l 56.333328,-0.49865 0.42607,3 0.42607,3 H 69.426066 c -35.251003,0 -64.0927328,-0.39697 -64.0927328,-0.88215 z M 28.305279,101.77427 c -2.402214,-0.96652 -5.638613,-7.686606 -5.638613,-11.708059 0,-2.155105 -0.743027,-3.399546 -2.02979,-3.399546 -2.306464,0 -13.439409,-9.850167 -15.5138429,-13.726283 -0.9534007,-1.781445 -0.9278973,-3.002186 0.083858,-4.013941 1.0496885,-1.049689 2.6595642,-0.139504 5.7901879,3.273635 3.922525,4.276502 12.65766,9.970723 13.650211,8.898237 1.238459,-1.338199 6.019376,-10.7148 6.019376,-11.805536 0,-0.711028 -1.223903,-1.292779 -2.719784,-1.292779 -7.070973,0 -22.6135488,-12.904527 -22.6135488,-18.775342 0,-4.149734 3.5649655,-2.942964 8.1459648,2.757477 8.298568,10.326459 8.255797,10.3202 68.102764,9.966489 40.816008,-0.241233 53.058978,0.0614 53.543308,1.323562 1.06551,2.776688 -0.94388,4.491437 -5.80369,4.952678 -2.56026,0.242991 -4.50502,0.891803 -4.32168,1.441803 0.18333,0.55 0.33333,3.4 0.33333,6.333333 0,5.206349 0.11111,5.333333 4.66667,5.333333 3.77777,0 4.66666,0.507936 4.66666,2.666667 0,1.466667 -0.75,2.709152 -1.66666,2.761079 -0.91667,0.05193 -21.903,0.05892 -46.636285,0.01553 l -44.969616,-0.07888 -2.884133,6.704349 c -2.376214,5.523659 -6.039571,9.671764 -8.088979,9.159334 -0.231542,-0.0579 -1.183612,-0.4121 -2.115708,-0.78713 z m 6.314475,-7.019951 c 2.594241,-4.847384 1.706666,-6.754321 -3.143769,-6.754321 -5.291684,0 -6.797148,2.472225 -3.966462,6.513597 2.462419,3.515595 5.30605,3.611869 7.110231,0.240724 z m 2.477368,-17.257198 c 0.64105,-6.705836 -1.603799,-7.816105 -4.928056,-2.437344 -3.811563,6.167236 -3.618912,7.874129 0.830933,7.362117 3.088117,-0.355327 3.734587,-1.132388 4.097123,-4.924773 z m 12.23621,-2.163789 v -7.333334 h -4.666666 -4.666667 v 6.444444 c 0,7.501812 0.486764,8.222223 5.555556,8.222223 3.690235,0 3.777777,-0.169935 3.777777,-7.333333 z m 47.512062,5.999999 h 8.627296 l -0.40301,-6.999999 -0.40302,-7 -11.999996,-0.404396 c -6.599999,-0.222419 -13.949999,-0.04523 -16.333332,0.39375 -4.190714,0.771878 -4.333334,1.01317 -4.333334,7.331342 v 6.533194 l 6.333333,0.489765 c 3.483334,0.269371 7.132406,0.302246 8.10905,0.07305 0.976645,-0.22919 5.657999,-0.41671 10.403013,-0.41671 z m 24.487936,-6.664062 c 0,-6.889145 -1.10842,-8.002604 -7.9664,-8.002604 -4.26867,0 -5.36693,1.909503 -5.36693,9.331272 0,5.771201 0.70979,6.259148 8.08219,5.556077 l 5.25114,-0.500777 z M 67.999998,73.999998 c 0,-8.068928 -0.0077,-8.074069 -9.666666,-6.477536 -4.980043,0.823151 -5,0.852363 -5,7.318659 v 6.49221 h 7.333333 7.333333 z M 48.610294,42.575455 C 45.849968,38.109154 58.538407,29.333747 69.2251,28.318122 c 5.239713,-0.497964 7.056154,0.05429 12.774898,3.88402 4.122277,2.7606 6.829279,5.6095 7.092735,7.464524 0.405064,2.852108 -0.02217,3.004557 -8.666667,3.092446 -5.001004,0.05084 -13.995672,0.3697 -19.988151,0.708564 -7.28434,0.411918 -11.204377,0.116214 -11.827621,-0.892221 z M 7.9999998,20.078689 c 0,-1.423388 0.6090908,-2.964416 1.3535352,-3.424508 0.744444,-0.460092 2.213828,-2.895503 3.265298,-5.412023 2.433156,-5.8233608 4.783911,-5.7964165 7.954589,0.09117 2.209857,4.103457 6.08444,6.433119 6.098228,3.666667 0.0028,-0.55 1.186305,-2.937476 2.630144,-5.3055024 3.061792,-5.0216198 5.78018,-4.6706703 8.781758,1.1337434 2.509927,4.853664 3.845258,4.83872 5.876763,-0.06577 2.803673,-6.7686678 6.111497,-6.4661852 9.887881,0.904193 2.235381,4.362802 4.780537,5.758508 4.862828,2.666667 0.07606,-2.857667 4.921193,-7.6666665 7.724274,-7.6666665 1.686144,0 3.32534,1.4703066 4.435626,3.9786145 1.689654,3.817193 5.129074,6.554365 5.129074,4.081839 0,-0.654052 1.5747,-3.060611 3.499333,-5.3479082 3.259608,-3.8738241 3.662431,-4.0111221 5.880086,-2.0041722 1.309412,1.1850023 2.746144,3.6103924 3.192734,5.3897544 1.144572,4.560338 2.856626,4.041204 6.919444,-2.098128 1.941188,-2.9333329 4.269969,-5.3333328 5.175065,-5.3333328 0.9051,0 3.26766,2.4510422 5.25014,5.4467608 l 3.60449,5.44676 4.54925,-5.113427 4.54925,-5.1134271 3.99545,4.3230491 c 3.94093,4.264057 6.45878,10.380709 4.91044,11.929045 -1.24911,1.249105 -4.41447,-1.959904 -6.21066,-6.296302 C 120.41382,13.780106 119.22661,12 118.67677,12 c -0.54983,0 -2.42704,2.0959 -4.17157,4.657556 -1.74453,2.561656 -3.88101,4.661655 -4.74774,4.666666 -0.86673,0.005 -2.92243,-1.940889 -4.56822,-4.324222 -1.64579,-2.383334 -3.18663,-4.583318 -3.42409,-4.888854 -0.23746,-0.305536 -2.525428,1.794463 -5.084371,4.666667 -4.544801,5.101165 -4.699884,5.160388 -6.692017,2.55552 -5.576749,-7.292028 -6.037659,-7.619274 -8.201753,-5.823235 -1.135647,0.942503 -2.587456,3.0883 -3.226244,4.768439 -1.66088,4.368446 -4.564479,3.77557 -7.8941,-1.611871 C 69.080378,14.1 67.081442,12.0041 66.224586,12.00911 c -0.856857,0.005 -2.985262,2.105011 -4.72979,4.666667 -1.744528,2.561656 -3.858085,4.657556 -4.696795,4.657556 -0.838709,0 -2.65585,-2.1 -4.038092,-4.666667 C 51.377668,14.1 49.552353,12 48.703655,12 c -0.8487,0 -2.544511,2.1 -3.768468,4.666666 -1.223959,2.566667 -2.77582,4.666667 -3.448583,4.666667 -0.672761,0 -2.462233,-2.1 -3.976604,-4.666667 C 35.99563,14.1 34.241963,12 33.612963,12 c -0.629,0 -2.302798,2.201188 -3.719552,4.891528 -1.416753,2.690341 -3.229921,5.10953 -4.029261,5.375977 -0.799341,0.266446 -3.054291,-1.934741 -5.011,-4.891528 C 18.896441,14.419189 16.769158,12 16.125854,12 c -0.643302,0 -2.129932,2.4 -3.303619,5.333333 -2.253993,5.633282 -4.8222352,7.095414 -4.8222352,2.745356 z"
       id="path249" />
  </g>
</svg>
