<?xml version="1.0" encoding="UTF-8" standalone="no"?>
<!-- Created with Inkscape (http://www.inkscape.org/) -->

<svg
   version="1.1"
   id="svg82"
   width="140"
   height="137.33333"
   viewBox="0 0 140 137.33333"
   xmlns="http://www.w3.org/2000/svg"
   xmlns:svg="http://www.w3.org/2000/svg">
  <defs
     id="defs86" />
  <g
     id="g88">
    <path
       style="fill:#000000;stroke-width:1.33333"
       d="m 98.953519,132.38626 c -1.675566,-0.32115 -4.468936,-2.78944 -6.207492,-5.48509 -2.76981,-4.29461 -3.288042,-7.21132 -4.187458,-23.56784 C 86.847764,72.221174 86.982455,68.669113 90,65.320165 c 1.466667,-1.627744 4.065436,-3.494368 5.775043,-4.148054 5.477047,-2.094204 2.476209,-4.469618 -6.53388,-5.172112 -9.920482,-0.773476 -11.68097,-3.220634 -5.700924,-7.924539 6.219424,-4.8922 11.883116,-1.88291 23.295511,12.377603 7.66821,9.581921 7.48698,11.040727 -4.58172,36.880268 -2.639226,5.650679 -4.249893,11.505219 -4.628377,16.823469 -0.52462,7.37169 -0.281396,8.36631 2.526937,10.33334 7.82909,5.48371 11.98243,0.0358 9.42228,-12.35924 -1.98204,-9.59609 -0.94567,-15.095109 3.80293,-20.178504 4.83969,-5.180909 10.79184,-5.345435 15.35253,-0.424368 3.87442,4.180568 4.15634,9.002212 1.1235,19.214902 -1.44865,4.87812 -1.8782,9.50689 -1.32168,14.242 0.5255,4.4712 0.32478,7.01507 -0.5535,7.01507 -2.48393,0 -4.2297,-7.19481 -3.397,-14 0.44866,-3.66667 1.17737,-9.51357 1.61936,-12.99311 0.87811,-6.91292 -0.77923,-10.340226 -5.0002,-10.340226 -1.35997,0 -3.45834,1.504328 -4.66305,3.342951 -1.86271,2.842855 -1.98832,4.704375 -0.83966,12.443585 1.71931,11.58399 0.93889,15.44042 -3.95863,19.56141 -3.79233,3.19104 -6.19029,3.63584 -12.785951,2.37165 z M 9.6666667,129.61122 c -5.4773647,-0.56482 -5.4773647,-2.65129 0,-7.93455 8.1670293,-7.87763 17.0779983,-9.04236 27.7614643,-3.62864 5.838586,2.95864 10.842994,8.79195 9.0666,10.56835 -0.770468,0.77046 -31.067307,1.58888 -36.8280643,0.99484 z M 31.328257,43.223363 C 30.592132,42.915319 24.592132,42.214043 17.994924,41.664974 6.9276663,40.743874 5.9670704,40.434818 5.5742137,37.668815 c -0.312157,-2.197816 0.4853608,-3.344268 2.9884215,-4.295929 1.8778138,-0.713944 4.2587278,-0.974008 5.2909178,-0.577919 2.552344,0.979426 3.034012,-0.08263 5.540179,-12.215753 4.088728,-19.79479533 7.336361,-20.20825414 11.234651,-1.430293 1.564049,7.533982 1.668196,7.664486 5.453097,6.833182 5.162375,-1.133848 8.924024,0.21785 9.994775,3.591486 0.859066,2.706678 1.359876,2.74769 21.734869,1.779889 11.470548,-0.544844 28.322319,-0.925805 37.448376,-0.846579 11.91245,0.103414 16.88997,-0.323854 17.64625,-1.514758 0.57938,-0.912344 1.0626,-4.994131 1.07383,-9.070635 0.024,-8.710397 2.13509,-12.3678641 6.76179,-11.7147993 3.23255,0.456279 3.26164,0.5924594 3.6348,17.0171243 0.2069,9.10644 -0.0931,17.002969 -0.66666,17.547843 -0.57357,0.544873 -8.24284,0.432026 -17.04284,-0.25077 -8.8,-0.682796 -24.100003,-1.519441 -34.000003,-1.85921 -9.9,-0.339771 -21.746202,-0.94397 -26.324892,-1.342664 -5.930524,-0.516408 -9.190167,-0.182282 -11.333334,1.161713 -3.213269,2.015063 -11.465365,3.669453 -13.680184,2.74262 z m -0.66159,-8.907193 c 0,-0.926105 -1.311184,-2.276105 -2.913743,-3 C 24.202092,29.712219 22.981097,26.666666 25.888889,26.666666 27.05,26.666666 28,26.141666 28,25.499999 28,22.458617 26.230431,16 25.397136,16 c -1.274772,0 -4.349797,17.125229 -3.362012,18.723498 1.183185,1.914433 8.631543,1.562941 8.631543,-0.407328 z m 8.549958,0.877449 c 2.713716,-1.04135 1.391483,-3.19362 -1.961981,-3.19362 -2.58816,0 -3.373043,1.437158 -1.699088,3.111111 1.081903,1.081904 1.058088,1.081366 3.661069,0.08251 z"
       id="path110" />
  </g>
</svg>
