<?xml version="1.0" encoding="UTF-8" standalone="no"?>
<!-- Created with Inkscape (http://www.inkscape.org/) -->

<svg
   version="1.1"
   id="svg2"
   width="140"
   height="82.666664"
   viewBox="0 0 140 82.666664"
   xmlns="http://www.w3.org/2000/svg"
   xmlns:svg="http://www.w3.org/2000/svg">
  <defs
     id="defs6" />
  <g
     id="g8">
    <path
       style="fill:#000000;stroke-width:1.33333"
       d="M 46,77.25879 C 33.658297,75.2331 8.6287289,67.034407 6.3453512,64.269501 4.8987779,62.517867 5.1275657,62.353753 8,63.082583 c 37.139871,9.423599 60.912032,9.991475 88.666667,2.118091 8.620613,-2.44548 19.932683,-6.93594 20.841403,-8.273237 0.46276,-0.681031 -1.48724,-3.498095 -4.33334,-6.260144 C 110.32863,47.905245 108,44.983911 108,44.175439 c 0,-0.808472 2.0324,-2.828684 4.51644,-4.489362 2.48404,-1.660676 6.65649,-4.719609 9.2721,-6.797629 4.74233,-3.767622 4.76716,-3.771426 8.85497,-1.3567 2.25461,1.331834 3.93217,3.270926 3.72789,4.309094 -0.20427,1.038167 -3.92603,3.762565 -8.27057,6.054218 -4.34455,2.291652 -8.12932,4.857069 -8.4106,5.700925 -0.28129,0.843857 2.82334,4.052061 6.89917,7.129343 4.07583,3.077282 7.3984,6.57297 7.38349,7.768197 C 131.92082,66.667589 114.20253,72.96935 92,76.710452 79.820472,78.762689 56.832201,79.036719 46,77.25879 Z M 28,22.761585 c -2.566667,-0.583648 -6.3669,-1.748018 -8.444963,-2.58749 -3.098493,-1.25169 -4.477705,-1.113158 -7.665558,0.769952 C 8.2086217,23.118383 7.8794617,23.117557 5.6903755,20.92847 2.7524603,17.990555 4.6167671,14.561792 9.9238261,13.142465 11.969715,12.59531 15.823808,10.645575 18.488479,8.8097205 24.179539,4.8888002 37.988211,2.254191 43.589172,4.0206631 55.237052,7.6942571 65.187425,10.557065 69,11.331578 c 2.383333,0.484166 4.333333,1.409503 4.333333,2.056303 0,0.646801 2.474607,1.842344 5.499127,2.656762 9.487667,2.554763 12.366769,3.956127 10.979012,5.343884 -0.830356,0.830356 -3.845755,0.530288 -8.469493,-0.842814 -6.719515,-1.995482 -7.484584,-1.979374 -11.927686,0.251129 -3.626685,1.820649 -8.525318,2.459233 -20.747626,2.704651 -8.8,0.176698 -18.1,-0.15626 -20.666667,-0.739908 z m 35.678945,-4.250464 c 5.289047,-1.695054 4.582666,-3.259553 -2.418833,-5.357254 -4.87028,-1.459171 -5.561827,-1.335258 -8.628952,1.546157 -2.510364,2.358363 -5.293505,3.27417 -11.262289,3.705913 -7.445976,0.538593 -8.180618,0.320777 -12.084303,-3.582908 -2.286,-2.285999 -4.860209,-4.137281 -5.720465,-4.113958 -1.6604,0.04501 -6.23077,3.145453 -6.23077,4.226817 0,0.69219 13.204954,4.659457 18.666667,5.60817 4.969411,0.863199 22.707263,-0.439595 27.678945,-2.032937 z"
       id="path1371" />
  </g>
</svg>
