<?xml version="1.0" encoding="UTF-8" standalone="no"?>
<!-- Created with Inkscape (http://www.inkscape.org/) -->

<svg
   version="1.1"
   id="svg12"
   width="137.33333"
   height="137.33333"
   viewBox="0 0 137.33333 137.33333"
   xmlns="http://www.w3.org/2000/svg"
   xmlns:svg="http://www.w3.org/2000/svg">
  <defs
     id="defs16" />
  <g
     id="g18">
    <path
       style="fill:#000000;stroke-width:1.33333"
       d="M 24.999999,132.25284 C 21.141386,131.93349 20,131.26662 20,129.33153 c 0,-3.63721 2.082642,-4.38199 7.139817,-2.5533 7.084988,2.56197 10.38277,0.90201 15.33415,-7.71852 4.273844,-7.44092 4.37866,-7.96685 2.977897,-14.94176 -0.798525,-3.97615 -1.451865,-10.636308 -1.451865,-14.800344 0,-5.887032 -0.595335,-8.109745 -2.676615,-9.993277 C 37.952788,76.273981 25.946267,57.634623 22.589486,50.241145 18.854326,42.014268 19.213548,33.131235 23.54615,26.58423 27.508541,20.596653 27.130691,19.815769 19.17864,17.558104 11.587163,15.402809 8.3538823,15.605668 6.8225864,18.333333 5.5831723,20.541074 5.4625219,20.536498 4.5810535,18.248306 4.0686667,16.918209 4.3458004,14.301605 5.1969061,12.433631 6.4525157,9.6778683 7.4285858,9.169417 10.372185,9.737741 12.513414,10.15115 16.621769,9.3135568 20.398078,7.6937053 26.088107,5.2529623 27.372463,5.139442 32.003779,6.6679141 c 4.50982,1.4883749 5.656161,1.4247772 8.555011,-0.4746219 1.841062,-1.2063107 3.905476,-2.1932923 4.587584,-2.1932923 1.492462,0 2.974717,8.3990111 3.411939,19.3333331 0.17594,4.4 0.422295,8.726626 0.547455,9.614726 0.350228,2.485113 5.65536,7.016564 11.560897,9.874897 2.933333,1.419759 6.833333,4.756503 8.666667,7.414984 1.833333,2.658481 6.033333,7.677757 9.333333,11.153947 3.3,3.476189 7.648352,8.335091 9.663002,10.797561 2.014652,2.462469 4.930956,5.977217 6.480676,7.81055 1.54972,1.833333 5.246677,6.933333 8.215447,11.333333 7.02737,10.415199 16.02959,20.241779 23.56282,25.720549 3.3178,2.41297 6.57347,5.35414 7.23484,6.53593 1.03727,1.85351 0.58493,2.0252 -3.29247,1.24972 -2.47223,-0.49445 -6.77154,-2.08562 -9.55403,-3.53593 -2.78249,-1.45031 -5.34059,-2.63694 -5.68468,-2.63694 -1.45723,0 -0.4359,3.15389 2.04106,6.30284 4.54557,5.77876 3.58332,7.0305 -5.40457,7.0305 -6.80207,0 -8.79385,-0.57657 -12.666628,-3.66667 -2.614769,-2.08633 -4.595406,-4.87319 -4.595429,-6.46602 -6.9e-5,-4.93685 -7.077673,-13.43859 -16.333372,-19.61994 l -8.999999,-6.010584 -0.207367,6.881604 c -0.114053,3.78488 -0.09135,8.23161 0.05047,9.88161 0.202682,2.35832 -0.43474,3 -2.980094,3 -2.741304,0 -3.33404,0.76688 -3.864592,5 -0.344666,2.75 -0.33658,5.512 0.01797,6.13778 0.35455,0.62578 4.391645,0.73651 8.971322,0.24607 6.859575,-0.7346 8.466889,-0.52634 9.122428,1.18196 0.539692,1.40641 -0.15444,2.29316 -2.157196,2.75578 -3.446969,0.79622 -45.944111,1.53892 -53.286274,0.93125 z M 58.666665,121.2149 c 0,-6.14783 -1.415668,-8.31775 -3.366853,-5.16067 -0.471661,0.76317 -1.966677,1.03556 -3.322259,0.60531 -1.814006,-0.57574 -3.368404,0.54767 -5.88779,4.25528 -1.882704,2.77064 -3.424191,5.64825 -3.425527,6.39469 -0.0015,0.82025 3.163407,1.17843 8,0.90539 l 8.002429,-0.45176 z"
       id="path1232" />
  </g>
</svg>
