<?xml version="1.0" encoding="UTF-8" standalone="no"?>
<!-- Created with Inkscape (http://www.inkscape.org/) -->

<svg
   version="1.1"
   id="svg22"
   width="37.333332"
   height="138.66667"
   viewBox="0 0 37.333332 138.66667"
   xmlns="http://www.w3.org/2000/svg"
   xmlns:svg="http://www.w3.org/2000/svg">
  <defs
     id="defs26" />
  <g
     id="g28">
    <path
       style="fill:#000000;stroke-width:1.33333"
       d="M 14.357158,132.51515 C 9.7111725,130.08087 5.2065325,120.26728 4.4725162,110.98095 3.7666533,102.0508 5.5234414,97.871806 11.333333,94.660656 l 4,-2.210816 0.218365,-29.891586 c 0.120101,-16.440373 -0.07033,-30.941587 -0.423183,-32.22492 -0.455908,-1.658148 -1.998073,-2.333333 -5.3294767,-2.333333 -6.0884735,0 -5.3394785,-3.077171 0.9736157,-4 3.752625,-0.548548 4.633972,-1.301212 4.974347,-4.248058 0.373573,-3.234269 -0.04913,-3.621963 -4.361191,-4 -5.7156182,-0.501085 -5.7595719,-3.085276 -0.05248,-3.085276 3.555556,0 4,-0.444444 4,-4.0000001 0,-2.6666668 0.666666,-4.0000001 2,-4.0000001 1.436938,0 1.904728,1.2199668 1.661592,4.3333334 -0.321416,4.1157548 -0.107787,4.3333338 4.254644,4.3333338 2.526178,0 4.963871,0.6 5.417097,1.333333 0.858028,1.388319 0.678978,1.46806 -4.479808,1.995143 -3.169799,0.323862 -5.462033,2.655729 -5.499775,5.59486 -0.01187,0.921705 2.361351,1.762329 5.646249,2 6.851727,0.495739 6.976943,2.909328 0.18164,3.501188 l -4.874074,0.424525 1.111728,26.908809 c 0.611451,14.799846 1.003979,29.185967 0.872287,31.969158 -0.210995,4.459182 0.303018,5.380408 4.326725,7.754454 2.920628,1.723212 5.127021,4.393512 6.12247,7.409756 3.102932,9.40197 -1.974345,24.8198 -9.668409,29.35941 -4.071194,2.40206 -5.029628,2.51295 -8.048541,0.93118 z"
       id="path1093" />
  </g>
</svg>
