<?xml version="1.0" encoding="UTF-8" standalone="no"?>
<!-- Created with Inkscape (http://www.inkscape.org/) -->

<svg
   version="1.1"
   id="svg42"
   width="133.33333"
   height="137.33333"
   viewBox="0 0 133.33333 137.33333"
   xmlns="http://www.w3.org/2000/svg"
   xmlns:svg="http://www.w3.org/2000/svg">
  <defs
     id="defs46" />
  <g
     id="g48">
    <path
       style="fill:#000000;stroke-width:1.33333"
       d="M 9.1922731,131.16336 C 6.7780422,128.25439 10.041309,126.39223 16,127.27857 c 2.566666,0.38179 7.202458,1.07672 10.301759,1.5443 5.071659,0.76515 5.763643,0.53321 6.92076,-2.3197 0.707116,-1.74341 2.517371,-4.96984 4.022788,-7.16984 3.255129,-4.75701 3.471793,-9.2914 0.754692,-15.79434 -1.1,-2.63267 -2.060412,-8.855947 -2.134248,-13.8295 l -0.134248,-9.042825 -9.084189,-8 C 16.46443,63.6991 9.5644816,54.4384 6.000964,44.956368 3.9900643,39.605639 3.7467244,36.279783 4.4888652,24.289702 4.9753284,16.430366 5.7343203,8.6499998 6.1755137,6.9999998 7.0948617,3.56177 10.141056,3.1110287 13.277174,5.9491764 c 1.776862,1.6080378 3.895438,1.7169422 12.104987,0.6222509 17.528682,-2.3373386 16.561974,-2.4935382 17.060111,2.7565525 0.24325,2.5637222 1.099563,5.4533002 1.902918,6.4212822 0.803354,0.967984 1.362278,5.329091 1.242053,9.691351 l -0.218592,7.931381 11.36519,5.250733 c 8.264815,3.818355 13.751028,7.541291 20.111065,13.647336 8.039401,7.718341 19.728705,22.736598 21.537389,27.670938 0.415099,1.132449 2.075335,3.858997 3.689405,6.058997 1.61408,2.2 4.95825,7.896701 7.43149,12.659336 2.47324,4.762636 8.25782,12.551206 12.85462,17.307936 4.5968,4.75674 8.07397,9.38831 7.72704,10.2924 -1.03247,2.69057 -12.58226,-3.21323 -19.16585,-9.79681 -5.50139,-5.50139 -8.25234,-6.38072 -8.25234,-2.63781 0,0.91721 2.72422,4.85916 6.05381,8.75988 3.3296,3.90072 5.82466,7.76486 5.54459,8.58698 -0.31536,0.92572 -4.31041,1.49475 -10.49434,1.49475 -8.827105,0 -10.539426,-0.42308 -14.764644,-3.64812 -3.922293,-2.99381 -5.316795,-5.45794 -7.775135,-13.73888 -2.715784,-9.14815 -3.442543,-10.29409 -7.779947,-12.26737 -2.631381,-1.19712 -5.346549,-2.21462 -6.033706,-2.26111 -1.535775,-0.10389 -1.966578,11.89871 -0.606494,16.8975 1.238887,4.55336 -0.562842,5.80982 -4.438465,3.09523 -4.206049,-2.94603 -4.767558,-2.68638 -6.320588,2.92275 -2.473345,8.93308 -1.850298,8.70063 -24.482216,9.13389 -17.252147,0.33028 -20.970159,0.0583 -22.3772519,-1.63719 z M 52.078849,123.14938 C 54.600655,117.26625 54.543129,112 51.95706,112 c -0.658115,0 -1.838792,1.2 -2.623728,2.66666 -0.784936,1.46667 -2.284416,2.66667 -3.332177,2.66667 -1.781493,0 -8.667823,8.72025 -8.667823,10.97618 0,0.5631 2.721323,1.02382 6.047383,1.02382 5.924008,0 6.101462,-0.12616 8.698134,-6.18395 z"
       id="path815" />
  </g>
</svg>
