<?xml version="1.0" encoding="UTF-8" standalone="no"?>
<!-- Created with Inkscape (http://www.inkscape.org/) -->

<svg
   version="1.1"
   id="svg52"
   width="144"
   height="58.666668"
   viewBox="0 0 144 58.666668"
   xmlns="http://www.w3.org/2000/svg"
   xmlns:svg="http://www.w3.org/2000/svg">
  <defs
     id="defs56" />
  <g
     id="g58">
    <path
       style="fill:#000000;stroke-width:1.33333"
       d="M 6.6714248,48.364072 C 6.6687689,46.706697 8.0647544,44.478746 9.8310305,43.321438 12.525827,41.55574 13.243377,39.424221 14.666524,28.957367 17.133103,10.816346 17.186369,11.393132 13,10.911437 10.421347,10.614731 9.3333333,9.7308216 9.3333333,7.9326156 c 0,-2.4129817 1.1446737,-2.5512387 20.3333337,-2.455918 C 40.85,5.5322513 50.9,5.3727209 52,5.1221856 c 1.365916,-0.3111003 2,0.6012877 2,2.8778146 0,2.8970378 -0.662704,3.3879898 -5.063111,3.7509158 -4.024112,0.331891 -4.927074,0.879117 -4.400202,2.666667 0.3646,1.236996 1.07442,6.638601 1.577377,12.003566 1.242716,13.255817 2.671136,14.174025 20.206169,12.988799 7.157206,-0.48377 22.512448,-1.098262 34.122767,-1.365538 11.61031,-0.267276 21.51031,-0.880564 22,-1.362862 0.48968,-0.482299 1.49033,-5.482951 2.22367,-11.112561 L 126,15.333334 h 4.66667 4.66666 v 17.333333 17.333334 l -6.66666,-0.09501 C 125,49.852721 106.08388,49.318078 86.630853,48.716888 55.209907,47.745832 50.794285,47.865526 47.074417,49.789145 43.710312,51.528792 39.327761,51.89342 24.781656,51.643905 7.044606,51.339655 6.6760861,51.272914 6.6714248,48.364072 Z M 43.333333,41.333334 c 0,-1.53097 -2.252312,-2.156342 -9.604142,-2.666666 -9.52647,-0.661275 -13.524344,-2.428715 -11.800992,-5.217158 0.492716,-0.797229 2.060436,-1.449509 3.483824,-1.449509 C 27.682243,32.000001 28,31.031135 28,24.10905 28,14.980255 27.136376,12 24.491013,12 21.75124,12 20.414369,16.565992 19.324948,29.644361 18.228649,42.80527 17.641981,42.147886 31.333333,43.10021 c 10.07407,0.700718 12,0.417144 12,-1.766876 z M 40.836707,25.405818 C 41.074579,13.701591 40.44092,12 35.844492,12 H 32 v 10.573933 c 0,9.90832 0.188845,10.609698 3,11.142114 5.167575,0.97871 5.662237,0.274416 5.836707,-8.310229 z"
       id="path676" />
  </g>
</svg>
