<?xml version="1.0" encoding="UTF-8" standalone="no"?>
<!-- Created with Inkscape (http://www.inkscape.org/) -->

<svg
   version="1.1"
   id="svg62"
   width="140"
   height="138.66667"
   viewBox="0 0 140 138.66667"
   xmlns="http://www.w3.org/2000/svg"
   xmlns:svg="http://www.w3.org/2000/svg">
  <defs
     id="defs66" />
  <g
     id="g68">
    <path
       style="fill:#000000;stroke-width:1.33333"
       d="M 6.9861993,130.91212 C 5.7702147,127.7386 14.82904,120.02729 22.337192,117.84461 c 6.438527,-1.87173 7.545916,-1.8552 12.908108,0.19264 5.688672,2.17252 14.088033,9.02659 14.088033,11.49614 0,2.08297 -2.754337,2.42368 -22.504092,2.78376 -14.871008,0.27113 -19.3215421,-0.044 -19.8430417,-1.40503 z M 107.53841,129.66515 c -0.96367,-1.55925 -8.871743,-23.28479 -8.871743,-24.373 0,-1.35753 5.816873,-3.61763 7.666663,-2.97882 0.91667,0.31656 1.66667,2.06272 1.66667,3.88035 0,1.81763 1.54213,6.56459 3.42696,10.54878 3.98323,8.41986 3.88074,13.07119 -0.30115,13.66712 -1.5808,0.22527 -3.19513,-0.10972 -3.5874,-0.74443 z m 17.19176,-5.90655 c -0.32452,-0.96723 -2.17102,-6.447 -4.10334,-12.17726 -3.96952,-11.771548 -3.6515,-14.62699 1.55967,-14.003966 2.94125,0.351643 3.80679,1.430394 5.15318,6.422626 0.89,3.3 2.42195,8.83072 3.40433,12.29048 1.95605,6.88885 1.93391,6.96492 -2.41724,8.30249 -1.97852,0.60821 -3.20832,0.32291 -3.5966,-0.83437 z M 13.391073,88.10789 c -1.758725,-3.286208 -0.227555,-6.903831 4.249251,-10.039508 3.325821,-2.329496 14.43308,-2.794976 16.535107,-0.692949 3.181994,3.181994 47.125466,3.141488 45.158194,-0.04163 C 78.953603,76.718918 75.511684,75.54435 71.684916,74.723655 56.140247,71.38992 45.620679,61.322496 35.695485,40.281097 28.315919,24.636423 27.795277,18.561656 33.329157,12.671112 c 7.060018,-7.515044 15.87307,-6.4237268 37.035282,4.586066 9.732737,5.063527 11.363473,6.507015 17.332232,15.342067 6.085437,9.007764 8.450797,15.223159 11.662061,30.644097 0.447823,2.150504 3.104718,6.200504 5.904218,9 3.98337,3.983374 6.11764,5.089993 9.81675,5.089993 11.46104,0 13.39815,-14.426381 4.26871,-31.790813 C 114.3943,36.119685 106.69004,25.950657 101.56611,22.071271 99.8608,20.780163 94.4608,18.895499 89.566108,17.883127 82.760553,16.47553 79.957097,15.174752 77.650855,12.354559 L 74.635043,8.6666669 77.566551,6.2512918 c 5.616646,-4.6277584 17.074833,0.7928336 30.088769,14.2342742 11.37265,11.746232 16.22995,18.868814 20.91977,30.676054 4.92516,12.399748 4.96227,23.050752 0.10588,30.389255 -1.90111,2.872764 -5.08205,5.922104 -7.06876,6.776311 -2.46865,1.061419 -19.93584,1.711737 -55.174227,2.054182 C 15.320017,90.87813 14.86318,90.858552 13.391071,88.10789 Z"
       id="path537" />
  </g>
</svg>
