<?xml version="1.0" encoding="UTF-8" standalone="no"?>
<!-- Created with Inkscape (http://www.inkscape.org/) -->

<svg
   version="1.1"
   id="svg72"
   width="56"
   height="65.333336"
   viewBox="0 0 56 65.333336"
   xmlns="http://www.w3.org/2000/svg"
   xmlns:svg="http://www.w3.org/2000/svg">
  <defs
     id="defs76" />
  <g
     id="g78">
    <path
       style="fill:#000000;stroke-width:1.33333"
       d="m 20.495721,59.368653 c -0.988592,-2.576227 0.515978,-10.860026 2.783007,-15.322578 3.770675,-7.422418 3.734913,-9.040516 -0.229365,-10.378064 -2.782392,-0.938779 -4.527963,-0.726674 -6.947658,0.844216 -2.664593,1.72988 -3.338501,1.777386 -3.840714,0.270748 C 11.925994,33.777984 9.5986844,30.683048 7.0891921,27.90534 1.5333889,21.755729 2.2122905,20.072389 12.887416,13.528606 c 5.053381,-3.09769 8.351844,-4.2692452 10.736456,-3.8133977 2.505652,0.4789857 4.284953,-0.2514608 6.540197,-2.6849101 3.882776,-4.1895844 6.48134,-3.2949087 9.474251,3.2619488 1.265567,2.772598 3.924116,6.965768 5.907888,9.318158 4.346559,5.154223 5.416181,11.396244 4.864792,28.389597 L 50,60.666669 35.642225,61.04536 c -11.941133,0.314951 -14.49053,0.03273 -15.146504,-1.676707 z"
       id="path398" />
  </g>
</svg>
