<?xml version="1.0" encoding="UTF-8" standalone="no"?>
<!-- Created with Inkscape (http://www.inkscape.org/) -->

<svg
   version="1.1"
   id="svg82"
   width="144"
   height="138.66667"
   viewBox="0 0 144 138.66667"
   xmlns="http://www.w3.org/2000/svg"
   xmlns:svg="http://www.w3.org/2000/svg">
  <defs
     id="defs86" />
  <g
     id="g88">
    <path
       style="fill:#000000;stroke-width:1.33333"
       d="m 61.6,131.73334 c -0.88,-0.88 -1.6,-2.63957 -1.6,-3.91015 0,-3.71291 -4.301417,-4.17194 -29.511007,-3.14931 l -23.8223263,0.96635 v -4.67746 c 0,-2.68399 0.7629148,-4.97022 1.7900917,-5.36439 0.9845504,-0.3778 7.7345506,-0.68679 15.0000006,-0.68663 7.265449,1.6e-4 18.459908,-0.0549 24.876574,-0.12239 L 60,114.66667 v -4 c 0,-3.66063 0.384863,-4 4.536233,-4 3.841502,0 4.74979,0.61261 5.93064,4 0.766924,2.2 2.277947,4 3.357827,4 1.097455,0 2.350901,-1.7642 2.841967,-4 0.720869,-3.2821 1.548136,-4 4.609348,-4 4.250404,0 6.265016,1.90813 6.929561,6.56329 l 0.461091,3.22996 24.159653,-0.32539 24.15965,-0.32538 0.65384,3.42029 c 0.36938,1.93227 -0.1004,4.04624 -1.07977,4.85906 -1.07139,0.88917 -10.78182,1.52905 -25.42064,1.67513 L 87.452379,126 l -0.778588,3.33334 c -0.601631,2.57574 -1.755231,3.42856 -5.075719,3.75235 -3.855657,0.37597 -4.381081,-7.3e-4 -5.114268,-3.66667 -0.643589,-3.21794 -1.507491,-4.08568 -4.067615,-4.08568 -2.353038,0 -3.144494,0.64422 -2.866612,2.33333 0.820308,4.98624 -4.373216,7.64303 -7.949577,4.06667 z M 8.1858539,42.223941 c -1.8298542,-2.204839 0.3620533,-5.589376 5.1701871,-7.983316 3.039908,-1.513552 3.332856,-2.46302 3.582491,-11.61115 0.233261,-8.548107 0.699515,-10.309752 3.283512,-12.406106 2.09006,-1.6956292 4.212037,-2.2032192 6.934391,-1.6587484 5.755026,1.1510051 7.510232,3.1761614 7.510232,8.6653064 0,5.803616 1.909068,8.103407 6.726682,8.103407 1.939676,0 4.61267,1.2 5.939984,2.666667 2.014447,2.225938 4.106623,2.666666 12.658906,2.666666 20.510205,0 62.565581,-1.775348 64.069221,-2.704653 0.84874,-0.524549 2.01888,-5.287343 2.6003,-10.583984 0.58142,-5.296642 1.64729,-10.2204136 2.36859,-10.9417144 0.7213,-0.7213007 3.03455,-1.1145493 5.14056,-0.8738857 L 138,6.0000001 138.37319,23.831727 138.74636,41.663454 95.652297,40.684093 C 57.817909,39.824264 51.786169,39.966853 46.232519,41.852366 38.026423,44.638408 10.413495,44.908084 8.1858539,42.223941 Z M 42.504153,34.795322 c 2.769803,-1.754364 0.517703,-4.128655 -3.916176,-4.128655 -3.032421,0 -3.92131,0.604484 -3.92131,2.666667 0,2.859442 4.350054,3.670891 7.837486,1.461988 z"
       id="path259" />
  </g>
</svg>
