<?xml version="1.0" encoding="UTF-8" standalone="no"?>
<!-- Created with Inkscape (http://www.inkscape.org/) -->

<svg
   version="1.1"
   id="svg92"
   width="145.33333"
   height="138.66667"
   viewBox="0 0 145.33333 138.66667"
   xmlns="http://www.w3.org/2000/svg"
   xmlns:svg="http://www.w3.org/2000/svg">
  <defs
     id="defs96" />
  <g
     id="g98">
    <path
       style="fill:#000000;stroke-width:1.33333"
       d="M 60.483803,128.08569 59.666665,124 h -25.69068 c -22.586472,0 -25.7921249,-0.26435 -26.5302333,-2.18783 -0.4617535,-1.20331 -0.4855141,-3.30331 -0.052802,-4.66667 0.7310904,-2.30346 2.6080103,-2.47883 26.5302333,-2.47883 h 25.743482 l 0.8,-4 c 0.675978,-3.37989 1.421342,-4 4.807931,-4 3.16314,0 4.184272,0.7026 4.844544,3.33333 0.654696,2.60852 1.687672,3.33334 4.750518,3.33334 2.357662,0 3.82785,-0.6627 3.697479,-1.66667 -0.562795,-4.33401 0.206584,-5.15863 4.432861,-4.75114 3.8103,0.36738 4.383763,0.94084 4.751144,4.75114 L 88.168954,116 h 24.624036 c 21.56734,0 24.72794,0.27077 25.46105,2.18123 0.46036,1.19968 0.22005,3.14968 -0.534,4.33334 -1.18035,1.8528 -4.77945,2.1521 -25.87887,2.1521 -20.816064,0 -24.534883,0.30127 -24.687372,2 -0.09875,1.1 -0.248744,2.75 -0.333333,3.66667 -0.09104,0.98657 -2.05805,1.66666 -4.820467,1.66666 -4.058801,0 -4.666666,-0.42394 -4.666666,-3.25464 0,-3.88189 -1.740204,-5.21911 -5.31531,-4.08441 -1.70948,0.54257 -2.518988,1.8512 -2.321402,3.75273 0.24924,2.39864 -0.472804,2.99443 -4.046151,3.33868 -3.913905,0.37705 -4.431369,0.01 -5.166666,-3.66667 z M 61.999999,89.703509 C 49.308915,88.738319 22.793251,85.211305 16.666666,83.673438 11.547829,82.388531 9.906241,81.342879 9.5961704,79.169706 9.3466074,77.420607 10.110625,75.974428 11.59617,75.383983 c 2.936211,-1.167027 15.602725,-3.150169 26.403829,-4.133936 4.4,-0.400753 11.3,-1.220269 15.333333,-1.821148 13.465133,-2.006009 43.459887,-0.824587 60.299278,2.375045 15.86729,3.014926 25.03405,5.962862 25.03405,8.050691 0,3.030024 -9.40222,5.771016 -25.33333,7.385322 -1.83333,0.185772 -7.23333,0.740046 -12,1.23172 -10.704027,1.104104 -32.172337,1.776443 -39.333331,1.231832 z m 35.999999,-5.81448 c 5.866662,-0.715288 15.055282,-1.664319 20.419152,-2.108959 5.36386,-0.44464 9.26386,-1.268283 8.66666,-1.830317 C 126.48861,79.387718 116.7,77.888257 105.33333,76.617619 89.754763,74.876147 79.250301,74.50876 62.666665,75.12538 c -28.724887,1.068063 -43.999999,2.345095 -43.999999,3.678494 0,1.455064 5.438197,2.362915 26.666666,4.451728 21.929176,2.15776 38.527069,2.357385 52.666666,0.633427 z M 55.157181,40.68842 c -1.041434,-2.713934 0.340411,-4.377914 6.057908,-7.294763 3.963566,-2.02206 5.753768,-4.227515 8.417909,-10.370508 4.517306,-10.41603 11.54056,-16.6488722 18.13712,-16.0959283 l 4.844881,0.4061128 -0.436244,16.6666675 c -0.239934,9.166666 -0.67472,17.053563 -0.966189,17.526435 -0.291469,0.472873 -8.359635,0.903929 -17.929257,0.957902 -13.869753,0.07823 -17.546752,-0.286086 -18.126128,-1.795918 z"
       id="path120" />
  </g>
</svg>
