<?xml version="1.0" encoding="UTF-8" standalone="no"?>
<!-- Created with Inkscape (http://www.inkscape.org/) -->

<svg
   version="1.1"
   id="svg2"
   width="138.66667"
   height="48"
   viewBox="0 0 138.66667 48"
   xmlns="http://www.w3.org/2000/svg"
   xmlns:svg="http://www.w3.org/2000/svg">
  <defs
     id="defs6" />
  <g
     id="g8">
    <path
       style="fill:#000000;stroke-width:1.33333"
       d="M 4.9015517,41.79044 C 4.4056984,41.294587 4.0000001,33.562356 4.0000001,24.607704 c 0,-17.1360095 0.9685731,-20.0739165 6.2692809,-19.0161856 2.12458,0.4239497 2.397386,2.0675135 2.397386,14.4434336 0,8.306056 0.540301,14.035003 1.333333,14.137679 0.733334,0.09495 6.941906,-2.465638 13.796826,-5.690188 12.730355,-5.988351 20.075632,-8.153298 28.006781,-8.254714 5.834697,-0.07461 6.501074,-0.935037 3.410442,-4.403576 -3.068904,-3.444155 -9.877061,-6.4908197 -14.504556,-6.4908197 -3.759131,0 -4.529132,-1.9389256 -1.267109,-3.1906816 1.159978,-0.445125 12.859979,-0.8093184 26,-0.8093184 19.531993,0 23.890952,0.3388775 23.890952,1.8573483 0,2.1130815 -2.826964,3.4759854 -7.209965,3.4759854 -3.033161,0 -8.790036,4.980242 -8.790036,7.604213 0,1.487592 3.557186,2.346533 16.000001,3.863463 5.097428,0.621438 10.942734,2.871524 19.171464,7.37984 C 119.01577,33.081383 124.94765,36 125.68676,36 126.5633,36 126.70662,31.163587 126.0989,22.091363 125.2447,9.3392989 125.37413,8.0719904 127.65546,6.8510629 133.02426,3.9777644 134,6.7610908 134,24.949061 V 42 L 69.901554,42.345996 C 34.647406,42.536293 5.3974052,42.286293 4.9015517,41.79044 Z"
       id="path1222" />
  </g>
</svg>
