<?xml version="1.0" encoding="UTF-8" standalone="no"?>
<!-- Created with Inkscape (http://www.inkscape.org/) -->

<svg
   version="1.1"
   id="svg12"
   width="141.33333"
   height="134.66667"
   viewBox="0 0 141.33333 134.66667"
   xmlns="http://www.w3.org/2000/svg"
   xmlns:svg="http://www.w3.org/2000/svg">
  <defs
     id="defs16" />
  <g
     id="g18">
    <path
       style="fill:#000000;stroke-width:1.33333"
       d="m 52.333332,129.73914 c -5.063746,-1.90809 3.796699,-12.95331 12.208029,-15.21824 5.724292,-1.5414 15.153904,-0.82472 19.458204,1.47887 3.817429,2.04303 9.946249,10.60001 8.538929,11.92196 -1.300251,1.22137 -37.450307,2.85547 -40.205162,1.81741 z M 28.732498,84.720655 C 10.654895,81.367342 4.1082814,79.267211 6.1304989,77.470014 8.6940499,75.191718 19.434664,71.819459 28.505813,70.444776 c 17.329773,-2.62623 64.135661,-2.933862 78.275417,-0.514465 22.55329,3.859001 31.65862,7.580355 26.43961,10.805879 -4.80033,2.966765 -33.226333,6.161343 -59.220842,6.655368 -25.266111,0.480183 -29.685979,0.219399 -45.2675,-2.670903 z M 104.66666,81.87157 c 13.11899,-0.802992 20.77767,-2.204961 20.28314,-3.712953 -0.2691,-0.820572 -2.84289,-1.644512 -5.71954,-1.830979 -2.87664,-0.186467 -12.71375,-1.303557 -21.860244,-2.482424 -17.26305,-2.22499 -32.67099,-2.036404 -62.036684,0.759292 -15.677634,1.492556 -21.36854,2.471399 -20.341222,3.498717 1.181535,1.181535 25.863013,4.438848 28.469506,3.757235 1.41702,-0.37056 4.067846,-0.07269 5.890724,0.661933 2.898615,1.168146 30.998186,0.83753 55.31432,-0.650821 z M 40.225766,40.08213 C 35.38062,38.857273 28.496922,32.999478 27.236701,29.028874 26.525535,26.788191 25.510421,26.619129 17.504449,27.408018 10.142298,28.133465 8.2486998,27.906234 6.7657394,26.119377 5.2345741,24.274435 5.3228485,23.554894 7.355967,21.308323 c 1.3148665,-1.452911 3.239404,-2.641656 4.276751,-2.641656 3.293367,0 1.301041,-5.847407 -2.6327182,-7.726932 -3.9717153,-1.897661 -4.98983,-5.6064015 -1.5390561,-5.6064015 1.1701858,0 3.8955603,1.0443536 6.0563883,2.3207856 2.459152,1.4526569 4.28175,1.8267237 4.872389,1 2.211016,-3.094787 7.107229,-4.8448479 9.048093,-3.234074 2.898151,2.405252 2.309765,3.7044182 -2.608379,5.7593499 -5.251989,2.194421 -7.534778,5.050516 -4.73217,5.920621 1.046504,0.3249 5.610152,4.410311 10.141438,9.07869 4.829263,4.975369 9.367055,8.487962 10.965292,8.487962 1.499623,0 7.392205,-1.868641 13.094629,-4.152534 13.475312,-5.397035 29.76991,-5.860432 42.36804,-1.204895 4.399996,1.625984 10.099996,3.436068 12.666666,4.022408 13.75727,3.142769 19.69372,3.984139 23,3.259783 4.03015,-0.882942 4.81725,0.79382 1.61872,3.448363 -1.59782,1.326076 -6.21346,1.443035 -21,0.532133 C 89.692059,39.139032 69.429044,39.032522 55.333332,40.269064 49.466665,40.783716 42.66826,40.699596 40.225766,40.08213 Z"
       id="path1083" />
  </g>
</svg>
