<?xml version="1.0" encoding="UTF-8" standalone="no"?>
<!-- Created with Inkscape (http://www.inkscape.org/) -->

<svg
   version="1.1"
   id="svg22"
   width="142.66667"
   height="140"
   viewBox="0 0 142.66667 140"
   xmlns="http://www.w3.org/2000/svg"
   xmlns:svg="http://www.w3.org/2000/svg">
  <defs
     id="defs26" />
  <g
     id="g28">
    <path
       style="fill:#000000;stroke-width:1.33333"
       d="m 100.33334,133.58219 c -8.701661,-0.839 -3.460222,-10.38848 8.06971,-14.70238 7.88781,-2.9512 12.28487,-2.63573 20.69798,1.48501 5.75756,2.82005 10.82328,9.62912 8.67911,11.66599 -1.15518,1.09736 -29.8333,2.28546 -37.4468,1.55138 z m -83.367204,-6.05971 c -9.1319212,-8.36451 -10.094089,-16.79045 -2.83486,-24.82555 8.657077,-9.582345 18.879217,-9.946735 26.582161,-0.94758 3.960892,4.62741 4.619897,6.36682 4.619897,12.19397 0,8.09258 -2.23525,11.76884 -9.368325,15.40786 -7.825726,3.99239 -13.209468,3.47419 -18.998873,-1.8287 z m 21.621166,-2.91181 c 3.278919,-3.21042 0.654919,-3.52699 -4.419259,-0.53315 -2.65909,1.5689 -4.834709,3.15833 -4.834709,3.53206 0,1.26613 7.321079,-1.10639 9.253968,-2.99891 z m -5.815817,-2.71879 c 8.569787,-4.79249 11.420508,-7.22521 8.466691,-7.22521 -2.281548,0 -19.904842,9.69244 -19.904842,10.94724 0,1.99177 2.920011,1.04159 11.438151,-3.72203 z m -3.53091,-4.592 c 5.853868,-2.95173 11.004914,-5.95173 11.446767,-6.66667 1.742668,-2.81969 -4.418534,-1.05311 -11.754115,3.37022 -4.253392,2.56478 -8.229925,4.66324 -8.83674,4.66324 -0.606816,0 -1.850235,0.9 -2.763153,2 -2.743099,3.30523 0.486074,2.39218 11.907241,-3.36679 z m -1.681534,-5.63321 c 6.102561,-3.11667 11.09828,-6.45445 11.101596,-7.41729 0.0039,-1.12564 -3.557224,0.14891 -9.97494,3.57013 -12.471913,6.64866 -14.624769,4.9067 -2.391123,-1.93475 4.935032,-2.75982 8.331244,-5.23171 7.547139,-5.49308 -1.894228,-0.631408 -17.98187,7.02359 -19.374733,9.2191 -1.64011,2.58524 -1.353112,7.72255 0.431424,7.72255 0.860788,0 6.558075,-2.55 12.660637,-5.66666 z m -5.480547,-9.62427 c 2.069152,-1.56502 2.171361,-1.96609 0.50968,-2 -1.143172,-0.0233 -3.243172,0.83852 -4.666667,1.9152 -2.069152,1.56502 -2.171361,1.96609 -0.50968,2 1.143172,0.0233 3.243172,-0.83852 4.666667,-1.9152 z M 15.681134,27.369653 C 10.172249,23.561771 6.6666668,17.900364 6.6666668,12.811569 c 0,-5.7748309 2.4622557,-5.1337781 5.6182172,1.462714 1.749608,3.656976 5.036759,7.709466 7.715116,9.511412 4.063543,2.733868 5.827318,3.05995 13.647195,2.523057 8.890201,-0.610377 13.751419,-2.712416 12.174282,-5.264277 -0.498279,-0.806231 -4.125875,-0.965566 -9.319731,-0.409351 -7.2639,0.777897 -8.629285,0.583947 -9.36378,-1.330116 -0.494688,-1.289137 -0.06953,-2.741252 1.001079,-3.419157 2.517678,-1.594184 15.464864,-1.529028 21.167705,0.10652 2.542363,0.72914 11.538402,1.243824 19.991198,1.143741 8.452796,-0.10008 20.618721,-0.0538 27.035388,0.102867 C 107.88312,17.52096 110.01024,16.661535 106,13.333333 c -2.55467,-2.120191 -2.58159,-6.1581834 -0.0475,-7.1305917 1.20695,-0.463148 3.50677,1.136996 6.02309,4.1906817 3.93239,4.772146 4.38684,4.94857 13.38142,5.19489 10.05299,0.275306 11.97637,0.88185 11.97637,3.776798 0,3.379636 -4.44829,4.203001 -20,3.70194 -17.832964,-0.574559 -19.730142,-0.243891 -25.250267,4.400988 -4.703002,3.957314 -9.088884,3.569364 -6.854148,-0.60628 0.739156,-1.381126 1.045105,-2.809954 0.679885,-3.175174 -0.36522,-0.365218 -7.69411,-0.390065 -16.286422,-0.05521 -13.288337,0.517862 -16.220003,1.039091 -19.622387,3.488724 -3.297325,2.373994 -6.225137,2.951556 -16.666667,3.287794 -11.789591,0.379648 -13.01188,0.169272 -17.6522,-3.038238 z"
       id="path944" />
  </g>
</svg>
