<?xml version="1.0" encoding="UTF-8" standalone="no"?>
<!-- Created with Inkscape (http://www.inkscape.org/) -->

<svg
   version="1.1"
   id="svg32"
   width="112"
   height="141.33333"
   viewBox="0 0 112 141.33333"
   xmlns="http://www.w3.org/2000/svg"
   xmlns:svg="http://www.w3.org/2000/svg">
  <defs
     id="defs36" />
  <g
     id="g38">
    <path
       style="fill:#000000;stroke-width:1.33333"
       d="m 45.890609,134.77777 c -1.599129,-1.59419 0.177672,-2.60797 7.365776,-4.20265 7.320899,-1.62413 8.118135,-2.16878 10.489902,-7.16642 4.250084,-8.95551 7.846049,-18.39341 9.427046,-24.742036 0.8218,-3.3 2.767543,-10.670847 4.323874,-16.379662 2.747877,-10.079546 2.761992,-10.561444 0.488144,-16.666666 -1.287852,-3.457852 -3.656339,-8.087004 -5.263303,-10.287004 -1.606963,-2.2 -4.321684,-6.52221 -6.032712,-9.604912 -1.711029,-3.082701 -3.895651,-5.906024 -4.854713,-6.27405 -1.065036,-0.408694 -3.44809,2.19474 -6.122522,6.688718 -7.7674,13.051944 -6.950717,12.526685 -21.637114,13.916156 -7.290218,0.689724 -13.746831,1.745932 -14.348031,2.347132 -0.601199,0.601199 -1.368731,8.255709 -1.705627,17.010022 C 16.173844,127.42376 15.659061,134.77521 14.179471,134.28073 13.09145,133.9171 12.750985,123.74984 12.966952,98.071499 13.152796,75.974914 12.753806,61.408499 11.920041,59.850593 11.179082,58.4661 9.3439536,57.333332 7.8419772,57.333332 c -3.9678589,0 -2.3315288,-3.250864 1.8882989,-3.751445 L 13.254902,53.163775 V 32.354437 c 0,-18.762301 0.996719,-25.5953956 3.210922,-22.012742 0.421741,0.682393 0.843493,10.293886 0.937224,21.358872 0.212803,25.121204 0.297704,25.283305 12.04476,22.99689 4.703705,-0.915516 9.934303,-1.79423 11.623551,-1.952697 2.189394,-0.205385 4.427417,-2.555225 7.793712,-8.183108 5.674142,-9.486218 9.44821,-13.783882 13.468262,-15.336783 1.65,-0.637378 3,-2.114151 3,-3.281719 0,-2.052953 -1.342536,-1.991856 -7.567416,0.344385 -0.862077,0.323544 -2.588697,-0.970413 -3.836932,-2.87546 -6.666646,-10.174588 6.340011,-24.6346107 14.913647,-16.5800978 2.939213,2.7612472 3.252971,3.8829328 2.49674,8.9258478 l -0.864925,5.767728 6.056326,-0.908203 c 5.693856,-0.853846 6.570052,-0.541616 14.639891,5.216901 10.737956,7.662448 16.846696,13.709585 16.770766,16.601645 -0.0322,1.226923 -2.10651,6.43077 -4.60955,11.564103 l -4.550988,9.333333 4.103098,1.735862 c 3.87753,1.640435 3.96601,1.836772 1.60955,3.57144 -2.27374,1.673772 -2.29695,1.911826 -0.2633,2.700563 2.88248,1.117951 4.27351,4.658801 1.83021,4.658801 -1.02072,0 -3.6569,-1.515486 -5.85819,-3.367748 -2.201288,-1.852261 -4.338031,-2.824593 -4.748316,-2.160737 -0.410285,0.663856 -0.168881,8.629342 0.536453,17.701081 0.705336,9.071738 1.296043,23.175946 1.312683,31.342676 l 0.03025,14.84861 -5.666666,0.68353 c -14.656455,1.76789 -21.70236,-1.24756 -8.734003,-3.73791 L 90,129.95233 90.42916,121.3095 c 0.236039,-4.75356 0.03828,-12.39284 -0.439459,-16.97617 -0.83706,-8.030564 -1.004214,-8.333332 -4.600733,-8.333332 -2.997995,0 -4.042525,0.852381 -5.310185,4.333332 -0.867939,2.38333 -2.720218,6.73333 -4.116175,9.66667 -6.038507,12.68875 -7.925931,18.34856 -7.149921,21.44043 0.757694,3.01889 0.436261,3.24219 -5.001476,3.47466 -10.935462,0.46747 -17.36335,0.41821 -17.920602,-0.13732 z M 99.959641,46.351424 c 2.316639,-3.9045 1.490129,-5.475413 -5.984398,-11.374215 -11.81922,-9.327583 -11.748607,-9.358388 -11.07028,4.829402 0.577812,12.085429 0.643225,12.284924 5.739505,17.503988 l 5.155033,5.279233 2.393224,-6.961584 c 1.316274,-3.828871 3.011386,-8.003441 3.766916,-9.276824 z"
       id="path805" />
  </g>
</svg>
