<?xml version="1.0" encoding="UTF-8" standalone="no"?>
<!-- Created with Inkscape (http://www.inkscape.org/) -->

<svg
   version="1.1"
   id="svg42"
   width="141.33333"
   height="141.33333"
   viewBox="0 0 141.33333 141.33333"
   xmlns="http://www.w3.org/2000/svg"
   xmlns:svg="http://www.w3.org/2000/svg">
  <defs
     id="defs46" />
  <g
     id="g48">
    <path
       style="fill:#000000;stroke-width:1.33333"
       d="m 20.121093,134.1459 c -1.211855,-1.46019 -1.262267,-2.68027 -0.19328,-4.67769 1.435124,-2.68155 4.038888,-2.6223 7.665464,0.17445 3.526802,2.71981 7.70456,0.29304 13.284634,-7.71674 5.273541,-7.56978 5.54622,-8.40257 4.365695,-13.33334 C 44.55106,105.69999 44.078828,99.028662 44.194203,93.7674 44.400682,84.351514 44.318323,84.104173 38.943827,77.998417 32.152915,70.283533 21.775393,49.413391 20.60858,41.124564 c -0.749602,-5.325032 -0.380658,-6.934793 2.592041,-11.309513 1.906325,-2.805409 3.466045,-5.590798 3.466045,-6.189754 0,-1.303558 -10.482888,-6.221053 -13.350495,-6.262681 -1.109439,-0.01611 -2.609439,1.252657 -3.3333332,2.819473 -1.9159015,4.146828 -4.039333,3.023442 -3.6297999,-1.92032 0.5737041,-6.925584 1.2086539,-7.592468 7.2717821,-7.637507 3.139682,-0.02332 6.903357,-0.945381 8.363723,-2.0490189 2.046532,-1.5466199 4.656092,-1.8094525 11.383578,-1.1465431 7.11919,0.701507 9.056471,0.4647287 10.508049,-1.2843144 3.83517,-4.6210988 5.151586,-2.4709933 5.830077,9.5222804 0.363006,6.416667 0.639772,13.600441 0.615032,15.963944 -0.05773,5.515721 1.297801,7.040413 10.48641,11.795012 9.034039,4.674618 19.103412,15.490562 32.808529,35.241043 17.776912,25.618355 21.456112,30.073485 31.964492,38.705675 5.73876,4.71415 10.21459,9.18389 9.94629,9.93275 -0.80074,2.2349 -7.93121,0.97988 -14.61057,-2.57157 -3.43957,-1.82884 -6.25377,-2.94868 -6.25377,-2.48853 0,0.46015 1.55293,2.87262 3.45095,5.36106 4.92899,6.46224 3.60597,8.39501 -5.74243,8.38896 -11.31844,-0.007 -15.200572,-2.86453 -19.625358,-14.44406 -3.370356,-8.82012 -4.080324,-9.67828 -12.494944,-15.1031 -4.90685,-3.1634 -9.344434,-5.94924 -9.861296,-6.19077 -0.516862,-0.24153 -1.116862,3.95182 -1.333333,9.31856 -0.352428,8.73737 -0.672427,9.75775 -3.060251,9.75829 -2.021278,4.6e-4 -2.723893,0.96854 -2.903118,4 -0.386901,6.54416 0.139821,7.02581 6.60957,6.04395 6.84031,-1.0381 11.626881,0.29814 11.626881,3.24582 0,1.76995 -3.727183,2.04296 -27.89095,2.04296 -15.340021,0 -28.743892,0.32731 -29.78638,0.72735 -1.042487,0.40004 -2.633196,-0.16161 -3.534908,-1.24811 z m 37.20985,-10.6425 c 0.002,-5.35722 -0.318731,-6.23008 -1.828614,-4.97699 -1.00705,0.83578 -2.714085,1.18072 -3.793409,0.76655 -1.904159,-0.73069 -9.042254,6.99875 -9.042254,9.79136 0,0.69423 3.298925,1.18427 7.330943,1.08896 L 57.328553,130 l 0.0024,-6.4966 z M 95.06362,20.44105 c -0.899437,-2.338562 3.330416,-8.062889 8.07434,-10.927131 10.02797,-6.0545981 23.88596,-4.2280243 30.867,4.068474 3.9119,4.649035 4.22908,7.292512 0.99504,8.293304 -4.64091,1.436158 -39.31126,0.190685 -39.93638,-1.434647 z"
       id="path666" />
  </g>
</svg>
