<?xml version="1.0" encoding="UTF-8" standalone="no"?>
<!-- Created with Inkscape (http://www.inkscape.org/) -->

<svg
   version="1.1"
   id="svg52"
   width="45.333332"
   height="142.66667"
   viewBox="0 0 45.333332 142.66667"
   xmlns="http://www.w3.org/2000/svg"
   xmlns:svg="http://www.w3.org/2000/svg">
  <defs
     id="defs56" />
  <g
     id="g58">
    <path
       style="fill:#000000;stroke-width:1.33333"
       d="M 8.7125687,136.26812 C 7.0017015,134.55726 8.3881248,131.8076 14,125.78171 c 3.299999,-3.54346 5.999999,-7.08168 5.999999,-7.86272 0,-0.78104 -1.8,-3.14459 -3.999999,-5.25232 -3.825711,-3.66526 -5.262919,-7.33333 -2.873317,-7.33333 0.619675,0 2.215997,1.20367 3.547381,2.67484 1.331383,1.47116 2.621177,2.47436 2.866207,2.22933 0.245032,-0.24503 0.636126,-14.953085 0.869099,-32.684562 L 20.832957,45.3139 16.083145,42.990284 C 10.469415,40.244038 5.3333332,31.185134 5.3333332,24.030013 c 0,-6.339898 3.9944131,-13.458261 9.2998998,-16.5731638 5.328157,-3.1282138 23.119985,-4.6801953 24.681877,-2.1530008 0.638779,1.0335669 -1.982731,4.6492821 -7.153412,9.8663376 -4.488935,4.529192 -8.161699,8.918411 -8.161699,9.753817 0,0.835407 3.662108,4.832939 8.138019,8.883406 4.475909,4.050465 7.885718,8.12138 7.577353,9.046476 -0.377377,1.132132 -2.81984,1.562085 -7.471352,1.315203 l -6.910686,-0.366791 -0.121212,18.432186 c -0.06667,10.137701 -0.216666,25.182014 -0.333334,33.431805 -0.116666,8.249792 0.133294,14.999792 0.55546,15.000002 0.42217,2.1e-4 2.159386,-1.48113 3.86048,-3.29186 2.889144,-3.07535 5.371939,-3.40491 5.371939,-0.71304 0,0.64387 -2.200667,3.24687 -4.89037,5.78445 l -4.890369,4.61379 6.890369,8.65924 c 3.789703,4.76259 6.89037,9.31833 6.89037,10.12388 0,1.49277 -28.482228,1.89725 -29.9540973,0.42537 z m 21.9540973,-3.98515 c 0,-0.5777 -1.790059,-3.1277 -3.977909,-5.66667 L 22.710847,122 l -4.02209,4.35437 c -2.212149,2.39491 -4.022091,4.94491 -4.022091,5.66667 0,0.72176 3.6,1.3123 8,1.3123 4.4,0 8,-0.47267 8,-1.05037 z"
       id="path527" />
  </g>
</svg>
