<?xml version="1.0" encoding="UTF-8" standalone="no"?>
<!-- Created with Inkscape (http://www.inkscape.org/) -->

<svg
   version="1.1"
   id="svg62"
   width="140"
   height="136"
   viewBox="0 0 140 136"
   xmlns="http://www.w3.org/2000/svg"
   xmlns:svg="http://www.w3.org/2000/svg">
  <defs
     id="defs66" />
  <g
     id="g68">
    <path
       style="fill:#000000;stroke-width:1.33333"
       d="m 67.628699,131.07359 c -2.145971,-0.55844 -2.33602,-2.28585 -2,-18.17867 0.35736,-16.902224 0.48055,-17.57714 3.281086,-17.975832 4.389394,-0.624888 5.442803,2.832713 5.93391,19.476842 0.360221,12.20825 0.06973,15.29954 -1.53296,16.31292 -1.087571,0.68767 -2.277402,1.1899 -2.644068,1.11606 -0.366667,-0.0738 -1.733752,-0.41193 -3.037968,-0.75132 z M 5.7183779,47.080232 C 4.1058391,42.878024 7.7984333,41.67776 22.752041,41.543507 c 8.090254,-0.07264 15.273575,-0.48065 15.962935,-0.906698 0.689361,-0.426048 2.807001,-3.425681 4.705868,-6.665852 3.859543,-6.585812 3.283679,-10.291833 -0.997217,-6.417676 -2.549971,2.307692 -2.820568,2.292175 -7.534296,-0.432057 -5.798076,-3.350913 -6.548715,-6.384908 -3.294982,-13.317923 1.865274,-3.9744967 3.28798,-5.2367478 6.288351,-5.5791346 2.132721,-0.2433752 5.209603,-1.3152129 6.837515,-2.3818616 2.702,-1.7704187 3.309954,-1.6447588 6.978953,1.4425003 2.210513,1.8600238 5.217609,3.3818619 6.682435,3.3818619 1.464826,0 5.578213,2.59474 9.140858,5.766089 8.234536,7.330109 9.94024,7.908428 20.112347,6.819088 L 96,22.356008 v -4.928549 c 0,-8.9950951 9.59508,-14.7343721 19.53379,-11.6840954 5.28012,1.6205152 13.33474,9.9214404 11.45298,11.8032014 -1.72633,1.726324 -7.01254,-0.574676 -10.88586,-4.738433 C 111.75535,8.1367229 105.1492,8.0474999 102.15335,12.619756 99.811636,16.193657 99.304736,20 101.1705,20 c 0.64378,0 3.19378,-0.819004 5.66667,-1.820009 4.07817,-1.65081 5.13469,-1.534636 11.36445,1.249616 9.75339,4.359053 13.41917,9.74523 14.00002,20.570393 l 0.46503,8.666667 -21.23164,0.368366 c -22.968415,0.3985 -26.033359,-0.362629 -21.144977,-5.251013 2.453406,-2.453404 3.37992,-2.644428 6.614816,-1.363807 2.484175,0.983428 6.252421,1.108244 11.095131,0.367506 4.03333,-0.616936 6.54144,-1.196558 5.57357,-1.288044 -0.96787,-0.09149 -4.41157,-1.990827 -7.65266,-4.220754 -6.334617,-4.358333 -8.388777,-4.15036 -14.591505,1.477322 -1.468826,1.332653 -6.08683,3.987012 -10.26223,5.898573 -6.987715,3.199081 -8.3128,3.378944 -16.657036,2.260976 -7.12659,-0.954827 -9.676164,-0.814401 -11.921188,0.656595 C 48.492575,50.190913 6.7434772,49.751599 5.7183779,47.080232 Z M 128.38055,33.311227 c -0.72699,-2.780024 -2.76403,-4.705528 -3.8399,-3.629659 -0.33839,0.338395 4e-4,2.234581 0.75288,4.213747 1.54317,4.058836 4.17114,3.561602 3.08702,-0.584088 z"
       id="path388" />
  </g>
</svg>
