<?xml version="1.0" encoding="UTF-8" standalone="no"?>
<!-- Created with Inkscape (http://www.inkscape.org/) -->

<svg
   version="1.1"
   id="svg82"
   width="80"
   height="141.33333"
   viewBox="0 0 80 141.33333"
   xmlns="http://www.w3.org/2000/svg"
   xmlns:svg="http://www.w3.org/2000/svg">
  <defs
     id="defs86" />
  <g
     id="g88">
    <path
       style="fill:#000000;stroke-width:1.33333"
       d="m 6.1101311,134.84486 c -0.8326723,-1.34729 2.4697516,-4.4654 7.2232019,-6.82006 1.833334,-0.90815 5.222436,-2.90513 7.531339,-4.43772 l 4.198005,-2.78652 -3.087248,-4.06695 C 17.560811,110.91807 6.6666667,88.875898 6.6666667,85.759322 c 0,-2.995489 5.2168093,-8.428477 8.0859343,-8.421006 3.563744,0.0093 10.012627,4.927806 20.297616,15.48088 l 10.247039,10.514134 0.243351,-7.999999 c 0.133844,-4.4 0.06389,-16.938532 -0.155446,-27.863405 -0.388633,-19.357138 -0.321105,-19.922007 2.649476,-22.16272 4.635071,-3.496242 2.67904,-7.02033 -3.276476,-5.903068 -4.35608,0.817206 -4.724224,0.591433 -6.684074,-4.099148 C 35.484251,29.106641 35.557148,25.282426 38.442073,16 40.310717,9.9875264 41.556865,8.2467661 45.360616,6.3354052 52.420712,2.7877513 57.811695,3.3307949 63.290841,8.1415498 68.746271,12.931479 71.185692,20.045238 73.28918,37.298354 75.506773,55.487384 75.168053,62.327831 72,63.333332 c -3.206185,1.017604 -3.105272,-0.04405 -3.231771,33.999999 -0.111213,29.930199 -0.961088,33.837309 -8.064306,37.073749 -4.108598,1.87201 -53.4627978,2.26777 -54.5937919,0.43778 z"
       id="path110" />
  </g>
</svg>
