<?xml version="1.0" encoding="UTF-8" standalone="no"?>
<!-- Created with Inkscape (http://www.inkscape.org/) -->

<svg
   version="1.1"
   id="svg2"
   width="41.333332"
   height="144"
   viewBox="0 0 41.333332 144"
   xmlns="http://www.w3.org/2000/svg"
   xmlns:svg="http://www.w3.org/2000/svg">
  <defs
     id="defs6" />
  <g
     id="g8">
    <path
       style="fill:#000000;stroke-width:1.33333"
       d="m 6.3188598,137.87441 c -0.4357381,-0.43573 1.2456725,-2.58157 3.7364682,-4.76851 2.926045,-2.56911 4.854161,-5.70968 5.448327,-8.87442 C 16.794127,117.35799 13.509766,88.901309 10.404424,80.050209 6.7609622,69.665323 6.3065778,43.877341 9.6590513,37.747605 c 1.2791447,-2.338816 3.4637017,-5.049468 4.8545697,-6.02367 1.816728,-1.272486 2.663672,-3.787316 3.007616,-8.930507 0.51427,-7.690209 -0.125531,-8.586792 -7.187904,-10.072749 C 5.9140941,11.79085 5.4835492,8.3253595 9.6666664,7.3546259 16.829033,5.6925281 31.658715,6.0649524 34.666666,7.9824616 c 3.105207,1.9795089 -0.0951,5.8926094 -5.46663,6.6842054 -4.453498,0.656305 -4.528826,0.778852 -4.846823,7.88504 -0.263278,5.883361 0.159989,7.556686 2.288589,9.047616 9.437329,6.610162 9.65711,24.852225 0.727712,60.400677 -1.197336,4.766667 -2.295297,13.76667 -2.439912,20 -0.251733,10.85049 -0.07527,11.60363 4.142161,17.67787 2.422804,3.4895 4.037393,6.9395 3.587977,7.66666 -0.864065,1.3981 -24.9874017,1.88336 -26.3408802,0.52988 z"
       id="path924" />
  </g>
</svg>
