<?xml version="1.0" encoding="UTF-8" standalone="no"?>
<!-- Created with Inkscape (http://www.inkscape.org/) -->

<svg
   version="1.1"
   id="svg12"
   width="137.33333"
   height="140"
   viewBox="0 0 137.33333 140"
   xmlns="http://www.w3.org/2000/svg"
   xmlns:svg="http://www.w3.org/2000/svg">
  <defs
     id="defs16" />
  <g
     id="g18">
    <path
       style="fill:#000000;stroke-width:1.33333"
       d="m 12.758268,133.05426 c -0.29316,-0.94651 -0.847864,-4.80704 -1.232675,-8.57895 C 11.140781,120.70339 9.3436136,113.20339 7.5318872,107.80864 5.7201607,102.41389 4.426947,97.807379 4.658079,97.571952 c 1.0827201,-1.102839 38.540439,-0.2401 39.694803,0.914264 0.854237,0.854237 -0.174342,5.386624 -2.967748,13.077234 -2.3513,6.47343 -4.689886,14.16988 -5.196855,17.10322 L 35.266515,134 24.278901,134.3876 c -8.082621,0.28512 -11.128539,-0.0675 -11.520633,-1.33334 z m 86.24173,-0.79061 c -3.85,-0.22165 -7,-0.88292 -7,-1.46948 0,-0.58657 1.366492,-3.09422 3.036649,-5.57257 3.349091,-4.96971 12.007603,-9.02947 19.512873,-9.14909 8.63881,-0.13769 22.75721,11.15523 18.84054,15.07003 -1.47452,1.47382 -18.57878,2.03142 -34.390062,1.12111 z M 7.9980309,21.666667 C 7.9928861,19.053813 15.530714,5.3662864 16.983273,5.3508581 c 0.907468,-0.00964 3.250877,2.5185222 5.207577,5.6181349 3.234515,5.123804 3.690157,5.40912 5.016725,3.141396 0.8025,-1.371845 2.752307,-4.052272 4.332906,-5.9565059 2.824078,-3.402324 2.921558,-3.4190342 5.632626,-0.9655512 1.517348,1.3731804 3.114564,3.6175611 3.549369,4.9875131 1.148035,3.617138 2.540404,3.072019 4.703567,-1.841466 2.6353,-5.9859177 5.650736,-6.1193543 9.025594,-0.3993938 1.535468,2.6024248 3.261996,4.7085698 3.836728,4.6803218 0.574732,-0.02825 2.252996,-1.971578 3.729477,-4.31851 3.783211,-6.0135847 6.718572,-6.1275897 10.102439,-0.3923635 1.545383,2.6192285 3.200521,4.7548065 3.678085,4.7457275 0.477564,-0.0091 2.223815,-2.109077 3.880556,-4.6666658 C 83.478897,4.117298 85.699969,4.1210951 89.333331,10 c 1.586287,2.566667 3.386287,4.666667 4,4.666667 0.613713,0 2.432805,-2.130894 4.042429,-4.7353189 3.69655,-5.9811384 6.23417,-5.525465 10.11599,1.8164959 l 3.03897,5.747843 3.45824,-5.478204 c 3.56163,-5.6419798 7.47264,-8.2993358 8.34832,-5.672301 0.27346,0.8203851 2.55362,4.078331 5.06702,7.239881 2.5134,3.161548 4.57564,6.540001 4.58276,7.507672 0.0235,3.197041 -5.71906,1.027782 -7.94388,-3.000804 -3.05843,-5.538037 -4.66676,-5.555096 -8.04725,-0.08536 -3.66858,5.935884 -6.5367,5.632066 -9.67101,-1.024436 C 105.03467,14.241964 103.46533,12 102.83751,12 c -0.62783,0 -2.80471,2.4 -4.837512,5.333333 -2.032802,2.933334 -4.20589,5.333334 -4.829083,5.333334 -0.623195,0 -2.721327,-2.4 -4.662514,-5.333334 C 86.567213,14.4 84.770894,12 84.516582,12 c -0.254313,0 -1.686776,2.4 -3.183251,5.333333 -3.62148,7.098687 -5.449896,6.916838 -10.054559,-1 C 69.892556,13.95 68.369344,12 67.893856,12 c -0.475487,0 -2.527723,2.4 -4.560524,5.333333 -2.032801,2.933334 -4.189109,5.333334 -4.791796,5.333334 -0.602687,0 -2.678099,-2.7 -4.612028,-6 -1.933929,-3.3 -3.731144,-6 -3.993812,-6 -0.262669,0 -1.671917,2.7 -3.131664,6 -1.459746,3.3 -3.137824,5.995378 -3.72906,5.98973 -0.591234,-0.0056 -2.442889,-2.405648 -4.114786,-5.333333 C 37.28829,14.395379 35.443888,12 34.861516,12 c -0.582371,0 -2.242211,2.247128 -3.688533,4.993619 -2.593182,4.924317 -7.166714,7.538729 -7.179606,4.104146 -0.0036,-0.970437 -1.42735,-3.540077 -3.163791,-5.710312 L 17.672417,11.441574 14.80911,17.05412 c -1.574819,3.086901 -3.751113,5.612547 -4.8362088,5.612547 -1.0850957,0 -1.9737874,-0.45 -1.9748703,-1 z"
       id="path785" />
  </g>
</svg>
