<?xml version="1.0" encoding="UTF-8" standalone="no"?>
<!-- Created with Inkscape (http://www.inkscape.org/) -->

<svg
   version="1.1"
   id="svg22"
   width="141.33333"
   height="136"
   viewBox="0 0 141.33333 136"
   xmlns="http://www.w3.org/2000/svg"
   xmlns:svg="http://www.w3.org/2000/svg">
  <defs
     id="defs26" />
  <g
     id="g28">
    <path
       style="fill:#000000;stroke-width:1.33333"
       d="m 47.29772,130.60905 c -1.509512,-2.44245 5.883677,-10.41706 12.281121,-13.24695 7.309653,-3.23341 12.958975,-2.66256 21.396634,2.16207 6.021392,3.44302 9.020498,7.4925 7.835707,10.58002 C 88.227115,131.62624 84.14797,132 68.120534,132 55.698685,132 47.832632,131.47455 47.29772,130.60905 Z M 60.911552,29.730532 c -1.806281,-0.467495 -2.314584,-1.664413 -2,-4.709468 l 0.42178,-4.082671 -12,0.38134 c -6.6,0.209738 -17.099999,0.563176 -23.333333,0.785418 C 17.766666,22.327393 10.982762,22.189537 8.9246574,21.798792 5.6462943,21.176381 5.2332844,20.56662 5.5913241,16.877512 L 5.9999999,12.666667 32.247462,12.305433 58.494924,11.9442 58.914128,8.3054333 c 0.352645,-3.0610286 1.054296,-3.6387666 4.419204,-3.6387666 3.393341,0 4.065146,0.5681274 4.429546,3.7459456 0.364568,3.1792847 0.961684,3.6835287 3.947272,3.3333337 C 74.19511,11.454472 75.45673,10.354704 76.007384,8 c 0.613757,-2.6245516 1.61448,-3.3333333 4.706299,-3.3333333 3.320658,0 4.033456,0.6174364 4.617803,4 l 0.691009,4.0000003 24.639015,0.666666 c 22.35547,0.60488 24.68163,0.888858 25.09885,3.064052 1.08666,5.665404 -1.45854,6.269282 -26.42362,6.269282 H 85.666665 l -0.8,4 c -0.61362,3.0681 -1.522223,4 -3.9,4 -3.707601,0 -6.3,-2.304355 -6.3,-5.6 0,-1.671111 -1.012345,-2.4 -3.333333,-2.4 -2.626926,0 -3.333334,0.676177 -3.333334,3.190681 0,1.754875 -0.949072,3.554875 -2.109049,4 -1.159979,0.445125 -2.209979,0.739717 -2.333333,0.654651 -0.12336,-0.08507 -1.314085,-0.436728 -2.646064,-0.781467 z"
       id="path646" />
  </g>
</svg>
