<?xml version="1.0" encoding="UTF-8" standalone="no"?>
<!-- Created with Inkscape (http://www.inkscape.org/) -->

<svg
   version="1.1"
   id="svg32"
   width="98.666664"
   height="89.333336"
   viewBox="0 0 98.666664 89.333336"
   xmlns="http://www.w3.org/2000/svg"
   xmlns:svg="http://www.w3.org/2000/svg">
  <defs
     id="defs36" />
  <g
     id="g38">
    <path
       style="fill:#000000;stroke-width:1.33333"
       d="m 17.333333,83.380248 c 0,-2.699872 4.018145,-4.595202 8.091242,-3.816579 2.852027,0.545199 4.580948,-0.703071 10.790339,-7.790555 7.194898,-8.212357 11.785085,-15.413312 11.785085,-18.48811 0,-0.83275 -3.567096,-5.026235 -7.92688,-9.318853 -9.115009,-8.97459 -12.108142,-16.306252 -9.550605,-23.394148 0.812617,-2.252065 1.477485,-4.563635 1.477485,-5.136821 0,-0.573187 -5.121953,-0.830588 -11.38212,-0.572003 -8.264349,0.341371 -11.7187714,1.014939 -12.6111447,2.45901 -0.8549241,1.383469 -1.6532979,1.564581 -2.6228755,0.595004 -2.4163359,-2.416337 1.5131611,-5.817172 8.1357932,-7.041232 3.402476,-0.628879 8.273295,-2.4332386 10.824045,-4.0096885 5.675296,-3.5075259 9.216161,-3.63259 12.116318,-0.4279514 2.403408,2.655736 2.936827,8.2761459 0.977072,10.2950129 -0.676268,0.696667 -1.641855,3.510329 -2.145747,6.252585 -1.154728,6.284205 1.196648,7.508695 8.673811,4.516927 6.575612,-2.631037 11.202137,-1.860728 23.368181,3.890768 14.419579,6.816855 26.260768,14.928023 25.747188,17.636723 -0.492577,2.597929 -6.973508,3.901101 -9.494485,1.909133 -2.071149,-1.636533 -22.252703,-3.389017 -22.252703,-1.932333 0,0.615086 2.317044,3.38087 5.148986,6.146187 4.666525,4.556742 5.226101,5.853668 5.971995,13.841267 0.855818,9.164762 2.10624,11.132182 6.36705,10.017955 2.536713,-0.663365 6.511968,1.652263 6.511968,3.793291 0,0.630291 -4.95,1.113582 -11,1.073979 -6.05,-0.0396 -11.989309,0.312144 -13.198465,0.781656 -2.821792,1.095696 -4.495404,-1.552174 -2.500418,-3.955983 1.038377,-1.251169 3.07197,-1.594251 6.322833,-1.066709 l 4.792145,0.777658 -0.907575,-7.722042 c -1.089365,-9.268795 -1.048126,-9.194563 -7.841689,-14.115794 -5.761094,-4.173316 -7.66683,-4.786286 -7.66683,-2.465995 0,2.051804 -11.358932,16.22142 -14.615522,18.232027 -4.109642,2.537276 -3.446091,5.655368 1.2035,5.655368 2.156721,0 4.29213,0.6 4.745355,1.333334 1.168546,1.890746 -0.561408,4.222432 -2.324371,3.13286 -1.897984,-1.173019 -19.394743,-1.191523 -20.564517,-0.02175 -1.607358,1.607357 -4.444444,0.928032 -4.444444,-1.064199 z"
       id="path507" />
  </g>
</svg>
