<?xml version="1.0" encoding="UTF-8" standalone="no"?>
<!-- Created with Inkscape (http://www.inkscape.org/) -->

<svg
   version="1.1"
   id="svg42"
   width="142.66667"
   height="94.666664"
   viewBox="0 0 142.66667 94.666664"
   xmlns="http://www.w3.org/2000/svg"
   xmlns:svg="http://www.w3.org/2000/svg">
  <defs
     id="defs46" />
  <g
     id="g48">
    <path
       style="fill:#000000;stroke-width:1.33333"
       d="m 61.801088,88.312914 c -0.842735,-0.538771 -1.742735,-2.479583 -2,-4.312916 L 59.333335,80.666664 34.666667,80.576054 C 21.1,80.526219 9.2500002,80.376219 8.3333335,80.24272 6.4070387,79.962187 6.0605712,73.865298 7.9061071,72.724694 8.5877993,72.303385 20.587799,71.919334 34.572774,71.871246 l 25.427227,-0.08743 v -3.813219 c 0,-4.553582 1.668866,-5.84345 6.116225,-4.727234 2.275813,0.571192 3.537708,2.026296 4.071404,4.694778 0.655145,3.275727 1.2056,3.707155 3.599864,2.821459 1.554552,-0.575065 3.161898,-2.481231 3.571881,-4.23592 0.56522,-2.419096 1.780319,-3.29135 5.026359,-3.608157 2.812595,-0.274505 4.326,0.182823 4.412321,1.333333 0.07227,0.963129 0.222262,3.251144 0.333334,5.084477 l 0.201946,3.333334 23.333335,-0.493975 c 21.99047,-0.465547 23.47125,-0.34038 25.72991,2.174861 2.20848,2.459384 2.22716,2.838233 0.23809,4.827308 -1.82796,1.827953 -5.80536,2.158472 -25.97468,2.158472 H 86.843795 L 86.421898,85 c -0.351548,3.055273 -1.144452,3.736334 -4.755229,4.084477 -4.03677,0.389217 -4.333334,0.138278 -4.333334,-3.666667 0,-3.66936 -0.415664,-4.084477 -4.089851,-4.084477 -3.563182,0 -3.974056,0.364833 -3.190649,2.833128 1.307417,4.119309 -4.068655,6.820754 -8.251747,4.146455 z M 50.161635,21.594861 c -1.200123,-1.941839 7.174169,-10.89344 12.126768,-12.9627676 6.499735,-2.7157622 14.227603,-2.4576769 20.09805,0.6712086 7.439322,3.965079 9.538262,5.972851 9.92701,9.495824 l 0.353206,3.200873 -20.900698,0.366687 C 60.270587,22.568363 50.548636,22.221042 50.161635,21.594861 Z"
       id="path368" />
  </g>
</svg>
