<?xml version="1.0" encoding="UTF-8" standalone="no"?>
<!-- Created with Inkscape (http://www.inkscape.org/) -->

<svg
   version="1.1"
   id="svg52"
   width="96"
   height="93.333336"
   viewBox="0 0 96 93.333336"
   xmlns="http://www.w3.org/2000/svg"
   xmlns:svg="http://www.w3.org/2000/svg">
  <defs
     id="defs56" />
  <g
     id="g58">
    <path
       style="fill:#000000;stroke-width:1.33333"
       d="M 21.638613,87.032704 C 20.706517,86.698876 18.982912,84.567412 17.80838,82.296116 l -2.135515,-4.129628 -3.503099,4.26211 c -3.3167803,4.035422 -6.8364327,5.617351 -6.8364327,3.072675 0,-0.640968 1.5512968,-3.940968 3.4473262,-7.333333 4.0842355,-7.307493 7.1963965,-7.894422 11.4381475,-2.157146 l 2.965306,4.010791 4.183695,-4.054997 c 4.796579,-4.649027 8.080676,-4.256293 10.162168,1.215261 l 1.325699,3.48482 3.572162,-4.345353 c 4.457922,-5.422834 6.446746,-5.436759 10.921714,-0.07647 l 3.543753,4.244844 2.507491,-4.244844 c 3.07834,-5.211215 7.418257,-5.60949 9.932538,-0.911514 0.981171,1.833334 2.781171,3.333334 4,3.333334 1.21883,0 3.01883,-1.5 4,-3.333334 2.725024,-5.091753 6.216279,-4.13613 10.696032,2.927709 C 90.213215,81.704616 92,85.004616 92,85.594377 c 0,2.528122 -4.155505,0.753979 -6.886736,-2.940208 l -2.966569,-4.0125 -3.664854,4.0125 c -4.465837,4.889467 -8.207805,5.137671 -10.239236,0.679167 -0.835322,-1.833334 -2.362625,-3.333334 -3.394006,-3.333334 -1.031382,0 -2.858076,1.5 -4.059323,3.333334 -2.919031,4.455003 -6.365219,4.206464 -9.243848,-0.666667 -1.299572,-2.2 -2.799572,-4 -3.333333,-4 -0.533762,0 -2.033762,1.8 -3.333334,4 -2.884033,4.88228 -6.732004,5.14762 -9.668037,0.666667 -2.632857,-4.018248 -5.391312,-4.298647 -6.544507,-0.665252 -0.967612,3.048677 -4.527924,5.259873 -7.027604,4.36462 z M 30,24.792355 C 21.757193,22.755321 16.096552,19.840653 10.017997,14.503611 5.1931455,10.267334 4.081172,7.3095765 7,6.4759853 7.9166667,6.2141935 25.743575,6.3000002 46.615351,6.6666669 l 37.948684,0.6666666 3.051316,4.5305115 c 4.448766,6.605406 3.577012,14.914326 -1.548684,14.760922 -2.114686,-0.06329 -6.21138,-6.275805 -6.611179,-10.025657 -0.431311,-4.045408 -1.302803,-3.957614 -8.265193,0.832637 C 58.649731,26.059882 44.999459,28.499153 30,24.792355 Z m 55.978285,-9.305037 c -2.436077,-3.717924 -5.059762,-3.561023 -3.713073,0.222049 1.403179,3.941763 3.395169,5.830252 4.735743,4.489679 0.774186,-0.774187 0.386273,-2.561408 -1.02267,-4.711728 z"
       id="path229" />
  </g>
</svg>
