<?xml version="1.0" encoding="UTF-8" standalone="no"?>
<!-- Created with Inkscape (http://www.inkscape.org/) -->

<svg
   version="1.1"
   id="svg62"
   width="73.333336"
   height="96"
   viewBox="0 0 73.333336 96"
   xmlns="http://www.w3.org/2000/svg"
   xmlns:svg="http://www.w3.org/2000/svg">
  <defs
     id="defs66" />
  <g
     id="g68">
    <path
       style="fill:#000000;stroke-width:1.33333"
       d="m 24.455942,90.325707 c -1.190664,-1.926536 2.455166,-3.784803 5.857086,-2.985336 1.85004,0.434768 3.889841,-0.209906 5.380392,-1.700456 C 38.590272,82.743063 44.651666,55.687063 44.574006,46 44.512715,38.354797 41.627672,24 40.15242,24 c -1.318905,0 -4.897352,7.619052 -6.055916,12.893957 -1.175988,5.354243 -3.207426,6.084859 -11.558715,4.15715 -5.61723,-1.296612 -6.946768,-1.236214 -8.00636,0.363712 -0.771676,1.165186 -0.920174,11.264236 -0.378182,25.71944 0.831959,22.188822 0.735022,23.769253 -1.431171,23.333333 C 10.619079,90.044388 10.388303,87.677953 10.291071,65.539444 10.196519,44.011072 9.8929285,40.709307 7.7584873,37.995805 4.724556,34.138787 4.7183415,33.333333 7.7225137,33.333333 c 2.1699805,0 2.3519023,-1.276265 1.9828665,-13.910721 C 9.4441978,10.480666 9.813126,5.194184 10.738242,4.6224311 c 0.791546,-0.4892026 1.708883,-0.619751 2.038526,-0.2901078 0.329644,0.3296434 0.677812,7.0423577 0.773707,14.9171437 0.195536,16.056998 0.08147,15.881733 10.41903,16.009394 l 6.030496,0.07447 3.56714,-10.666666 C 35.529068,18.8 36.903448,13.1 36.621319,12 35.410728,7.280002 43.561108,2.0964105 49.000002,4.1272345 c 3.069897,1.1462666 4.120668,5.6894423 1.666667,7.2060985 -3.024509,1.869249 -0.977911,4.43959 4.666666,5.860911 3.3,0.830949 6.000001,2.081301 6.000001,2.778559 0,0.697257 1.8,3.317828 4,5.823489 4.025016,4.58424 5.448763,12.104941 2.827736,14.937041 -0.644744,0.696667 -1.855923,3.409547 -2.691508,6.028623 -1.222996,3.833391 -1.112764,5.913357 0.565304,10.666667 2.302128,6.521032 1.664772,11.90471 -1.409359,11.90471 -1.587039,0 -1.811216,-1.120261 -1.106313,-5.52848 0.873242,-5.460966 0.84087,-5.517645 -2.650911,-4.641264 -4.477975,1.1239 -4.473506,0.258504 0.06483,-12.55403 C 64.52256,36.475911 64.52607,36.428867 62.156169,30.223367 60.848974,26.800515 59.062053,24 58.185237,24 c -0.876816,0 -2.627191,3.479688 -3.889723,7.732639 -2.812573,9.474408 -2.812644,9.485962 -0.07612,12.509782 1.801705,1.990862 1.962564,3.289208 0.854733,6.89885 -0.998232,3.252536 -0.920532,5.307333 0.289375,7.65259 0.909716,1.763376 2.069831,5.306139 2.578032,7.872806 0.875079,4.419572 2.686763,9.135461 6.849148,17.828617 1.008254,2.105739 1.507408,4.355739 1.109234,5 -0.947495,1.533077 -16.191356,1.52386 -17.139558,-0.0104 -0.802346,-1.29818 3.533013,-2.771448 8.239644,-2.800011 1.702615,-0.01033 3,-0.841942 3,-1.922968 0,-3.44017 -4.065573,-6.095238 -9.333333,-6.095238 -6.206185,0 -9.818489,3.0883 -8.946681,7.648866 0.339387,1.775388 -0.05877,3.435512 -0.884793,3.689166 -4.008768,1.231005 -15.675529,1.459656 -16.379253,0.321008 z m 19.54406,-73.65904 c 0,-1.1 -0.56459,-2 -1.254644,-2 -1.681305,0 -2.885461,2.082118 -1.820219,3.14736 1.501579,1.501578 3.074863,0.91452 3.074863,-1.14736 z"
       id="path90" />
  </g>
</svg>
