<?xml version="1.0" encoding="UTF-8" standalone="no"?>
<!-- Created with Inkscape (http://www.inkscape.org/) -->

<svg
   version="1.1"
   id="svg2"
   width="140"
   height="102.66667"
   viewBox="0 0 140 102.66667"
   xmlns="http://www.w3.org/2000/svg"
   xmlns:svg="http://www.w3.org/2000/svg">
  <defs
     id="defs6" />
  <g
     id="g8">
    <path
       style="fill:#000000;stroke-width:1.33333"
       d="M 15.140977,96.27777 C 4.59741,95.847312 3.971392,95.236859 5.2848123,86.666669 L 6,82.000003 69.541843,81.723911 133.08369,81.44782 l 0.45815,6.779256 c 0.25281,3.74081 -0.13944,6.99906 -0.87517,7.269674 -1.68442,0.61955 -104.710618,1.304214 -117.525693,0.78102 z M 123.74263,35.042426 c -2.43659,-0.585065 -4.48226,-5.70765 -5.87399,-14.709092 -0.48187,-3.116667 -1.17023,-5.666667 -1.5297,-5.666667 -0.35946,0 -2.81457,1.89739 -5.4558,4.21642 -5.68901,4.995018 -18.030315,10.757305 -28.117029,13.128145 -3.978639,0.935162 -14.066579,1.667666 -22.417644,1.627785 C 48.136976,33.580701 43.419439,32.968444 36.249023,30.511312 21.237357,25.367171 2.2003763,10.688513 5.8313972,7.057492 6.3519865,6.5369025 32.608979,6.0859985 64.180268,6.055483 L 121.58261,6.0000002 124.85466,10 c 4.68653,5.729166 7.33049,12.585594 6.87395,17.8258 -0.42354,4.861373 -4.07033,8.156837 -7.98598,7.216626 z m 4.25239,-9.375759 c -0.003,-2.016666 -1.33245,-5.766666 -2.95489,-8.333333 -2.66213,-4.211407 -2.99455,-4.384075 -3.40755,-1.769941 -0.25171,1.593198 0.20112,5.343198 1.00628,8.333333 1.70084,6.316459 5.36398,7.526942 5.35616,1.769941 z"
       id="path924" />
  </g>
</svg>
