<?xml version="1.0" encoding="UTF-8" standalone="no"?>
<!-- Created with Inkscape (http://www.inkscape.org/) -->

<svg
   version="1.1"
   id="svg12"
   width="52"
   height="88"
   viewBox="0 0 52 88"
   xmlns="http://www.w3.org/2000/svg"
   xmlns:svg="http://www.w3.org/2000/svg">
  <defs
     id="defs16" />
  <g
     id="g18">
    <path
       style="fill:#000000;stroke-width:1.33333"
       d="M 9.6545687,81 C 2.12101,72.957824 3.7723485,63.923312 13.855995,58.013903 c 6.746242,-3.953563 17.137713,-5.57248 22.477338,-3.501812 7.64341,2.96406 3.492902,15.99885 -8.237161,25.869048 C 22.439529,85.140889 13.805004,85.430647 9.6545687,81 Z M 13.340335,21.387305 C 8.3862333,20.139879 8.6997316,17.309833 14.490989,11 19.019412,6.0660811 20.412835,5.3333333 25.266957,5.3333333 c 3.066262,0 6.882899,0.6999558 8.481419,1.5554572 4.078431,2.1827102 14.748332,13.0589455 13.770492,14.0367855 -1.108693,1.108695 -30.056061,1.499753 -34.178533,0.461729 z"
       id="path785" />
  </g>
</svg>
