<?xml version="1.0" encoding="UTF-8" standalone="no"?>
<!-- Created with Inkscape (http://www.inkscape.org/) -->

<svg
   version="1.1"
   id="svg32"
   width="96"
   height="98.666664"
   viewBox="0 0 96 98.666664"
   xmlns="http://www.w3.org/2000/svg"
   xmlns:svg="http://www.w3.org/2000/svg">
  <defs
     id="defs36" />
  <g
     id="g38">
    <path
       style="fill:#000000;stroke-width:1.33333"
       d="M 6.9906396,93.533557 C 4.439356,91.956778 4.1735708,77.550055 6.6666667,75.972798 7.8127272,75.247743 25.901871,74.698781 49.033001,74.687082 l 40.366335,-0.02042 1.300332,3.420133 c 1.545668,4.065413 1.728547,13.49117 0.279136,14.386954 -1.802501,1.114007 -82.2577948,2.129232 -83.9881644,1.059805 z M 86.841447,88.558644 C 87.478651,88.164831 88,85.826148 88,83.361574 V 78.880529 L 48,78.749022 8,78.617515 v 5.887623 5.887622 l 38.841447,-0.559048 c 21.362796,-0.307476 39.362796,-0.881258 40,-1.275073 z M 22.84282,19.425333 C 14.826092,15.138442 5.3333333,7.3779542 5.3333333,5.1110372 c 0,-0.5678849 17.4333037,-0.9893485 38.7406757,-0.936586 37.829243,0.093675 38.805362,0.1633309 41.490075,2.9607402 1.512169,1.5756446 3.613745,4.8790206 4.670172,7.3408346 1.726904,4.024251 1.690227,4.730777 -0.363392,7 -3.567931,3.942519 -5.414635,3.054625 -8.900275,-4.279238 L 77.737157,10.393575 73.201912,14.36852 C 66.66778,20.095402 57.214944,22.989455 43.333333,23.512998 31.828228,23.946913 30.983175,23.778331 22.84282,19.425333 Z M 88,16.266666 c 0,-2.473057 -2.382433,-5.6 -4.266667,-5.6 -1.286714,0 -1.433109,5.85578 -0.177777,7.111111 C 85.311317,19.533539 88,18.619387 88,16.266666 Z"
       id="path507" />
  </g>
</svg>
