<?xml version="1.0" encoding="UTF-8" standalone="no"?>
<!-- Created with Inkscape (http://www.inkscape.org/) -->

<svg
   version="1.1"
   id="svg42"
   width="96"
   height="92"
   viewBox="0 0 96 92"
   xmlns="http://www.w3.org/2000/svg"
   xmlns:svg="http://www.w3.org/2000/svg">
  <defs
     id="defs46" />
  <g
     id="g48">
    <path
       style="fill:#000000;stroke-width:1.33333"
       d="M 17.963168,82.379735 14.355952,78.092803 11.24193,81.713068 C 8.4255679,84.987284 4,86.659872 4,84.450063 4,82.169957 12.499289,70.666667 14.183961,70.666667 c 1.048286,0 3.145003,2.1 4.659374,4.666666 C 21.363053,79.603937 24,81.471981 24,78.986376 c 0,-0.557493 1.552219,-2.687623 3.449375,-4.733621 2.747425,-2.962975 3.832761,-3.401814 5.333333,-2.15645 1.036177,0.859951 1.883959,2.316614 1.883959,3.237028 0,0.920415 0.822077,2.355744 1.826838,3.189622 1.440196,1.195257 2.583334,0.524325 5.401188,-3.170074 4.374534,-5.735308 6.738767,-5.907194 9.43864,-0.686214 2.616098,5.058973 3.768064,5.014845 8.701748,-0.333334 L 64.032571,70 l 4.317048,4.993179 4.317048,4.993177 2.666666,-3.978065 c 3.820114,-5.69875 6.147218,-6.11833 9.751194,-1.75815 5.949936,7.198379 7.363736,9.83493 6.003301,11.195364 -1.970063,1.970063 -4.942351,0.289362 -7.677871,-4.341506 l -2.448928,-4.145704 -2.450866,3.187518 c -1.347978,1.753136 -2.464208,3.573327 -2.480515,4.044868 -0.01631,0.471542 -1.016419,1.236008 -2.222472,1.698814 -2.387268,0.916081 -7.140509,-2.603215 -7.140509,-5.286827 0,-3.56978 -3.95188,-3.095575 -6.221476,0.746545 -3.761727,6.368095 -8.438292,6.307299 -10.483407,-0.136286 -1.092955,-3.443596 -4.182824,-3.214304 -6.114477,0.45374 -3.342734,6.347561 -5.777452,6.400738 -9.432428,0.206014 l -2.82852,-4.793985 -4.39187,4.793985 c -2.415528,2.636692 -4.669122,4.793986 -5.007988,4.793986 -0.338865,0 -2.239365,-1.92912 -4.223333,-4.286932 z M 7.2598215,25.214389 c -1.993372,-3.225344 1.375174,-4.211502 11.5011795,-3.367025 6.91298,0.57652 10.684726,0.382803 11.279344,-0.579311 0.491343,-0.795008 0.611614,-1.727206 0.26727,-2.07155 C 29.761903,18.650792 22.587761,17.636981 17.666667,17.410155 16.75,17.367903 16,16.733333 16,16 c 0,-0.733333 3.208195,-1.333333 7.12932,-1.333333 5.230024,0 7.953464,0.714774 10.222875,2.683025 2.483494,2.153923 4.298558,2.537401 9.204013,1.944581 6.505732,-0.786212 22.531329,-1.625081 35.037404,-1.834053 L 85.187224,17.333333 85.593612,11 c 0.340659,-5.3089817 0.837693,-6.3333333 3.073055,-6.3333333 2.429629,0 2.666666,0.8888889 2.666666,10.0000003 v 10 L 62,24.857725 C 45.866667,24.962805 27.118996,25.359283 20.338511,25.738781 13.525032,26.120125 7.6746236,25.885552 7.2598215,25.214389 Z"
       id="path368" />
  </g>
</svg>
