<?xml version="1.0" encoding="UTF-8" standalone="no"?>
<!-- Created with Inkscape (http://www.inkscape.org/) -->

<svg
   version="1.1"
   id="svg62"
   width="96"
   height="94.666664"
   viewBox="0 0 96 94.666664"
   xmlns="http://www.w3.org/2000/svg"
   xmlns:svg="http://www.w3.org/2000/svg">
  <defs
     id="defs66" />
  <g
     id="g68">
    <path
       style="fill:#000000;stroke-width:1.33333"
       d="m 85.357399,87.358947 -3.15557,-3.358949 -33.434248,0.02965 C 17.637404,84.05725 15.103621,84.238976 12,86.666664 6.6613179,90.842641 5.3333333,90.081952 5.3333333,82.847896 V 76.362462 L 11,75.599038 c 3.116667,-0.419883 22.466667,-0.651437 43,-0.514565 l 37.333333,0.248858 v 7.222223 c 0,3.972221 -0.634582,7.433749 -1.410182,7.692282 -0.7756,0.258533 -2.83019,-1.041467 -4.565752,-2.888889 z M 11.265772,39.638064 C 10.888832,38.655774 10.74983,30.385363 10.95688,21.259374 L 11.333333,4.6666665 24,4.6267349 c 6.966667,-0.021963 13.734364,0.4586196 15.039328,1.0679597 2.122207,0.9909432 2.333324,2.8952222 2,18.0399314 l -0.372661,16.93204 -14.357775,0.37869 C 15.270579,41.336495 11.792668,41.011134 11.265772,39.638064 Z M 28.109049,23.999999 c 7.310475,0 9.224284,-0.41495 9.224284,-2 0,-1.629629 -2.222222,-2 -12,-2 -9.11111,0 -12,0.427984 -12,1.777778 0,2.526058 1.555184,3.755728 3.706071,2.930354 1.014949,-0.389472 5.996291,-0.708132 11.069645,-0.708132 z M 48,37.4557 c 0,-0.66603 2.581739,-3.867378 5.737196,-7.114105 5.742084,-5.90817 10.069696,-7.674929 18.799463,-7.674929 6.306157,0 18.130008,8.858289 18.130008,13.582788 0,2.233342 -1.622752,2.417212 -21.333334,2.417212 C 57.437159,38.666666 48,38.130975 48,37.4557 Z"
       id="path90" />
  </g>
</svg>
