<?xml version="1.0" encoding="UTF-8" standalone="no"?>
<!-- Created with Inkscape (http://www.inkscape.org/) -->

<svg
   version="1.1"
   id="svg2"
   width="141.33333"
   height="144"
   viewBox="0 0 141.33333 144"
   xmlns="http://www.w3.org/2000/svg"
   xmlns:svg="http://www.w3.org/2000/svg">
  <defs
     id="defs6" />
  <g
     id="g8">
    <path
       style="fill:#000000;stroke-width:1.33333"
       d="m 4.8257927,133.93388 c -0.9459677,-2.46515 0.6713484,-20.54441 1.9061079,-21.30753 0.5525202,-0.34148 4.8138734,1.67137 9.4696734,4.47299 12.850968,7.73304 17.919203,9.3277 27.130029,8.53614 8.596657,-0.73878 16.432806,-4.66816 19.918473,-9.98796 3.047781,-4.6515 4.552424,-22.739271 4.6984,-56.480937 L 68.081449,28.430401 56.707389,19.952784 C 50.451659,15.290095 45.333332,10.766721 45.333332,9.9008427 c 0,-0.8658779 0.846252,-2.2766504 1.880562,-3.1350502 1.490193,-1.2367506 2.804867,-0.7791312 6.333333,2.2045416 2.449024,2.0708979 6.009128,4.5510289 7.911341,5.5114029 1.902213,0.960374 5.925024,4.000696 8.93958,6.756272 l 5.481012,5.010138 -0.632947,33.875926 c -0.348121,18.63176 -0.933999,36.163291 -1.301949,38.958959 -1.393734,10.589518 4.774255,21.526518 13.921365,24.685208 10.331971,3.56784 23.650001,1.36814 34.224161,-5.6527 10.27804,-6.82424 12.17285,-6.48009 13.28394,2.41272 0.49441,3.95721 0.52281,8.90721 0.0631,11 l -0.83582,3.80507 -64.545863,0.1908 C 17.304576,135.68007 5.3843492,135.38945 4.8257927,133.93388 Z"
       id="path775" />
  </g>
</svg>
