<?xml version="1.0" encoding="UTF-8" standalone="no"?>
<!-- Created with Inkscape (http://www.inkscape.org/) -->

<svg
   version="1.1"
   id="svg22"
   width="92"
   height="94.666664"
   viewBox="0 0 92 94.666664"
   xmlns="http://www.w3.org/2000/svg"
   xmlns:svg="http://www.w3.org/2000/svg">
  <defs
     id="defs26" />
  <g
     id="g28">
    <path
       style="fill:#000000;stroke-width:1.33333"
       d="m 23.591804,88.480691 c -1.963352,-1.963353 0.887036,-2.97372 6.778675,-2.402813 l 6.296188,0.610109 6.462222,-8.924904 C 49.462967,69.015161 49.551928,68.757159 47.615127,64.752422 46.528335,62.505256 44.220335,59.34555 42.486237,57.730853 34.291184,50.100068 28,43.19476 28,41.830517 c 0,-1.961673 -3.820865,-5.120763 -4.894696,-4.046933 -0.45664,0.45664 -0.89214,3.083454 -0.967779,5.837364 -0.168108,6.120584 -4.189033,7.960944 -5.549597,2.540025 -0.818848,-3.262546 1.203633,-7.394501 12.301628,-25.132387 4.031091,-6.44288 3.923915,-8.785307 -0.478551,-10.459122 -2.967584,-1.1282732 -5.162764,-0.6608439 -12.678401,2.699668 -15.71213417,7.025461 -15.894119,4.593061 -0.286229,-3.8257291 7.448001,-4.0174012 11.630054,-5.443403 15.963934,-5.443403 5.198072,0 5.971195,0.3943504 6.734355,3.435023 0.612984,2.442325 -0.306397,5.7007641 -3.181329,11.2751431 -2.948267,5.716576 -3.626328,8.171096 -2.5034,9.062077 0.847036,0.672076 5.79665,1.511466 10.999144,1.865309 7.274017,0.494739 11.740044,1.751431 19.333333,5.440191 11.916267,5.788829 26.110479,17.979517 24.827449,21.323037 -0.753758,1.964264 -2.359525,2.136982 -12.907026,1.3883 -10.442187,-0.741208 -12.046168,-0.575058 -12.046168,1.247821 0,1.156587 1.586284,3.350655 3.525074,4.875708 3.403436,2.677142 3.498615,3.122686 2.758267,12.911786 L 68.1832,86.963358 72.077016,86.184595 C 76.348925,85.330212 80,86.254775 80,88.190932 c 0,0.704441 -5.608555,1.074324 -13,0.857348 -8.103285,-0.237872 -12.748887,-0.883842 -12.333333,-1.714949 0.366666,-0.733333 2.930229,-1.130413 5.696806,-0.8824 4.764043,0.427079 5.024066,0.250744 4.915296,-3.333333 -0.06316,-2.081347 0.01779,-4.684267 0.179906,-5.784267 0.792858,-5.37987 -0.48463,-8.033529 -5.721346,-11.884653 -6.13647,-4.51281 -8.459093,-5.193933 -7.213314,-2.115346 0.445125,1.1 1.159332,2.863049 1.587128,3.917886 0.435678,1.074281 -0.48682,2.980352 -2.097246,4.333333 -1.581278,1.328496 -4.625262,4.986592 -6.764408,8.129101 -2.90429,4.266544 -3.43659,5.887398 -2.101693,6.399647 0.983215,0.377295 2.327185,0.585097 2.9866,0.461783 2.546739,-0.476252 4.532271,0.147986 4.532271,1.424916 0,1.461147 -25.639204,1.916351 -27.074863,0.480693 z"
       id="path497" />
  </g>
</svg>
