<?xml version="1.0" encoding="UTF-8" standalone="no"?>
<!-- Created with Inkscape (http://www.inkscape.org/) -->

<svg
   version="1.1"
   id="svg32"
   width="85.333336"
   height="50.666668"
   viewBox="0 0 85.333336 50.666668"
   xmlns="http://www.w3.org/2000/svg"
   xmlns:svg="http://www.w3.org/2000/svg">
  <defs
     id="defs36" />
  <g
     id="g38">
    <path
       style="fill:#000000;stroke-width:1.33333"
       d="M 63.666669,44.281424 C 52.264686,43.90492 52.000002,43.821733 52.000002,40.614757 c 0,-3.19466 0.264408,-3.281423 10,-3.281423 h 10 V 26.000001 c 0,-6.233334 -0.45,-11.355753 -1,-11.383154 -8.833532,-0.440084 -56.37544,-0.08053 -57.201336,0.432603 -0.622599,0.386826 -1.131999,5.708948 -1.131999,11.826936 v 11.123615 l 8.851007,-0.447088 c 9.039944,-0.456632 11.146738,0.497563 9.658952,4.374669 -0.69958,1.823075 -2.763368,2.107539 -12.964651,1.78699 L 6.0793518,43.333334 5.770775,27.030806 C 5.5334188,14.49096 5.894337,10.29614 7.3345209,8.8559558 8.8547724,7.3357042 15.674767,7.0165119 43.603423,7.1584834 l 34.396579,0.1748501 0.369939,18.1766355 c 0.282063,13.858848 -0.03467,18.29304 -1.333333,18.666667 -0.9368,0.269517 -6.953272,0.316672 -13.369939,0.104786 z"
       id="path358" />
  </g>
</svg>
