<?xml version="1.0" encoding="UTF-8" standalone="no"?>
<!-- Created with Inkscape (http://www.inkscape.org/) -->

<svg
   version="1.1"
   id="svg2"
   width="141.33333"
   height="112"
   viewBox="0 0 141.33333 112"
   xmlns="http://www.w3.org/2000/svg"
   xmlns:svg="http://www.w3.org/2000/svg">
  <defs
     id="defs6" />
  <g
     id="g8">
    <path
       style="fill:#000000;stroke-width:1.33333"
       d="m 10.666666,106.0007 c 0,-3.15466 7.150706,-15.293535 9.021572,-15.314823 0.928531,-0.01053 2.689657,2.08079 3.913616,4.647456 C 24.825811,97.9 26.544891,100 27.42203,100 c 0.87714,0 3.270967,-2.197568 5.319615,-4.883485 l 3.724815,-4.883486 4.35356,5.185584 c 2.394458,2.852071 4.539504,4.899637 4.76677,4.550152 0.227265,-0.349488 1.313209,-2.387326 2.413209,-4.52853 2.855505,-5.55838 4.767325,-5.607252 8.2635,-0.21124 1.688408,2.605897 3.669833,4.72231 4.403166,4.70314 0.733334,-0.01917 2.533334,-1.919522 4,-4.223002 3.719601,-5.841838 5.397761,-5.932066 8.930167,-0.480138 1.688408,2.605897 3.72535,4.745422 4.526538,4.7545 0.801189,0.0091 2.587631,-2.083495 3.969872,-4.650162 1.382241,-2.566666 3.196992,-4.666666 4.03278,-4.666666 0.835787,0 3.191668,2.526645 5.235291,5.614768 l 3.715677,5.614765 2.12817,-3.209052 c 6.14504,-9.266075 6.08353,-9.247828 11.30611,-3.353815 l 4.72577,5.333337 4.47123,-5.204487 c 4.16841,-4.852016 4.60059,-5.04512 6.38148,-2.851346 1.05063,1.294227 3.56025,4.132399 5.57691,6.30705 2.01667,2.174653 3.66667,4.807753 3.66667,5.851343 0,3.43575 -3.61931,1.9816 -7.3978,-2.97226 l -3.7143,-4.869705 -3.90661,4.869705 c -2.14863,2.67833 -4.61435,4.8697 -5.47936,4.8697 -0.86502,0 -3.16459,-2.45498 -5.11017,-5.4555 l -3.5374,-5.455495 -3.44391,5.455495 c -1.894145,3.00052 -4.010796,5.4555 -4.703666,5.4555 -0.692871,0 -2.935344,-2.09999 -4.983273,-4.66663 -2.047931,-2.566645 -4.124574,-4.666645 -4.614764,-4.666668 -0.49019,-2.1e-5 -2.189126,2.099961 -3.775412,4.666628 -1.586287,2.56667 -3.675958,4.66667 -4.643712,4.66667 -0.967753,0 -2.998583,-2.1 -4.512953,-4.66667 -1.514371,-2.566667 -3.3247,-4.666667 -4.022955,-4.666667 -0.698255,0 -2.567427,2.1 -4.153713,4.666667 -1.586287,2.56667 -3.601159,4.66667 -4.477493,4.66667 -0.876334,0 -3.19426,-2.469 -5.150946,-5.48666 l -3.557612,-5.486649 -2.735018,4.486649 c -1.50426,2.46766 -3.014383,5.08666 -3.355829,5.81999 -0.341447,0.73333 -1.693827,-0.1341 -3.00529,-1.92762 C 41.73968,102.27885 39.66124,99.578853 38.432388,98.072379 36.208606,95.346199 36.193496,95.345859 35.215422,98 c -1.424613,3.86589 -5.867955,10 -7.243659,10 -0.648992,0 -2.181093,-2.10968 -3.40467,-4.68818 -1.223579,-2.5785 -2.730235,-5.000624 -3.348126,-5.382501 -0.61789,-0.381878 -2.652458,1.727802 -4.521262,4.688181 -3.478775,5.51073 -6.031039,6.94246 -6.031039,3.3832 z M 18.674145,83.002752 C 6.2682267,82.504952 4.0551358,81.568717 7.6351616,78.332775 10.614518,75.639769 23.923177,74.966544 31.523883,77.124351 c 5.746001,1.631264 10.262617,0.901818 9.453109,-1.526703 -0.770721,-2.312167 -3.88131,-3.422933 -12.059617,-4.306395 -4.968504,-0.536722 -8.017978,-1.537306 -8.498051,-2.788356 -0.411818,-1.073181 -0.423195,-2.276804 -0.02528,-2.674717 1.379335,-1.379336 21.617911,2.553407 24.062819,4.675865 2.015565,1.749742 5.36843,2.069799 18.666666,1.781879 8.915391,-0.193027 21.309802,-0.690521 27.543136,-1.105544 6.233333,-0.415021 15.684475,-0.901527 21.002525,-1.081123 5.31806,-0.179597 10.01665,-0.673988 10.44131,-1.098646 0.42466,-0.424659 1.49667,-5.47352 2.38224,-11.219692 1.3678,-8.875164 2.0213,-10.507438 4.34204,-10.845262 4.99531,-0.727156 5.94647,2.462226 5.54355,18.588516 L 134,80.666667 l -17.33334,0.04763 c -9.53333,0.0262 -28.733329,-0.285918 -42.666662,-0.693588 -22.248958,-0.650972 -25.982675,-0.457416 -30.666666,1.589756 -2.933333,1.282035 -7.133333,2.222022 -9.333333,2.088862 -2.2,-0.13316 -9.096634,-0.446619 -15.325854,-0.696571 z M 35.248366,39.592708 C 34.880998,38.635364 34.74983,30.385364 34.956879,21.259375 L 35.333332,4.6666667 71.809914,4.3678161 108.2865,4.0689655 107.59419,21.304848 c -0.38077,9.479735 -1.03168,17.784992 -1.44647,18.456127 -0.99874,1.615994 -23.59929,0.654124 -25.331513,-1.078099 -2.575865,-2.575865 1.45232,-4.260668 10.707336,-4.47838 l 9.143117,-0.215081 0.18383,-11.661374 0.18383,-11.661374 H 71.808645 c -22.179962,0 -29.366562,0.401799 -29.810083,1.666666 C 41.677135,13.25 41.245966,18.5 41.040408,24 l -0.373742,10 9.065798,0.395753 c 6.70892,0.292867 9.27252,0.934459 9.860957,2.4679 1.260218,3.284076 -2.157769,4.427332 -13.301935,4.449263 -7.320615,0.0144 -10.571828,-0.492041 -11.04312,-1.720208 z"
       id="path30" />
  </g>
</svg>
