<?xml version="1.0" encoding="UTF-8" standalone="no"?>
<!-- Created with Inkscape (http://www.inkscape.org/) -->

<svg
   version="1.1"
   id="svg52"
   width="196"
   height="441.33334"
   viewBox="0 0 196 441.33334"
   xmlns="http://www.w3.org/2000/svg"
   xmlns:svg="http://www.w3.org/2000/svg">
  <defs
     id="defs56" />
  <g
     id="g58">
    <path
       style="fill:#000000;stroke-width:1.33333"
       d="m 83.804975,431.06601 c -65.65861,-0.38026 -72.943546,-0.63528 -73.689671,-2.57966 -1.6200812,-4.22186 1.887438,-6.15273 9.831272,-5.41205 10.7576,1.00303 21.932093,-0.58323 22.427504,-3.18367 0.24968,-1.31058 -3.085565,-4.70265 -8.807443,-8.95748 -6.87466,-5.11204 -10.581204,-9.14046 -14.620949,-15.89062 C 12.448497,384.18614 10.770685,378.30114 10.190439,364.33314 9.9487417,358.51487 9.3136767,353.04689 8.7791833,352.18206 8.2446899,351.31723 8.1713256,329.47247 8.6161516,303.63816 9.3711708,259.78864 10.888979,96.833193 10.680545,82.000001 10.485381,68.111148 13.310222,48.956819 16.61982,41.727706 22.413031,29.073666 35.946044,17.674766 50.933909,12.82484 64.973893,8.2816387 107.65939,6.1168989 122,9.2208151 c 3.66667,0.7936219 9.80646,2.0721249 13.64399,2.8411179 9.24457,1.852495 21.04469,7.267269 27.94612,12.823754 4.72158,3.801449 13.74322,15.108003 13.74322,17.223982 0,0.353456 0.96666,2.873377 2.14811,5.599824 1.18147,2.726445 2.35048,7.057174 2.5978,9.623841 0.24733,2.566667 1.17573,9.23626 2.06312,14.821319 1.80416,11.355196 1.20221,14.512015 -2.76719,14.512015 -2.33854,0 -2.71217,-0.865071 -2.73532,-6.333333 -0.0777,-18.365303 -5.26545,-34.525842 -14.45994,-45.04498 -3.39895,-3.888628 -6.61351,-7.119309 -7.14346,-7.179293 -0.52996,-0.05999 -4.12996,-1.579156 -8,-3.375938 -6.68953,-3.105806 -16.63387,-5.952949 -28.36978,-8.122486 -2.93334,-0.542266 -14.27866,-0.87065 -25.211843,-0.729742 -41.525824,0.535188 -63.239366,9.215471 -72.006992,28.785771 -5.91396,13.200605 -6.214246,18.427494 -6.797392,118.318123 -1.264206,216.55294 -1.37632,212.55588 6.360625,226.76654 9.957284,18.28878 28.520692,23.91721 79.032882,23.96274 26.1996,0.0236 33.49065,-0.78286 47.05976,-5.20544 9.31592,-3.03633 13.05761,-5.44313 18.17948,-11.69369 6.96016,-8.49396 10.05014,-18.36791 10.05014,-32.11496 v -11.36664 h 4 c 3.91728,0 4,0.13949 4,6.7446 0,10.51444 -2.69677,25.39465 -5.65608,31.20899 -4.07728,8.01088 -11.4465,16.18232 -19.29049,21.39044 -3.87939,2.57576 -7.05343,5.57708 -7.05343,6.66958 0,2.12348 0.16563,2.14842 16.66667,2.50967 5.86667,0.1284 11.41667,0.69865 12.33333,1.26715 1.81728,1.12702 2.2737,5.6848 0.66667,6.65744 -2.19952,1.33124 -29.69163,1.68732 -99.195025,1.2848 z M 124.00815,402.8889 c -2.8745,-0.95235 -1.11956,-4.02553 3.307,-5.79108 l 4.64849,-1.85407 -4.55201,-6.75934 c -3.49155,-5.18466 -4.86555,-9.02191 -5.89788,-16.47127 -1.43478,-10.3536 -2.74841,-12.84795 -6.09079,-11.56536 -2.89271,1.11004 -2.75702,11.50659 0.21783,16.68997 2.1251,3.70276 2.14394,4.46899 0.23839,9.69526 -1.13799,3.1211 -2.67295,5.87604 -3.41104,6.12206 -3.19468,1.0649 -6.1607,-13.08496 -3.13481,-14.95506 0.73334,-0.45323 1.33334,-5.2748 1.33334,-10.71462 0,-9.00594 0.29014,-10.08069 3.24392,-12.01608 4.72097,-3.09329 8.366,-0.66594 10.25295,6.82778 1.09463,4.3472 2.51931,6.5323 5.14394,7.88954 1.9965,1.03244 5.61143,4.1578 8.03317,6.94527 8.23439,9.47788 8.44855,9.247 7.37406,-7.94984 -0.66302,-10.61117 -0.50988,-15.61793 0.49672,-16.24004 0.80038,-0.49467 1.45524,-1.81165 1.45524,-2.92664 0,-1.53029 -0.92211,-1.82472 -3.76158,-1.20108 -3.15166,0.69223 -4.01641,0.26685 -5.33333,-2.62345 -2.30123,-5.05066 -1.95503,-7.72062 1.69935,-13.10564 3.02174,-4.45278 3.12401,-5.10226 1.34154,-8.51939 -3.36253,-6.44628 -2.74674,-7.03248 7.38735,-7.03248 10.26531,0 11.40921,1.1583 6.76712,6.85229 -2.53643,3.11117 -2.53511,3.18105 0.1132,6.02083 3.12197,3.34765 4.79352,9.91073 5.82128,22.85636 0.60827,7.66185 0.37147,9.41841 -1.35925,10.08255 -1.75916,0.67505 -2.06751,3.38365 -1.91944,16.86048 0.14046,12.78384 -0.26458,16.72926 -1.98732,19.35853 -1.19007,1.81625 -2.89992,3.37833 -3.79968,3.47128 -3.97832,0.41095 -26.41759,0.45419 -27.62779,0.0532 z m -81.542279,-5.12977 c -2.022814,-4.94271 -1.802142,-21.25858 0.555774,-41.09246 2.155659,-18.13256 1.642902,-33.12196 -1.214149,-35.49309 -1.434465,-1.19051 -2.698353,-1.19571 -5.274953,-0.0217 -3.121018,1.42203 -3.354706,1.30595 -2.960516,-1.47064 0.348382,-2.4539 1.269085,-3.01453 4.950745,-3.01453 6.979167,0 9.602351,4.57067 10.836057,18.88086 3.892792,45.15385 4.209811,53.07581 2.365816,59.11914 -2.295785,7.52399 -6.825926,9.03707 -9.258774,3.09246 z m 44.106613,2.57421 c -0.0518,-0.55 -0.01469,-5.61185 0.08248,-11.24856 0.193325,-11.2154 -0.958581,-12.99993 -9.794777,-15.17411 l -3.806483,-0.9366 0.776729,-9.48704 c 0.4272,-5.21786 1.167028,-18.03702 1.64406,-28.48702 C 76.313612,316.61806 76.436581,316 79.254793,316 c 4.376448,0 9.828702,6.48783 10.645735,12.66772 0.387733,2.93277 1.013405,20.48229 1.390381,38.99895 0.670967,32.95722 0.629466,33.66667 -1.969414,33.66667 -1.460154,0 -2.697207,-0.45 -2.749007,-1 z M 178.80423,271.66667 C 178.76396,228.95 178.56655,170.72294 178.36552,142.27318 L 178,90.546353 l 4,0.393491 4,0.393491 L 186.34229,132 c 0.18826,22.36667 0.41763,41.86667 0.50972,43.33334 C 186.94415,176.8 186.57577,204.1 186.03348,236 c -0.54229,31.9 -0.85504,60.4 -0.69499,63.33334 0.16006,2.93333 0.24004,6.23333 0.17775,7.33333 -0.44179,7.80125 0.0341,40.60582 0.60243,41.52534 0.38796,0.62773 -1.08262,1.14133 -3.26794,1.14133 h -3.97332 l -0.0732,-77.66667 z m -78.07568,29.76469 C 98.84278,298.44411 96.741329,296 96.058655,296 c -0.682674,0 -2.293396,1.78119 -3.579383,3.95819 -2.935428,4.96928 -6.057545,6.27743 -7.812605,3.27344 -0.733334,-1.2552 -2.549112,-3.75015 -4.035063,-5.54435 l -2.701731,-3.26218 -2.631602,4.97044 c -1.447383,2.73373 -3.202336,5.03808 -3.899898,5.12078 -0.697561,0.0827 -2.45316,-2.09965 -3.901329,-4.84965 -1.448171,-2.75 -3.047707,-5 -3.554525,-5 -0.506819,0 -2.509734,2.4 -4.450922,5.33333 -1.941188,2.93334 -4.071984,5.33334 -4.735102,5.33334 -0.663119,0 -2.503542,-2.1 -4.089828,-4.66667 -3.502102,-5.66652 -4.678322,-5.80089 -7.24978,-0.82824 -1.998971,3.86559 -5.489163,6.20201 -6.594066,4.41424 -0.32775,-0.53032 1.045968,-3.95411 3.052708,-7.60844 4.37078,-7.95931 8.328519,-9.33229 11.014196,-3.82096 2.567398,5.2686 4.413787,5.24409 7.567135,-0.1004 3.407245,-5.77488 6.148536,-5.99812 8.876473,-0.72287 1.137664,2.2 2.637664,4 3.333334,4 0.695669,0 2.195669,-1.8 3.333333,-4 2.745904,-5.31 6.153861,-5.0641 9.240089,0.66667 1.382242,2.56667 2.969748,4.66667 3.527792,4.66667 0.558046,0 2.312499,-2.1 3.898786,-4.66667 C 92.34116,289.95728 94.62366,288 96.108745,288 c 1.406858,0 2.560902,0.45 2.564544,1 0.0036,0.55 1.394531,2.73448 3.090861,4.85442 l 3.08423,3.85441 2.86418,-4.85441 c 3.58613,-6.07806 6.10345,-6.12976 9.94185,-0.20426 3.3553,5.17974 5.76705,5.9398 6.95645,2.19235 0.4348,-1.36995 2.05018,-3.61995 3.58972,-5 2.77056,-2.48353 2.84123,-2.45745 6.91505,2.55168 l 4.11586,5.06085 4.23639,-5.04602 4.23639,-5.04602 6.1548,6.65184 c 3.38513,3.65851 5.99477,7.54494 5.79921,8.63652 -0.6362,3.55111 -4.31488,2.85427 -6.75703,-1.27996 -3.02852,-5.12686 -4.7287,-5.07746 -9.4244,0.27386 l -3.78364,4.3119 -4.17993,-4.97864 c -2.29897,-2.73825 -4.58101,-4.97861 -5.0712,-4.97857 -0.49019,3e-5 -2.18913,2.10005 -3.77541,4.66672 -3.62453,5.86461 -5.50588,5.86641 -9.4948,0.009 -1.74453,-2.56165 -3.60646,-4.66165 -4.13763,-4.66666 -0.53117,-0.005 -1.84161,1.68458 -2.91208,3.75466 -3.80899,7.36578 -5.59622,7.68304 -9.39361,1.66759 z M 54.353915,275.2428 c -0.404158,-0.40416 -5.141402,-0.84912 -10.52721,-0.98881 -7.809504,-0.20256 -9.875841,-0.68853 -10.204566,-2.4 -0.766312,-3.98972 6.647245,-5.65497 21.222421,-4.76701 10.152813,0.61854 13.216959,0.42633 12.811824,-0.80367 -0.295748,-0.89789 -4.04266,-1.95813 -8.427769,-2.38475 -9.887864,-0.96196 -12.561948,-2.13938 -12.561948,-5.5312 0,-2.53296 0.56936,-2.63056 10.333333,-1.77128 7.255595,0.63852 11.491041,1.73839 14.220275,3.69275 3.766945,2.69745 4.837144,2.75543 34.666665,1.87781 26.62709,-0.7834 34.52723,-1.15014 43.11306,-2.0014 1.03232,-0.1024 1.69591,-2.32201 1.74351,-5.8319 0.0423,-3.11667 0.50244,-8.06667 1.02261,-11 C 152.6564,238.31296 152.98441,238 157.35595,238 H 162 v 18 18 l -26.66667,-0.38176 c -14.66666,-0.20997 -33.65809,-0.70566 -42.203158,-1.10156 -12.074632,-0.5594 -16.382512,-0.28789 -19.333333,1.21852 -3.685718,1.88159 -17.961962,2.98856 -19.442924,1.5076 z m 98.979415,-65.156 c 0,-12.92353 -1.32014,-16.25261 -6.92004,-17.4506 -2.4273,-0.51926 -5.16329,-1.5483 -6.07996,-2.28676 -1.90738,-1.53654 -2.2462,-7.16722 -0.49634,-8.24869 0.64368,-0.39781 1.60817,-11.23323 2.14332,-24.07869 0.8641,-20.74139 1.2275,-23.35539 3.24689,-23.35539 2.89536,0 8.8358,6.18473 10.71359,11.15417 0.80977,2.143 1.81926,19.26898 2.29886,39 L 159.09473,220 h -2.88069 c -2.69375,0 -2.88071,-0.64337 -2.88071,-9.9132 z m -110.858874,3.13078 c -1.339169,-4.46975 -1.189353,-10.04126 0.833585,-31 3.103351,-32.1524 3.128983,-37.0012 0.219076,-41.44228 -2.054865,-3.13612 -2.881473,-3.43399 -7.25641,-2.61483 -4.612428,0.86364 -4.808794,0.76928 -2.983664,-1.43381 2.694972,-3.25306 6.928201,-4.64807 9.699157,-3.19624 5.30828,2.78124 7.29098,12.59081 9.93136,49.13625 1.160429,16.06147 0.906405,23.89297 -1.005273,30.99241 -1.08729,4.03788 -1.973578,5.00759 -4.576824,5.00759 -2.622714,0 -3.53472,-1.02235 -4.861007,-5.44909 z M 119,124.45029 c -2.96119,-1.19486 -1.77995,-4.22817 3.09433,-7.94596 8.56754,-6.53479 14.78608,-17.850523 11.57234,-21.057901 -0.55,-0.548909 -1.60107,-3.134189 -2.3357,-5.745066 -1.93825,-6.888504 -4.46263,-7.983206 -11.87842,-5.151091 -3.39233,1.295544 -7.09257,3.280229 -8.22276,4.410411 -1.85094,1.850946 -2.13056,1.765434 -2.81756,-0.861646 -0.53943,-2.062794 -1.39441,-2.64911 -2.92079,-2.002985 -1.18696,0.502447 -3.51697,1.208023 -5.17781,1.567947 -1.660837,0.359924 -3.334426,1.16364 -3.719087,1.786034 -0.38466,0.622395 0.824205,5.545862 2.68637,10.941037 3.662217,10.61039 4.186687,14.95655 1.970177,16.32643 -0.77857,0.48118 -1.963718,2.31659 -2.633666,4.07869 C 97.701805,123.20445 96.397881,124 93.366335,124 c -5.032146,0 -5.036074,-0.91665 -0.02683,-6.26102 4.495633,-4.7964 4.656564,-5.72084 2.215858,-12.72867 -2.68317,-7.704007 -10.222028,-14.831257 -10.222028,-9.663926 0,1.107179 -1.256566,3.057179 -2.79237,4.333334 -1.535804,1.276152 -5.179536,5.801762 -8.097184,10.056902 -2.917647,4.25514 -6.67925,8.25918 -8.359116,8.89786 -1.679867,0.63868 -3.417304,2.10721 -3.860971,3.26338 -0.783921,2.04287 -4.989161,2.89223 -6.557025,1.32436 -0.427778,-0.42777 3.95696,-5.51251 9.743862,-11.29941 5.786903,-5.78691 10.892267,-11.998334 11.345252,-13.803175 0.605095,-2.410886 -0.335089,-4.965646 -3.54363,-9.6291 -2.650627,-3.852554 -4.402274,-8.071404 -4.456364,-10.733174 -0.1078,-5.305107 -1.39724,-5.928936 -8.811568,-4.263047 -4.350262,0.977439 -5.977742,0.872659 -6.805959,-0.438177 -1.478867,-2.340633 2.33386,-5.01368 7.449913,-5.223025 3.230756,-0.1322 2.831362,-0.374128 -1.921506,-1.163927 -3.370063,-0.560013 -7.068422,-0.44186 -8.437522,0.26956 C 46.771901,68.735218 44,67.275497 44,63.658392 44,59.633806 55.673983,48.000001 59.712465,48.000001 c 3.603414,0 3.95561,-3.502466 0.463644,-4.610772 -1.369806,-0.43476 -3.919806,-0.278352 -5.666666,0.347572 -4.386168,1.571624 -18.82823,0.01489 -19.527159,-2.104854 -0.426941,-1.294846 1.986031,-1.655097 10.098419,-1.507665 5.862672,0.106547 11.291468,-0.196917 12.063992,-0.674363 0.772524,-0.477446 3.517896,0.01491 6.100826,1.09413 3.124383,1.305449 4.981831,1.500112 5.549507,0.581593 0.496925,-0.804043 2.875615,-1.034027 5.695788,-0.5507 6.895831,1.18182 20.292957,0.789541 23.028137,-0.674283 3.847317,-2.059022 4.158297,0.968602 0.402903,3.922596 -2.821219,2.219171 -4.010657,2.442028 -6.639885,1.244071 -2.363175,-1.076733 -3.69523,-1.050871 -5.080304,0.09864 -1.343398,1.114921 -2.896114,1.170672 -5.459618,0.196029 -5.292173,-2.012081 -10.075382,-1.709193 -10.075382,0.638006 0,1.1 0.958604,2 2.13023,2 1.171627,0 7.321627,2.55 13.666667,5.666666 L 98,59.333334 112.66667,59.142017 c 8.06666,-0.105227 18.56023,-0.320739 23.31904,-0.47892 8.60512,-0.286032 8.67928,-0.257296 13.57593,5.260551 2.70796,3.051485 5.29933,7.466998 5.75861,9.812253 0.98235,5.016234 3.46407,10.54225 5.33315,11.875246 1.96221,1.39942 -1.10448,3.977045 -3.59473,3.021448 -1.12966,-0.433488 -2.68938,-2.103158 -3.46606,-3.710376 -1.33478,-2.762167 -1.4168,-2.776164 -1.49738,-0.255551 -0.0469,1.466667 1.15178,4.695768 2.66372,7.175781 2.36181,3.874044 2.61902,5.75193 1.82628,13.333331 -1.15855,11.07962 -5.98266,20.15756 -10.71192,20.15756 -3.96352,0 -4.14395,-2.73845 -0.40347,-6.12354 5.06357,-4.58247 9.6082,-17.97413 6.70801,-19.766546 -3.13338,-1.936541 -9.07217,1.100716 -13.51118,6.909996 C 136.1,109.71221 132.2,114.46018 130,116.90429 c -2.2,2.44411 -4.77366,5.3405 -5.71924,6.43644 -1.79219,2.07716 -2.50936,2.22785 -5.28076,1.10956 z"
       id="path80" />
  </g>
</svg>
